<svg xmlns="http://www.w3.org/2000/svg" viewBox="0 0 810 350" font-family="-apple-system, BlinkMacSystemFont, 'Segoe UI', Roboto, Helvetica, Arial, sans-serif">
  <defs>
    <marker id="arrow" viewBox="0 0 10 10" refX="9" refY="5" markerWidth="7" markerHeight="7" orient="auto-start-reverse">
      <path d="M0,0 L10,5 L0,10 z" fill="#555"/>
    </marker>
  </defs>

  <rect x="60" y="16" width="300" height="44" rx="6" fill="none" stroke="#444" stroke-width="1.5"/>
  <text x="210" y="43" text-anchor="middle" font-size="12" fill="#222">working artifact</text>
  <line x1="210" y1="60" x2="210" y2="78" stroke="#555" stroke-width="1.5" marker-end="url(#arrow)"/>

  <rect x="60" y="82" width="300" height="44" rx="6" fill="none" stroke="#444" stroke-width="1.5"/>
  <text x="210" y="109" text-anchor="middle" font-size="12" fill="#222">controlled mutation</text>
  <line x1="210" y1="126" x2="210" y2="144" stroke="#555" stroke-width="1.5" marker-end="url(#arrow)"/>

  <rect x="60" y="148" width="300" height="44" rx="6" fill="none" stroke="#444" stroke-width="1.5"/>
  <text x="210" y="175" text-anchor="middle" font-size="12" fill="#222">gold and hidden verifier</text>
  <line x1="210" y1="192" x2="210" y2="210" stroke="#555" stroke-width="1.5" marker-end="url(#arrow)"/>

  <rect x="60" y="214" width="300" height="44" rx="6" fill="none" stroke="#444" stroke-width="1.5"/>
  <text x="210" y="241" text-anchor="middle" font-size="12" fill="#222">repeated solo-agent runs</text>
  <line x1="210" y1="258" x2="210" y2="276" stroke="#555" stroke-width="1.5" marker-end="url(#arrow)"/>

  <rect x="60" y="280" width="300" height="44" rx="6" fill="none" stroke="#444" stroke-width="1.5"/>
  <text x="210" y="299" text-anchor="middle" font-size="12" fill="#222">identify a stable correct</text>
  <text x="210" y="315" text-anchor="middle" font-size="12" fill="#222">or defective trajectory</text>

  <line x1="360" y1="302" x2="410" y2="302" stroke="#555" stroke-width="1.5"/>
  <line x1="410" y1="302" x2="410" y2="38" stroke="#555" stroke-width="1.5"/>
  <line x1="410" y1="38" x2="446" y2="38" stroke="#555" stroke-width="1.5" marker-end="url(#arrow)"/>

  <rect x="450" y="16" width="300" height="44" rx="6" fill="none" stroke="#444" stroke-width="1.5"/>
  <text x="600" y="43" text-anchor="middle" font-size="12" fill="#222">calibrate the redirection threshold</text>
  <line x1="600" y1="60" x2="600" y2="78" stroke="#555" stroke-width="1.5" marker-end="url(#arrow)"/>

  <rect x="450" y="82" width="300" height="44" rx="6" fill="none" stroke="#444" stroke-width="1.5"/>
  <text x="600" y="109" text-anchor="middle" font-size="12" fill="#222">boolean verdict and intervention replay</text>
  <line x1="600" y1="126" x2="600" y2="144" stroke="#555" stroke-width="1.5" marker-end="url(#arrow)"/>

  <rect x="450" y="148" width="300" height="44" rx="6" fill="none" stroke="#444" stroke-width="1.5"/>
  <text x="600" y="175" text-anchor="middle" font-size="12" fill="#222">human-agent pilot</text>
  <line x1="600" y1="192" x2="600" y2="210" stroke="#555" stroke-width="1.5" marker-end="url(#arrow)"/>

  <rect x="450" y="214" width="300" height="44" rx="6" fill="none" stroke="#444" stroke-width="1.5"/>
  <text x="600" y="241" text-anchor="middle" font-size="12" fill="#222">positive and negative-control variants</text>
  <line x1="600" y1="258" x2="600" y2="276" stroke="#555" stroke-width="1.5" marker-end="url(#arrow)"/>

  <rect x="450" y="280" width="300" height="44" rx="6" fill="none" stroke="#444" stroke-width="1.5"/>
  <text x="600" y="307" text-anchor="middle" font-size="12" fill="#222">ordered sequence</text>
</svg>
