<svg xmlns="http://www.w3.org/2000/svg" viewBox="0 0 720 360" font-family="-apple-system, BlinkMacSystemFont, 'Segoe UI', Roboto, Helvetica, Arial, sans-serif">
  <!-- the object: a torus rendered by a parametric program (3/4 view), one determinate solid -->
<g fill="none" stroke-linecap="round" stroke-linejoin="round">
  <path d="M 389.98 115.95 L 389.79 116.06 L 389.60 116.16 L 389.41 116.27 L 389.21 116.37 L 389.01 116.48 L 388.80 116.59 L 388.59 116.69 L 388.38 116.80 L 388.16 116.91 L 387.94 117.01 L 387.71 117.12 L 387.48 117.23 L 387.25 117.33 L 387.01 117.44 L 386.77 117.54 L 386.53 117.65 L 386.28 117.76 L 386.03 117.86 L 385.77 117.96 L 385.52 118.07 L 385.26 118.17 L 384.99 118.27 L 384.72 118.38 L 384.45 118.48 L 384.18 118.58 L 383.90 118.68 L 383.62 118.78 L 383.34 118.88 L 383.05 118.98 L 382.76 119.07 L 382.47 119.17 L 382.17 119.26 L 381.87 119.36 L 381.57 119.45 L 381.27 119.54 L 380.96 119.63 L 380.65 119.72 L 380.34 119.81 L 380.02 119.90 L 379.70 119.99 L 379.38 120.07 L 379.06 120.16 L 378.73 120.24 L 378.41 120.32 L 378.08 120.40 L 377.74 120.48 L 377.41 120.56 L 377.07 120.64 L 376.73 120.71 L 376.39 120.79 L 376.05 120.86 L 375.71 120.93 L 375.36 121.00 L 375.01 121.07 L 374.66 121.13 L 374.31 121.20 L 373.95 121.26 L 373.60 121.33 L 373.24 121.39 L 372.88 121.45 L 372.52 121.50 L 372.15 121.56 L 371.79 121.61 L 371.42 121.67 L 371.06 121.72 L 370.69 121.77 L 370.32 121.82 L 369.95 121.86 L 369.57 121.91 L 369.20 121.95 L 368.83 121.99 L 368.45 122.03 L 368.07 122.07 L 367.69 122.10 L 367.32 122.14 L 366.94 122.17 L 366.56 122.20 L 366.17 122.23 L 365.79 122.26 L 365.41 122.29 L 365.03 122.31 L 364.64 122.33 L 364.26 122.35 L 363.87 122.37 L 363.49 122.39 L 363.10 122.40 L 362.71 122.42 L 362.33 122.43 L 361.94 122.44 L 361.55 122.45 L 361.16 122.45 L 360.78 122.46 L 360.39 122.46 L 360.00 122.46 L 359.61 122.46 L 359.22 122.46 L 358.84 122.45 L 358.45 122.45 L 358.06 122.44 L 357.67 122.43 L 357.29 122.42 L 356.90 122.40 L 356.51 122.39 L 356.13 122.37 L 355.74 122.35 L 355.36 122.33 L 354.97 122.31 L 354.59 122.29 L 354.21 122.26 L 353.83 122.23 L 353.44 122.20 L 353.06 122.17 L 352.68 122.14 L 352.31 122.10 L 351.93 122.07 L 351.55 122.03 L 351.17 121.99 L 350.80 121.95 L 350.43 121.91 L 350.05 121.86 L 349.68 121.82 L 349.31 121.77 L 348.94 121.72 L 348.58 121.67 L 348.21 121.61 L 347.85 121.56 L 347.48 121.50 L 347.12 121.45 L 346.76 121.39 L 346.40 121.33 L 346.05 121.26 L 345.69 121.20 L 345.34 121.13 L 344.99 121.07 L 344.64 121.00 L 344.29 120.93 L 343.95 120.86 L 343.61 120.79 L 343.27 120.71 L 342.93 120.64 L 342.59 120.56 L 342.26 120.48 L 341.92 120.40 L 341.59 120.32 L 341.27 120.24 L 340.94 120.16 L 340.62 120.07 L 340.30 119.99 L 339.98 119.90 L 339.66 119.81 L 339.35 119.72 L 339.04 119.63 L 338.73 119.54 L 338.43 119.45 L 338.13 119.36 L 337.83 119.26 L 337.53 119.17 L 337.24 119.07 L 336.95 118.98 L 336.66 118.88 L 336.38 118.78 L 336.10 118.68 L 335.82 118.58 L 335.55 118.48 L 335.28 118.38 L 335.01 118.27 L 334.74 118.17 L 334.48 118.07 L 334.23 117.96 L 333.97 117.86 L 333.72 117.76 L 333.47 117.65 L 333.23 117.54 L 332.99 117.44 L 332.75 117.33 L 332.52 117.23 L 332.29 117.12 L 332.06 117.01 L 331.84 116.91 L 331.62 116.80 L 331.41 116.69 L 331.20 116.59 L 330.99 116.48 L 330.79 116.37 L 330.59 116.27 L 330.40 116.16 L 330.21 116.06" fill="none" stroke="#c2c2c2" stroke-width="1.3" stroke-linecap="round" stroke-linejoin="round" stroke-dasharray="4 4"/>
  <path d="M 326.72 116.00 L 326.72 116.13 L 326.72 116.25 L 326.71 116.38 L 326.71 116.51 L 326.70 116.63 L 326.69 116.76 L 326.67 116.88 L 326.66 117.00 L 326.64 117.12 L 326.62 117.24 L 326.60 117.35 L 326.58 117.46 L 326.56 117.57 L 326.53 117.68 L 326.51 117.79 L 326.48 117.89 L 326.46 117.98 L 326.43 118.08 L 326.40 118.17 L 326.37 118.26 L 326.35 118.34 L 326.32 118.42 L 326.29 118.49 L 326.26 118.56 L 326.23 118.63 L 326.21 118.69 L 326.18 118.75 L 326.16 118.81 L 326.13 118.86 L 326.11 118.90 L 326.09 118.94 L 326.07 118.98 L 326.05 119.01 L 326.03 119.04 L 326.02 119.06 L 326.01 119.08 L 326.00 119.10 L 325.99 119.11 L 325.99 119.12 L 325.99 119.12 L 325.99 119.12 L 325.99 119.11 L 326.00 119.10 L 326.01 119.09 L 326.02 119.07 L 326.04 119.05 L 326.06 119.02 L 326.08 118.99 L 326.11 118.96 L 326.14 118.93 L 326.18 118.89 L 326.22 118.84 L 326.26 118.80 L 326.30 118.75 L 326.36 118.70 L 326.41 118.64 L 326.47 118.59 L 326.53 118.53 L 326.60 118.46 L 326.67 118.40 L 326.74 118.33 L 326.82 118.26 L 326.91 118.18 L 327.00 118.11 L 327.09 118.03 L 327.18 117.95 L 327.28 117.87 L 327.39 117.79 L 327.50 117.70 L 327.61 117.61 L 327.73 117.53 L 327.85 117.44 L 327.98 117.34 L 328.11 117.25 L 328.25 117.16 L 328.39 117.06 L 328.53 116.96 L 328.68 116.86 L 328.83 116.77 L 328.99 116.67 L 329.15 116.56 L 329.32 116.46 L 329.49 116.36 L 329.66 116.26 L 329.84 116.15 L 330.02 116.05" fill="none" stroke="#c2c2c2" stroke-width="1.3" stroke-linecap="round" stroke-linejoin="round" stroke-dasharray="4 4"/>
  <path d="M 389.79 115.94 L 389.98 116.05 L 390.16 116.15 L 390.34 116.26 L 390.51 116.36 L 390.68 116.46 L 390.85 116.56 L 391.01 116.67 L 391.17 116.77 L 391.32 116.86 L 391.47 116.96 L 391.61 117.06 L 391.75 117.16 L 391.89 117.25 L 392.02 117.34 L 392.15 117.44 L 392.27 117.53 L 392.39 117.61 L 392.50 117.70 L 392.61 117.79 L 392.72 117.87 L 392.82 117.95 L 392.91 118.03 L 393.00 118.11 L 393.09 118.18 L 393.18 118.26 L 393.26 118.33 L 393.33 118.40 L 393.40 118.46 L 393.47 118.53 L 393.53 118.59 L 393.59 118.64 L 393.64 118.70 L 393.70 118.75 L 393.74 118.80 L 393.78 118.84 L 393.82 118.89 L 393.86 118.93 L 393.89 118.96 L 393.92 118.99 L 393.94 119.02 L 393.96 119.05 L 393.98 119.07 L 393.99 119.09 L 394.00 119.10 L 394.01 119.11 L 394.01 119.12 L 394.01 119.12 L 394.01 119.12 L 394.01 119.11 L 394.00 119.10 L 393.99 119.08 L 393.98 119.06 L 393.97 119.04 L 393.95 119.01 L 393.93 118.98 L 393.91 118.94 L 393.89 118.90 L 393.87 118.86 L 393.84 118.81 L 393.82 118.75 L 393.79 118.69 L 393.77 118.63 L 393.74 118.56 L 393.71 118.49 L 393.68 118.42 L 393.65 118.34 L 393.63 118.26 L 393.60 118.17 L 393.57 118.08 L 393.54 117.98 L 393.52 117.89 L 393.49 117.79 L 393.47 117.68 L 393.44 117.57 L 393.42 117.46 L 393.40 117.35 L 393.38 117.24 L 393.36 117.12 L 393.34 117.00 L 393.33 116.88 L 393.31 116.76 L 393.30 116.63 L 393.29 116.51 L 393.29 116.38 L 393.28 116.25 L 393.28 116.13" fill="none" stroke="#c2c2c2" stroke-width="1.3" stroke-linecap="round" stroke-linejoin="round" stroke-dasharray="4 4"/>
  <path d="M 393.28 116.00 L 393.28 116.15 L 393.27 116.31 L 393.27 116.46 L 393.26 116.62 L 393.25 116.77 L 393.23 116.92 L 393.22 117.08 L 393.20 117.23 L 393.17 117.38 L 393.15 117.54 L 393.12 117.69 L 393.10 117.84 L 393.06 118.00 L 393.03 118.15 L 392.99 118.30 L 392.95 118.45 L 392.91 118.61 L 392.87 118.76 L 392.82 118.91 L 392.77 119.06 L 392.72 119.21 L 392.67 119.36 L 392.61 119.52 L 392.55 119.67 L 392.49 119.82 L 392.42 119.97 L 392.36 120.12 L 392.29 120.27 L 392.22 120.42 L 392.14 120.56 L 392.07 120.71 L 391.99 120.86 L 391.91 121.01 L 391.82 121.16 L 391.74 121.30 L 391.65 121.45 L 391.56 121.60 L 391.46 121.74 L 391.37 121.89 L 391.27 122.03 L 391.17 122.18 L 391.07 122.32 L 390.96 122.46 L 390.85 122.61 L 390.74 122.75 L 390.63 122.89 L 390.52 123.03 L 390.40 123.17 L 390.28 123.31 L 390.16 123.45 L 390.04 123.59 L 389.91 123.73 L 389.78 123.87 L 389.65 124.01 L 389.52 124.14 L 389.38 124.28 L 389.24 124.41 L 389.11 124.55 L 388.96 124.68 L 388.82 124.82 L 388.67 124.95 L 388.52 125.08 L 388.37 125.21 L 388.22 125.34 L 388.07 125.47 L 387.91 125.60 L 387.75 125.73 L 387.59 125.86 L 387.42 125.99 L 387.26 126.11 L 387.09 126.24 L 386.92 126.37 L 386.75 126.49 L 386.58 126.61 L 386.40 126.74 L 386.22 126.86 L 386.04 126.98 L 385.86 127.10 L 385.68 127.22 L 385.49 127.34 L 385.30 127.45 L 385.11 127.57 L 384.92 127.68 L 384.73 127.80 L 384.53 127.91 L 384.34 128.03 L 384.14 128.14 L 383.94 128.25 L 383.74 128.36 L 383.53 128.47 L 383.32 128.58 L 383.12 128.69 L 382.91 128.79 L 382.70 128.90 L 382.48 129.00 L 382.27 129.10 L 382.05 129.21 L 381.83 129.31 L 381.61 129.41 L 381.39 129.51 L 381.17 129.61 L 380.94 129.70 L 380.72 129.80 L 380.49 129.90 L 380.26 129.99 L 380.03 130.08 L 379.79 130.18 L 379.56 130.27 L 379.32 130.36 L 379.09 130.45 L 378.85 130.53 L 378.61 130.62 L 378.37 130.71 L 378.12 130.79 L 377.88 130.87 L 377.63 130.95 L 377.39 131.04 L 377.14 131.12 L 376.89 131.19 L 376.64 131.27 L 376.39 131.35 L 376.13 131.42 L 375.88 131.50 L 375.62 131.57 L 375.37 131.64 L 375.11 131.71 L 374.85 131.78 L 374.59 131.85 L 374.33 131.92 L 374.06 131.98 L 373.80 132.05 L 373.54 132.11 L 373.27 132.17 L 373.00 132.23 L 372.73 132.29 L 372.47 132.35 L 372.20 132.41 L 371.93 132.46 L 371.65 132.52 L 371.38 132.57 L 371.11 132.62 L 370.83 132.67 L 370.56 132.72 L 370.28 132.77 L 370.01 132.82 L 369.73 132.86 L 369.45 132.91 L 369.17 132.95 L 368.89 132.99 L 368.61 133.03 L 368.33 133.07 L 368.05 133.11 L 367.77 133.15 L 367.49 133.18 L 367.20 133.22 L 366.92 133.25 L 366.63 133.28 L 366.35 133.31 L 366.06 133.34 L 365.78 133.37 L 365.49 133.39 L 365.21 133.42 L 364.92 133.44 L 364.63 133.46 L 364.34 133.48 L 364.06 133.50 L 363.77 133.52 L 363.48 133.54 L 363.19 133.55 L 362.90 133.57 L 362.61 133.58 L 362.32 133.59 L 362.03 133.60 L 361.74 133.61 L 361.45 133.62 L 361.16 133.62 L 360.87 133.63 L 360.58 133.63 L 360.29 133.63 L 360.00 133.63 L 359.71 133.63 L 359.42 133.63 L 359.13 133.63 L 358.84 133.62 L 358.55 133.62 L 358.26 133.61 L 357.97 133.60 L 357.68 133.59 L 357.39 133.58 L 357.10 133.57 L 356.81 133.55 L 356.52 133.54 L 356.23 133.52 L 355.94 133.50 L 355.66 133.48 L 355.37 133.46 L 355.08 133.44 L 354.79 133.42 L 354.51 133.39 L 354.22 133.37 L 353.94 133.34 L 353.65 133.31 L 353.37 133.28 L 353.08 133.25 L 352.80 133.22 L 352.51 133.18 L 352.23 133.15 L 351.95 133.11 L 351.67 133.07 L 351.39 133.03 L 351.11 132.99 L 350.83 132.95 L 350.55 132.91 L 350.27 132.86 L 349.99 132.82 L 349.72 132.77 L 349.44 132.72 L 349.17 132.67 L 348.89 132.62 L 348.62 132.57 L 348.35 132.52 L 348.07 132.46 L 347.80 132.41 L 347.53 132.35 L 347.27 132.29 L 347.00 132.23 L 346.73 132.17 L 346.46 132.11 L 346.20 132.05 L 345.94 131.98 L 345.67 131.92 L 345.41 131.85 L 345.15 131.78 L 344.89 131.71 L 344.63 131.64 L 344.38 131.57 L 344.12 131.50 L 343.87 131.42 L 343.61 131.35 L 343.36 131.27 L 343.11 131.19 L 342.86 131.12 L 342.61 131.04 L 342.37 130.95 L 342.12 130.87 L 341.88 130.79 L 341.63 130.71 L 341.39 130.62 L 341.15 130.53 L 340.91 130.45 L 340.68 130.36 L 340.44 130.27 L 340.21 130.18 L 339.97 130.08 L 339.74 129.99 L 339.51 129.90 L 339.28 129.80 L 339.06 129.70 L 338.83 129.61 L 338.61 129.51 L 338.39 129.41 L 338.17 129.31 L 337.95 129.21 L 337.73 129.10 L 337.52 129.00 L 337.30 128.90 L 337.09 128.79 L 336.88 128.69 L 336.68 128.58 L 336.47 128.47 L 336.26 128.36 L 336.06 128.25 L 335.86 128.14 L 335.66 128.03 L 335.47 127.91 L 335.27 127.80 L 335.08 127.68 L 334.89 127.57 L 334.70 127.45 L 334.51 127.34 L 334.32 127.22 L 334.14 127.10 L 333.96 126.98 L 333.78 126.86 L 333.60 126.74 L 333.42 126.61 L 333.25 126.49 L 333.08 126.37 L 332.91 126.24 L 332.74 126.11 L 332.58 125.99 L 332.41 125.86 L 332.25 125.73 L 332.09 125.60 L 331.93 125.47 L 331.78 125.34 L 331.63 125.21 L 331.48 125.08 L 331.33 124.95 L 331.18 124.82 L 331.04 124.68 L 330.89 124.55 L 330.76 124.41 L 330.62 124.28 L 330.48 124.14 L 330.35 124.01 L 330.22 123.87 L 330.09 123.73 L 329.96 123.59 L 329.84 123.45 L 329.72 123.31 L 329.60 123.17 L 329.48 123.03 L 329.37 122.89 L 329.26 122.75 L 329.15 122.61 L 329.04 122.46 L 328.93 122.32 L 328.83 122.18 L 328.73 122.03 L 328.63 121.89 L 328.54 121.74 L 328.44 121.60 L 328.35 121.45 L 328.26 121.30 L 328.18 121.16 L 328.09 121.01 L 328.01 120.86 L 327.93 120.71 L 327.86 120.56 L 327.78 120.42 L 327.71 120.27 L 327.64 120.12 L 327.58 119.97 L 327.51 119.82 L 327.45 119.67 L 327.39 119.52 L 327.33 119.36 L 327.28 119.21 L 327.23 119.06 L 327.18 118.91 L 327.13 118.76 L 327.09 118.61 L 327.05 118.45 L 327.01 118.30 L 326.97 118.15 L 326.94 118.00 L 326.90 117.84 L 326.88 117.69 L 326.85 117.54 L 326.83 117.38 L 326.80 117.23 L 326.78 117.08 L 326.77 116.92 L 326.75 116.77 L 326.74 116.62 L 326.73 116.46 L 326.73 116.31 L 326.72 116.15 L 326.72 116.00 L 326.72 115.85 L 326.73 115.69 L 326.73 115.54 L 326.74 115.38 L 326.75 115.23 L 326.77 115.08 L 326.78 114.92 L 326.80 114.77 L 326.83 114.62 L 326.85 114.46 L 326.88 114.31 L 326.90 114.16 L 326.94 114.00 L 326.97 113.85 L 327.01 113.70 L 327.05 113.55 L 327.09 113.39 L 327.13 113.24 L 327.18 113.09 L 327.23 112.94 L 327.28 112.79 L 327.33 112.64 L 327.39 112.48 L 327.45 112.33 L 327.51 112.18 L 327.58 112.03 L 327.64 111.88 L 327.71 111.73 L 327.78 111.58 L 327.86 111.44 L 327.93 111.29 L 328.01 111.14 L 328.09 110.99 L 328.18 110.84 L 328.26 110.70 L 328.35 110.55 L 328.44 110.40 L 328.54 110.26 L 328.63 110.11 L 328.73 109.97 L 328.83 109.82 L 328.93 109.68 L 329.04 109.54 L 329.15 109.39 L 329.26 109.25 L 329.37 109.11 L 329.48 108.97 L 329.60 108.83 L 329.72 108.69 L 329.84 108.55 L 329.96 108.41 L 330.09 108.27 L 330.22 108.13 L 330.35 107.99 L 330.48 107.86 L 330.62 107.72 L 330.76 107.59 L 330.89 107.45 L 331.04 107.32 L 331.18 107.18 L 331.33 107.05 L 331.48 106.92 L 331.63 106.79 L 331.78 106.66 L 331.93 106.53 L 332.09 106.40 L 332.25 106.27 L 332.41 106.14 L 332.58 106.01 L 332.74 105.89 L 332.91 105.76 L 333.08 105.63 L 333.25 105.51 L 333.42 105.39 L 333.60 105.26 L 333.78 105.14 L 333.96 105.02 L 334.14 104.90 L 334.32 104.78 L 334.51 104.66 L 334.70 104.55 L 334.89 104.43 L 335.08 104.32 L 335.27 104.20 L 335.47 104.09 L 335.66 103.97 L 335.86 103.86 L 336.06 103.75 L 336.26 103.64 L 336.47 103.53 L 336.68 103.42 L 336.88 103.31 L 337.09 103.21 L 337.30 103.10 L 337.52 103.00 L 337.73 102.90" fill="none" stroke="#c2c2c2" stroke-width="1.1" stroke-linecap="round" stroke-linejoin="round" stroke-dasharray="4 4"/>
  <path d="M 386.40 105.26 L 386.58 105.39 L 386.75 105.51 L 386.92 105.63 L 387.09 105.76 L 387.26 105.89 L 387.42 106.01 L 387.59 106.14 L 387.75 106.27 L 387.91 106.40 L 388.07 106.53 L 388.22 106.66 L 388.37 106.79 L 388.52 106.92 L 388.67 107.05 L 388.82 107.18 L 388.96 107.32 L 389.11 107.45 L 389.24 107.59 L 389.38 107.72 L 389.52 107.86 L 389.65 107.99 L 389.78 108.13 L 389.91 108.27 L 390.04 108.41 L 390.16 108.55 L 390.28 108.69 L 390.40 108.83 L 390.52 108.97 L 390.63 109.11 L 390.74 109.25 L 390.85 109.39 L 390.96 109.54 L 391.07 109.68 L 391.17 109.82 L 391.27 109.97 L 391.37 110.11 L 391.46 110.26 L 391.56 110.40 L 391.65 110.55 L 391.74 110.70 L 391.82 110.84 L 391.91 110.99 L 391.99 111.14 L 392.07 111.29 L 392.14 111.44 L 392.22 111.58 L 392.29 111.73 L 392.36 111.88 L 392.42 112.03 L 392.49 112.18 L 392.55 112.33 L 392.61 112.48 L 392.67 112.64 L 392.72 112.79 L 392.77 112.94 L 392.82 113.09 L 392.87 113.24 L 392.91 113.39 L 392.95 113.55 L 392.99 113.70 L 393.03 113.85 L 393.06 114.00 L 393.10 114.16 L 393.12 114.31 L 393.15 114.46 L 393.17 114.62 L 393.20 114.77 L 393.22 114.92 L 393.23 115.08 L 393.25 115.23 L 393.26 115.38 L 393.27 115.54 L 393.27 115.69 L 393.28 115.85 L 393.28 116.00" fill="none" stroke="#c2c2c2" stroke-width="1.1" stroke-linecap="round" stroke-linejoin="round" stroke-dasharray="4 4"/>
  <path d="M 417.05 95.84 L 417.05 96.11 L 417.04 96.37 L 417.03 96.63 L 417.01 96.90 L 416.99 97.16 L 416.97 97.42 L 416.94 97.69 L 416.91 97.95 L 416.87 98.21 L 416.83 98.48 L 416.78 98.74 L 416.73 99.00 L 416.68 99.26 L 416.62 99.53 L 416.56 99.79 L 416.49 100.05 L 416.42 100.31 L 416.34 100.57 L 416.26 100.83 L 416.18 101.09 L 416.09 101.35 L 416.00 101.61 L 415.90 101.87 L 415.80 102.13 L 415.69 102.39 L 415.59 102.64 L 415.47 102.90 L 415.35 103.16 L 415.23 103.41 L 415.10 103.67 L 414.97 103.92 L 414.84 104.17 L 414.70 104.43 L 414.55 104.68 L 414.41 104.93 L 414.26 105.18 L 414.10 105.43 L 413.94 105.68 L 413.78 105.93 L 413.61 106.18 L 413.43 106.43 L 413.26 106.68 L 413.08 106.92 L 412.89 107.17 L 412.70 107.41 L 412.51 107.65 L 412.32 107.90 L 412.12 108.14 L 411.91 108.38 L 411.70 108.62 L 411.49 108.86 L 411.27 109.09 L 411.05 109.33 L 410.83 109.57 L 410.60 109.80 L 410.37 110.03 L 410.13 110.27 L 409.89 110.50 L 409.65 110.73 L 409.40 110.96 L 409.15 111.19 L 408.90 111.41 L 408.64 111.64 L 408.38 111.86 L 408.11 112.08 L 407.84 112.31 L 407.57 112.53 L 407.29 112.75 L 407.01 112.96 L 406.73 113.18 L 406.44 113.40 L 406.15 113.61 L 405.86 113.82 L 405.56 114.04 L 405.26 114.25 L 404.95 114.45 L 404.65 114.66 L 404.33 114.87 L 404.02 115.07 L 403.70 115.27 L 403.38 115.48 L 403.05 115.68 L 402.73 115.87 L 402.39 116.07 L 402.06 116.27 L 401.72 116.46 L 401.38 116.65 L 401.04 116.84 L 400.69 117.03 L 400.34 117.22 L 399.98 117.40 L 399.63 117.59 L 399.27 117.77 L 398.91 117.95 L 398.54 118.13 L 398.17 118.31 L 397.80 118.48 L 397.43 118.66 L 397.05 118.83 L 396.67 119.00 L 396.29 119.17 L 395.90 119.34 L 395.51 119.50 L 395.12 119.66 L 394.73 119.83 L 394.33 119.99 L 393.93 120.14 L 393.53 120.30 L 393.13 120.45 L 392.72 120.61 L 392.31 120.76 L 391.90 120.90 L 391.49 121.05 L 391.07 121.20 L 390.65 121.34 L 390.23 121.48 L 389.81 121.62 L 389.38 121.75 L 388.95 121.89 L 388.52 122.02 L 388.09 122.15 L 387.66 122.28 L 387.22 122.41 L 386.78 122.53 L 386.34 122.66 L 385.90 122.78 L 385.45 122.90 L 385.01 123.01 L 384.56 123.13 L 384.11 123.24 L 383.66 123.35 L 383.20 123.46 L 382.75 123.57 L 382.29 123.67 L 381.83 123.77 L 381.37 123.87 L 380.91 123.97 L 380.44 124.06 L 379.98 124.16 L 379.51 124.25 L 379.04 124.34 L 378.57 124.43 L 378.10 124.51 L 377.63 124.59 L 377.15 124.67 L 376.68 124.75 L 376.20 124.83 L 375.72 124.90 L 375.25 124.97 L 374.76 125.04 L 374.28 125.11 L 373.80 125.17 L 373.32 125.24 L 372.83 125.30 L 372.35 125.36 L 371.86 125.41 L 371.37 125.47 L 370.89 125.52 L 370.40 125.57 L 369.91 125.61 L 369.42 125.66 L 368.92 125.70 L 368.43 125.74 L 367.94 125.78 L 367.45 125.81 L 366.95 125.85 L 366.46 125.88 L 365.96 125.91 L 365.47 125.93 L 364.97 125.96 L 364.48 125.98 L 363.98 126.00 L 363.48 126.02 L 362.99 126.03 L 362.49 126.04 L 361.99 126.05 L 361.49 126.06 L 361.00 126.07 L 360.50 126.07 L 360.00 126.07 L 359.50 126.07 L 359.00 126.07 L 358.51 126.06 L 358.01 126.05 L 357.51 126.04 L 357.01 126.03 L 356.52 126.02 L 356.02 126.00 L 355.52 125.98 L 355.03 125.96 L 354.53 125.93 L 354.04 125.91 L 353.54 125.88 L 353.05 125.85 L 352.55 125.81 L 352.06 125.78 L 351.57 125.74 L 351.08 125.70 L 350.58 125.66 L 350.09 125.61 L 349.60 125.57 L 349.11 125.52 L 348.63 125.47 L 348.14 125.41 L 347.65 125.36 L 347.17 125.30 L 346.68 125.24 L 346.20 125.17 L 345.72 125.11 L 345.24 125.04 L 344.75 124.97 L 344.28 124.90 L 343.80 124.83 L 343.32 124.75 L 342.85 124.67 L 342.37 124.59 L 341.90 124.51 L 341.43 124.43 L 340.96 124.34 L 340.49 124.25 L 340.02 124.16 L 339.56 124.06 L 339.09 123.97 L 338.63 123.87 L 338.17 123.77 L 337.71 123.67 L 337.25 123.57 L 336.80 123.46 L 336.34 123.35 L 335.89 123.24 L 335.44 123.13 L 334.99 123.01 L 334.55 122.90 L 334.10 122.78 L 333.66 122.66 L 333.22 122.53 L 332.78 122.41 L 332.34 122.28 L 331.91 122.15 L 331.48 122.02 L 331.05 121.89 L 330.62 121.75 L 330.19 121.62 L 329.77 121.48 L 329.35 121.34 L 328.93 121.20 L 328.51 121.05 L 328.10 120.90 L 327.69 120.76 L 327.28 120.61 L 326.87 120.45 L 326.47 120.30 L 326.07 120.14 L 325.67 119.99 L 325.27 119.83 L 324.88 119.66 L 324.49 119.50 L 324.10 119.34 L 323.71 119.17 L 323.33 119.00 L 322.95 118.83 L 322.57 118.66 L 322.20 118.48 L 321.83 118.31 L 321.46 118.13 L 321.09 117.95 L 320.73 117.77 L 320.37 117.59 L 320.02 117.40 L 319.66 117.22 L 319.31 117.03 L 318.96 116.84 L 318.62 116.65 L 318.28 116.46 L 317.94 116.27 L 317.61 116.07 L 317.27 115.87 L 316.95 115.68 L 316.62 115.48 L 316.30 115.27 L 315.98 115.07 L 315.67 114.87 L 315.35 114.66 L 315.05 114.45 L 314.74 114.25 L 314.44 114.04 L 314.14 113.82 L 313.85 113.61 L 313.56 113.40 L 313.27 113.18 L 312.99 112.96 L 312.71 112.75 L 312.43 112.53 L 312.16 112.31 L 311.89 112.08 L 311.62 111.86 L 311.36 111.64 L 311.10 111.41 L 310.85 111.19 L 310.60 110.96 L 310.35 110.73 L 310.11 110.50 L 309.87 110.27 L 309.63 110.03 L 309.40 109.80 L 309.17 109.57 L 308.95 109.33 L 308.73 109.09 L 308.51 108.86 L 308.30 108.62 L 308.09 108.38 L 307.88 108.14 L 307.68 107.90 L 307.49 107.65 L 307.30 107.41 L 307.11 107.17 L 306.92 106.92 L 306.74 106.68 L 306.57 106.43 L 306.39 106.18 L 306.22 105.93 L 306.06 105.68 L 305.90 105.43 L 305.74 105.18 L 305.59 104.93 L 305.45 104.68 L 305.30 104.43 L 305.16 104.17 L 305.03 103.92 L 304.90 103.67 L 304.77 103.41 L 304.65 103.16 L 304.53 102.90 L 304.41 102.64 L 304.31 102.39 L 304.20 102.13 L 304.10 101.87 L 304.00 101.61 L 303.91 101.35 L 303.82 101.09 L 303.74 100.83 L 303.66 100.57 L 303.58 100.31 L 303.51 100.05 L 303.44 99.79 L 303.38 99.53 L 303.32 99.26 L 303.27 99.00 L 303.22 98.74 L 303.17 98.48 L 303.13 98.21 L 303.09 97.95 L 303.06 97.69 L 303.03 97.42 L 303.01 97.16 L 302.99 96.90 L 302.97 96.63 L 302.96 96.37 L 302.95 96.11 L 302.95 95.84 L 302.95 95.58 L 302.96 95.31 L 302.97 95.05 L 302.99 94.79 L 303.01 94.52 L 303.03 94.26 L 303.06 94.00 L 303.09 93.73 L 303.13 93.47 L 303.17 93.21 L 303.22 92.94 L 303.27 92.68 L 303.32 92.42 L 303.38 92.16 L 303.44 91.90 L 303.51 91.63 L 303.58 91.37 L 303.66 91.11 L 303.74 90.85 L 303.82 90.59 L 303.91 90.33 L 304.00 90.07 L 304.10 89.82 L 304.20 89.56 L 304.31 89.30 L 304.41 89.04 L 304.53 88.79 L 304.65 88.53 L 304.77 88.27 L 304.90 88.02 L 305.03 87.76 L 305.16 87.51 L 305.30 87.26 L 305.45 87.00 L 305.59 86.75 L 305.74 86.50 L 305.90 86.25 L 306.06 86.00 L 306.22 85.75 L 306.39 85.50 L 306.57 85.26 L 306.74 85.01 L 306.92 84.76 L 307.11 84.52 L 307.30 84.27 L 307.49 84.03 L 307.68 83.79 L 307.88 83.55 L 308.09 83.31 L 308.30 83.07 L 308.51 82.83 L 308.73 82.59 L 308.95 82.35 L 309.17 82.12 L 309.40 81.88 L 309.63 81.65 L 309.87 81.42 L 310.11 81.19 L 310.35 80.96 L 310.60 80.73 L 310.85 80.50 L 311.10 80.27 L 311.36 80.05 L 311.62 79.82 L 311.89 79.60 L 312.16 79.38 L 312.43 79.16 L 312.71 78.94 L 312.99 78.72 L 313.27 78.50 L 313.56 78.29 L 313.85 78.07 L 314.14 77.86 L 314.44 77.65 L 314.74 77.44 L 315.05 77.23 L 315.35 77.02 L 315.67 76.82 L 315.98 76.61 L 316.30 76.41 L 316.62 76.21 L 316.95 76.01 L 317.27 75.81 L 317.61 75.61 L 317.94 75.42 L 318.28 75.23 L 318.62 75.03 L 318.96 74.84 L 319.31 74.65 L 319.66 74.47 L 320.02 74.28 L 320.37 74.10 L 320.73 73.91 L 321.09 73.73 L 321.46 73.55 L 321.83 73.38 L 322.20 73.20 L 322.57 73.03 L 322.95 72.85 L 323.33 72.68 L 323.71 72.52 L 324.10 72.35 L 324.49 72.18 L 324.88 72.02 L 325.27 71.86 L 325.67 71.70 L 326.07 71.54 L 326.47 71.39 L 326.87 71.23 L 327.28 71.08 L 327.69 70.93 L 328.10 70.78 L 328.51 70.63 L 328.93 70.49 L 329.35 70.35 L 329.77 70.21 L 330.19 70.07 L 330.62 69.93 L 331.05 69.79 L 331.48 69.66 L 331.91 69.53 L 332.34 69.40 L 332.78 69.28 L 333.22 69.15 L 333.66 69.03 L 334.10 68.91 L 334.55 68.79 L 334.99 68.67 L 335.44 68.56 L 335.89 68.44 L 336.34 68.33 L 336.80 68.23 L 337.25 68.12 L 337.71 68.01 L 338.17 67.91 L 338.63 67.81 L 339.09 67.72 L 339.56 67.62 L 340.02 67.53 L 340.49 67.43 L 340.96 67.35 L 341.43 67.26 L 341.90 67.17 L 342.37 67.09 L 342.85 67.01 L 343.32 66.93 L 343.80 66.86 L 344.28 66.78 L 344.75 66.71 L 345.24 66.64 L 345.72 66.57 L 346.20 66.51 L 346.68 66.45 L 347.17 66.39 L 347.65 66.33 L 348.14 66.27 L 348.63 66.22 L 349.11 66.17 L 349.60 66.12 L 350.09 66.07 L 350.58 66.03 L 351.08 65.98 L 351.57 65.94 L 352.06 65.91 L 352.55 65.87 L 353.05 65.84 L 353.54 65.81 L 354.04 65.78 L 354.53 65.75 L 355.03 65.73 L 355.52 65.70 L 356.02 65.69 L 356.52 65.67 L 357.01 65.65 L 357.51 65.64 L 358.01 65.63 L 358.51 65.62 L 359.00 65.62 L 359.50 65.61 L 360.00 65.61 L 360.50 65.61 L 361.00 65.62 L 361.49 65.62 L 361.99 65.63 L 362.49 65.64 L 362.99 65.65 L 363.48 65.67 L 363.98 65.69 L 364.48 65.70 L 364.97 65.73 L 365.47 65.75 L 365.96 65.78 L 366.46 65.81 L 366.95 65.84 L 367.45 65.87 L 367.94 65.91 L 368.43 65.94 L 368.92 65.98 L 369.42 66.03 L 369.91 66.07 L 370.40 66.12 L 370.89 66.17 L 371.37 66.22 L 371.86 66.27 L 372.35 66.33 L 372.83 66.39 L 373.32 66.45 L 373.80 66.51 L 374.28 66.57 L 374.76 66.64 L 375.25 66.71 L 375.72 66.78 L 376.20 66.86 L 376.68 66.93 L 377.15 67.01 L 377.63 67.09 L 378.10 67.17 L 378.57 67.26 L 379.04 67.35 L 379.51 67.43 L 379.98 67.53 L 380.44 67.62 L 380.91 67.72 L 381.37 67.81 L 381.83 67.91 L 382.29 68.01 L 382.75 68.12 L 383.20 68.23 L 383.66 68.33 L 384.11 68.44 L 384.56 68.56 L 385.01 68.67 L 385.45 68.79 L 385.90 68.91 L 386.34 69.03 L 386.78 69.15 L 387.22 69.28 L 387.66 69.40 L 388.09 69.53 L 388.52 69.66 L 388.95 69.79 L 389.38 69.93 L 389.81 70.07 L 390.23 70.21 L 390.65 70.35 L 391.07 70.49 L 391.49 70.63 L 391.90 70.78 L 392.31 70.93 L 392.72 71.08 L 393.13 71.23 L 393.53 71.39 L 393.93 71.54 L 394.33 71.70 L 394.73 71.86 L 395.12 72.02 L 395.51 72.18 L 395.90 72.35 L 396.29 72.52 L 396.67 72.68 L 397.05 72.85 L 397.43 73.03 L 397.80 73.20 L 398.17 73.38 L 398.54 73.55 L 398.91 73.73 L 399.27 73.91 L 399.63 74.10 L 399.98 74.28 L 400.34 74.47 L 400.69 74.65 L 401.04 74.84 L 401.38 75.03 L 401.72 75.23 L 402.06 75.42 L 402.39 75.61 L 402.73 75.81 L 403.05 76.01 L 403.38 76.21 L 403.70 76.41 L 404.02 76.61 L 404.33 76.82 L 404.65 77.02 L 404.95 77.23 L 405.26 77.44 L 405.56 77.65 L 405.86 77.86 L 406.15 78.07 L 406.44 78.29 L 406.73 78.50 L 407.01 78.72 L 407.29 78.94 L 407.57 79.16 L 407.84 79.38 L 408.11 79.60 L 408.38 79.82 L 408.64 80.05 L 408.90 80.27 L 409.15 80.50 L 409.40 80.73 L 409.65 80.96 L 409.89 81.19 L 410.13 81.42 L 410.37 81.65 L 410.60 81.88 L 410.83 82.12 L 411.05 82.35 L 411.27 82.59 L 411.49 82.83 L 411.70 83.07 L 411.91 83.31 L 412.12 83.55 L 412.32 83.79 L 412.51 84.03 L 412.70 84.27 L 412.89 84.52 L 413.08 84.76 L 413.26 85.01 L 413.43 85.26 L 413.61 85.50 L 413.78 85.75 L 413.94 86.00 L 414.10 86.25 L 414.26 86.50 L 414.41 86.75 L 414.55 87.00 L 414.70 87.26 L 414.84 87.51 L 414.97 87.76 L 415.10 88.02 L 415.23 88.27 L 415.35 88.53 L 415.47 88.79 L 415.59 89.04 L 415.69 89.30 L 415.80 89.56 L 415.90 89.82 L 416.00 90.07 L 416.09 90.33 L 416.18 90.59 L 416.26 90.85 L 416.34 91.11 L 416.42 91.37 L 416.49 91.63 L 416.56 91.90 L 416.62 92.16 L 416.68 92.42 L 416.73 92.68 L 416.78 92.94 L 416.83 93.21 L 416.87 93.47 L 416.91 93.73 L 416.94 94.00 L 416.97 94.26 L 416.99 94.52 L 417.01 94.79 L 417.03 95.05 L 417.04 95.31 L 417.05 95.58 L 417.05 95.84" fill="none" stroke="#c2c2c2" stroke-width="1.1" stroke-linecap="round" stroke-linejoin="round" stroke-dasharray="4 4"/>
  <path d="M 417.05 136.16 L 417.05 136.42 L 417.04 136.69 L 417.03 136.95 L 417.01 137.21 L 416.99 137.48 L 416.97 137.74 L 416.94 138.00 L 416.91 138.27 L 416.87 138.53 L 416.83 138.79 L 416.78 139.06 L 416.73 139.32 L 416.68 139.58 L 416.62 139.84 L 416.56 140.10 L 416.49 140.37 L 416.42 140.63 L 416.34 140.89 L 416.26 141.15 L 416.18 141.41 L 416.09 141.67 L 416.00 141.93 L 415.90 142.18 L 415.80 142.44 L 415.69 142.70 L 415.59 142.96 L 415.47 143.21 L 415.35 143.47 L 415.23 143.73 L 415.10 143.98 L 414.97 144.24 L 414.84 144.49 L 414.70 144.74 L 414.55 145.00 L 414.41 145.25 L 414.26 145.50 L 414.10 145.75 L 413.94 146.00 L 413.78 146.25 L 413.61 146.50 L 413.43 146.74 L 413.26 146.99 L 413.08 147.24 L 412.89 147.48 L 412.70 147.73 L 412.51 147.97 L 412.32 148.21 L 412.12 148.45 L 411.91 148.69 L 411.70 148.93 L 411.49 149.17 L 411.27 149.41 L 411.05 149.65 L 410.83 149.88 L 410.60 150.12 L 410.37 150.35 L 410.13 150.58 L 409.89 150.81 L 409.65 151.04 L 409.40 151.27 L 409.15 151.50 L 408.90 151.73 L 408.64 151.95 L 408.38 152.18 L 408.11 152.40 L 407.84 152.62 L 407.57 152.84 L 407.29 153.06 L 407.01 153.28 L 406.73 153.50 L 406.44 153.71 L 406.15 153.93 L 405.86 154.14 L 405.56 154.35 L 405.26 154.56 L 404.95 154.77 L 404.65 154.98 L 404.33 155.18 L 404.02 155.39 L 403.70 155.59 L 403.38 155.79 L 403.05 155.99 L 402.73 156.19 L 402.39 156.39 L 402.06 156.58 L 401.72 156.77 L 401.38 156.97 L 401.04 157.16 L 400.69 157.35 L 400.34 157.53 L 399.98 157.72 L 399.63 157.90 L 399.27 158.09 L 398.91 158.27 L 398.54 158.45 L 398.17 158.62 L 397.80 158.80 L 397.43 158.97 L 397.05 159.15 L 396.67 159.32 L 396.29 159.48 L 395.90 159.65 L 395.51 159.82 L 395.12 159.98 L 394.73 160.14 L 394.33 160.30 L 393.93 160.46 L 393.53 160.61 L 393.13 160.77 L 392.72 160.92 L 392.31 161.07 L 391.90 161.22 L 391.49 161.37 L 391.07 161.51 L 390.65 161.65 L 390.23 161.79 L 389.81 161.93 L 389.38 162.07 L 388.95 162.21 L 388.52 162.34 L 388.09 162.47 L 387.66 162.60 L 387.22 162.72 L 386.78 162.85 L 386.34 162.97 L 385.90 163.09 L 385.45 163.21 L 385.01 163.33 L 384.56 163.44 L 384.11 163.56 L 383.66 163.67 L 383.20 163.77 L 382.75 163.88 L 382.29 163.99 L 381.83 164.09 L 381.37 164.19 L 380.91 164.28 L 380.44 164.38 L 379.98 164.47 L 379.51 164.57 L 379.04 164.65 L 378.57 164.74 L 378.10 164.83 L 377.63 164.91 L 377.15 164.99 L 376.68 165.07 L 376.20 165.14 L 375.72 165.22 L 375.25 165.29 L 374.76 165.36 L 374.28 165.43 L 373.80 165.49 L 373.32 165.55 L 372.83 165.61 L 372.35 165.67 L 371.86 165.73 L 371.37 165.78 L 370.89 165.83 L 370.40 165.88 L 369.91 165.93 L 369.42 165.97 L 368.92 166.02 L 368.43 166.06 L 367.94 166.09 L 367.45 166.13 L 366.95 166.16 L 366.46 166.19 L 365.96 166.22 L 365.47 166.25 L 364.97 166.27 L 364.48 166.30 L 363.98 166.31 L 363.48 166.33 L 362.99 166.35 L 362.49 166.36 L 361.99 166.37 L 361.49 166.38 L 361.00 166.38 L 360.50 166.39 L 360.00 166.39 L 359.50 166.39 L 359.00 166.38 L 358.51 166.38 L 358.01 166.37 L 357.51 166.36 L 357.01 166.35 L 356.52 166.33 L 356.02 166.31 L 355.52 166.30 L 355.03 166.27 L 354.53 166.25 L 354.04 166.22 L 353.54 166.19 L 353.05 166.16 L 352.55 166.13 L 352.06 166.09 L 351.57 166.06 L 351.08 166.02 L 350.58 165.97 L 350.09 165.93 L 349.60 165.88 L 349.11 165.83 L 348.63 165.78 L 348.14 165.73 L 347.65 165.67 L 347.17 165.61 L 346.68 165.55 L 346.20 165.49 L 345.72 165.43 L 345.24 165.36 L 344.75 165.29 L 344.28 165.22 L 343.80 165.14 L 343.32 165.07 L 342.85 164.99 L 342.37 164.91 L 341.90 164.83 L 341.43 164.74 L 340.96 164.65 L 340.49 164.57 L 340.02 164.47 L 339.56 164.38 L 339.09 164.28 L 338.63 164.19 L 338.17 164.09 L 337.71 163.99 L 337.25 163.88 L 336.80 163.77 L 336.34 163.67 L 335.89 163.56 L 335.44 163.44 L 334.99 163.33 L 334.55 163.21 L 334.10 163.09 L 333.66 162.97 L 333.22 162.85 L 332.78 162.72 L 332.34 162.60 L 331.91 162.47 L 331.48 162.34 L 331.05 162.21 L 330.62 162.07 L 330.19 161.93 L 329.77 161.79 L 329.35 161.65 L 328.93 161.51 L 328.51 161.37 L 328.10 161.22 L 327.69 161.07 L 327.28 160.92 L 326.87 160.77 L 326.47 160.61 L 326.07 160.46 L 325.67 160.30 L 325.27 160.14 L 324.88 159.98 L 324.49 159.82 L 324.10 159.65 L 323.71 159.48 L 323.33 159.32 L 322.95 159.15 L 322.57 158.97 L 322.20 158.80 L 321.83 158.62 L 321.46 158.45 L 321.09 158.27 L 320.73 158.09 L 320.37 157.90 L 320.02 157.72 L 319.66 157.53 L 319.31 157.35 L 318.96 157.16 L 318.62 156.97 L 318.28 156.77 L 317.94 156.58 L 317.61 156.39 L 317.27 156.19 L 316.95 155.99 L 316.62 155.79 L 316.30 155.59 L 315.98 155.39 L 315.67 155.18 L 315.35 154.98 L 315.05 154.77 L 314.74 154.56 L 314.44 154.35 L 314.14 154.14 L 313.85 153.93 L 313.56 153.71 L 313.27 153.50 L 312.99 153.28 L 312.71 153.06 L 312.43 152.84 L 312.16 152.62 L 311.89 152.40 L 311.62 152.18 L 311.36 151.95 L 311.10 151.73 L 310.85 151.50 L 310.60 151.27 L 310.35 151.04 L 310.11 150.81 L 309.87 150.58 L 309.63 150.35 L 309.40 150.12 L 309.17 149.88 L 308.95 149.65 L 308.73 149.41 L 308.51 149.17 L 308.30 148.93 L 308.09 148.69 L 307.88 148.45 L 307.68 148.21 L 307.49 147.97 L 307.30 147.73 L 307.11 147.48 L 306.92 147.24 L 306.74 146.99 L 306.57 146.74 L 306.39 146.50 L 306.22 146.25 L 306.06 146.00 L 305.90 145.75 L 305.74 145.50 L 305.59 145.25 L 305.45 145.00 L 305.30 144.74 L 305.16 144.49 L 305.03 144.24 L 304.90 143.98 L 304.77 143.73 L 304.65 143.47 L 304.53 143.21 L 304.41 142.96 L 304.31 142.70 L 304.20 142.44 L 304.10 142.18 L 304.00 141.93 L 303.91 141.67 L 303.82 141.41 L 303.74 141.15 L 303.66 140.89 L 303.58 140.63 L 303.51 140.37 L 303.44 140.10 L 303.38 139.84 L 303.32 139.58 L 303.27 139.32 L 303.22 139.06 L 303.17 138.79 L 303.13 138.53 L 303.09 138.27 L 303.06 138.00 L 303.03 137.74 L 303.01 137.48 L 302.99 137.21 L 302.97 136.95 L 302.96 136.69 L 302.95 136.42 L 302.95 136.16 L 302.95 135.89 L 302.96 135.63 L 302.97 135.37 L 302.99 135.10 L 303.01 134.84 L 303.03 134.58 L 303.06 134.31 L 303.09 134.05 L 303.13 133.79 L 303.17 133.52 L 303.22 133.26 L 303.27 133.00 L 303.32 132.74 L 303.38 132.47 L 303.44 132.21 L 303.51 131.95 L 303.58 131.69 L 303.66 131.43 L 303.74 131.17 L 303.82 130.91 L 303.91 130.65 L 304.00 130.39 L 304.10 130.13 L 304.20 129.87 L 304.31 129.61 L 304.41 129.36 L 304.53 129.10 L 304.65 128.84 L 304.77 128.59 L 304.90 128.33 L 305.03 128.08 L 305.16 127.83 L 305.30 127.57 L 305.45 127.32 L 305.59 127.07 L 305.74 126.82 L 305.90 126.57 L 306.06 126.32 L 306.22 126.07 L 306.39 125.82 L 306.57 125.57 L 306.74 125.32 L 306.92 125.08 L 307.11 124.83 L 307.30 124.59 L 307.49 124.35 L 307.68 124.10 L 307.88 123.86 L 308.09 123.62 L 308.30 123.38 L 308.51 123.14 L 308.73 122.91 L 308.95 122.67 L 309.17 122.43 L 309.40 122.20 L 309.63 121.97 L 309.87 121.73 L 310.11 121.50 L 310.35 121.27 L 310.60 121.04 L 310.85 120.81 L 311.10 120.59 L 311.36 120.36 L 311.62 120.14 L 311.89 119.92 L 312.16 119.69 L 312.43 119.47 L 312.71 119.25 L 312.99 119.04 L 313.27 118.82 L 313.56 118.60 L 313.85 118.39 L 314.14 118.18 L 314.44 117.96 L 314.74 117.75 L 315.05 117.55 L 315.35 117.34 L 315.67 117.13 L 315.98 116.93 L 316.30 116.73 L 316.62 116.52 L 316.95 116.32 L 317.27 116.13 L 317.61 115.93 L 317.94 115.73 L 318.28 115.54 L 318.62 115.35 L 318.96 115.16 L 319.31 114.97 L 319.66 114.78 L 320.02 114.60 L 320.37 114.41 L 320.73 114.23 L 321.09 114.05 L 321.46 113.87 L 321.83 113.69 L 322.20 113.52 L 322.57 113.34 L 322.95 113.17 L 323.33 113.00 L 323.71 112.83 L 324.10 112.66 L 324.49 112.50 L 324.88 112.34 L 325.27 112.17 L 325.67 112.01 L 326.07 111.86 L 326.47 111.70 L 326.87 111.55 L 327.28 111.39 L 327.69 111.24 L 328.10 111.10 L 328.51 110.95 L 328.93 110.80 L 329.35 110.66 L 329.77 110.52 L 330.19 110.38 L 330.62 110.25 L 331.05 110.11 L 331.48 109.98 L 331.91 109.85 L 332.34 109.72 L 332.78 109.59 L 333.22 109.47 L 333.66 109.34 L 334.10 109.22 L 334.55 109.10 L 334.99 108.99 L 335.44 108.87 L 335.89 108.76 L 336.34 108.65 L 336.80 108.54 L 337.25 108.43 L 337.71 108.33 L 338.17 108.23 L 338.63 108.13 L 339.09 108.03 L 339.56 107.94 L 340.02 107.84 L 340.49 107.75 L 340.96 107.66 L 341.43 107.57 L 341.90 107.49 L 342.37 107.41 L 342.85 107.33 L 343.32 107.25 L 343.80 107.17 L 344.28 107.10 L 344.75 107.03 L 345.24 106.96 L 345.72 106.89 L 346.20 106.83 L 346.68 106.76 L 347.17 106.70 L 347.65 106.64 L 348.14 106.59 L 348.63 106.53 L 349.11 106.48 L 349.60 106.43 L 350.09 106.39 L 350.58 106.34 L 351.08 106.30 L 351.57 106.26 L 352.06 106.22 L 352.55 106.19 L 353.05 106.15 L 353.54 106.12 L 354.04 106.09 L 354.53 106.07 L 355.03 106.04 L 355.52 106.02 L 356.02 106.00 L 356.52 105.98 L 357.01 105.97 L 357.51 105.96 L 358.01 105.95 L 358.51 105.94 L 359.00 105.93 L 359.50 105.93 L 360.00 105.93 L 360.50 105.93 L 361.00 105.93 L 361.49 105.94 L 361.99 105.95 L 362.49 105.96 L 362.99 105.97 L 363.48 105.98 L 363.98 106.00 L 364.48 106.02 L 364.97 106.04 L 365.47 106.07 L 365.96 106.09 L 366.46 106.12 L 366.95 106.15 L 367.45 106.19 L 367.94 106.22 L 368.43 106.26 L 368.92 106.30 L 369.42 106.34 L 369.91 106.39 L 370.40 106.43 L 370.89 106.48 L 371.37 106.53 L 371.86 106.59 L 372.35 106.64 L 372.83 106.70 L 373.32 106.76 L 373.80 106.83 L 374.28 106.89 L 374.76 106.96 L 375.25 107.03 L 375.72 107.10 L 376.20 107.17 L 376.68 107.25 L 377.15 107.33 L 377.63 107.41 L 378.10 107.49 L 378.57 107.57 L 379.04 107.66 L 379.51 107.75 L 379.98 107.84 L 380.44 107.94 L 380.91 108.03 L 381.37 108.13 L 381.83 108.23 L 382.29 108.33 L 382.75 108.43 L 383.20 108.54 L 383.66 108.65 L 384.11 108.76 L 384.56 108.87 L 385.01 108.99 L 385.45 109.10 L 385.90 109.22 L 386.34 109.34 L 386.78 109.47 L 387.22 109.59 L 387.66 109.72 L 388.09 109.85 L 388.52 109.98 L 388.95 110.11 L 389.38 110.25 L 389.81 110.38 L 390.23 110.52 L 390.65 110.66 L 391.07 110.80 L 391.49 110.95 L 391.90 111.10 L 392.31 111.24 L 392.72 111.39 L 393.13 111.55 L 393.53 111.70 L 393.93 111.86 L 394.33 112.01 L 394.73 112.17 L 395.12 112.34 L 395.51 112.50 L 395.90 112.66 L 396.29 112.83 L 396.67 113.00 L 397.05 113.17 L 397.43 113.34 L 397.80 113.52 L 398.17 113.69 L 398.54 113.87 L 398.91 114.05 L 399.27 114.23 L 399.63 114.41 L 399.98 114.60 L 400.34 114.78 L 400.69 114.97 L 401.04 115.16 L 401.38 115.35 L 401.72 115.54 L 402.06 115.73 L 402.39 115.93 L 402.73 116.13 L 403.05 116.32 L 403.38 116.52 L 403.70 116.73 L 404.02 116.93 L 404.33 117.13 L 404.65 117.34 L 404.95 117.55 L 405.26 117.75 L 405.56 117.96 L 405.86 118.18 L 406.15 118.39 L 406.44 118.60 L 406.73 118.82 L 407.01 119.04 L 407.29 119.25 L 407.57 119.47 L 407.84 119.69 L 408.11 119.92 L 408.38 120.14 L 408.64 120.36 L 408.90 120.59 L 409.15 120.81 L 409.40 121.04 L 409.65 121.27 L 409.89 121.50 L 410.13 121.73 L 410.37 121.97 L 410.60 122.20 L 410.83 122.43 L 411.05 122.67 L 411.27 122.91 L 411.49 123.14 L 411.70 123.38 L 411.91 123.62 L 412.12 123.86 L 412.32 124.10 L 412.51 124.35 L 412.70 124.59 L 412.89 124.83 L 413.08 125.08 L 413.26 125.32 L 413.43 125.57 L 413.61 125.82 L 413.78 126.07 L 413.94 126.32 L 414.10 126.57 L 414.26 126.82 L 414.41 127.07 L 414.55 127.32 L 414.70 127.57 L 414.84 127.83 L 414.97 128.08 L 415.10 128.33 L 415.23 128.59 L 415.35 128.84 L 415.47 129.10 L 415.59 129.36 L 415.69 129.61 L 415.80 129.87 L 415.90 130.13 L 416.00 130.39 L 416.09 130.65 L 416.18 130.91 L 416.26 131.17 L 416.34 131.43 L 416.42 131.69 L 416.49 131.95 L 416.56 132.21 L 416.62 132.47 L 416.68 132.74 L 416.73 133.00 L 416.78 133.26 L 416.83 133.52 L 416.87 133.79 L 416.91 134.05 L 416.94 134.31 L 416.97 134.58 L 416.99 134.84 L 417.01 135.10 L 417.03 135.37 L 417.04 135.63 L 417.05 135.89 L 417.05 136.16" fill="none" stroke="#c2c2c2" stroke-width="1.1" stroke-linecap="round" stroke-linejoin="round" stroke-dasharray="4 4"/>
  <path d="M 440.82 116.00 L 440.81 116.66 L 440.80 117.31 L 440.77 117.96 L 440.73 118.62 L 440.68 119.27 L 440.62 119.92 L 440.55 120.57 L 440.47 121.22 L 440.38 121.86 L 440.28 122.51 L 440.17 123.15 L 440.05 123.78 L 439.92 124.42 L 439.78 125.05 L 439.63 125.68 L 439.47 126.30 L 439.30 126.92 L 439.12 127.54 L 438.93 128.15 L 438.73 128.75 L 438.53 129.36 L 438.31 129.95 L 438.09 130.55 L 437.86 131.13 L 437.62 131.72 L 437.38 132.29 L 437.12 132.87 L 436.86 133.43 L 436.59 133.99 L 436.32 134.55 L 436.03 135.10 L 435.74 135.64 L 435.45 136.18 L 435.14 136.72 L 434.83 137.24 L 434.52 137.77 L 434.20 138.28 L 433.87 138.79 L 433.54 139.30 L 433.20 139.80 L 432.86 140.29 L 432.51 140.78 L 432.15 141.26 L 431.80 141.74 L 431.43 142.21 L 431.06 142.67 L 430.69 143.13 L 430.31 143.59 L 429.93 144.04 L 429.55 144.48 L 429.16 144.92 L 428.76 145.35 L 428.37 145.78 L 427.96 146.20 L 427.56 146.62 L 427.15 147.03 L 426.74 147.44 L 426.32 147.84 L 425.90 148.23 L 425.48 148.63 L 425.05 149.01 L 424.62 149.40 L 424.19 149.77 L 423.75 150.15 L 423.31 150.52 L 422.87 150.88 L 422.43 151.24 L 421.98 151.60 L 421.53 151.95 L 421.07 152.29 L 420.62 152.64 L 420.16 152.97 L 419.70 153.31 L 419.23 153.64 L 418.77 153.96 L 418.30 154.28 L 417.82 154.60 L 417.35 154.91 L 416.87 155.22 L 416.39 155.53 L 415.91 155.83 L 415.43 156.13 L 414.94 156.42 L 414.45 156.71 L 413.96 157.00 L 413.47 157.28 L 412.97 157.56 L 412.47 157.84 L 411.97 158.11 L 411.47 158.38 L 410.96 158.64 L 410.46 158.91 L 409.95 159.16 L 409.44 159.42 L 408.92 159.67 L 408.41 159.92 L 407.89 160.16 L 407.37 160.40 L 406.85 160.64 L 406.33 160.88 L 405.80 161.11 L 405.27 161.34 L 404.75 161.56 L 404.21 161.78 L 403.68 162.00 L 403.15 162.22 L 402.61 162.43 L 402.07 162.64 L 401.53 162.85 L 400.99 163.05 L 400.45 163.25 L 399.90 163.44 L 399.35 163.64 L 398.80 163.83 L 398.25 164.02 L 397.70 164.20 L 397.15 164.38 L 396.59 164.56 L 396.04 164.74 L 395.48 164.91 L 394.92 165.08 L 394.36 165.25 L 393.79 165.41 L 393.23 165.57 L 392.66 165.73 L 392.09 165.88 L 391.53 166.04 L 390.96 166.18 L 390.38 166.33 L 389.81 166.47 L 389.24 166.61 L 388.66 166.75 L 388.08 166.89 L 387.51 167.02 L 386.93 167.15 L 386.35 167.27 L 385.76 167.40 L 385.18 167.52 L 384.60 167.63 L 384.01 167.75 L 383.43 167.86 L 382.84 167.97 L 382.25 168.07 L 381.66 168.18 L 381.07 168.28 L 380.48 168.37 L 379.89 168.47 L 379.30 168.56 L 378.70 168.65 L 378.11 168.73 L 377.51 168.82 L 376.91 168.90 L 376.32 168.97 L 375.72 169.05 L 375.12 169.12 L 374.52 169.19 L 373.92 169.26 L 373.32 169.32 L 372.72 169.38 L 372.12 169.44 L 371.52 169.49 L 370.91 169.54 L 370.31 169.59 L 369.70 169.64 L 369.10 169.68 L 368.50 169.72 L 367.89 169.76 L 367.28 169.80 L 366.68 169.83 L 366.07 169.86 L 365.47 169.89 L 364.86 169.91 L 364.25 169.93 L 363.65 169.95 L 363.04 169.96 L 362.43 169.98 L 361.82 169.99 L 361.22 169.99 L 360.61 170.00 L 360.00 170.00 L 359.39 170.00 L 358.78 169.99 L 358.18 169.99 L 357.57 169.98 L 356.96 169.96 L 356.35 169.95 L 355.75 169.93 L 355.14 169.91 L 354.53 169.89 L 353.93 169.86 L 353.32 169.83 L 352.72 169.80 L 352.11 169.76 L 351.50 169.72 L 350.90 169.68 L 350.30 169.64 L 349.69 169.59 L 349.09 169.54 L 348.48 169.49 L 347.88 169.44 L 347.28 169.38 L 346.68 169.32 L 346.08 169.26 L 345.48 169.19 L 344.88 169.12 L 344.28 169.05 L 343.68 168.97 L 343.09 168.90 L 342.49 168.82 L 341.89 168.73 L 341.30 168.65 L 340.70 168.56 L 340.11 168.47 L 339.52 168.37 L 338.93 168.28 L 338.34 168.18 L 337.75 168.07 L 337.16 167.97 L 336.57 167.86 L 335.99 167.75 L 335.40 167.63 L 334.82 167.52 L 334.24 167.40 L 333.65 167.27 L 333.07 167.15 L 332.49 167.02 L 331.92 166.89 L 331.34 166.75 L 330.76 166.61 L 330.19 166.47 L 329.62 166.33 L 329.04 166.18 L 328.47 166.04 L 327.91 165.88 L 327.34 165.73 L 326.77 165.57 L 326.21 165.41 L 325.64 165.25 L 325.08 165.08 L 324.52 164.91 L 323.96 164.74 L 323.41 164.56 L 322.85 164.38 L 322.30 164.20 L 321.75 164.02 L 321.20 163.83 L 320.65 163.64 L 320.10 163.44 L 319.55 163.25 L 319.01 163.05 L 318.47 162.85 L 317.93 162.64 L 317.39 162.43 L 316.85 162.22 L 316.32 162.00 L 315.79 161.78 L 315.25 161.56 L 314.73 161.34 L 314.20 161.11 L 313.67 160.88 L 313.15 160.64 L 312.63 160.40 L 312.11 160.16 L 311.59 159.92 L 311.08 159.67 L 310.56 159.42 L 310.05 159.16 L 309.54 158.91 L 309.04 158.64 L 308.53 158.38 L 308.03 158.11 L 307.53 157.84 L 307.03 157.56 L 306.53 157.28 L 306.04 157.00 L 305.55 156.71 L 305.06 156.42 L 304.57 156.13 L 304.09 155.83 L 303.61 155.53 L 303.13 155.22 L 302.65 154.91 L 302.18 154.60 L 301.70 154.28 L 301.23 153.96 L 300.77 153.64 L 300.30 153.31 L 299.84 152.97 L 299.38 152.64 L 298.93 152.29 L 298.47 151.95 L 298.02 151.60 L 297.57 151.24 L 297.13 150.88 L 296.69 150.52 L 296.25 150.15 L 295.81 149.77 L 295.38 149.40 L 294.95 149.01 L 294.52 148.63 L 294.10 148.23 L 293.68 147.84 L 293.26 147.44 L 292.85 147.03 L 292.44 146.62 L 292.04 146.20 L 291.63 145.78 L 291.24 145.35 L 290.84 144.92 L 290.45 144.48 L 290.07 144.04 L 289.69 143.59 L 289.31 143.13 L 288.94 142.67 L 288.57 142.21 L 288.20 141.74 L 287.85 141.26 L 287.49 140.78 L 287.14 140.29 L 286.80 139.80 L 286.46 139.30 L 286.13 138.79 L 285.80 138.28 L 285.48 137.77 L 285.17 137.24 L 284.86 136.72 L 284.55 136.18 L 284.26 135.64 L 283.97 135.10 L 283.68 134.55 L 283.41 133.99 L 283.14 133.43 L 282.88 132.87 L 282.62 132.29 L 282.38 131.72 L 282.14 131.13 L 281.91 130.55 L 281.69 129.95 L 281.47 129.36 L 281.27 128.75 L 281.07 128.15 L 280.88 127.54 L 280.70 126.92 L 280.53 126.30 L 280.37 125.68 L 280.22 125.05 L 280.08 124.42 L 279.95 123.78 L 279.83 123.15 L 279.72 122.51 L 279.62 121.86 L 279.53 121.22 L 279.45 120.57 L 279.38 119.92 L 279.32 119.27 L 279.27 118.62 L 279.23 117.96 L 279.20 117.31 L 279.19 116.66 L 279.18 116.00 L 279.19 115.34 L 279.20 114.69 L 279.23 114.04 L 279.27 113.38 L 279.32 112.73 L 279.38 112.08 L 279.45 111.43 L 279.53 110.78 L 279.62 110.14 L 279.72 109.49 L 279.83 108.85 L 279.95 108.22 L 280.08 107.58 L 280.22 106.95 L 280.37 106.32 L 280.53 105.70 L 280.70 105.08 L 280.88 104.46 L 281.07 103.85 L 281.27 103.25 L 281.47 102.64 L 281.69 102.05 L 281.91 101.45 L 282.14 100.87 L 282.38 100.28 L 282.62 99.71 L 282.88 99.13 L 283.14 98.57 L 283.41 98.01 L 283.68 97.45 L 283.97 96.90 L 284.26 96.36 L 284.55 95.82 L 284.86 95.28 L 285.17 94.76 L 285.48 94.23 L 285.80 93.72 L 286.13 93.21 L 286.46 92.70 L 286.80 92.20 L 287.14 91.71 L 287.49 91.22 L 287.85 90.74 L 288.20 90.26 L 288.57 89.79 L 288.94 89.33 L 289.31 88.87 L 289.69 88.41 L 290.07 87.96 L 290.45 87.52 L 290.84 87.08 L 291.24 86.65 L 291.63 86.22 L 292.04 85.80 L 292.44 85.38 L 292.85 84.97 L 293.26 84.56 L 293.68 84.16 L 294.10 83.77 L 294.52 83.37 L 294.95 82.99 L 295.38 82.60 L 295.81 82.23 L 296.25 81.85 L 296.69 81.48 L 297.13 81.12 L 297.57 80.76 L 298.02 80.40 L 298.47 80.05 L 298.93 79.71 L 299.38 79.36 L 299.84 79.03 L 300.30 78.69 L 300.77 78.36 L 301.23 78.04 L 301.70 77.72 L 302.18 77.40 L 302.65 77.09 L 303.13 76.78 L 303.61 76.47 L 304.09 76.17 L 304.57 75.87 L 305.06 75.58 L 305.55 75.29 L 306.04 75.00 L 306.53 74.72 L 307.03 74.44 L 307.53 74.16 L 308.03 73.89 L 308.53 73.62 L 309.04 73.36 L 309.54 73.09 L 310.05 72.84 L 310.56 72.58 L 311.08 72.33 L 311.59 72.08 L 312.11 71.84 L 312.63 71.60 L 313.15 71.36 L 313.67 71.12 L 314.20 70.89 L 314.73 70.66 L 315.25 70.44 L 315.79 70.22 L 316.32 70.00 L 316.85 69.78 L 317.39 69.57 L 317.93 69.36 L 318.47 69.15 L 319.01 68.95 L 319.55 68.75 L 320.10 68.56 L 320.65 68.36 L 321.20 68.17 L 321.75 67.98 L 322.30 67.80 L 322.85 67.62 L 323.41 67.44 L 323.96 67.26 L 324.52 67.09 L 325.08 66.92 L 325.64 66.75 L 326.21 66.59 L 326.77 66.43 L 327.34 66.27 L 327.91 66.12 L 328.47 65.96 L 329.04 65.82 L 329.62 65.67 L 330.19 65.53 L 330.76 65.39 L 331.34 65.25 L 331.92 65.11 L 332.49 64.98 L 333.07 64.85 L 333.65 64.73 L 334.24 64.60 L 334.82 64.48 L 335.40 64.37 L 335.99 64.25 L 336.57 64.14 L 337.16 64.03 L 337.75 63.93 L 338.34 63.82 L 338.93 63.72 L 339.52 63.63 L 340.11 63.53 L 340.70 63.44 L 341.30 63.35 L 341.89 63.27 L 342.49 63.18 L 343.09 63.10 L 343.68 63.03 L 344.28 62.95 L 344.88 62.88 L 345.48 62.81 L 346.08 62.74 L 346.68 62.68 L 347.28 62.62 L 347.88 62.56 L 348.48 62.51 L 349.09 62.46 L 349.69 62.41 L 350.30 62.36 L 350.90 62.32 L 351.50 62.28 L 352.11 62.24 L 352.72 62.20 L 353.32 62.17 L 353.93 62.14 L 354.53 62.11 L 355.14 62.09 L 355.75 62.07 L 356.35 62.05 L 356.96 62.04 L 357.57 62.02 L 358.18 62.01 L 358.78 62.01 L 359.39 62.00 L 360.00 62.00 L 360.61 62.00 L 361.22 62.01 L 361.82 62.01 L 362.43 62.02 L 363.04 62.04 L 363.65 62.05 L 364.25 62.07 L 364.86 62.09 L 365.47 62.11 L 366.07 62.14 L 366.68 62.17 L 367.28 62.20 L 367.89 62.24 L 368.50 62.28 L 369.10 62.32 L 369.70 62.36 L 370.31 62.41 L 370.91 62.46 L 371.52 62.51 L 372.12 62.56 L 372.72 62.62 L 373.32 62.68 L 373.92 62.74 L 374.52 62.81 L 375.12 62.88 L 375.72 62.95 L 376.32 63.03 L 376.91 63.10 L 377.51 63.18 L 378.11 63.27 L 378.70 63.35 L 379.30 63.44 L 379.89 63.53 L 380.48 63.63 L 381.07 63.72 L 381.66 63.82 L 382.25 63.93 L 382.84 64.03 L 383.43 64.14 L 384.01 64.25 L 384.60 64.37 L 385.18 64.48 L 385.76 64.60 L 386.35 64.73 L 386.93 64.85 L 387.51 64.98 L 388.08 65.11 L 388.66 65.25 L 389.24 65.39 L 389.81 65.53 L 390.38 65.67 L 390.96 65.82 L 391.53 65.96 L 392.09 66.12 L 392.66 66.27 L 393.23 66.43 L 393.79 66.59 L 394.36 66.75 L 394.92 66.92 L 395.48 67.09 L 396.04 67.26 L 396.59 67.44 L 397.15 67.62 L 397.70 67.80 L 398.25 67.98 L 398.80 68.17 L 399.35 68.36 L 399.90 68.56 L 400.45 68.75 L 400.99 68.95 L 401.53 69.15 L 402.07 69.36 L 402.61 69.57 L 403.15 69.78 L 403.68 70.00 L 404.21 70.22 L 404.75 70.44 L 405.27 70.66 L 405.80 70.89 L 406.33 71.12 L 406.85 71.36 L 407.37 71.60 L 407.89 71.84 L 408.41 72.08 L 408.92 72.33 L 409.44 72.58 L 409.95 72.84 L 410.46 73.09 L 410.96 73.36 L 411.47 73.62 L 411.97 73.89 L 412.47 74.16 L 412.97 74.44 L 413.47 74.72 L 413.96 75.00 L 414.45 75.29 L 414.94 75.58 L 415.43 75.87 L 415.91 76.17 L 416.39 76.47 L 416.87 76.78 L 417.35 77.09 L 417.82 77.40 L 418.30 77.72 L 418.77 78.04 L 419.23 78.36 L 419.70 78.69 L 420.16 79.03 L 420.62 79.36 L 421.07 79.71 L 421.53 80.05 L 421.98 80.40 L 422.43 80.76 L 422.87 81.12 L 423.31 81.48 L 423.75 81.85 L 424.19 82.23 L 424.62 82.60 L 425.05 82.99 L 425.48 83.37 L 425.90 83.77 L 426.32 84.16 L 426.74 84.56 L 427.15 84.97 L 427.56 85.38 L 427.96 85.80 L 428.37 86.22 L 428.76 86.65 L 429.16 87.08 L 429.55 87.52 L 429.93 87.96 L 430.31 88.41 L 430.69 88.87 L 431.06 89.33 L 431.43 89.79 L 431.80 90.26 L 432.15 90.74 L 432.51 91.22 L 432.86 91.71 L 433.20 92.20 L 433.54 92.70 L 433.87 93.21 L 434.20 93.72 L 434.52 94.23 L 434.83 94.76 L 435.14 95.28 L 435.45 95.82 L 435.74 96.36 L 436.03 96.90 L 436.32 97.45 L 436.59 98.01 L 436.86 98.57 L 437.12 99.13 L 437.38 99.71 L 437.62 100.28 L 437.86 100.87 L 438.09 101.45 L 438.31 102.05 L 438.53 102.64 L 438.73 103.25 L 438.93 103.85 L 439.12 104.46 L 439.30 105.08 L 439.47 105.70 L 439.63 106.32 L 439.78 106.95 L 439.92 107.58 L 440.05 108.22 L 440.17 108.85 L 440.28 109.49 L 440.38 110.14 L 440.47 110.78 L 440.55 111.43 L 440.62 112.08 L 440.68 112.73 L 440.73 113.38 L 440.77 114.04 L 440.80 114.69 L 440.81 115.34 L 440.82 116.00" fill="none" stroke="#adadad" stroke-width="1.3" stroke-linecap="round" stroke-linejoin="round"/>
  <path d="M 393.28 116.00 L 393.28 115.87 L 393.28 115.75 L 393.29 115.62 L 393.29 115.49 L 393.30 115.37 L 393.31 115.24 L 393.33 115.12 L 393.34 115.00 L 393.36 114.88 L 393.38 114.76 L 393.40 114.65 L 393.42 114.54 L 393.44 114.43 L 393.47 114.32 L 393.49 114.21 L 393.52 114.11 L 393.54 114.02 L 393.57 113.92 L 393.60 113.83 L 393.63 113.74 L 393.65 113.66 L 393.68 113.58 L 393.71 113.51 L 393.74 113.44 L 393.77 113.37 L 393.79 113.31 L 393.82 113.25 L 393.84 113.19 L 393.87 113.14 L 393.89 113.10 L 393.91 113.06 L 393.93 113.02 L 393.95 112.99 L 393.97 112.96 L 393.98 112.94 L 393.99 112.92 L 394.00 112.90 L 394.01 112.89 L 394.01 112.88 L 394.01 112.88 L 394.01 112.88 L 394.01 112.89 L 394.00 112.90 L 393.99 112.91 L 393.98 112.93 L 393.96 112.95 L 393.94 112.98 L 393.92 113.01 L 393.89 113.04 L 393.86 113.07 L 393.82 113.11 L 393.78 113.16 L 393.74 113.20 L 393.70 113.25 L 393.64 113.30 L 393.59 113.36 L 393.53 113.41 L 393.47 113.47 L 393.40 113.54 L 393.33 113.60 L 393.26 113.67 L 393.18 113.74 L 393.09 113.82 L 393.00 113.89 L 392.91 113.97 L 392.82 114.05 L 392.72 114.13 L 392.61 114.21 L 392.50 114.30 L 392.39 114.39 L 392.27 114.47 L 392.15 114.56 L 392.02 114.66 L 391.89 114.75 L 391.75 114.84 L 391.61 114.94 L 391.47 115.04 L 391.32 115.14 L 391.17 115.23 L 391.01 115.33 L 390.85 115.44 L 390.68 115.54 L 390.51 115.64 L 390.34 115.74 L 390.16 115.85 L 389.98 115.95" fill="none" stroke="#adadad" stroke-width="1.3" stroke-linecap="round" stroke-linejoin="round"/>
  <path d="M 330.21 116.06 L 330.02 115.95 L 329.84 115.85 L 329.66 115.74 L 329.49 115.64 L 329.32 115.54 L 329.15 115.44 L 328.99 115.33 L 328.83 115.23 L 328.68 115.14 L 328.53 115.04 L 328.39 114.94 L 328.25 114.84 L 328.11 114.75 L 327.98 114.66 L 327.85 114.56 L 327.73 114.47 L 327.61 114.39 L 327.50 114.30 L 327.39 114.21 L 327.28 114.13 L 327.18 114.05 L 327.09 113.97 L 327.00 113.89 L 326.91 113.82 L 326.82 113.74 L 326.74 113.67 L 326.67 113.60 L 326.60 113.54 L 326.53 113.47 L 326.47 113.41 L 326.41 113.36 L 326.36 113.30 L 326.30 113.25 L 326.26 113.20 L 326.22 113.16 L 326.18 113.11 L 326.14 113.07 L 326.11 113.04 L 326.08 113.01 L 326.06 112.98 L 326.04 112.95 L 326.02 112.93 L 326.01 112.91 L 326.00 112.90 L 325.99 112.89 L 325.99 112.88 L 325.99 112.88 L 325.99 112.88 L 325.99 112.89 L 326.00 112.90 L 326.01 112.92 L 326.02 112.94 L 326.03 112.96 L 326.05 112.99 L 326.07 113.02 L 326.09 113.06 L 326.11 113.10 L 326.13 113.14 L 326.16 113.19 L 326.18 113.25 L 326.21 113.31 L 326.23 113.37 L 326.26 113.44 L 326.29 113.51 L 326.32 113.58 L 326.35 113.66 L 326.37 113.74 L 326.40 113.83 L 326.43 113.92 L 326.46 114.02 L 326.48 114.11 L 326.51 114.21 L 326.53 114.32 L 326.56 114.43 L 326.58 114.54 L 326.60 114.65 L 326.62 114.76 L 326.64 114.88 L 326.66 115.00 L 326.67 115.12 L 326.69 115.24 L 326.70 115.37 L 326.71 115.49 L 326.71 115.62 L 326.72 115.75 L 326.72 115.87 L 326.72 116.00" fill="none" stroke="#adadad" stroke-width="1.3" stroke-linecap="round" stroke-linejoin="round"/>
  <path d="M 330.02 116.05 L 330.21 115.94 L 330.40 115.84 L 330.59 115.73 L 330.79 115.63 L 330.99 115.52 L 331.20 115.41 L 331.41 115.31 L 331.62 115.20 L 331.84 115.09 L 332.06 114.99 L 332.29 114.88 L 332.52 114.77 L 332.75 114.67 L 332.99 114.56 L 333.23 114.46 L 333.47 114.35 L 333.72 114.24 L 333.97 114.14 L 334.23 114.04 L 334.48 113.93 L 334.74 113.83 L 335.01 113.73 L 335.28 113.62 L 335.55 113.52 L 335.82 113.42 L 336.10 113.32 L 336.38 113.22 L 336.66 113.12 L 336.95 113.02 L 337.24 112.93 L 337.53 112.83 L 337.83 112.74 L 338.13 112.64 L 338.43 112.55 L 338.73 112.46 L 339.04 112.37 L 339.35 112.28 L 339.66 112.19 L 339.98 112.10 L 340.30 112.01 L 340.62 111.93 L 340.94 111.84 L 341.27 111.76 L 341.59 111.68 L 341.92 111.60 L 342.26 111.52 L 342.59 111.44 L 342.93 111.36 L 343.27 111.29 L 343.61 111.21 L 343.95 111.14 L 344.29 111.07 L 344.64 111.00 L 344.99 110.93 L 345.34 110.87 L 345.69 110.80 L 346.05 110.74 L 346.40 110.67 L 346.76 110.61 L 347.12 110.55 L 347.48 110.50 L 347.85 110.44 L 348.21 110.39 L 348.58 110.33 L 348.94 110.28 L 349.31 110.23 L 349.68 110.18 L 350.05 110.14 L 350.43 110.09 L 350.80 110.05 L 351.17 110.01 L 351.55 109.97 L 351.93 109.93 L 352.31 109.90 L 352.68 109.86 L 353.06 109.83 L 353.44 109.80 L 353.83 109.77 L 354.21 109.74 L 354.59 109.71 L 354.97 109.69 L 355.36 109.67 L 355.74 109.65 L 356.13 109.63 L 356.51 109.61 L 356.90 109.60 L 357.29 109.58 L 357.67 109.57 L 358.06 109.56 L 358.45 109.55 L 358.84 109.55 L 359.22 109.54 L 359.61 109.54 L 360.00 109.54 L 360.39 109.54 L 360.78 109.54 L 361.16 109.55 L 361.55 109.55 L 361.94 109.56 L 362.33 109.57 L 362.71 109.58 L 363.10 109.60 L 363.49 109.61 L 363.87 109.63 L 364.26 109.65 L 364.64 109.67 L 365.03 109.69 L 365.41 109.71 L 365.79 109.74 L 366.17 109.77 L 366.56 109.80 L 366.94 109.83 L 367.32 109.86 L 367.69 109.90 L 368.07 109.93 L 368.45 109.97 L 368.83 110.01 L 369.20 110.05 L 369.57 110.09 L 369.95 110.14 L 370.32 110.18 L 370.69 110.23 L 371.06 110.28 L 371.42 110.33 L 371.79 110.39 L 372.15 110.44 L 372.52 110.50 L 372.88 110.55 L 373.24 110.61 L 373.60 110.67 L 373.95 110.74 L 374.31 110.80 L 374.66 110.87 L 375.01 110.93 L 375.36 111.00 L 375.71 111.07 L 376.05 111.14 L 376.39 111.21 L 376.73 111.29 L 377.07 111.36 L 377.41 111.44 L 377.74 111.52 L 378.08 111.60 L 378.41 111.68 L 378.73 111.76 L 379.06 111.84 L 379.38 111.93 L 379.70 112.01 L 380.02 112.10 L 380.34 112.19 L 380.65 112.28 L 380.96 112.37 L 381.27 112.46 L 381.57 112.55 L 381.87 112.64 L 382.17 112.74 L 382.47 112.83 L 382.76 112.93 L 383.05 113.02 L 383.34 113.12 L 383.62 113.22 L 383.90 113.32 L 384.18 113.42 L 384.45 113.52 L 384.72 113.62 L 384.99 113.73 L 385.26 113.83 L 385.52 113.93 L 385.77 114.04 L 386.03 114.14 L 386.28 114.24 L 386.53 114.35 L 386.77 114.46 L 387.01 114.56 L 387.25 114.67 L 387.48 114.77 L 387.71 114.88 L 387.94 114.99 L 388.16 115.09 L 388.38 115.20 L 388.59 115.31 L 388.80 115.41 L 389.01 115.52 L 389.21 115.63 L 389.41 115.73 L 389.60 115.84 L 389.79 115.94" fill="none" stroke="#adadad" stroke-width="1.3" stroke-linecap="round" stroke-linejoin="round"/>
  <path d="M 337.73 102.90 L 337.95 102.79 L 338.17 102.69 L 338.39 102.59 L 338.61 102.49 L 338.83 102.39 L 339.06 102.30 L 339.28 102.20 L 339.51 102.10 L 339.74 102.01 L 339.97 101.92 L 340.21 101.82 L 340.44 101.73 L 340.68 101.64 L 340.91 101.55 L 341.15 101.47 L 341.39 101.38 L 341.63 101.29 L 341.88 101.21 L 342.12 101.13 L 342.37 101.05 L 342.61 100.96 L 342.86 100.88 L 343.11 100.81 L 343.36 100.73 L 343.61 100.65 L 343.87 100.58 L 344.12 100.50 L 344.38 100.43 L 344.63 100.36 L 344.89 100.29 L 345.15 100.22 L 345.41 100.15 L 345.67 100.08 L 345.94 100.02 L 346.20 99.95 L 346.46 99.89 L 346.73 99.83 L 347.00 99.77 L 347.27 99.71 L 347.53 99.65 L 347.80 99.59 L 348.07 99.54 L 348.35 99.48 L 348.62 99.43 L 348.89 99.38 L 349.17 99.33 L 349.44 99.28 L 349.72 99.23 L 349.99 99.18 L 350.27 99.14 L 350.55 99.09 L 350.83 99.05 L 351.11 99.01 L 351.39 98.97 L 351.67 98.93 L 351.95 98.89 L 352.23 98.85 L 352.51 98.82 L 352.80 98.78 L 353.08 98.75 L 353.37 98.72 L 353.65 98.69 L 353.94 98.66 L 354.22 98.63 L 354.51 98.61 L 354.79 98.58 L 355.08 98.56 L 355.37 98.54 L 355.66 98.52 L 355.94 98.50 L 356.23 98.48 L 356.52 98.46 L 356.81 98.45 L 357.10 98.43 L 357.39 98.42 L 357.68 98.41 L 357.97 98.40 L 358.26 98.39 L 358.55 98.38 L 358.84 98.38 L 359.13 98.37 L 359.42 98.37 L 359.71 98.37 L 360.00 98.37 L 360.29 98.37 L 360.58 98.37 L 360.87 98.37 L 361.16 98.38 L 361.45 98.38 L 361.74 98.39 L 362.03 98.40 L 362.32 98.41 L 362.61 98.42 L 362.90 98.43 L 363.19 98.45 L 363.48 98.46 L 363.77 98.48 L 364.06 98.50 L 364.34 98.52 L 364.63 98.54 L 364.92 98.56 L 365.21 98.58 L 365.49 98.61 L 365.78 98.63 L 366.06 98.66 L 366.35 98.69 L 366.63 98.72 L 366.92 98.75 L 367.20 98.78 L 367.49 98.82 L 367.77 98.85 L 368.05 98.89 L 368.33 98.93 L 368.61 98.97 L 368.89 99.01 L 369.17 99.05 L 369.45 99.09 L 369.73 99.14 L 370.01 99.18 L 370.28 99.23 L 370.56 99.28 L 370.83 99.33 L 371.11 99.38 L 371.38 99.43 L 371.65 99.48 L 371.93 99.54 L 372.20 99.59 L 372.47 99.65 L 372.73 99.71 L 373.00 99.77 L 373.27 99.83 L 373.54 99.89 L 373.80 99.95 L 374.06 100.02 L 374.33 100.08 L 374.59 100.15 L 374.85 100.22 L 375.11 100.29 L 375.37 100.36 L 375.62 100.43 L 375.88 100.50 L 376.13 100.58 L 376.39 100.65 L 376.64 100.73 L 376.89 100.81 L 377.14 100.88 L 377.39 100.96 L 377.63 101.05 L 377.88 101.13 L 378.12 101.21 L 378.37 101.29 L 378.61 101.38 L 378.85 101.47 L 379.09 101.55 L 379.32 101.64 L 379.56 101.73 L 379.79 101.82 L 380.03 101.92 L 380.26 102.01 L 380.49 102.10 L 380.72 102.20 L 380.94 102.30 L 381.17 102.39 L 381.39 102.49 L 381.61 102.59 L 381.83 102.69 L 382.05 102.79 L 382.27 102.90 L 382.48 103.00 L 382.70 103.10 L 382.91 103.21 L 383.12 103.31 L 383.32 103.42 L 383.53 103.53 L 383.74 103.64 L 383.94 103.75 L 384.14 103.86 L 384.34 103.97 L 384.53 104.09 L 384.73 104.20 L 384.92 104.32 L 385.11 104.43 L 385.30 104.55 L 385.49 104.66 L 385.68 104.78 L 385.86 104.90 L 386.04 105.02 L 386.22 105.14 L 386.40 105.26" fill="none" stroke="#adadad" stroke-width="1.1" stroke-linecap="round" stroke-linejoin="round"/>
</g>
  <text x="360" y="40" text-anchor="middle" font-size="15" fill="#555" font-style="italic">the object</text>

  <!-- observer dots, placed by viewing angle relative to the torus -->
  <circle cx="360" cy="114" r="7" fill="#1f9b9b"/>          <!-- teal: inside the hole -->
  <circle cx="360" cy="206" r="7" fill="#3a72b0"/>          <!-- blue: squarely below the torus -->
  <circle cx="508" cy="200" r="7" fill="#8a52a8"/>          <!-- purple: on the diagonal -->

  <!-- what the blue observer sees, from below the axis: the ring -->
  <circle cx="360" cy="286" r="34" fill="none" stroke="#3a72b0" stroke-width="3"/>
  <circle cx="360" cy="286" r="14" fill="none" stroke="#3a72b0" stroke-width="3"/>
  <text x="360" y="344" text-anchor="middle" font-size="14" fill="#333">observer</text>

  <!-- what the purple observer sees, oblique: a solid oval -->
  <ellipse cx="600" cy="286" rx="40" ry="24" fill="none" stroke="#8a52a8" stroke-width="3"/>
  <text x="600" y="344" text-anchor="middle" font-size="14" fill="#333">observer</text>

  <!-- what the teal observer sees, inside the hole: a hyperbola (the saddle wall) -->
  <path d="M 102 252 Q 130 286 102 320" fill="none" stroke="#1f9b9b" stroke-width="3"/>
  <path d="M 158 252 Q 130 286 158 320" fill="none" stroke="#1f9b9b" stroke-width="3"/>
  <text x="130" y="344" text-anchor="middle" font-size="14" fill="#333">observer</text>
</svg>
