<svg xmlns="http://www.w3.org/2000/svg" viewBox="0 0 720 470" font-family="-apple-system, BlinkMacSystemFont, 'Segoe UI', Roboto, Helvetica, Arial, sans-serif">
  <!-- the object: a torus rendered by a parametric program (3/4 view), one determinate solid -->
<g fill="none" stroke-linecap="round" stroke-linejoin="round">
  <path d="M 392.20 151.95 L 392.00 152.06 L 391.79 152.17 L 391.59 152.29 L 391.37 152.40 L 391.15 152.52 L 390.93 152.63 L 390.71 152.74 L 390.48 152.86 L 390.24 152.97 L 390.01 153.09 L 389.76 153.20 L 389.52 153.32 L 389.27 153.43 L 389.01 153.55 L 388.75 153.66 L 388.49 153.77 L 388.23 153.89 L 387.96 154.00 L 387.68 154.11 L 387.41 154.22 L 387.13 154.33 L 386.84 154.44 L 386.55 154.55 L 386.26 154.66 L 385.97 154.77 L 385.67 154.88 L 385.37 154.98 L 385.06 155.09 L 384.76 155.20 L 384.44 155.30 L 384.13 155.40 L 383.81 155.50 L 383.49 155.61 L 383.17 155.71 L 382.84 155.81 L 382.51 155.90 L 382.18 156.00 L 381.84 156.10 L 381.50 156.19 L 381.16 156.28 L 380.82 156.37 L 380.47 156.47 L 380.12 156.55 L 379.77 156.64 L 379.42 156.73 L 379.06 156.81 L 378.70 156.90 L 378.34 156.98 L 377.97 157.06 L 377.61 157.14 L 377.24 157.22 L 376.87 157.30 L 376.50 157.37 L 376.12 157.44 L 375.74 157.51 L 375.37 157.58 L 374.98 157.65 L 374.60 157.72 L 374.22 157.79 L 373.83 157.85 L 373.44 157.91 L 373.05 157.97 L 372.66 158.03 L 372.27 158.09 L 371.88 158.14 L 371.48 158.19 L 371.08 158.25 L 370.68 158.30 L 370.28 158.34 L 369.88 158.39 L 369.48 158.43 L 369.08 158.48 L 368.67 158.52 L 368.26 158.56 L 367.86 158.59 L 367.45 158.63 L 367.04 158.66 L 366.63 158.69 L 366.22 158.72 L 365.81 158.75 L 365.40 158.78 L 364.99 158.80 L 364.57 158.82 L 364.16 158.84 L 363.74 158.86 L 363.33 158.88 L 362.91 158.89 L 362.50 158.90 L 362.08 158.92 L 361.67 158.92 L 361.25 158.93 L 360.83 158.94 L 360.42 158.94 L 360.00 158.94 L 359.58 158.94 L 359.17 158.94 L 358.75 158.93 L 358.33 158.92 L 357.92 158.92 L 357.50 158.90 L 357.09 158.89 L 356.67 158.88 L 356.26 158.86 L 355.84 158.84 L 355.43 158.82 L 355.01 158.80 L 354.60 158.78 L 354.19 158.75 L 353.78 158.72 L 353.37 158.69 L 352.96 158.66 L 352.55 158.63 L 352.14 158.59 L 351.74 158.56 L 351.33 158.52 L 350.92 158.48 L 350.52 158.43 L 350.12 158.39 L 349.72 158.34 L 349.32 158.30 L 348.92 158.25 L 348.52 158.19 L 348.12 158.14 L 347.73 158.09 L 347.34 158.03 L 346.95 157.97 L 346.56 157.91 L 346.17 157.85 L 345.78 157.79 L 345.40 157.72 L 345.02 157.65 L 344.63 157.58 L 344.26 157.51 L 343.88 157.44 L 343.50 157.37 L 343.13 157.30 L 342.76 157.22 L 342.39 157.14 L 342.03 157.06 L 341.66 156.98 L 341.30 156.90 L 340.94 156.81 L 340.58 156.73 L 340.23 156.64 L 339.88 156.55 L 339.53 156.47 L 339.18 156.37 L 338.84 156.28 L 338.50 156.19 L 338.16 156.10 L 337.82 156.00 L 337.49 155.90 L 337.16 155.81 L 336.83 155.71 L 336.51 155.61 L 336.19 155.50 L 335.87 155.40 L 335.56 155.30 L 335.24 155.20 L 334.94 155.09 L 334.63 154.98 L 334.33 154.88 L 334.03 154.77 L 333.74 154.66 L 333.45 154.55 L 333.16 154.44 L 332.87 154.33 L 332.59 154.22 L 332.32 154.11 L 332.04 154.00 L 331.77 153.89 L 331.51 153.77 L 331.25 153.66 L 330.99 153.55 L 330.73 153.43 L 330.48 153.32 L 330.24 153.20 L 329.99 153.09 L 329.76 152.97 L 329.52 152.86 L 329.29 152.74 L 329.07 152.63 L 328.85 152.52 L 328.63 152.40 L 328.41 152.29 L 328.21 152.17 L 328.00 152.06" fill="none" stroke="#c2c2c2" stroke-width="1.3" stroke-linecap="round" stroke-linejoin="round" stroke-dasharray="4 4"/>
  <path d="M 324.26 152.00 L 324.26 152.14 L 324.25 152.27 L 324.25 152.41 L 324.24 152.55 L 324.23 152.68 L 324.22 152.81 L 324.20 152.95 L 324.19 153.07 L 324.17 153.20 L 324.15 153.33 L 324.13 153.45 L 324.11 153.57 L 324.08 153.69 L 324.06 153.81 L 324.03 153.92 L 324.00 154.03 L 323.97 154.13 L 323.94 154.23 L 323.91 154.33 L 323.88 154.42 L 323.85 154.51 L 323.82 154.60 L 323.79 154.68 L 323.76 154.75 L 323.73 154.83 L 323.70 154.89 L 323.68 154.96 L 323.65 155.01 L 323.62 155.07 L 323.60 155.12 L 323.58 155.16 L 323.55 155.20 L 323.54 155.24 L 323.52 155.27 L 323.50 155.29 L 323.49 155.31 L 323.48 155.33 L 323.47 155.34 L 323.47 155.35 L 323.47 155.35 L 323.47 155.35 L 323.47 155.34 L 323.48 155.33 L 323.49 155.32 L 323.51 155.30 L 323.52 155.27 L 323.55 155.25 L 323.57 155.22 L 323.60 155.18 L 323.63 155.14 L 323.67 155.10 L 323.71 155.06 L 323.76 155.01 L 323.81 154.95 L 323.86 154.90 L 323.92 154.84 L 323.98 154.78 L 324.05 154.71 L 324.12 154.64 L 324.20 154.57 L 324.28 154.50 L 324.37 154.42 L 324.46 154.35 L 324.55 154.27 L 324.65 154.18 L 324.75 154.10 L 324.86 154.01 L 324.97 153.92 L 325.09 153.83 L 325.21 153.73 L 325.34 153.64 L 325.47 153.54 L 325.61 153.44 L 325.75 153.34 L 325.90 153.24 L 326.05 153.14 L 326.20 153.03 L 326.36 152.93 L 326.53 152.82 L 326.69 152.71 L 326.87 152.61 L 327.05 152.50 L 327.23 152.39 L 327.41 152.28 L 327.61 152.16 L 327.80 152.05" fill="none" stroke="#c2c2c2" stroke-width="1.3" stroke-linecap="round" stroke-linejoin="round" stroke-dasharray="4 4"/>
  <path d="M 392.00 151.94 L 392.20 152.05 L 392.39 152.16 L 392.59 152.28 L 392.77 152.39 L 392.95 152.50 L 393.13 152.61 L 393.31 152.71 L 393.47 152.82 L 393.64 152.93 L 393.80 153.03 L 393.95 153.14 L 394.10 153.24 L 394.25 153.34 L 394.39 153.44 L 394.53 153.54 L 394.66 153.64 L 394.79 153.73 L 394.91 153.83 L 395.03 153.92 L 395.14 154.01 L 395.25 154.10 L 395.35 154.18 L 395.45 154.27 L 395.54 154.35 L 395.63 154.42 L 395.72 154.50 L 395.80 154.57 L 395.88 154.64 L 395.95 154.71 L 396.02 154.78 L 396.08 154.84 L 396.14 154.90 L 396.19 154.95 L 396.24 155.01 L 396.29 155.06 L 396.33 155.10 L 396.37 155.14 L 396.40 155.18 L 396.43 155.22 L 396.45 155.25 L 396.48 155.27 L 396.49 155.30 L 396.51 155.32 L 396.52 155.33 L 396.53 155.34 L 396.53 155.35 L 396.53 155.35 L 396.53 155.35 L 396.53 155.34 L 396.52 155.33 L 396.51 155.31 L 396.50 155.29 L 396.48 155.27 L 396.46 155.24 L 396.45 155.20 L 396.42 155.16 L 396.40 155.12 L 396.38 155.07 L 396.35 155.01 L 396.32 154.96 L 396.30 154.89 L 396.27 154.83 L 396.24 154.75 L 396.21 154.68 L 396.18 154.60 L 396.15 154.51 L 396.12 154.42 L 396.09 154.33 L 396.06 154.23 L 396.03 154.13 L 396.00 154.03 L 395.97 153.92 L 395.94 153.81 L 395.92 153.69 L 395.89 153.57 L 395.87 153.45 L 395.85 153.33 L 395.83 153.20 L 395.81 153.07 L 395.80 152.95 L 395.78 152.81 L 395.77 152.68 L 395.76 152.55 L 395.75 152.41 L 395.75 152.27 L 395.74 152.14" fill="none" stroke="#c2c2c2" stroke-width="1.3" stroke-linecap="round" stroke-linejoin="round" stroke-dasharray="4 4"/>
  <path d="M 395.74 152.00 L 395.74 152.17 L 395.74 152.33 L 395.73 152.50 L 395.72 152.66 L 395.71 152.83 L 395.69 152.99 L 395.68 153.16 L 395.66 153.32 L 395.63 153.49 L 395.61 153.65 L 395.58 153.82 L 395.55 153.98 L 395.51 154.14 L 395.48 154.31 L 395.44 154.47 L 395.39 154.64 L 395.35 154.80 L 395.30 154.96 L 395.25 155.13 L 395.20 155.29 L 395.14 155.45 L 395.09 155.61 L 395.02 155.78 L 394.96 155.94 L 394.90 156.10 L 394.83 156.26 L 394.75 156.42 L 394.68 156.58 L 394.60 156.74 L 394.52 156.90 L 394.44 157.06 L 394.36 157.22 L 394.27 157.38 L 394.18 157.54 L 394.09 157.70 L 393.99 157.85 L 393.90 158.01 L 393.80 158.17 L 393.69 158.32 L 393.59 158.48 L 393.48 158.63 L 393.37 158.79 L 393.26 158.94 L 393.14 159.10 L 393.02 159.25 L 392.90 159.40 L 392.78 159.55 L 392.65 159.70 L 392.52 159.85 L 392.39 160.00 L 392.26 160.15 L 392.13 160.30 L 391.99 160.45 L 391.85 160.60 L 391.70 160.75 L 391.56 160.89 L 391.41 161.04 L 391.26 161.18 L 391.11 161.33 L 390.95 161.47 L 390.80 161.61 L 390.64 161.76 L 390.48 161.90 L 390.31 162.04 L 390.14 162.18 L 389.98 162.32 L 389.81 162.45 L 389.63 162.59 L 389.46 162.73 L 389.28 162.86 L 389.10 163.00 L 388.92 163.13 L 388.73 163.27 L 388.55 163.40 L 388.36 163.53 L 388.17 163.66 L 387.97 163.79 L 387.78 163.92 L 387.58 164.05 L 387.38 164.17 L 387.18 164.30 L 386.98 164.43 L 386.77 164.55 L 386.56 164.67 L 386.35 164.80 L 386.14 164.92 L 385.93 165.04 L 385.71 165.16 L 385.49 165.28 L 385.27 165.39 L 385.05 165.51 L 384.83 165.62 L 384.60 165.74 L 384.38 165.85 L 384.15 165.96 L 383.92 166.08 L 383.68 166.19 L 383.45 166.29 L 383.21 166.40 L 382.97 166.51 L 382.74 166.62 L 382.49 166.72 L 382.25 166.82 L 382.01 166.93 L 381.76 167.03 L 381.51 167.13 L 381.26 167.23 L 381.01 167.32 L 380.76 167.42 L 380.50 167.52 L 380.24 167.61 L 379.99 167.70 L 379.73 167.79 L 379.47 167.88 L 379.20 167.97 L 378.94 168.06 L 378.68 168.15 L 378.41 168.24 L 378.14 168.32 L 377.87 168.40 L 377.60 168.49 L 377.33 168.57 L 377.05 168.65 L 376.78 168.72 L 376.50 168.80 L 376.23 168.88 L 375.95 168.95 L 375.67 169.02 L 375.39 169.10 L 375.11 169.17 L 374.82 169.24 L 374.54 169.30 L 374.25 169.37 L 373.97 169.43 L 373.68 169.50 L 373.39 169.56 L 373.10 169.62 L 372.81 169.68 L 372.52 169.74 L 372.22 169.80 L 371.93 169.85 L 371.64 169.91 L 371.34 169.96 L 371.05 170.01 L 370.75 170.06 L 370.45 170.11 L 370.15 170.16 L 369.85 170.21 L 369.55 170.25 L 369.25 170.30 L 368.95 170.34 L 368.65 170.38 L 368.34 170.42 L 368.04 170.46 L 367.74 170.49 L 367.43 170.53 L 367.13 170.56 L 366.82 170.59 L 366.51 170.62 L 366.21 170.65 L 365.90 170.68 L 365.59 170.71 L 365.28 170.73 L 364.97 170.76 L 364.67 170.78 L 364.36 170.80 L 364.05 170.82 L 363.74 170.84 L 363.43 170.85 L 363.12 170.87 L 362.80 170.88 L 362.49 170.89 L 362.18 170.91 L 361.87 170.91 L 361.56 170.92 L 361.25 170.93 L 360.94 170.93 L 360.62 170.94 L 360.31 170.94 L 360.00 170.94 L 359.69 170.94 L 359.38 170.94 L 359.06 170.93 L 358.75 170.93 L 358.44 170.92 L 358.13 170.91 L 357.82 170.91 L 357.51 170.89 L 357.20 170.88 L 356.88 170.87 L 356.57 170.85 L 356.26 170.84 L 355.95 170.82 L 355.64 170.80 L 355.33 170.78 L 355.03 170.76 L 354.72 170.73 L 354.41 170.71 L 354.10 170.68 L 353.79 170.65 L 353.49 170.62 L 353.18 170.59 L 352.87 170.56 L 352.57 170.53 L 352.26 170.49 L 351.96 170.46 L 351.66 170.42 L 351.35 170.38 L 351.05 170.34 L 350.75 170.30 L 350.45 170.25 L 350.15 170.21 L 349.85 170.16 L 349.55 170.11 L 349.25 170.06 L 348.95 170.01 L 348.66 169.96 L 348.36 169.91 L 348.07 169.85 L 347.78 169.80 L 347.48 169.74 L 347.19 169.68 L 346.90 169.62 L 346.61 169.56 L 346.32 169.50 L 346.03 169.43 L 345.75 169.37 L 345.46 169.30 L 345.18 169.24 L 344.89 169.17 L 344.61 169.10 L 344.33 169.02 L 344.05 168.95 L 343.77 168.88 L 343.50 168.80 L 343.22 168.72 L 342.95 168.65 L 342.67 168.57 L 342.40 168.49 L 342.13 168.40 L 341.86 168.32 L 341.59 168.24 L 341.32 168.15 L 341.06 168.06 L 340.80 167.97 L 340.53 167.88 L 340.27 167.79 L 340.01 167.70 L 339.76 167.61 L 339.50 167.52 L 339.24 167.42 L 338.99 167.32 L 338.74 167.23 L 338.49 167.13 L 338.24 167.03 L 337.99 166.93 L 337.75 166.82 L 337.51 166.72 L 337.26 166.62 L 337.03 166.51 L 336.79 166.40 L 336.55 166.29 L 336.32 166.19 L 336.08 166.08 L 335.85 165.96 L 335.62 165.85 L 335.40 165.74 L 335.17 165.62 L 334.95 165.51 L 334.73 165.39 L 334.51 165.28 L 334.29 165.16 L 334.07 165.04 L 333.86 164.92 L 333.65 164.80 L 333.44 164.67 L 333.23 164.55 L 333.02 164.43 L 332.82 164.30 L 332.62 164.17 L 332.42 164.05 L 332.22 163.92 L 332.03 163.79 L 331.83 163.66 L 331.64 163.53 L 331.45 163.40 L 331.27 163.27 L 331.08 163.13 L 330.90 163.00 L 330.72 162.86 L 330.54 162.73 L 330.37 162.59 L 330.19 162.45 L 330.02 162.32 L 329.86 162.18 L 329.69 162.04 L 329.52 161.90 L 329.36 161.76 L 329.20 161.61 L 329.05 161.47 L 328.89 161.33 L 328.74 161.18 L 328.59 161.04 L 328.44 160.89 L 328.30 160.75 L 328.15 160.60 L 328.01 160.45 L 327.87 160.30 L 327.74 160.15 L 327.61 160.00 L 327.48 159.85 L 327.35 159.70 L 327.22 159.55 L 327.10 159.40 L 326.98 159.25 L 326.86 159.10 L 326.74 158.94 L 326.63 158.79 L 326.52 158.63 L 326.41 158.48 L 326.31 158.32 L 326.20 158.17 L 326.10 158.01 L 326.01 157.85 L 325.91 157.70 L 325.82 157.54 L 325.73 157.38 L 325.64 157.22 L 325.56 157.06 L 325.48 156.90 L 325.40 156.74 L 325.32 156.58 L 325.25 156.42 L 325.17 156.26 L 325.10 156.10 L 325.04 155.94 L 324.98 155.78 L 324.91 155.61 L 324.86 155.45 L 324.80 155.29 L 324.75 155.13 L 324.70 154.96 L 324.65 154.80 L 324.61 154.64 L 324.56 154.47 L 324.52 154.31 L 324.49 154.14 L 324.45 153.98 L 324.42 153.82 L 324.39 153.65 L 324.37 153.49 L 324.34 153.32 L 324.32 153.16 L 324.31 152.99 L 324.29 152.83 L 324.28 152.66 L 324.27 152.50 L 324.26 152.33 L 324.26 152.17 L 324.26 152.00 L 324.26 151.83 L 324.26 151.67 L 324.27 151.50 L 324.28 151.34 L 324.29 151.17 L 324.31 151.01 L 324.32 150.84 L 324.34 150.68 L 324.37 150.51 L 324.39 150.35 L 324.42 150.18 L 324.45 150.02 L 324.49 149.86 L 324.52 149.69 L 324.56 149.53 L 324.61 149.36 L 324.65 149.20 L 324.70 149.04 L 324.75 148.87 L 324.80 148.71 L 324.86 148.55 L 324.91 148.39 L 324.98 148.22 L 325.04 148.06 L 325.10 147.90 L 325.17 147.74 L 325.25 147.58 L 325.32 147.42 L 325.40 147.26 L 325.48 147.10 L 325.56 146.94 L 325.64 146.78 L 325.73 146.62 L 325.82 146.46 L 325.91 146.30 L 326.01 146.15 L 326.10 145.99 L 326.20 145.83 L 326.31 145.68 L 326.41 145.52 L 326.52 145.37 L 326.63 145.21 L 326.74 145.06 L 326.86 144.90 L 326.98 144.75 L 327.10 144.60 L 327.22 144.45 L 327.35 144.30 L 327.48 144.15 L 327.61 144.00 L 327.74 143.85 L 327.87 143.70 L 328.01 143.55 L 328.15 143.40 L 328.30 143.25 L 328.44 143.11 L 328.59 142.96 L 328.74 142.82 L 328.89 142.67 L 329.05 142.53 L 329.20 142.39 L 329.36 142.24 L 329.52 142.10 L 329.69 141.96 L 329.86 141.82 L 330.02 141.68 L 330.19 141.55 L 330.37 141.41 L 330.54 141.27 L 330.72 141.14 L 330.90 141.00 L 331.08 140.87 L 331.27 140.73 L 331.45 140.60 L 331.64 140.47 L 331.83 140.34 L 332.03 140.21 L 332.22 140.08 L 332.42 139.95 L 332.62 139.83 L 332.82 139.70 L 333.02 139.57 L 333.23 139.45 L 333.44 139.33 L 333.65 139.20 L 333.86 139.08 L 334.07 138.96 L 334.29 138.84 L 334.51 138.72 L 334.73 138.61 L 334.95 138.49 L 335.17 138.38 L 335.40 138.26 L 335.62 138.15 L 335.85 138.04 L 336.08 137.92" fill="none" stroke="#c2c2c2" stroke-width="1.1" stroke-linecap="round" stroke-linejoin="round" stroke-dasharray="4 4"/>
  <path d="M 388.36 140.47 L 388.55 140.60 L 388.73 140.73 L 388.92 140.87 L 389.10 141.00 L 389.28 141.14 L 389.46 141.27 L 389.63 141.41 L 389.81 141.55 L 389.98 141.68 L 390.14 141.82 L 390.31 141.96 L 390.48 142.10 L 390.64 142.24 L 390.80 142.39 L 390.95 142.53 L 391.11 142.67 L 391.26 142.82 L 391.41 142.96 L 391.56 143.11 L 391.70 143.25 L 391.85 143.40 L 391.99 143.55 L 392.13 143.70 L 392.26 143.85 L 392.39 144.00 L 392.52 144.15 L 392.65 144.30 L 392.78 144.45 L 392.90 144.60 L 393.02 144.75 L 393.14 144.90 L 393.26 145.06 L 393.37 145.21 L 393.48 145.37 L 393.59 145.52 L 393.69 145.68 L 393.80 145.83 L 393.90 145.99 L 393.99 146.15 L 394.09 146.30 L 394.18 146.46 L 394.27 146.62 L 394.36 146.78 L 394.44 146.94 L 394.52 147.10 L 394.60 147.26 L 394.68 147.42 L 394.75 147.58 L 394.83 147.74 L 394.90 147.90 L 394.96 148.06 L 395.02 148.22 L 395.09 148.39 L 395.14 148.55 L 395.20 148.71 L 395.25 148.87 L 395.30 149.04 L 395.35 149.20 L 395.39 149.36 L 395.44 149.53 L 395.48 149.69 L 395.51 149.86 L 395.55 150.02 L 395.58 150.18 L 395.61 150.35 L 395.63 150.51 L 395.66 150.68 L 395.68 150.84 L 395.69 151.01 L 395.71 151.17 L 395.72 151.34 L 395.73 151.50 L 395.74 151.67 L 395.74 151.83 L 395.74 152.00" fill="none" stroke="#c2c2c2" stroke-width="1.1" stroke-linecap="round" stroke-linejoin="round" stroke-dasharray="4 4"/>
  <path d="M 421.27 130.35 L 421.27 130.63 L 421.26 130.92 L 421.25 131.20 L 421.24 131.48 L 421.21 131.77 L 421.19 132.05 L 421.16 132.33 L 421.12 132.61 L 421.08 132.90 L 421.04 133.18 L 420.99 133.46 L 420.94 133.74 L 420.88 134.02 L 420.82 134.31 L 420.75 134.59 L 420.68 134.87 L 420.60 135.15 L 420.52 135.43 L 420.43 135.71 L 420.34 135.99 L 420.25 136.27 L 420.15 136.54 L 420.04 136.82 L 419.93 137.10 L 419.82 137.38 L 419.70 137.65 L 419.58 137.93 L 419.45 138.20 L 419.32 138.48 L 419.19 138.75 L 419.04 139.03 L 418.90 139.30 L 418.75 139.57 L 418.60 139.84 L 418.44 140.11 L 418.27 140.38 L 418.11 140.65 L 417.93 140.92 L 417.76 141.19 L 417.58 141.45 L 417.39 141.72 L 417.20 141.99 L 417.01 142.25 L 416.81 142.51 L 416.61 142.77 L 416.40 143.04 L 416.19 143.30 L 415.98 143.56 L 415.76 143.81 L 415.53 144.07 L 415.30 144.33 L 415.07 144.58 L 414.84 144.84 L 414.59 145.09 L 414.35 145.34 L 414.10 145.59 L 413.85 145.84 L 413.59 146.09 L 413.33 146.34 L 413.06 146.58 L 412.79 146.83 L 412.52 147.07 L 412.24 147.31 L 411.96 147.56 L 411.68 147.79 L 411.39 148.03 L 411.09 148.27 L 410.80 148.51 L 410.50 148.74 L 410.19 148.97 L 409.88 149.20 L 409.57 149.43 L 409.25 149.66 L 408.93 149.89 L 408.61 150.12 L 408.28 150.34 L 407.95 150.56 L 407.62 150.78 L 407.28 151.00 L 406.94 151.22 L 406.59 151.44 L 406.24 151.65 L 405.89 151.86 L 405.53 152.08 L 405.18 152.29 L 404.81 152.49 L 404.45 152.70 L 404.08 152.90 L 403.70 153.11 L 403.33 153.31 L 402.95 153.51 L 402.56 153.71 L 402.18 153.90 L 401.79 154.10 L 401.40 154.29 L 401.00 154.48 L 400.60 154.67 L 400.20 154.85 L 399.79 155.04 L 399.39 155.22 L 398.97 155.40 L 398.56 155.58 L 398.14 155.76 L 397.72 155.94 L 397.30 156.11 L 396.87 156.28 L 396.45 156.45 L 396.02 156.62 L 395.58 156.78 L 395.14 156.95 L 394.71 157.11 L 394.26 157.27 L 393.82 157.43 L 393.37 157.58 L 392.92 157.73 L 392.47 157.88 L 392.02 158.03 L 391.56 158.18 L 391.10 158.33 L 390.64 158.47 L 390.17 158.61 L 389.71 158.75 L 389.24 158.88 L 388.77 159.02 L 388.29 159.15 L 387.82 159.28 L 387.34 159.41 L 386.86 159.53 L 386.38 159.66 L 385.90 159.78 L 385.41 159.90 L 384.92 160.01 L 384.43 160.13 L 383.94 160.24 L 383.45 160.35 L 382.95 160.45 L 382.46 160.56 L 381.96 160.66 L 381.46 160.76 L 380.96 160.86 L 380.45 160.96 L 379.95 161.05 L 379.44 161.14 L 378.93 161.23 L 378.43 161.32 L 377.91 161.40 L 377.40 161.48 L 376.89 161.56 L 376.37 161.64 L 375.86 161.71 L 375.34 161.78 L 374.82 161.85 L 374.30 161.92 L 373.78 161.99 L 373.26 162.05 L 372.74 162.11 L 372.22 162.17 L 371.69 162.22 L 371.17 162.28 L 370.64 162.33 L 370.11 162.37 L 369.59 162.42 L 369.06 162.46 L 368.53 162.50 L 368.00 162.54 L 367.47 162.58 L 366.94 162.61 L 366.40 162.64 L 365.87 162.67 L 365.34 162.70 L 364.81 162.72 L 364.27 162.74 L 363.74 162.76 L 363.21 162.77 L 362.67 162.79 L 362.14 162.80 L 361.60 162.81 L 361.07 162.81 L 360.53 162.82 L 360.00 162.82 L 359.47 162.82 L 358.93 162.81 L 358.40 162.81 L 357.86 162.80 L 357.33 162.79 L 356.79 162.77 L 356.26 162.76 L 355.73 162.74 L 355.19 162.72 L 354.66 162.70 L 354.13 162.67 L 353.60 162.64 L 353.06 162.61 L 352.53 162.58 L 352.00 162.54 L 351.47 162.50 L 350.94 162.46 L 350.41 162.42 L 349.89 162.37 L 349.36 162.33 L 348.83 162.28 L 348.31 162.22 L 347.78 162.17 L 347.26 162.11 L 346.74 162.05 L 346.22 161.99 L 345.70 161.92 L 345.18 161.85 L 344.66 161.78 L 344.14 161.71 L 343.63 161.64 L 343.11 161.56 L 342.60 161.48 L 342.09 161.40 L 341.57 161.32 L 341.07 161.23 L 340.56 161.14 L 340.05 161.05 L 339.55 160.96 L 339.04 160.86 L 338.54 160.76 L 338.04 160.66 L 337.54 160.56 L 337.05 160.45 L 336.55 160.35 L 336.06 160.24 L 335.57 160.13 L 335.08 160.01 L 334.59 159.90 L 334.10 159.78 L 333.62 159.66 L 333.14 159.53 L 332.66 159.41 L 332.18 159.28 L 331.71 159.15 L 331.23 159.02 L 330.76 158.88 L 330.29 158.75 L 329.83 158.61 L 329.36 158.47 L 328.90 158.33 L 328.44 158.18 L 327.98 158.03 L 327.53 157.88 L 327.08 157.73 L 326.63 157.58 L 326.18 157.43 L 325.74 157.27 L 325.29 157.11 L 324.86 156.95 L 324.42 156.78 L 323.98 156.62 L 323.55 156.45 L 323.13 156.28 L 322.70 156.11 L 322.28 155.94 L 321.86 155.76 L 321.44 155.58 L 321.03 155.40 L 320.61 155.22 L 320.21 155.04 L 319.80 154.85 L 319.40 154.67 L 319.00 154.48 L 318.60 154.29 L 318.21 154.10 L 317.82 153.90 L 317.44 153.71 L 317.05 153.51 L 316.67 153.31 L 316.30 153.11 L 315.92 152.90 L 315.55 152.70 L 315.19 152.49 L 314.82 152.29 L 314.47 152.08 L 314.11 151.86 L 313.76 151.65 L 313.41 151.44 L 313.06 151.22 L 312.72 151.00 L 312.38 150.78 L 312.05 150.56 L 311.72 150.34 L 311.39 150.12 L 311.07 149.89 L 310.75 149.66 L 310.43 149.43 L 310.12 149.20 L 309.81 148.97 L 309.50 148.74 L 309.20 148.51 L 308.91 148.27 L 308.61 148.03 L 308.32 147.79 L 308.04 147.56 L 307.76 147.31 L 307.48 147.07 L 307.21 146.83 L 306.94 146.58 L 306.67 146.34 L 306.41 146.09 L 306.15 145.84 L 305.90 145.59 L 305.65 145.34 L 305.41 145.09 L 305.16 144.84 L 304.93 144.58 L 304.70 144.33 L 304.47 144.07 L 304.24 143.81 L 304.02 143.56 L 303.81 143.30 L 303.60 143.04 L 303.39 142.77 L 303.19 142.51 L 302.99 142.25 L 302.80 141.99 L 302.61 141.72 L 302.42 141.45 L 302.24 141.19 L 302.07 140.92 L 301.89 140.65 L 301.73 140.38 L 301.56 140.11 L 301.40 139.84 L 301.25 139.57 L 301.10 139.30 L 300.96 139.03 L 300.81 138.75 L 300.68 138.48 L 300.55 138.20 L 300.42 137.93 L 300.30 137.65 L 300.18 137.38 L 300.07 137.10 L 299.96 136.82 L 299.85 136.54 L 299.75 136.27 L 299.66 135.99 L 299.57 135.71 L 299.48 135.43 L 299.40 135.15 L 299.32 134.87 L 299.25 134.59 L 299.18 134.31 L 299.12 134.02 L 299.06 133.74 L 299.01 133.46 L 298.96 133.18 L 298.92 132.90 L 298.88 132.61 L 298.84 132.33 L 298.81 132.05 L 298.79 131.77 L 298.76 131.48 L 298.75 131.20 L 298.74 130.92 L 298.73 130.63 L 298.73 130.35 L 298.73 130.07 L 298.74 129.78 L 298.75 129.50 L 298.76 129.22 L 298.79 128.93 L 298.81 128.65 L 298.84 128.37 L 298.88 128.08 L 298.92 127.80 L 298.96 127.52 L 299.01 127.24 L 299.06 126.95 L 299.12 126.67 L 299.18 126.39 L 299.25 126.11 L 299.32 125.83 L 299.40 125.55 L 299.48 125.27 L 299.57 124.99 L 299.66 124.71 L 299.75 124.43 L 299.85 124.15 L 299.96 123.88 L 300.07 123.60 L 300.18 123.32 L 300.30 123.04 L 300.42 122.77 L 300.55 122.49 L 300.68 122.22 L 300.81 121.95 L 300.96 121.67 L 301.10 121.40 L 301.25 121.13 L 301.40 120.86 L 301.56 120.59 L 301.73 120.32 L 301.89 120.05 L 302.07 119.78 L 302.24 119.51 L 302.42 119.24 L 302.61 118.98 L 302.80 118.71 L 302.99 118.45 L 303.19 118.19 L 303.39 117.92 L 303.60 117.66 L 303.81 117.40 L 304.02 117.14 L 304.24 116.88 L 304.47 116.63 L 304.70 116.37 L 304.93 116.12 L 305.16 115.86 L 305.41 115.61 L 305.65 115.36 L 305.90 115.11 L 306.15 114.86 L 306.41 114.61 L 306.67 114.36 L 306.94 114.11 L 307.21 113.87 L 307.48 113.63 L 307.76 113.38 L 308.04 113.14 L 308.32 112.90 L 308.61 112.66 L 308.91 112.43 L 309.20 112.19 L 309.50 111.96 L 309.81 111.73 L 310.12 111.49 L 310.43 111.26 L 310.75 111.04 L 311.07 110.81 L 311.39 110.58 L 311.72 110.36 L 312.05 110.14 L 312.38 109.92 L 312.72 109.70 L 313.06 109.48 L 313.41 109.26 L 313.76 109.05 L 314.11 108.83 L 314.47 108.62 L 314.82 108.41 L 315.19 108.20 L 315.55 108.00 L 315.92 107.79 L 316.30 107.59 L 316.67 107.39 L 317.05 107.19 L 317.44 106.99 L 317.82 106.80 L 318.21 106.60 L 318.60 106.41 L 319.00 106.22 L 319.40 106.03 L 319.80 105.84 L 320.21 105.66 L 320.61 105.48 L 321.03 105.29 L 321.44 105.12 L 321.86 104.94 L 322.28 104.76 L 322.70 104.59 L 323.13 104.42 L 323.55 104.25 L 323.98 104.08 L 324.42 103.91 L 324.86 103.75 L 325.29 103.59 L 325.74 103.43 L 326.18 103.27 L 326.63 103.12 L 327.08 102.96 L 327.53 102.81 L 327.98 102.66 L 328.44 102.52 L 328.90 102.37 L 329.36 102.23 L 329.83 102.09 L 330.29 101.95 L 330.76 101.81 L 331.23 101.68 L 331.71 101.55 L 332.18 101.42 L 332.66 101.29 L 333.14 101.17 L 333.62 101.04 L 334.10 100.92 L 334.59 100.80 L 335.08 100.69 L 335.57 100.57 L 336.06 100.46 L 336.55 100.35 L 337.05 100.24 L 337.54 100.14 L 338.04 100.04 L 338.54 99.94 L 339.04 99.84 L 339.55 99.74 L 340.05 99.65 L 340.56 99.56 L 341.07 99.47 L 341.57 99.38 L 342.09 99.30 L 342.60 99.22 L 343.11 99.14 L 343.63 99.06 L 344.14 98.99 L 344.66 98.91 L 345.18 98.84 L 345.70 98.78 L 346.22 98.71 L 346.74 98.65 L 347.26 98.59 L 347.78 98.53 L 348.31 98.48 L 348.83 98.42 L 349.36 98.37 L 349.89 98.32 L 350.41 98.28 L 350.94 98.24 L 351.47 98.20 L 352.00 98.16 L 352.53 98.12 L 353.06 98.09 L 353.60 98.06 L 354.13 98.03 L 354.66 98.00 L 355.19 97.98 L 355.73 97.96 L 356.26 97.94 L 356.79 97.92 L 357.33 97.91 L 357.86 97.90 L 358.40 97.89 L 358.93 97.88 L 359.47 97.88 L 360.00 97.88 L 360.53 97.88 L 361.07 97.88 L 361.60 97.89 L 362.14 97.90 L 362.67 97.91 L 363.21 97.92 L 363.74 97.94 L 364.27 97.96 L 364.81 97.98 L 365.34 98.00 L 365.87 98.03 L 366.40 98.06 L 366.94 98.09 L 367.47 98.12 L 368.00 98.16 L 368.53 98.20 L 369.06 98.24 L 369.59 98.28 L 370.11 98.32 L 370.64 98.37 L 371.17 98.42 L 371.69 98.48 L 372.22 98.53 L 372.74 98.59 L 373.26 98.65 L 373.78 98.71 L 374.30 98.78 L 374.82 98.84 L 375.34 98.91 L 375.86 98.99 L 376.37 99.06 L 376.89 99.14 L 377.40 99.22 L 377.91 99.30 L 378.43 99.38 L 378.93 99.47 L 379.44 99.56 L 379.95 99.65 L 380.45 99.74 L 380.96 99.84 L 381.46 99.94 L 381.96 100.04 L 382.46 100.14 L 382.95 100.24 L 383.45 100.35 L 383.94 100.46 L 384.43 100.57 L 384.92 100.69 L 385.41 100.80 L 385.90 100.92 L 386.38 101.04 L 386.86 101.17 L 387.34 101.29 L 387.82 101.42 L 388.29 101.55 L 388.77 101.68 L 389.24 101.81 L 389.71 101.95 L 390.17 102.09 L 390.64 102.23 L 391.10 102.37 L 391.56 102.52 L 392.02 102.66 L 392.47 102.81 L 392.92 102.96 L 393.37 103.12 L 393.82 103.27 L 394.26 103.43 L 394.71 103.59 L 395.14 103.75 L 395.58 103.91 L 396.02 104.08 L 396.45 104.25 L 396.87 104.42 L 397.30 104.59 L 397.72 104.76 L 398.14 104.94 L 398.56 105.12 L 398.97 105.29 L 399.39 105.48 L 399.79 105.66 L 400.20 105.84 L 400.60 106.03 L 401.00 106.22 L 401.40 106.41 L 401.79 106.60 L 402.18 106.80 L 402.56 106.99 L 402.95 107.19 L 403.33 107.39 L 403.70 107.59 L 404.08 107.79 L 404.45 108.00 L 404.81 108.20 L 405.18 108.41 L 405.53 108.62 L 405.89 108.83 L 406.24 109.05 L 406.59 109.26 L 406.94 109.48 L 407.28 109.70 L 407.62 109.92 L 407.95 110.14 L 408.28 110.36 L 408.61 110.58 L 408.93 110.81 L 409.25 111.04 L 409.57 111.26 L 409.88 111.49 L 410.19 111.73 L 410.50 111.96 L 410.80 112.19 L 411.09 112.43 L 411.39 112.66 L 411.68 112.90 L 411.96 113.14 L 412.24 113.38 L 412.52 113.63 L 412.79 113.87 L 413.06 114.11 L 413.33 114.36 L 413.59 114.61 L 413.85 114.86 L 414.10 115.11 L 414.35 115.36 L 414.59 115.61 L 414.84 115.86 L 415.07 116.12 L 415.30 116.37 L 415.53 116.63 L 415.76 116.88 L 415.98 117.14 L 416.19 117.40 L 416.40 117.66 L 416.61 117.92 L 416.81 118.19 L 417.01 118.45 L 417.20 118.71 L 417.39 118.98 L 417.58 119.24 L 417.76 119.51 L 417.93 119.78 L 418.11 120.05 L 418.27 120.32 L 418.44 120.59 L 418.60 120.86 L 418.75 121.13 L 418.90 121.40 L 419.04 121.67 L 419.19 121.95 L 419.32 122.22 L 419.45 122.49 L 419.58 122.77 L 419.70 123.04 L 419.82 123.32 L 419.93 123.60 L 420.04 123.88 L 420.15 124.15 L 420.25 124.43 L 420.34 124.71 L 420.43 124.99 L 420.52 125.27 L 420.60 125.55 L 420.68 125.83 L 420.75 126.11 L 420.82 126.39 L 420.88 126.67 L 420.94 126.95 L 420.99 127.24 L 421.04 127.52 L 421.08 127.80 L 421.12 128.08 L 421.16 128.37 L 421.19 128.65 L 421.21 128.93 L 421.24 129.22 L 421.25 129.50 L 421.26 129.78 L 421.27 130.07 L 421.27 130.35" fill="none" stroke="#c2c2c2" stroke-width="1.1" stroke-linecap="round" stroke-linejoin="round" stroke-dasharray="4 4"/>
  <path d="M 421.27 173.65 L 421.27 173.93 L 421.26 174.22 L 421.25 174.50 L 421.24 174.78 L 421.21 175.07 L 421.19 175.35 L 421.16 175.63 L 421.12 175.92 L 421.08 176.20 L 421.04 176.48 L 420.99 176.76 L 420.94 177.05 L 420.88 177.33 L 420.82 177.61 L 420.75 177.89 L 420.68 178.17 L 420.60 178.45 L 420.52 178.73 L 420.43 179.01 L 420.34 179.29 L 420.25 179.57 L 420.15 179.85 L 420.04 180.12 L 419.93 180.40 L 419.82 180.68 L 419.70 180.96 L 419.58 181.23 L 419.45 181.51 L 419.32 181.78 L 419.19 182.05 L 419.04 182.33 L 418.90 182.60 L 418.75 182.87 L 418.60 183.14 L 418.44 183.41 L 418.27 183.68 L 418.11 183.95 L 417.93 184.22 L 417.76 184.49 L 417.58 184.76 L 417.39 185.02 L 417.20 185.29 L 417.01 185.55 L 416.81 185.81 L 416.61 186.08 L 416.40 186.34 L 416.19 186.60 L 415.98 186.86 L 415.76 187.12 L 415.53 187.37 L 415.30 187.63 L 415.07 187.88 L 414.84 188.14 L 414.59 188.39 L 414.35 188.64 L 414.10 188.89 L 413.85 189.14 L 413.59 189.39 L 413.33 189.64 L 413.06 189.89 L 412.79 190.13 L 412.52 190.37 L 412.24 190.62 L 411.96 190.86 L 411.68 191.10 L 411.39 191.34 L 411.09 191.57 L 410.80 191.81 L 410.50 192.04 L 410.19 192.27 L 409.88 192.51 L 409.57 192.74 L 409.25 192.96 L 408.93 193.19 L 408.61 193.42 L 408.28 193.64 L 407.95 193.86 L 407.62 194.08 L 407.28 194.30 L 406.94 194.52 L 406.59 194.74 L 406.24 194.95 L 405.89 195.17 L 405.53 195.38 L 405.18 195.59 L 404.81 195.80 L 404.45 196.00 L 404.08 196.21 L 403.70 196.41 L 403.33 196.61 L 402.95 196.81 L 402.56 197.01 L 402.18 197.20 L 401.79 197.40 L 401.40 197.59 L 401.00 197.78 L 400.60 197.97 L 400.20 198.16 L 399.79 198.34 L 399.39 198.52 L 398.97 198.71 L 398.56 198.88 L 398.14 199.06 L 397.72 199.24 L 397.30 199.41 L 396.87 199.58 L 396.45 199.75 L 396.02 199.92 L 395.58 200.09 L 395.14 200.25 L 394.71 200.41 L 394.26 200.57 L 393.82 200.73 L 393.37 200.88 L 392.92 201.04 L 392.47 201.19 L 392.02 201.34 L 391.56 201.48 L 391.10 201.63 L 390.64 201.77 L 390.17 201.91 L 389.71 202.05 L 389.24 202.19 L 388.77 202.32 L 388.29 202.45 L 387.82 202.58 L 387.34 202.71 L 386.86 202.83 L 386.38 202.96 L 385.90 203.08 L 385.41 203.20 L 384.92 203.31 L 384.43 203.43 L 383.94 203.54 L 383.45 203.65 L 382.95 203.76 L 382.46 203.86 L 381.96 203.96 L 381.46 204.06 L 380.96 204.16 L 380.45 204.26 L 379.95 204.35 L 379.44 204.44 L 378.93 204.53 L 378.43 204.62 L 377.91 204.70 L 377.40 204.78 L 376.89 204.86 L 376.37 204.94 L 375.86 205.01 L 375.34 205.09 L 374.82 205.16 L 374.30 205.22 L 373.78 205.29 L 373.26 205.35 L 372.74 205.41 L 372.22 205.47 L 371.69 205.52 L 371.17 205.58 L 370.64 205.63 L 370.11 205.68 L 369.59 205.72 L 369.06 205.76 L 368.53 205.80 L 368.00 205.84 L 367.47 205.88 L 366.94 205.91 L 366.40 205.94 L 365.87 205.97 L 365.34 206.00 L 364.81 206.02 L 364.27 206.04 L 363.74 206.06 L 363.21 206.08 L 362.67 206.09 L 362.14 206.10 L 361.60 206.11 L 361.07 206.12 L 360.53 206.12 L 360.00 206.12 L 359.47 206.12 L 358.93 206.12 L 358.40 206.11 L 357.86 206.10 L 357.33 206.09 L 356.79 206.08 L 356.26 206.06 L 355.73 206.04 L 355.19 206.02 L 354.66 206.00 L 354.13 205.97 L 353.60 205.94 L 353.06 205.91 L 352.53 205.88 L 352.00 205.84 L 351.47 205.80 L 350.94 205.76 L 350.41 205.72 L 349.89 205.68 L 349.36 205.63 L 348.83 205.58 L 348.31 205.52 L 347.78 205.47 L 347.26 205.41 L 346.74 205.35 L 346.22 205.29 L 345.70 205.22 L 345.18 205.16 L 344.66 205.09 L 344.14 205.01 L 343.63 204.94 L 343.11 204.86 L 342.60 204.78 L 342.09 204.70 L 341.57 204.62 L 341.07 204.53 L 340.56 204.44 L 340.05 204.35 L 339.55 204.26 L 339.04 204.16 L 338.54 204.06 L 338.04 203.96 L 337.54 203.86 L 337.05 203.76 L 336.55 203.65 L 336.06 203.54 L 335.57 203.43 L 335.08 203.31 L 334.59 203.20 L 334.10 203.08 L 333.62 202.96 L 333.14 202.83 L 332.66 202.71 L 332.18 202.58 L 331.71 202.45 L 331.23 202.32 L 330.76 202.19 L 330.29 202.05 L 329.83 201.91 L 329.36 201.77 L 328.90 201.63 L 328.44 201.48 L 327.98 201.34 L 327.53 201.19 L 327.08 201.04 L 326.63 200.88 L 326.18 200.73 L 325.74 200.57 L 325.29 200.41 L 324.86 200.25 L 324.42 200.09 L 323.98 199.92 L 323.55 199.75 L 323.13 199.58 L 322.70 199.41 L 322.28 199.24 L 321.86 199.06 L 321.44 198.88 L 321.03 198.71 L 320.61 198.52 L 320.21 198.34 L 319.80 198.16 L 319.40 197.97 L 319.00 197.78 L 318.60 197.59 L 318.21 197.40 L 317.82 197.20 L 317.44 197.01 L 317.05 196.81 L 316.67 196.61 L 316.30 196.41 L 315.92 196.21 L 315.55 196.00 L 315.19 195.80 L 314.82 195.59 L 314.47 195.38 L 314.11 195.17 L 313.76 194.95 L 313.41 194.74 L 313.06 194.52 L 312.72 194.30 L 312.38 194.08 L 312.05 193.86 L 311.72 193.64 L 311.39 193.42 L 311.07 193.19 L 310.75 192.96 L 310.43 192.74 L 310.12 192.51 L 309.81 192.27 L 309.50 192.04 L 309.20 191.81 L 308.91 191.57 L 308.61 191.34 L 308.32 191.10 L 308.04 190.86 L 307.76 190.62 L 307.48 190.37 L 307.21 190.13 L 306.94 189.89 L 306.67 189.64 L 306.41 189.39 L 306.15 189.14 L 305.90 188.89 L 305.65 188.64 L 305.41 188.39 L 305.16 188.14 L 304.93 187.88 L 304.70 187.63 L 304.47 187.37 L 304.24 187.12 L 304.02 186.86 L 303.81 186.60 L 303.60 186.34 L 303.39 186.08 L 303.19 185.81 L 302.99 185.55 L 302.80 185.29 L 302.61 185.02 L 302.42 184.76 L 302.24 184.49 L 302.07 184.22 L 301.89 183.95 L 301.73 183.68 L 301.56 183.41 L 301.40 183.14 L 301.25 182.87 L 301.10 182.60 L 300.96 182.33 L 300.81 182.05 L 300.68 181.78 L 300.55 181.51 L 300.42 181.23 L 300.30 180.96 L 300.18 180.68 L 300.07 180.40 L 299.96 180.12 L 299.85 179.85 L 299.75 179.57 L 299.66 179.29 L 299.57 179.01 L 299.48 178.73 L 299.40 178.45 L 299.32 178.17 L 299.25 177.89 L 299.18 177.61 L 299.12 177.33 L 299.06 177.05 L 299.01 176.76 L 298.96 176.48 L 298.92 176.20 L 298.88 175.92 L 298.84 175.63 L 298.81 175.35 L 298.79 175.07 L 298.76 174.78 L 298.75 174.50 L 298.74 174.22 L 298.73 173.93 L 298.73 173.65 L 298.73 173.37 L 298.74 173.08 L 298.75 172.80 L 298.76 172.52 L 298.79 172.23 L 298.81 171.95 L 298.84 171.67 L 298.88 171.39 L 298.92 171.10 L 298.96 170.82 L 299.01 170.54 L 299.06 170.26 L 299.12 169.98 L 299.18 169.69 L 299.25 169.41 L 299.32 169.13 L 299.40 168.85 L 299.48 168.57 L 299.57 168.29 L 299.66 168.01 L 299.75 167.73 L 299.85 167.46 L 299.96 167.18 L 300.07 166.90 L 300.18 166.62 L 300.30 166.35 L 300.42 166.07 L 300.55 165.80 L 300.68 165.52 L 300.81 165.25 L 300.96 164.97 L 301.10 164.70 L 301.25 164.43 L 301.40 164.16 L 301.56 163.89 L 301.73 163.62 L 301.89 163.35 L 302.07 163.08 L 302.24 162.81 L 302.42 162.55 L 302.61 162.28 L 302.80 162.01 L 302.99 161.75 L 303.19 161.49 L 303.39 161.23 L 303.60 160.96 L 303.81 160.70 L 304.02 160.44 L 304.24 160.19 L 304.47 159.93 L 304.70 159.67 L 304.93 159.42 L 305.16 159.16 L 305.41 158.91 L 305.65 158.66 L 305.90 158.41 L 306.15 158.16 L 306.41 157.91 L 306.67 157.66 L 306.94 157.42 L 307.21 157.17 L 307.48 156.93 L 307.76 156.69 L 308.04 156.44 L 308.32 156.21 L 308.61 155.97 L 308.91 155.73 L 309.20 155.49 L 309.50 155.26 L 309.81 155.03 L 310.12 154.80 L 310.43 154.57 L 310.75 154.34 L 311.07 154.11 L 311.39 153.88 L 311.72 153.66 L 312.05 153.44 L 312.38 153.22 L 312.72 153.00 L 313.06 152.78 L 313.41 152.56 L 313.76 152.35 L 314.11 152.14 L 314.47 151.92 L 314.82 151.71 L 315.19 151.51 L 315.55 151.30 L 315.92 151.10 L 316.30 150.89 L 316.67 150.69 L 317.05 150.49 L 317.44 150.29 L 317.82 150.10 L 318.21 149.90 L 318.60 149.71 L 319.00 149.52 L 319.40 149.33 L 319.80 149.15 L 320.21 148.96 L 320.61 148.78 L 321.03 148.60 L 321.44 148.42 L 321.86 148.24 L 322.28 148.06 L 322.70 147.89 L 323.13 147.72 L 323.55 147.55 L 323.98 147.38 L 324.42 147.22 L 324.86 147.05 L 325.29 146.89 L 325.74 146.73 L 326.18 146.57 L 326.63 146.42 L 327.08 146.27 L 327.53 146.12 L 327.98 145.97 L 328.44 145.82 L 328.90 145.67 L 329.36 145.53 L 329.83 145.39 L 330.29 145.25 L 330.76 145.12 L 331.23 144.98 L 331.71 144.85 L 332.18 144.72 L 332.66 144.59 L 333.14 144.47 L 333.62 144.34 L 334.10 144.22 L 334.59 144.10 L 335.08 143.99 L 335.57 143.87 L 336.06 143.76 L 336.55 143.65 L 337.05 143.55 L 337.54 143.44 L 338.04 143.34 L 338.54 143.24 L 339.04 143.14 L 339.55 143.04 L 340.05 142.95 L 340.56 142.86 L 341.07 142.77 L 341.57 142.68 L 342.09 142.60 L 342.60 142.52 L 343.11 142.44 L 343.63 142.36 L 344.14 142.29 L 344.66 142.22 L 345.18 142.15 L 345.70 142.08 L 346.22 142.01 L 346.74 141.95 L 347.26 141.89 L 347.78 141.83 L 348.31 141.78 L 348.83 141.72 L 349.36 141.67 L 349.89 141.63 L 350.41 141.58 L 350.94 141.54 L 351.47 141.50 L 352.00 141.46 L 352.53 141.42 L 353.06 141.39 L 353.60 141.36 L 354.13 141.33 L 354.66 141.30 L 355.19 141.28 L 355.73 141.26 L 356.26 141.24 L 356.79 141.23 L 357.33 141.21 L 357.86 141.20 L 358.40 141.19 L 358.93 141.19 L 359.47 141.18 L 360.00 141.18 L 360.53 141.18 L 361.07 141.19 L 361.60 141.19 L 362.14 141.20 L 362.67 141.21 L 363.21 141.23 L 363.74 141.24 L 364.27 141.26 L 364.81 141.28 L 365.34 141.30 L 365.87 141.33 L 366.40 141.36 L 366.94 141.39 L 367.47 141.42 L 368.00 141.46 L 368.53 141.50 L 369.06 141.54 L 369.59 141.58 L 370.11 141.63 L 370.64 141.67 L 371.17 141.72 L 371.69 141.78 L 372.22 141.83 L 372.74 141.89 L 373.26 141.95 L 373.78 142.01 L 374.30 142.08 L 374.82 142.15 L 375.34 142.22 L 375.86 142.29 L 376.37 142.36 L 376.89 142.44 L 377.40 142.52 L 377.91 142.60 L 378.43 142.68 L 378.93 142.77 L 379.44 142.86 L 379.95 142.95 L 380.45 143.04 L 380.96 143.14 L 381.46 143.24 L 381.96 143.34 L 382.46 143.44 L 382.95 143.55 L 383.45 143.65 L 383.94 143.76 L 384.43 143.87 L 384.92 143.99 L 385.41 144.10 L 385.90 144.22 L 386.38 144.34 L 386.86 144.47 L 387.34 144.59 L 387.82 144.72 L 388.29 144.85 L 388.77 144.98 L 389.24 145.12 L 389.71 145.25 L 390.17 145.39 L 390.64 145.53 L 391.10 145.67 L 391.56 145.82 L 392.02 145.97 L 392.47 146.12 L 392.92 146.27 L 393.37 146.42 L 393.82 146.57 L 394.26 146.73 L 394.71 146.89 L 395.14 147.05 L 395.58 147.22 L 396.02 147.38 L 396.45 147.55 L 396.87 147.72 L 397.30 147.89 L 397.72 148.06 L 398.14 148.24 L 398.56 148.42 L 398.97 148.60 L 399.39 148.78 L 399.79 148.96 L 400.20 149.15 L 400.60 149.33 L 401.00 149.52 L 401.40 149.71 L 401.79 149.90 L 402.18 150.10 L 402.56 150.29 L 402.95 150.49 L 403.33 150.69 L 403.70 150.89 L 404.08 151.10 L 404.45 151.30 L 404.81 151.51 L 405.18 151.71 L 405.53 151.92 L 405.89 152.14 L 406.24 152.35 L 406.59 152.56 L 406.94 152.78 L 407.28 153.00 L 407.62 153.22 L 407.95 153.44 L 408.28 153.66 L 408.61 153.88 L 408.93 154.11 L 409.25 154.34 L 409.57 154.57 L 409.88 154.80 L 410.19 155.03 L 410.50 155.26 L 410.80 155.49 L 411.09 155.73 L 411.39 155.97 L 411.68 156.21 L 411.96 156.44 L 412.24 156.69 L 412.52 156.93 L 412.79 157.17 L 413.06 157.42 L 413.33 157.66 L 413.59 157.91 L 413.85 158.16 L 414.10 158.41 L 414.35 158.66 L 414.59 158.91 L 414.84 159.16 L 415.07 159.42 L 415.30 159.67 L 415.53 159.93 L 415.76 160.19 L 415.98 160.44 L 416.19 160.70 L 416.40 160.96 L 416.61 161.23 L 416.81 161.49 L 417.01 161.75 L 417.20 162.01 L 417.39 162.28 L 417.58 162.55 L 417.76 162.81 L 417.93 163.08 L 418.11 163.35 L 418.27 163.62 L 418.44 163.89 L 418.60 164.16 L 418.75 164.43 L 418.90 164.70 L 419.04 164.97 L 419.19 165.25 L 419.32 165.52 L 419.45 165.80 L 419.58 166.07 L 419.70 166.35 L 419.82 166.62 L 419.93 166.90 L 420.04 167.18 L 420.15 167.46 L 420.25 167.73 L 420.34 168.01 L 420.43 168.29 L 420.52 168.57 L 420.60 168.85 L 420.68 169.13 L 420.75 169.41 L 420.82 169.69 L 420.88 169.98 L 420.94 170.26 L 420.99 170.54 L 421.04 170.82 L 421.08 171.10 L 421.12 171.39 L 421.16 171.67 L 421.19 171.95 L 421.21 172.23 L 421.24 172.52 L 421.25 172.80 L 421.26 173.08 L 421.27 173.37 L 421.27 173.65" fill="none" stroke="#c2c2c2" stroke-width="1.1" stroke-linecap="round" stroke-linejoin="round" stroke-dasharray="4 4"/>
  <path d="M 446.80 152.00 L 446.80 152.70 L 446.78 153.41 L 446.75 154.11 L 446.71 154.81 L 446.66 155.51 L 446.60 156.21 L 446.52 156.91 L 446.43 157.60 L 446.34 158.30 L 446.23 158.99 L 446.11 159.68 L 445.98 160.36 L 445.84 161.04 L 445.69 161.72 L 445.53 162.39 L 445.35 163.06 L 445.17 163.73 L 444.98 164.39 L 444.78 165.05 L 444.57 165.70 L 444.35 166.35 L 444.12 166.99 L 443.88 167.62 L 443.63 168.26 L 443.37 168.88 L 443.11 169.50 L 442.84 170.12 L 442.55 170.72 L 442.27 171.33 L 441.97 171.92 L 441.66 172.51 L 441.35 173.10 L 441.03 173.68 L 440.71 174.25 L 440.38 174.82 L 440.04 175.38 L 439.69 175.93 L 439.34 176.48 L 438.99 177.02 L 438.62 177.56 L 438.25 178.09 L 437.88 178.61 L 437.50 179.13 L 437.11 179.64 L 436.72 180.15 L 436.33 180.65 L 435.93 181.14 L 435.52 181.63 L 435.11 182.11 L 434.70 182.59 L 434.28 183.06 L 433.86 183.52 L 433.43 183.98 L 433.00 184.44 L 432.56 184.88 L 432.12 185.33 L 431.68 185.76 L 431.23 186.20 L 430.78 186.62 L 430.33 187.04 L 429.87 187.46 L 429.41 187.87 L 428.94 188.28 L 428.48 188.68 L 428.00 189.07 L 427.53 189.46 L 427.05 189.85 L 426.57 190.23 L 426.09 190.61 L 425.60 190.98 L 425.11 191.35 L 424.62 191.71 L 424.12 192.07 L 423.62 192.42 L 423.12 192.77 L 422.61 193.12 L 422.11 193.46 L 421.60 193.80 L 421.09 194.13 L 420.57 194.46 L 420.05 194.78 L 419.53 195.10 L 419.01 195.42 L 418.48 195.73 L 417.96 196.04 L 417.43 196.34 L 416.89 196.64 L 416.36 196.94 L 415.82 197.23 L 415.28 197.52 L 414.74 197.80 L 414.19 198.08 L 413.65 198.36 L 413.10 198.64 L 412.55 198.91 L 411.99 199.17 L 411.44 199.43 L 410.88 199.69 L 410.32 199.95 L 409.76 200.20 L 409.19 200.45 L 408.63 200.70 L 408.06 200.94 L 407.49 201.18 L 406.92 201.41 L 406.34 201.64 L 405.77 201.87 L 405.19 202.09 L 404.61 202.32 L 404.03 202.53 L 403.44 202.75 L 402.86 202.96 L 402.27 203.17 L 401.68 203.37 L 401.09 203.57 L 400.50 203.77 L 399.90 203.97 L 399.30 204.16 L 398.71 204.35 L 398.11 204.53 L 397.50 204.72 L 396.90 204.89 L 396.30 205.07 L 395.69 205.24 L 395.08 205.41 L 394.47 205.58 L 393.86 205.74 L 393.25 205.90 L 392.63 206.06 L 392.02 206.21 L 391.40 206.36 L 390.78 206.51 L 390.16 206.66 L 389.54 206.80 L 388.92 206.93 L 388.30 207.07 L 387.67 207.20 L 387.05 207.33 L 386.42 207.46 L 385.79 207.58 L 385.16 207.70 L 384.53 207.82 L 383.90 207.93 L 383.27 208.04 L 382.63 208.15 L 382.00 208.25 L 381.36 208.35 L 380.72 208.45 L 380.09 208.55 L 379.45 208.64 L 378.81 208.73 L 378.17 208.82 L 377.53 208.90 L 376.88 208.98 L 376.24 209.06 L 375.60 209.13 L 374.95 209.20 L 374.31 209.27 L 373.66 209.33 L 373.02 209.40 L 372.37 209.45 L 371.72 209.51 L 371.07 209.56 L 370.42 209.61 L 369.77 209.66 L 369.12 209.70 L 368.47 209.74 L 367.82 209.78 L 367.17 209.82 L 366.52 209.85 L 365.87 209.88 L 365.22 209.90 L 364.57 209.93 L 363.92 209.95 L 363.26 209.96 L 362.61 209.98 L 361.96 209.99 L 361.31 209.99 L 360.65 210.00 L 360.00 210.00 L 359.35 210.00 L 358.69 209.99 L 358.04 209.99 L 357.39 209.98 L 356.74 209.96 L 356.08 209.95 L 355.43 209.93 L 354.78 209.90 L 354.13 209.88 L 353.48 209.85 L 352.83 209.82 L 352.18 209.78 L 351.53 209.74 L 350.88 209.70 L 350.23 209.66 L 349.58 209.61 L 348.93 209.56 L 348.28 209.51 L 347.63 209.45 L 346.98 209.40 L 346.34 209.33 L 345.69 209.27 L 345.05 209.20 L 344.40 209.13 L 343.76 209.06 L 343.12 208.98 L 342.47 208.90 L 341.83 208.82 L 341.19 208.73 L 340.55 208.64 L 339.91 208.55 L 339.28 208.45 L 338.64 208.35 L 338.00 208.25 L 337.37 208.15 L 336.73 208.04 L 336.10 207.93 L 335.47 207.82 L 334.84 207.70 L 334.21 207.58 L 333.58 207.46 L 332.95 207.33 L 332.33 207.20 L 331.70 207.07 L 331.08 206.93 L 330.46 206.80 L 329.84 206.66 L 329.22 206.51 L 328.60 206.36 L 327.98 206.21 L 327.37 206.06 L 326.75 205.90 L 326.14 205.74 L 325.53 205.58 L 324.92 205.41 L 324.31 205.24 L 323.70 205.07 L 323.10 204.89 L 322.50 204.72 L 321.89 204.53 L 321.29 204.35 L 320.70 204.16 L 320.10 203.97 L 319.50 203.77 L 318.91 203.57 L 318.32 203.37 L 317.73 203.17 L 317.14 202.96 L 316.56 202.75 L 315.97 202.53 L 315.39 202.32 L 314.81 202.09 L 314.23 201.87 L 313.66 201.64 L 313.08 201.41 L 312.51 201.18 L 311.94 200.94 L 311.37 200.70 L 310.81 200.45 L 310.24 200.20 L 309.68 199.95 L 309.12 199.69 L 308.56 199.43 L 308.01 199.17 L 307.45 198.91 L 306.90 198.64 L 306.35 198.36 L 305.81 198.08 L 305.26 197.80 L 304.72 197.52 L 304.18 197.23 L 303.64 196.94 L 303.11 196.64 L 302.57 196.34 L 302.04 196.04 L 301.52 195.73 L 300.99 195.42 L 300.47 195.10 L 299.95 194.78 L 299.43 194.46 L 298.91 194.13 L 298.40 193.80 L 297.89 193.46 L 297.39 193.12 L 296.88 192.77 L 296.38 192.42 L 295.88 192.07 L 295.38 191.71 L 294.89 191.35 L 294.40 190.98 L 293.91 190.61 L 293.43 190.23 L 292.95 189.85 L 292.47 189.46 L 292.00 189.07 L 291.52 188.68 L 291.06 188.28 L 290.59 187.87 L 290.13 187.46 L 289.67 187.04 L 289.22 186.62 L 288.77 186.20 L 288.32 185.76 L 287.88 185.33 L 287.44 184.88 L 287.00 184.44 L 286.57 183.98 L 286.14 183.52 L 285.72 183.06 L 285.30 182.59 L 284.89 182.11 L 284.48 181.63 L 284.07 181.14 L 283.67 180.65 L 283.28 180.15 L 282.89 179.64 L 282.50 179.13 L 282.12 178.61 L 281.75 178.09 L 281.38 177.56 L 281.01 177.02 L 280.66 176.48 L 280.31 175.93 L 279.96 175.38 L 279.62 174.82 L 279.29 174.25 L 278.97 173.68 L 278.65 173.10 L 278.34 172.51 L 278.03 171.92 L 277.73 171.33 L 277.45 170.72 L 277.16 170.12 L 276.89 169.50 L 276.63 168.88 L 276.37 168.26 L 276.12 167.62 L 275.88 166.99 L 275.65 166.35 L 275.43 165.70 L 275.22 165.05 L 275.02 164.39 L 274.83 163.73 L 274.65 163.06 L 274.47 162.39 L 274.31 161.72 L 274.16 161.04 L 274.02 160.36 L 273.89 159.68 L 273.77 158.99 L 273.66 158.30 L 273.57 157.60 L 273.48 156.91 L 273.40 156.21 L 273.34 155.51 L 273.29 154.81 L 273.25 154.11 L 273.22 153.41 L 273.20 152.70 L 273.20 152.00 L 273.20 151.30 L 273.22 150.59 L 273.25 149.89 L 273.29 149.19 L 273.34 148.49 L 273.40 147.79 L 273.48 147.09 L 273.57 146.40 L 273.66 145.70 L 273.77 145.01 L 273.89 144.32 L 274.02 143.64 L 274.16 142.96 L 274.31 142.28 L 274.47 141.61 L 274.65 140.94 L 274.83 140.27 L 275.02 139.61 L 275.22 138.95 L 275.43 138.30 L 275.65 137.65 L 275.88 137.01 L 276.12 136.38 L 276.37 135.74 L 276.63 135.12 L 276.89 134.50 L 277.16 133.88 L 277.45 133.28 L 277.73 132.67 L 278.03 132.08 L 278.34 131.49 L 278.65 130.90 L 278.97 130.32 L 279.29 129.75 L 279.62 129.18 L 279.96 128.62 L 280.31 128.07 L 280.66 127.52 L 281.01 126.98 L 281.38 126.44 L 281.75 125.91 L 282.12 125.39 L 282.50 124.87 L 282.89 124.36 L 283.28 123.85 L 283.67 123.35 L 284.07 122.86 L 284.48 122.37 L 284.89 121.89 L 285.30 121.41 L 285.72 120.94 L 286.14 120.48 L 286.57 120.02 L 287.00 119.56 L 287.44 119.12 L 287.88 118.67 L 288.32 118.24 L 288.77 117.80 L 289.22 117.38 L 289.67 116.96 L 290.13 116.54 L 290.59 116.13 L 291.06 115.72 L 291.52 115.32 L 292.00 114.93 L 292.47 114.54 L 292.95 114.15 L 293.43 113.77 L 293.91 113.39 L 294.40 113.02 L 294.89 112.65 L 295.38 112.29 L 295.88 111.93 L 296.38 111.58 L 296.88 111.23 L 297.39 110.88 L 297.89 110.54 L 298.40 110.20 L 298.91 109.87 L 299.43 109.54 L 299.95 109.22 L 300.47 108.90 L 300.99 108.58 L 301.52 108.27 L 302.04 107.96 L 302.57 107.66 L 303.11 107.36 L 303.64 107.06 L 304.18 106.77 L 304.72 106.48 L 305.26 106.20 L 305.81 105.92 L 306.35 105.64 L 306.90 105.36 L 307.45 105.09 L 308.01 104.83 L 308.56 104.57 L 309.12 104.31 L 309.68 104.05 L 310.24 103.80 L 310.81 103.55 L 311.37 103.30 L 311.94 103.06 L 312.51 102.82 L 313.08 102.59 L 313.66 102.36 L 314.23 102.13 L 314.81 101.91 L 315.39 101.68 L 315.97 101.47 L 316.56 101.25 L 317.14 101.04 L 317.73 100.83 L 318.32 100.63 L 318.91 100.43 L 319.50 100.23 L 320.10 100.03 L 320.70 99.84 L 321.29 99.65 L 321.89 99.47 L 322.50 99.28 L 323.10 99.11 L 323.70 98.93 L 324.31 98.76 L 324.92 98.59 L 325.53 98.42 L 326.14 98.26 L 326.75 98.10 L 327.37 97.94 L 327.98 97.79 L 328.60 97.64 L 329.22 97.49 L 329.84 97.34 L 330.46 97.20 L 331.08 97.07 L 331.70 96.93 L 332.33 96.80 L 332.95 96.67 L 333.58 96.54 L 334.21 96.42 L 334.84 96.30 L 335.47 96.18 L 336.10 96.07 L 336.73 95.96 L 337.37 95.85 L 338.00 95.75 L 338.64 95.65 L 339.28 95.55 L 339.91 95.45 L 340.55 95.36 L 341.19 95.27 L 341.83 95.18 L 342.47 95.10 L 343.12 95.02 L 343.76 94.94 L 344.40 94.87 L 345.05 94.80 L 345.69 94.73 L 346.34 94.67 L 346.98 94.60 L 347.63 94.55 L 348.28 94.49 L 348.93 94.44 L 349.58 94.39 L 350.23 94.34 L 350.88 94.30 L 351.53 94.26 L 352.18 94.22 L 352.83 94.18 L 353.48 94.15 L 354.13 94.12 L 354.78 94.10 L 355.43 94.07 L 356.08 94.05 L 356.74 94.04 L 357.39 94.02 L 358.04 94.01 L 358.69 94.01 L 359.35 94.00 L 360.00 94.00 L 360.65 94.00 L 361.31 94.01 L 361.96 94.01 L 362.61 94.02 L 363.26 94.04 L 363.92 94.05 L 364.57 94.07 L 365.22 94.10 L 365.87 94.12 L 366.52 94.15 L 367.17 94.18 L 367.82 94.22 L 368.47 94.26 L 369.12 94.30 L 369.77 94.34 L 370.42 94.39 L 371.07 94.44 L 371.72 94.49 L 372.37 94.55 L 373.02 94.60 L 373.66 94.67 L 374.31 94.73 L 374.95 94.80 L 375.60 94.87 L 376.24 94.94 L 376.88 95.02 L 377.53 95.10 L 378.17 95.18 L 378.81 95.27 L 379.45 95.36 L 380.09 95.45 L 380.72 95.55 L 381.36 95.65 L 382.00 95.75 L 382.63 95.85 L 383.27 95.96 L 383.90 96.07 L 384.53 96.18 L 385.16 96.30 L 385.79 96.42 L 386.42 96.54 L 387.05 96.67 L 387.67 96.80 L 388.30 96.93 L 388.92 97.07 L 389.54 97.20 L 390.16 97.34 L 390.78 97.49 L 391.40 97.64 L 392.02 97.79 L 392.63 97.94 L 393.25 98.10 L 393.86 98.26 L 394.47 98.42 L 395.08 98.59 L 395.69 98.76 L 396.30 98.93 L 396.90 99.11 L 397.50 99.28 L 398.11 99.47 L 398.71 99.65 L 399.30 99.84 L 399.90 100.03 L 400.50 100.23 L 401.09 100.43 L 401.68 100.63 L 402.27 100.83 L 402.86 101.04 L 403.44 101.25 L 404.03 101.47 L 404.61 101.68 L 405.19 101.91 L 405.77 102.13 L 406.34 102.36 L 406.92 102.59 L 407.49 102.82 L 408.06 103.06 L 408.63 103.30 L 409.19 103.55 L 409.76 103.80 L 410.32 104.05 L 410.88 104.31 L 411.44 104.57 L 411.99 104.83 L 412.55 105.09 L 413.10 105.36 L 413.65 105.64 L 414.19 105.92 L 414.74 106.20 L 415.28 106.48 L 415.82 106.77 L 416.36 107.06 L 416.89 107.36 L 417.43 107.66 L 417.96 107.96 L 418.48 108.27 L 419.01 108.58 L 419.53 108.90 L 420.05 109.22 L 420.57 109.54 L 421.09 109.87 L 421.60 110.20 L 422.11 110.54 L 422.61 110.88 L 423.12 111.23 L 423.62 111.58 L 424.12 111.93 L 424.62 112.29 L 425.11 112.65 L 425.60 113.02 L 426.09 113.39 L 426.57 113.77 L 427.05 114.15 L 427.53 114.54 L 428.00 114.93 L 428.48 115.32 L 428.94 115.72 L 429.41 116.13 L 429.87 116.54 L 430.33 116.96 L 430.78 117.38 L 431.23 117.80 L 431.68 118.24 L 432.12 118.67 L 432.56 119.12 L 433.00 119.56 L 433.43 120.02 L 433.86 120.48 L 434.28 120.94 L 434.70 121.41 L 435.11 121.89 L 435.52 122.37 L 435.93 122.86 L 436.33 123.35 L 436.72 123.85 L 437.11 124.36 L 437.50 124.87 L 437.88 125.39 L 438.25 125.91 L 438.62 126.44 L 438.99 126.98 L 439.34 127.52 L 439.69 128.07 L 440.04 128.62 L 440.38 129.18 L 440.71 129.75 L 441.03 130.32 L 441.35 130.90 L 441.66 131.49 L 441.97 132.08 L 442.27 132.67 L 442.55 133.28 L 442.84 133.88 L 443.11 134.50 L 443.37 135.12 L 443.63 135.74 L 443.88 136.38 L 444.12 137.01 L 444.35 137.65 L 444.57 138.30 L 444.78 138.95 L 444.98 139.61 L 445.17 140.27 L 445.35 140.94 L 445.53 141.61 L 445.69 142.28 L 445.84 142.96 L 445.98 143.64 L 446.11 144.32 L 446.23 145.01 L 446.34 145.70 L 446.43 146.40 L 446.52 147.09 L 446.60 147.79 L 446.66 148.49 L 446.71 149.19 L 446.75 149.89 L 446.78 150.59 L 446.80 151.30 L 446.80 152.00" fill="none" stroke="#adadad" stroke-width="1.3" stroke-linecap="round" stroke-linejoin="round"/>
  <path d="M 395.74 152.00 L 395.74 151.86 L 395.75 151.73 L 395.75 151.59 L 395.76 151.45 L 395.77 151.32 L 395.78 151.19 L 395.80 151.05 L 395.81 150.93 L 395.83 150.80 L 395.85 150.67 L 395.87 150.55 L 395.89 150.43 L 395.92 150.31 L 395.94 150.19 L 395.97 150.08 L 396.00 149.97 L 396.03 149.87 L 396.06 149.77 L 396.09 149.67 L 396.12 149.58 L 396.15 149.49 L 396.18 149.40 L 396.21 149.32 L 396.24 149.25 L 396.27 149.17 L 396.30 149.11 L 396.32 149.04 L 396.35 148.99 L 396.38 148.93 L 396.40 148.88 L 396.42 148.84 L 396.45 148.80 L 396.46 148.76 L 396.48 148.73 L 396.50 148.71 L 396.51 148.69 L 396.52 148.67 L 396.53 148.66 L 396.53 148.65 L 396.53 148.65 L 396.53 148.65 L 396.53 148.66 L 396.52 148.67 L 396.51 148.68 L 396.49 148.70 L 396.48 148.73 L 396.45 148.75 L 396.43 148.78 L 396.40 148.82 L 396.37 148.86 L 396.33 148.90 L 396.29 148.94 L 396.24 148.99 L 396.19 149.05 L 396.14 149.10 L 396.08 149.16 L 396.02 149.22 L 395.95 149.29 L 395.88 149.36 L 395.80 149.43 L 395.72 149.50 L 395.63 149.58 L 395.54 149.65 L 395.45 149.73 L 395.35 149.82 L 395.25 149.90 L 395.14 149.99 L 395.03 150.08 L 394.91 150.17 L 394.79 150.27 L 394.66 150.36 L 394.53 150.46 L 394.39 150.56 L 394.25 150.66 L 394.10 150.76 L 393.95 150.86 L 393.80 150.97 L 393.64 151.07 L 393.47 151.18 L 393.31 151.29 L 393.13 151.39 L 392.95 151.50 L 392.77 151.61 L 392.59 151.72 L 392.39 151.84 L 392.20 151.95" fill="none" stroke="#adadad" stroke-width="1.3" stroke-linecap="round" stroke-linejoin="round"/>
  <path d="M 328.00 152.06 L 327.80 151.95 L 327.61 151.84 L 327.41 151.72 L 327.23 151.61 L 327.05 151.50 L 326.87 151.39 L 326.69 151.29 L 326.53 151.18 L 326.36 151.07 L 326.20 150.97 L 326.05 150.86 L 325.90 150.76 L 325.75 150.66 L 325.61 150.56 L 325.47 150.46 L 325.34 150.36 L 325.21 150.27 L 325.09 150.17 L 324.97 150.08 L 324.86 149.99 L 324.75 149.90 L 324.65 149.82 L 324.55 149.73 L 324.46 149.65 L 324.37 149.58 L 324.28 149.50 L 324.20 149.43 L 324.12 149.36 L 324.05 149.29 L 323.98 149.22 L 323.92 149.16 L 323.86 149.10 L 323.81 149.05 L 323.76 148.99 L 323.71 148.94 L 323.67 148.90 L 323.63 148.86 L 323.60 148.82 L 323.57 148.78 L 323.55 148.75 L 323.52 148.73 L 323.51 148.70 L 323.49 148.68 L 323.48 148.67 L 323.47 148.66 L 323.47 148.65 L 323.47 148.65 L 323.47 148.65 L 323.47 148.66 L 323.48 148.67 L 323.49 148.69 L 323.50 148.71 L 323.52 148.73 L 323.54 148.76 L 323.55 148.80 L 323.58 148.84 L 323.60 148.88 L 323.62 148.93 L 323.65 148.99 L 323.68 149.04 L 323.70 149.11 L 323.73 149.17 L 323.76 149.25 L 323.79 149.32 L 323.82 149.40 L 323.85 149.49 L 323.88 149.58 L 323.91 149.67 L 323.94 149.77 L 323.97 149.87 L 324.00 149.97 L 324.03 150.08 L 324.06 150.19 L 324.08 150.31 L 324.11 150.43 L 324.13 150.55 L 324.15 150.67 L 324.17 150.80 L 324.19 150.93 L 324.20 151.05 L 324.22 151.19 L 324.23 151.32 L 324.24 151.45 L 324.25 151.59 L 324.25 151.73 L 324.26 151.86 L 324.26 152.00" fill="none" stroke="#adadad" stroke-width="1.3" stroke-linecap="round" stroke-linejoin="round"/>
  <path d="M 327.80 152.05 L 328.00 151.94 L 328.21 151.83 L 328.41 151.71 L 328.63 151.60 L 328.85 151.48 L 329.07 151.37 L 329.29 151.26 L 329.52 151.14 L 329.76 151.03 L 329.99 150.91 L 330.24 150.80 L 330.48 150.68 L 330.73 150.57 L 330.99 150.45 L 331.25 150.34 L 331.51 150.23 L 331.77 150.11 L 332.04 150.00 L 332.32 149.89 L 332.59 149.78 L 332.87 149.67 L 333.16 149.56 L 333.45 149.45 L 333.74 149.34 L 334.03 149.23 L 334.33 149.12 L 334.63 149.02 L 334.94 148.91 L 335.24 148.80 L 335.56 148.70 L 335.87 148.60 L 336.19 148.50 L 336.51 148.39 L 336.83 148.29 L 337.16 148.19 L 337.49 148.10 L 337.82 148.00 L 338.16 147.90 L 338.50 147.81 L 338.84 147.72 L 339.18 147.63 L 339.53 147.53 L 339.88 147.45 L 340.23 147.36 L 340.58 147.27 L 340.94 147.19 L 341.30 147.10 L 341.66 147.02 L 342.03 146.94 L 342.39 146.86 L 342.76 146.78 L 343.13 146.70 L 343.50 146.63 L 343.88 146.56 L 344.26 146.49 L 344.63 146.42 L 345.02 146.35 L 345.40 146.28 L 345.78 146.21 L 346.17 146.15 L 346.56 146.09 L 346.95 146.03 L 347.34 145.97 L 347.73 145.91 L 348.12 145.86 L 348.52 145.81 L 348.92 145.75 L 349.32 145.70 L 349.72 145.66 L 350.12 145.61 L 350.52 145.57 L 350.92 145.52 L 351.33 145.48 L 351.74 145.44 L 352.14 145.41 L 352.55 145.37 L 352.96 145.34 L 353.37 145.31 L 353.78 145.28 L 354.19 145.25 L 354.60 145.22 L 355.01 145.20 L 355.43 145.18 L 355.84 145.16 L 356.26 145.14 L 356.67 145.12 L 357.09 145.11 L 357.50 145.10 L 357.92 145.08 L 358.33 145.08 L 358.75 145.07 L 359.17 145.06 L 359.58 145.06 L 360.00 145.06 L 360.42 145.06 L 360.83 145.06 L 361.25 145.07 L 361.67 145.08 L 362.08 145.08 L 362.50 145.10 L 362.91 145.11 L 363.33 145.12 L 363.74 145.14 L 364.16 145.16 L 364.57 145.18 L 364.99 145.20 L 365.40 145.22 L 365.81 145.25 L 366.22 145.28 L 366.63 145.31 L 367.04 145.34 L 367.45 145.37 L 367.86 145.41 L 368.26 145.44 L 368.67 145.48 L 369.08 145.52 L 369.48 145.57 L 369.88 145.61 L 370.28 145.66 L 370.68 145.70 L 371.08 145.75 L 371.48 145.81 L 371.88 145.86 L 372.27 145.91 L 372.66 145.97 L 373.05 146.03 L 373.44 146.09 L 373.83 146.15 L 374.22 146.21 L 374.60 146.28 L 374.98 146.35 L 375.37 146.42 L 375.74 146.49 L 376.12 146.56 L 376.50 146.63 L 376.87 146.70 L 377.24 146.78 L 377.61 146.86 L 377.97 146.94 L 378.34 147.02 L 378.70 147.10 L 379.06 147.19 L 379.42 147.27 L 379.77 147.36 L 380.12 147.45 L 380.47 147.53 L 380.82 147.63 L 381.16 147.72 L 381.50 147.81 L 381.84 147.90 L 382.18 148.00 L 382.51 148.10 L 382.84 148.19 L 383.17 148.29 L 383.49 148.39 L 383.81 148.50 L 384.13 148.60 L 384.44 148.70 L 384.76 148.80 L 385.06 148.91 L 385.37 149.02 L 385.67 149.12 L 385.97 149.23 L 386.26 149.34 L 386.55 149.45 L 386.84 149.56 L 387.13 149.67 L 387.41 149.78 L 387.68 149.89 L 387.96 150.00 L 388.23 150.11 L 388.49 150.23 L 388.75 150.34 L 389.01 150.45 L 389.27 150.57 L 389.52 150.68 L 389.76 150.80 L 390.01 150.91 L 390.24 151.03 L 390.48 151.14 L 390.71 151.26 L 390.93 151.37 L 391.15 151.48 L 391.37 151.60 L 391.59 151.71 L 391.79 151.83 L 392.00 151.94" fill="none" stroke="#adadad" stroke-width="1.3" stroke-linecap="round" stroke-linejoin="round"/>
  <path d="M 336.08 137.92 L 336.32 137.81 L 336.55 137.71 L 336.79 137.60 L 337.03 137.49 L 337.26 137.38 L 337.51 137.28 L 337.75 137.18 L 337.99 137.07 L 338.24 136.97 L 338.49 136.87 L 338.74 136.77 L 338.99 136.68 L 339.24 136.58 L 339.50 136.48 L 339.76 136.39 L 340.01 136.30 L 340.27 136.21 L 340.53 136.12 L 340.80 136.03 L 341.06 135.94 L 341.32 135.85 L 341.59 135.76 L 341.86 135.68 L 342.13 135.60 L 342.40 135.51 L 342.67 135.43 L 342.95 135.35 L 343.22 135.28 L 343.50 135.20 L 343.77 135.12 L 344.05 135.05 L 344.33 134.98 L 344.61 134.90 L 344.89 134.83 L 345.18 134.76 L 345.46 134.70 L 345.75 134.63 L 346.03 134.57 L 346.32 134.50 L 346.61 134.44 L 346.90 134.38 L 347.19 134.32 L 347.48 134.26 L 347.78 134.20 L 348.07 134.15 L 348.36 134.09 L 348.66 134.04 L 348.95 133.99 L 349.25 133.94 L 349.55 133.89 L 349.85 133.84 L 350.15 133.79 L 350.45 133.75 L 350.75 133.70 L 351.05 133.66 L 351.35 133.62 L 351.66 133.58 L 351.96 133.54 L 352.26 133.51 L 352.57 133.47 L 352.87 133.44 L 353.18 133.41 L 353.49 133.38 L 353.79 133.35 L 354.10 133.32 L 354.41 133.29 L 354.72 133.27 L 355.03 133.24 L 355.33 133.22 L 355.64 133.20 L 355.95 133.18 L 356.26 133.16 L 356.57 133.15 L 356.88 133.13 L 357.20 133.12 L 357.51 133.11 L 357.82 133.09 L 358.13 133.09 L 358.44 133.08 L 358.75 133.07 L 359.06 133.07 L 359.38 133.06 L 359.69 133.06 L 360.00 133.06 L 360.31 133.06 L 360.62 133.06 L 360.94 133.07 L 361.25 133.07 L 361.56 133.08 L 361.87 133.09 L 362.18 133.09 L 362.49 133.11 L 362.80 133.12 L 363.12 133.13 L 363.43 133.15 L 363.74 133.16 L 364.05 133.18 L 364.36 133.20 L 364.67 133.22 L 364.97 133.24 L 365.28 133.27 L 365.59 133.29 L 365.90 133.32 L 366.21 133.35 L 366.51 133.38 L 366.82 133.41 L 367.13 133.44 L 367.43 133.47 L 367.74 133.51 L 368.04 133.54 L 368.34 133.58 L 368.65 133.62 L 368.95 133.66 L 369.25 133.70 L 369.55 133.75 L 369.85 133.79 L 370.15 133.84 L 370.45 133.89 L 370.75 133.94 L 371.05 133.99 L 371.34 134.04 L 371.64 134.09 L 371.93 134.15 L 372.22 134.20 L 372.52 134.26 L 372.81 134.32 L 373.10 134.38 L 373.39 134.44 L 373.68 134.50 L 373.97 134.57 L 374.25 134.63 L 374.54 134.70 L 374.82 134.76 L 375.11 134.83 L 375.39 134.90 L 375.67 134.98 L 375.95 135.05 L 376.23 135.12 L 376.50 135.20 L 376.78 135.28 L 377.05 135.35 L 377.33 135.43 L 377.60 135.51 L 377.87 135.60 L 378.14 135.68 L 378.41 135.76 L 378.68 135.85 L 378.94 135.94 L 379.20 136.03 L 379.47 136.12 L 379.73 136.21 L 379.99 136.30 L 380.24 136.39 L 380.50 136.48 L 380.76 136.58 L 381.01 136.68 L 381.26 136.77 L 381.51 136.87 L 381.76 136.97 L 382.01 137.07 L 382.25 137.18 L 382.49 137.28 L 382.74 137.38 L 382.97 137.49 L 383.21 137.60 L 383.45 137.71 L 383.68 137.81 L 383.92 137.92 L 384.15 138.04 L 384.38 138.15 L 384.60 138.26 L 384.83 138.38 L 385.05 138.49 L 385.27 138.61 L 385.49 138.72 L 385.71 138.84 L 385.93 138.96 L 386.14 139.08 L 386.35 139.20 L 386.56 139.33 L 386.77 139.45 L 386.98 139.57 L 387.18 139.70 L 387.38 139.83 L 387.58 139.95 L 387.78 140.08 L 387.97 140.21 L 388.17 140.34 L 388.36 140.47" fill="none" stroke="#adadad" stroke-width="1.1" stroke-linecap="round" stroke-linejoin="round"/>
</g>
  <text x="360" y="72" text-anchor="middle" font-size="15" fill="#555" font-style="italic">the object</text>

  <!-- observer dots, placed by viewing angle relative to the torus -->
  <circle cx="360" cy="150" r="7" fill="#1f9b9b"/>          <!-- teal: inside the hole -->
  <circle cx="360" cy="256" r="7" fill="#3a72b0"/>          <!-- blue: squarely below the torus -->
  <circle cx="512" cy="250" r="7" fill="#8a52a8"/>          <!-- purple: on the diagonal -->

  <!-- what the blue observer sees, from below the axis: the ring -->
  <circle cx="360" cy="362" r="36" fill="none" stroke="#3a72b0" stroke-width="3"/>
  <circle cx="360" cy="362" r="15" fill="none" stroke="#3a72b0" stroke-width="3"/>
  <text x="360" y="424" text-anchor="middle" font-size="14" fill="#333">observer</text>

  <!-- what the purple observer sees, oblique: a solid oval -->
  <ellipse cx="600" cy="362" rx="42" ry="25" fill="none" stroke="#8a52a8" stroke-width="3"/>
  <text x="600" y="424" text-anchor="middle" font-size="14" fill="#333">observer</text>

  <!-- what the teal observer sees, inside the hole: a hyperbola (the saddle wall) -->
  <path d="M 100 326 Q 130 362 100 398" fill="none" stroke="#1f9b9b" stroke-width="3"/>
  <path d="M 160 326 Q 130 362 160 398" fill="none" stroke="#1f9b9b" stroke-width="3"/>
  <text x="130" y="424" text-anchor="middle" font-size="14" fill="#333">observer</text>
</svg>
