<svg viewBox="0 0 620 300" xmlns="http://www.w3.org/2000/svg" font-family="ui-monospace,SFMono-Regular,monospace">
  <style>
    text{font-size:13px;fill:#1a1a1a}
    .s{font-size:11px;opacity:.6}.b{font-weight:bold}
    rect{fill:none;stroke:#1a1a1a;stroke-width:1}
    line,path{stroke:#1a1a1a;stroke-width:1;fill:none}
    polygon{fill:#1a1a1a}
    .dash{stroke-dasharray:4 3}
    @media (prefers-color-scheme: dark){
      text{fill:#e8e8e8}
      rect,line,path{stroke:#e8e8e8}
      polygon{fill:#e8e8e8}
    }
  </style>
  <text x="16" y="20" class="s b">HOT · last k messages, served raw</text>
  <rect x="16" y="28" width="588" height="38"/>
  <text x="34" y="52">m97   m98   m99   m100</text>
  <text x="546" y="52" class="s">newest</text>
  <line x1="46" y1="66" x2="46" y2="96"/><polygon points="46,100 41,90 51,90"/>
  <text x="56" y="88" class="s">graduate oldest</text>
  <text x="16" y="120" class="s b">COLD · union-find forest, one summary per cluster of sources</text>
  <rect x="28" y="130" width="150" height="30"/>
  <text x="103" y="150" text-anchor="middle" class="b">summary A</text>
  <line x1="66" y1="160" x2="58" y2="192"/><line x1="103" y1="160" x2="103" y2="192"/><line x1="140" y1="160" x2="148" y2="192"/>
  <text x="58" y="206" text-anchor="middle" class="s">m3</text>
  <text x="103" y="206" text-anchor="middle" class="s">m7</text>
  <text x="148" y="206" text-anchor="middle" class="s">m12</text>
  <rect x="220" y="130" width="150" height="30"/>
  <text x="295" y="150" text-anchor="middle" class="b">summary B</text>
  <line x1="258" y1="160" x2="250" y2="192"/><line x1="332" y1="160" x2="340" y2="192"/>
  <text x="250" y="206" text-anchor="middle" class="s">m5</text>
  <text x="340" y="206" text-anchor="middle" class="s">m9</text>
  <line x1="58" y1="192" x2="46" y2="163"/><polygon points="46,159 42,169 52,167"/>
  <text x="410" y="140" class="b">find(m) up to root</text>
  <text x="410" y="156" class="s">any message to its summary:</text>
  <text x="410" y="170" class="s">provenance, auditable</text>
  <text x="410" y="194" class="b">expand(root) to sources</text>
  <text x="410" y="210" class="s">reinflate a cluster to raw msgs</text>
  <text x="256" y="250" text-anchor="middle" class="s b">new cold message</text>
  <line class="dash" x1="295" y1="244" x2="295" y2="163"/><polygon points="295,159 290,169 300,169"/>
  <text x="256" y="272" text-anchor="middle" class="s">union if cos(vec, centroid) >= threshold,</text>
  <text x="256" y="286" text-anchor="middle" class="s">else a new singleton; cap forces a merge</text>
</svg>
