<svg xmlns="http://www.w3.org/2000/svg" viewBox="0 0 640 285" width="640" height="285" aria-label="Simulated conversion values against embedding distance along two directions, both scattering around one isotropic Gaussian curve"><style>text{font-family:ui-monospace,Menlo,monospace;fill:#334155;}.muted{fill:#64748b}.accent{fill:#3b82f6}.teal{fill:#0d9488}.s-neutral{stroke:#64748b}.s-line{stroke:#94a3b8}.s-accent{stroke:#3b82f6}.s-teal{stroke:#0d9488}</style><line x1="50.0" y1="254.0" x2="610.0" y2="254.0" class="s-line" stroke-width="1"/><path d="M50.0,62.9 L610.0,62.9" fill="none" class="s-line" stroke-width="1" stroke-dasharray="3 4"/><text x="160" y="54.9" font-size="12" class="muted">b: value at the center</text><circle cx="63.8" cy="43.8" r="3.4" class="accent" fill-opacity="0.85"/><circle cx="91.7" cy="43.8" r="3.4" class="accent" fill-opacity="0.85"/><circle cx="133.6" cy="95.8" r="3.4" class="accent" fill-opacity="0.85"/><circle cx="165.9" cy="92.3" r="3.4" class="accent" fill-opacity="0.85"/><circle cx="189.5" cy="131.4" r="3.4" class="accent" fill-opacity="0.85"/><circle cx="223.4" cy="137.2" r="3.4" class="accent" fill-opacity="0.85"/><circle cx="262.8" cy="162.8" r="3.4" class="accent" fill-opacity="0.85"/><circle cx="291.7" cy="194.6" r="3.4" class="accent" fill-opacity="0.85"/><circle cx="332.5" cy="188.7" r="3.4" class="accent" fill-opacity="0.85"/><circle cx="360.8" cy="223.6" r="3.4" class="accent" fill-opacity="0.85"/><circle cx="405.1" cy="219.6" r="3.4" class="accent" fill-opacity="0.85"/><circle cx="424.4" cy="235.5" r="3.4" class="accent" fill-opacity="0.85"/><circle cx="454.4" cy="241.6" r="3.4" class="accent" fill-opacity="0.85"/><circle cx="500.5" cy="248.0" r="3.4" class="accent" fill-opacity="0.85"/><circle cx="520.8" cy="251.4" r="3.4" class="accent" fill-opacity="0.85"/><circle cx="557.4" cy="252.4" r="3.4" class="accent" fill-opacity="0.85"/><circle cx="68.2" cy="46.0" r="3.4" fill="none" class="s-teal" stroke-width="1.8"/><circle cx="94.3" cy="62.4" r="3.4" fill="none" class="s-teal" stroke-width="1.8"/><circle cx="136.5" cy="119.6" r="3.4" fill="none" class="s-teal" stroke-width="1.8"/><circle cx="167.5" cy="87.7" r="3.4" fill="none" class="s-teal" stroke-width="1.8"/><circle cx="197.7" cy="142.9" r="3.4" fill="none" class="s-teal" stroke-width="1.8"/><circle cx="235.4" cy="87.6" r="3.4" fill="none" class="s-teal" stroke-width="1.8"/><circle cx="259.3" cy="189.5" r="3.4" fill="none" class="s-teal" stroke-width="1.8"/><circle cx="304.5" cy="202.4" r="3.4" fill="none" class="s-teal" stroke-width="1.8"/><circle cx="334.5" cy="216.5" r="3.4" fill="none" class="s-teal" stroke-width="1.8"/><circle cx="355.3" cy="176.2" r="3.4" fill="none" class="s-teal" stroke-width="1.8"/><circle cx="394.1" cy="230.6" r="3.4" fill="none" class="s-teal" stroke-width="1.8"/><circle cx="428.3" cy="241.3" r="3.4" fill="none" class="s-teal" stroke-width="1.8"/><circle cx="452.3" cy="245.5" r="3.4" fill="none" class="s-teal" stroke-width="1.8"/><circle cx="495.7" cy="250.3" r="3.4" fill="none" class="s-teal" stroke-width="1.8"/><circle cx="534.5" cy="251.5" r="3.4" fill="none" class="s-teal" stroke-width="1.8"/><circle cx="561.8" cy="251.3" r="3.4" fill="none" class="s-teal" stroke-width="1.8"/><path d="M50.0,62.9 L52.2,62.9 L54.3,63.0 L56.5,63.1 L58.6,63.2 L60.8,63.3 L62.9,63.5 L65.1,63.7 L67.2,63.9 L69.4,64.2 L71.5,64.5 L73.7,64.8 L75.8,65.2 L78.0,65.6 L80.2,66.0 L82.3,66.4 L84.5,66.9 L86.6,67.4 L88.8,68.0 L90.9,68.5 L93.1,69.1 L95.2,69.8 L97.4,70.4 L99.5,71.1 L101.7,71.8 L103.8,72.5 L106.0,73.3 L108.2,74.1 L110.3,74.9 L112.5,75.8 L114.6,76.6 L116.8,77.5 L118.9,78.4 L121.1,79.4 L123.2,80.3 L125.4,81.3 L127.5,82.3 L129.7,83.4 L131.8,84.4 L134.0,85.5 L136.2,86.6 L138.3,87.7 L140.5,88.8 L142.6,90.0 L144.8,91.2 L146.9,92.4 L149.1,93.6 L151.2,94.8 L153.4,96.1 L155.5,97.3 L157.7,98.6 L159.8,99.9 L162.0,101.2 L164.2,102.5 L166.3,103.8 L168.5,105.2 L170.6,106.6 L172.8,107.9 L174.9,109.3 L177.1,110.7 L179.2,112.1 L181.4,113.5 L183.5,114.9 L185.7,116.4 L187.8,117.8 L190.0,119.2 L192.2,120.7 L194.3,122.2 L196.5,123.6 L198.6,125.1 L200.8,126.6 L202.9,128.0 L205.1,129.5 L207.2,131.0 L209.4,132.5 L211.5,134.0 L213.7,135.5 L215.8,136.9 L218.0,138.4 L220.2,139.9 L222.3,141.4 L224.5,142.9 L226.6,144.4 L228.8,145.9 L230.9,147.4 L233.1,148.8 L235.2,150.3 L237.4,151.8 L239.5,153.2 L241.7,154.7 L243.8,156.2 L246.0,157.6 L248.2,159.1 L250.3,160.5 L252.5,161.9 L254.6,163.4 L256.8,164.8 L258.9,166.2 L261.1,167.6 L263.2,169.0 L265.4,170.4 L267.5,171.8 L269.7,173.1 L271.8,174.5 L274.0,175.8 L276.2,177.2 L278.3,178.5 L280.5,179.8 L282.6,181.1 L284.8,182.4 L286.9,183.7 L289.1,185.0 L291.2,186.2 L293.4,187.5 L295.5,188.7 L297.7,189.9 L299.8,191.2 L302.0,192.4 L304.2,193.5 L306.3,194.7 L308.5,195.9 L310.6,197.0 L312.8,198.2 L314.9,199.3 L317.1,200.4 L319.2,201.5 L321.4,202.6 L323.5,203.6 L325.7,204.7 L327.8,205.7 L330.0,206.7 L332.2,207.7 L334.3,208.7 L336.5,209.7 L338.6,210.7 L340.8,211.6 L342.9,212.6 L345.1,213.5 L347.2,214.4 L349.4,215.3 L351.5,216.2 L353.7,217.0 L355.8,217.9 L358.0,218.7 L360.2,219.6 L362.3,220.4 L364.5,221.2 L366.6,222.0 L368.8,222.7 L370.9,223.5 L373.1,224.2 L375.2,225.0 L377.4,225.7 L379.5,226.4 L381.7,227.1 L383.8,227.8 L386.0,228.4 L388.2,229.1 L390.3,229.7 L392.5,230.4 L394.6,231.0 L396.8,231.6 L398.9,232.2 L401.1,232.7 L403.2,233.3 L405.4,233.9 L407.5,234.4 L409.7,234.9 L411.8,235.5 L414.0,236.0 L416.2,236.5 L418.3,237.0 L420.5,237.4 L422.6,237.9 L424.8,238.3 L426.9,238.8 L429.1,239.2 L431.2,239.7 L433.4,240.1 L435.5,240.5 L437.7,240.9 L439.8,241.3 L442.0,241.6 L444.2,242.0 L446.3,242.4 L448.5,242.7 L450.6,243.0 L452.8,243.4 L454.9,243.7 L457.1,244.0 L459.2,244.3 L461.4,244.6 L463.5,244.9 L465.7,245.2 L467.8,245.5 L470.0,245.8 L472.2,246.0 L474.3,246.3 L476.5,246.5 L478.6,246.8 L480.8,247.0 L482.9,247.2 L485.1,247.4 L487.2,247.7 L489.4,247.9 L491.5,248.1 L493.7,248.3 L495.8,248.5 L498.0,248.6 L500.2,248.8 L502.3,249.0 L504.5,249.2 L506.6,249.3 L508.8,249.5 L510.9,249.7 L513.1,249.8 L515.2,250.0 L517.4,250.1 L519.5,250.2 L521.7,250.4 L523.8,250.5 L526.0,250.6 L528.2,250.7 L530.3,250.9 L532.5,251.0 L534.6,251.1 L536.8,251.2 L538.9,251.3 L541.1,251.4 L543.2,251.5 L545.4,251.6 L547.5,251.7 L549.7,251.8 L551.8,251.8 L554.0,251.9 L556.2,252.0 L558.3,252.1 L560.5,252.2 L562.6,252.2 L564.8,252.3 L566.9,252.4 L569.1,252.4 L571.2,252.5 L573.4,252.5 L575.5,252.6 L577.7,252.7 L579.8,252.7 L582.0,252.8 L584.2,252.8 L586.3,252.9 L588.5,252.9 L590.6,253.0 L592.8,253.0 L594.9,253.0 L597.1,253.1 L599.2,253.1 L601.4,253.2 L603.5,253.2 L605.7,253.2 L607.8,253.3 L610.0,253.3" fill="none" class="s-neutral" stroke-width="2.4"/><text x="389" y="211.7" font-size="12" text-anchor="start">b · exp(−d²/σ²)</text><circle cx="392" cy="70" r="3.4" class="accent"/><text x="401" y="74" font-size="12" class="muted">draws along direction u</text><circle cx="392" cy="88" r="3.4" fill="none" class="s-teal" stroke-width="1.8"/><text x="401" y="92" font-size="12" class="muted">draws along direction v</text><text x="330" y="276" text-anchor="middle" font-size="12" class="muted">distance from the true center, along either direction (simulated conversions)</text><text x="18" y="150" font-size="12" transform="rotate(-90 18 150)" text-anchor="middle">conversion value</text></svg>
