<svg xmlns="http://www.w3.org/2000/svg" viewBox="0 0 640 300" width="640" height="300" aria-label="Score curves for a fixed center with shrinking sigma collapsing toward a spike, against a wide rival with equal bid"><style>text{font-family:ui-monospace,Menlo,monospace;fill:#444;}.dark{fill:#1c1917}.muted{fill:#78716c}.accent{fill:#2563eb}.green{fill:#15803d}.amber{fill:#b45309}.red{fill:#c43c3c}.s-neutral{stroke:#666}.s-line{stroke:#999}.s-accent{stroke:#2563eb}.s-green{stroke:#15803d}.s-amber{stroke:#b45309}.s-red{stroke:#c43c3c}</style><path d="M50.0,65.7 L53.5,65.1 L57.0,64.6 L60.5,64.1 L64.0,63.6 L67.5,63.1 L71.0,62.6 L74.5,62.1 L78.0,61.6 L81.5,61.1 L85.0,60.7 L88.5,60.2 L92.0,59.8 L95.5,59.4 L99.0,59.0 L102.5,58.6 L106.0,58.2 L109.5,57.8 L113.0,57.4 L116.5,57.0 L120.0,56.7 L123.5,56.3 L127.0,56.0 L130.5,55.6 L134.0,55.3 L137.5,55.0 L141.0,54.7 L144.5,54.4 L148.0,54.1 L151.5,53.8 L155.0,53.6 L158.5,53.3 L162.0,53.1 L165.5,52.8 L169.0,52.6 L172.5,52.4 L176.0,52.2 L179.5,52.0 L183.0,51.8 L186.5,51.6 L190.0,51.4 L193.5,51.3 L197.0,51.1 L200.5,51.0 L204.0,50.9 L207.5,50.7 L211.0,50.6 L214.5,50.5 L218.0,50.4 L221.5,50.3 L225.0,50.3 L228.5,50.2 L232.0,50.1 L235.5,50.1 L239.0,50.0 L242.5,50.0 L246.0,50.0 L249.5,50.0 L253.0,50.0 L256.5,50.0 L260.0,50.0 L263.5,50.0 L267.0,50.1 L270.5,50.1 L274.0,50.2 L277.5,50.2 L281.0,50.3 L284.5,50.4 L288.0,50.5 L291.5,50.6 L295.0,50.7 L298.5,50.8 L302.0,51.0 L305.5,51.1 L309.0,51.2 L312.5,51.4 L316.0,51.6 L319.5,51.8 L323.0,51.9 L326.5,52.1 L330.0,52.4 L333.5,52.6 L337.0,52.8 L340.5,53.0 L344.0,53.3 L347.5,53.5 L351.0,53.8 L354.5,54.1 L358.0,54.3 L361.5,54.6 L365.0,54.9 L368.5,55.3 L372.0,55.6 L375.5,55.9 L379.0,56.2 L382.5,56.6 L386.0,57.0 L389.5,57.3 L393.0,57.7 L396.5,58.1 L400.0,58.5 L403.5,58.9 L407.0,59.3 L410.5,59.7 L414.0,60.2 L417.5,60.6 L421.0,61.1 L424.5,61.5 L428.0,62.0 L431.5,62.5 L435.0,63.0 L438.5,63.5 L442.0,64.0 L445.5,64.5 L449.0,65.0 L452.5,65.6 L456.0,66.1 L459.5,66.7 L463.0,67.2 L466.5,67.8 L470.0,68.4 L473.5,69.0 L477.0,69.6 L480.5,70.2 L484.0,70.8 L487.5,71.5 L491.0,72.1 L494.5,72.8 L498.0,73.4 L501.5,74.1 L505.0,74.8 L508.5,75.5 L512.0,76.2 L515.5,76.9 L519.0,77.6 L522.5,78.3 L526.0,79.0 L529.5,79.8 L533.0,80.5 L536.5,81.3 L540.0,82.1 L543.5,82.9 L547.0,83.7 L550.5,84.5 L554.0,85.3 L557.5,86.1 L561.0,86.9 L564.5,87.8 L568.0,88.6 L571.5,89.5 L575.0,90.3 L578.5,91.2 L582.0,92.1 L585.5,93.0 L589.0,93.9 L592.5,94.8 L596.0,95.8 L599.5,96.7 L603.0,97.6 L606.5,98.6 L610.0,99.6" fill="none" class="s-amber" stroke-width="2.0"/><path d="M50.0,138.0 L53.5,136.2 L57.0,134.3 L60.5,132.4 L64.0,130.6 L67.5,128.8 L71.0,127.0 L74.5,125.3 L78.0,123.5 L81.5,121.8 L85.0,120.1 L88.5,118.4 L92.0,116.7 L95.5,115.1 L99.0,113.5 L102.5,111.9 L106.0,110.3 L109.5,108.7 L113.0,107.2 L116.5,105.7 L120.0,104.2 L123.5,102.7 L127.0,101.2 L130.5,99.8 L134.0,98.4 L137.5,97.0 L141.0,95.6 L144.5,94.3 L148.0,92.9 L151.5,91.6 L155.0,90.3 L158.5,89.0 L162.0,87.8 L165.5,86.5 L169.0,85.3 L172.5,84.1 L176.0,83.0 L179.5,81.8 L183.0,80.7 L186.5,79.6 L190.0,78.5 L193.5,77.4 L197.0,76.4 L200.5,75.3 L204.0,74.3 L207.5,73.3 L211.0,72.4 L214.5,71.4 L218.0,70.5 L221.5,69.6 L225.0,68.7 L228.5,67.8 L232.0,67.0 L235.5,66.2 L239.0,65.4 L242.5,64.6 L246.0,63.8 L249.5,63.1 L253.0,62.4 L256.5,61.7 L260.0,61.0 L263.5,60.3 L267.0,59.7 L270.5,59.1 L274.0,58.5 L277.5,57.9 L281.0,57.3 L284.5,56.8 L288.0,56.3 L291.5,55.8 L295.0,55.3 L298.5,54.8 L302.0,54.4 L305.5,54.0 L309.0,53.6 L312.5,53.2 L316.0,52.9 L319.5,52.5 L323.0,52.2 L326.5,51.9 L330.0,51.7 L333.5,51.4 L337.0,51.2 L340.5,51.0 L344.0,50.8 L347.5,50.6 L351.0,50.5 L354.5,50.3 L358.0,50.2 L361.5,50.1 L365.0,50.1 L368.5,50.0 L372.0,50.0 L375.5,50.0 L379.0,50.0 L382.5,50.0 L386.0,50.1 L389.5,50.2 L393.0,50.3 L396.5,50.4 L400.0,50.5 L403.5,50.7 L407.0,50.8 L410.5,51.0 L414.0,51.3 L417.5,51.5 L421.0,51.8 L424.5,52.0 L428.0,52.3 L431.5,52.7 L435.0,53.0 L438.5,53.4 L442.0,53.7 L445.5,54.2 L449.0,54.6 L452.5,55.0 L456.0,55.5 L459.5,56.0 L463.0,56.5 L466.5,57.0 L470.0,57.5 L473.5,58.1 L477.0,58.7 L480.5,59.3 L484.0,59.9 L487.5,60.6 L491.0,61.2 L494.5,61.9 L498.0,62.6 L501.5,63.4 L505.0,64.1 L508.5,64.9 L512.0,65.7 L515.5,66.5 L519.0,67.3 L522.5,68.2 L526.0,69.1 L529.5,70.0 L533.0,70.9 L536.5,71.8 L540.0,72.8 L543.5,73.7 L547.0,74.7 L550.5,75.7 L554.0,76.8 L557.5,77.8 L561.0,78.9 L564.5,80.0 L568.0,81.1 L571.5,82.3 L575.0,83.4 L578.5,84.6 L582.0,85.8 L585.5,87.0 L589.0,88.3 L592.5,89.5 L596.0,90.8 L599.5,92.1 L603.0,93.4 L606.5,94.8 L610.0,96.2" fill="none" class="s-accent" stroke-width="1.8" opacity="0.3"/><path d="M50.0,250.0 L53.5,250.0 L57.0,250.0 L60.5,250.0 L64.0,250.0 L67.5,250.0 L71.0,250.0 L74.5,250.0 L78.0,250.0 L81.5,250.0 L85.0,250.0 L88.5,250.0 L92.0,250.0 L95.5,250.0 L99.0,250.0 L102.5,250.0 L106.0,250.0 L109.5,250.0 L113.0,250.0 L116.5,248.7 L120.0,243.3 L123.5,238.1 L127.0,232.9 L130.5,227.7 L134.0,222.7 L137.5,217.7 L141.0,212.8 L144.5,207.9 L148.0,203.2 L151.5,198.5 L155.0,193.9 L158.5,189.3 L162.0,184.9 L165.5,180.5 L169.0,176.1 L172.5,171.9 L176.0,167.7 L179.5,163.6 L183.0,159.5 L186.5,155.6 L190.0,151.7 L193.5,147.9 L197.0,144.1 L200.5,140.5 L204.0,136.9 L207.5,133.3 L211.0,129.9 L214.5,126.5 L218.0,123.2 L221.5,120.0 L225.0,116.8 L228.5,113.7 L232.0,110.7 L235.5,107.8 L239.0,104.9 L242.5,102.1 L246.0,99.4 L249.5,96.7 L253.0,94.2 L256.5,91.7 L260.0,89.2 L263.5,86.9 L267.0,84.6 L270.5,82.4 L274.0,80.2 L277.5,78.2 L281.0,76.2 L284.5,74.3 L288.0,72.4 L291.5,70.6 L295.0,68.9 L298.5,67.3 L302.0,65.8 L305.5,64.3 L309.0,62.9 L312.5,61.5 L316.0,60.3 L319.5,59.1 L323.0,58.0 L326.5,56.9 L330.0,56.0 L333.5,55.1 L337.0,54.2 L340.5,53.5 L344.0,52.8 L347.5,52.2 L351.0,51.7 L354.5,51.2 L358.0,50.8 L361.5,50.5 L365.0,50.3 L368.5,50.1 L372.0,50.0 L375.5,50.0 L379.0,50.0 L382.5,50.2 L386.0,50.4 L389.5,50.6 L393.0,51.0 L396.5,51.4 L400.0,51.9 L403.5,52.4 L407.0,53.1 L410.5,53.8 L414.0,54.6 L417.5,55.4 L421.0,56.3 L424.5,57.3 L428.0,58.4 L431.5,59.6 L435.0,60.8 L438.5,62.1 L442.0,63.4 L445.5,64.9 L449.0,66.4 L452.5,68.0 L456.0,69.6 L459.5,71.3 L463.0,73.1 L466.5,75.0 L470.0,77.0 L473.5,79.0 L477.0,81.1 L480.5,83.3 L484.0,85.5 L487.5,87.8 L491.0,90.2 L494.5,92.7 L498.0,95.2 L501.5,97.8 L505.0,100.5 L508.5,103.2 L512.0,106.0 L515.5,108.9 L519.0,111.9 L522.5,115.0 L526.0,118.1 L529.5,121.3 L533.0,124.5 L536.5,127.9 L540.0,131.3 L543.5,134.7 L547.0,138.3 L550.5,141.9 L554.0,145.6 L557.5,149.4 L561.0,153.2 L564.5,157.2 L568.0,161.2 L571.5,165.2 L575.0,169.4 L578.5,173.6 L582.0,177.8 L585.5,182.2 L589.0,186.6 L592.5,191.1 L596.0,195.7 L599.5,200.4 L603.0,205.1 L606.5,209.9 L610.0,214.7" fill="none" class="s-accent" stroke-width="1.8" opacity="0.55"/><path d="M50.0,250.0 L53.5,250.0 L57.0,250.0 L60.5,250.0 L64.0,250.0 L67.5,250.0 L71.0,250.0 L74.5,250.0 L78.0,250.0 L81.5,250.0 L85.0,250.0 L88.5,250.0 L92.0,250.0 L95.5,250.0 L99.0,250.0 L102.5,250.0 L106.0,250.0 L109.5,250.0 L113.0,250.0 L116.5,250.0 L120.0,250.0 L123.5,250.0 L127.0,250.0 L130.5,250.0 L134.0,250.0 L137.5,250.0 L141.0,250.0 L144.5,250.0 L148.0,250.0 L151.5,250.0 L155.0,250.0 L158.5,250.0 L162.0,250.0 L165.5,250.0 L169.0,250.0 L172.5,250.0 L176.0,250.0 L179.5,250.0 L183.0,250.0 L186.5,250.0 L190.0,250.0 L193.5,250.0 L197.0,250.0 L200.5,250.0 L204.0,250.0 L207.5,250.0 L211.0,250.0 L214.5,250.0 L218.0,250.0 L221.5,250.0 L225.0,250.0 L228.5,250.0 L232.0,250.0 L235.5,250.0 L239.0,250.0 L242.5,250.0 L246.0,250.0 L249.5,250.0 L253.0,250.0 L256.5,250.0 L260.0,248.7 L263.5,236.8 L267.0,225.2 L270.5,214.0 L274.0,203.2 L277.5,192.7 L281.0,182.6 L284.5,172.9 L288.0,163.6 L291.5,154.6 L295.0,146.0 L298.5,137.8 L302.0,129.9 L305.5,122.4 L309.0,115.3 L312.5,108.5 L316.0,102.1 L319.5,96.1 L323.0,90.4 L326.5,85.2 L330.0,80.2 L333.5,75.7 L337.0,71.5 L340.5,67.7 L344.0,64.3 L347.5,61.2 L351.0,58.5 L354.5,56.2 L358.0,54.2 L361.5,52.6 L365.0,51.4 L368.5,50.6 L372.0,50.1 L375.5,50.0 L379.0,50.2 L382.5,50.9 L386.0,51.9 L389.5,53.2 L393.0,55.0 L396.5,57.1 L400.0,59.6 L403.5,62.4 L407.0,65.6 L410.5,69.2 L414.0,73.1 L417.5,77.5 L421.0,82.2 L424.5,87.2 L428.0,92.7 L431.5,98.5 L435.0,104.6 L438.5,111.2 L442.0,118.1 L445.5,125.3 L449.0,133.0 L452.5,141.0 L456.0,149.4 L459.5,158.2 L463.0,167.3 L466.5,176.8 L470.0,186.6 L473.5,196.9 L477.0,207.5 L480.5,218.4 L484.0,229.8 L487.5,241.5 L491.0,250.0 L494.5,250.0 L498.0,250.0 L501.5,250.0 L505.0,250.0 L508.5,250.0 L512.0,250.0 L515.5,250.0 L519.0,250.0 L522.5,250.0 L526.0,250.0 L529.5,250.0 L533.0,250.0 L536.5,250.0 L540.0,250.0 L543.5,250.0 L547.0,250.0 L550.5,250.0 L554.0,250.0 L557.5,250.0 L561.0,250.0 L564.5,250.0 L568.0,250.0 L571.5,250.0 L575.0,250.0 L578.5,250.0 L582.0,250.0 L585.5,250.0 L589.0,250.0 L592.5,250.0 L596.0,250.0 L599.5,250.0 L603.0,250.0 L606.5,250.0 L610.0,250.0" fill="none" class="s-accent" stroke-width="1.8" opacity="0.8"/><path d="M50.0,250.0 L53.5,250.0 L57.0,250.0 L60.5,250.0 L64.0,250.0 L67.5,250.0 L71.0,250.0 L74.5,250.0 L78.0,250.0 L81.5,250.0 L85.0,250.0 L88.5,250.0 L92.0,250.0 L95.5,250.0 L99.0,250.0 L102.5,250.0 L106.0,250.0 L109.5,250.0 L113.0,250.0 L116.5,250.0 L120.0,250.0 L123.5,250.0 L127.0,250.0 L130.5,250.0 L134.0,250.0 L137.5,250.0 L141.0,250.0 L144.5,250.0 L148.0,250.0 L151.5,250.0 L155.0,250.0 L158.5,250.0 L162.0,250.0 L165.5,250.0 L169.0,250.0 L172.5,250.0 L176.0,250.0 L179.5,250.0 L183.0,250.0 L186.5,250.0 L190.0,250.0 L193.5,250.0 L197.0,250.0 L200.5,250.0 L204.0,250.0 L207.5,250.0 L211.0,250.0 L214.5,250.0 L218.0,250.0 L221.5,250.0 L225.0,250.0 L228.5,250.0 L232.0,250.0 L235.5,250.0 L239.0,250.0 L242.5,250.0 L246.0,250.0 L249.5,250.0 L253.0,250.0 L256.5,250.0 L260.0,250.0 L263.5,250.0 L267.0,250.0 L270.5,250.0 L274.0,250.0 L277.5,250.0 L281.0,250.0 L284.5,250.0 L288.0,250.0 L291.5,250.0 L295.0,250.0 L298.5,250.0 L302.0,250.0 L305.5,250.0 L309.0,250.0 L312.5,250.0 L316.0,250.0 L319.5,250.0 L323.0,250.0 L326.5,250.0 L330.0,227.8 L333.5,201.1 L337.0,176.6 L340.5,154.2 L344.0,134.0 L347.5,116.0 L351.0,100.2 L354.5,86.5 L358.0,75.0 L361.5,65.7 L365.0,58.5 L368.5,53.5 L372.0,50.7 L375.5,50.0 L379.0,51.5 L382.5,55.2 L386.0,61.1 L389.5,69.1 L393.0,79.3 L396.5,91.7 L400.0,106.3 L403.5,123.0 L407.0,141.9 L410.5,162.9 L414.0,186.1 L417.5,211.5 L421.0,239.1 L424.5,250.0 L428.0,250.0 L431.5,250.0 L435.0,250.0 L438.5,250.0 L442.0,250.0 L445.5,250.0 L449.0,250.0 L452.5,250.0 L456.0,250.0 L459.5,250.0 L463.0,250.0 L466.5,250.0 L470.0,250.0 L473.5,250.0 L477.0,250.0 L480.5,250.0 L484.0,250.0 L487.5,250.0 L491.0,250.0 L494.5,250.0 L498.0,250.0 L501.5,250.0 L505.0,250.0 L508.5,250.0 L512.0,250.0 L515.5,250.0 L519.0,250.0 L522.5,250.0 L526.0,250.0 L529.5,250.0 L533.0,250.0 L536.5,250.0 L540.0,250.0 L543.5,250.0 L547.0,250.0 L550.5,250.0 L554.0,250.0 L557.5,250.0 L561.0,250.0 L564.5,250.0 L568.0,250.0 L571.5,250.0 L575.0,250.0 L578.5,250.0 L582.0,250.0 L585.5,250.0 L589.0,250.0 L592.5,250.0 L596.0,250.0 L599.5,250.0 L603.0,250.0 L606.5,250.0 L610.0,250.0" fill="none" class="s-accent" stroke-width="1.8" opacity="1.0"/><path d="M61.2,50.0 L598.8,50.0" fill="none" class="s-line" stroke-width="1.0" stroke-dasharray="3 4"/><text x="66.8" y="44.0" font-size="12">score at center = log b, invariant in σ</text><text x="374.8" y="268.0" font-size="12" text-anchor="middle" class="accent">σ → 0</text><text x="251.6" y="42.0" font-size="12" text-anchor="middle" class="amber">wide rival, equal bid</text><line x1="50" y1="262" x2="610" y2="262" class="s-line" stroke-width="1"/><text x="330" y="292" text-anchor="middle" font-size="12">a keyword is the σ → 0 limit: all territory converges to the point</text></svg>
