<svg xmlns="http://www.w3.org/2000/svg" viewBox="0 0 640 300" width="640" height="300" aria-label="Three Gaussian reported-value curves and their upper envelope partitioning the embedding axis into winning intervals, the power-diagram cells"><style>text{font-family:ui-monospace,Menlo,monospace;fill:#334155;}.muted{fill:#64748b}.accent{fill:#3b82f6}.green{fill:#16a34a}.amber{fill:#d97706}.s-neutral{stroke:#64748b}.s-line{stroke:#94a3b8}.s-accent{stroke:#3b82f6}.s-green{stroke:#16a34a}.s-amber{stroke:#d97706}</style><path d="M50.0,262.0 L50.0,141.1 L51.0,140.3 L52.0,139.6 L53.0,138.8 L54.0,138.1 L55.0,137.3 L56.0,136.6 L57.0,135.8 L58.0,135.1 L59.0,134.3 L60.0,133.6 L61.0,132.8 L62.0,132.1 L63.0,131.3 L64.0,130.6 L65.0,129.9 L66.0,129.1 L67.0,128.4 L68.0,127.7 L69.0,127.0 L70.0,126.2 L71.0,125.5 L72.0,124.8 L73.0,124.1 L74.0,123.4 L75.0,122.7 L76.0,122.0 L77.0,121.3 L78.0,120.6 L79.0,119.9 L80.0,119.2 L81.0,118.5 L82.0,117.8 L83.0,117.2 L84.0,116.5 L85.0,115.8 L86.0,115.2 L87.0,114.5 L88.0,113.9 L89.0,113.2 L90.0,112.6 L91.0,111.9 L92.0,111.3 L93.0,110.7 L94.0,110.0 L95.0,109.4 L96.0,108.8 L97.0,108.2 L98.0,107.6 L99.0,107.0 L100.0,106.4 L101.0,105.8 L102.0,105.3 L103.0,104.7 L104.0,104.1 L105.0,103.6 L106.0,103.0 L107.0,102.5 L108.0,101.9 L109.0,101.4 L110.0,100.9 L111.0,100.3 L112.0,99.8 L113.0,99.3 L114.0,98.8 L115.0,98.3 L116.0,97.8 L117.0,97.4 L118.0,96.9 L119.0,96.4 L120.0,96.0 L121.0,95.5 L122.0,95.1 L123.0,94.6 L124.0,94.2 L125.0,93.8 L126.0,93.4 L127.0,93.0 L128.0,92.6 L129.0,92.2 L130.0,91.8 L131.0,91.4 L132.0,91.1 L133.0,90.7 L134.0,90.4 L135.0,90.0 L136.0,89.7 L137.0,89.4 L138.0,89.1 L139.0,88.8 L140.0,88.5 L141.0,88.2 L142.0,87.9 L143.0,87.6 L144.0,87.4 L145.0,87.1 L146.0,86.9 L147.0,86.6 L148.0,86.4 L149.0,86.2 L150.0,86.0 L151.0,85.8 L152.0,85.6 L153.0,85.4 L154.0,85.2 L155.0,85.1 L156.0,84.9 L157.0,84.8 L158.0,84.6 L159.0,84.5 L160.0,84.4 L161.0,84.3 L162.0,84.2 L163.0,84.1 L164.0,84.0 L165.0,83.9 L166.0,83.9 L167.0,83.8 L168.0,83.8 L169.0,83.7 L170.0,83.7 L171.0,83.7 L172.0,83.7 L173.0,83.7 L174.0,83.7 L175.0,83.7 L176.0,83.8 L177.0,83.8 L178.0,83.9 L179.0,83.9 L180.0,84.0 L181.0,84.1 L182.0,84.1 L183.0,84.2 L184.0,84.4 L185.0,84.5 L186.0,84.6 L187.0,84.7 L188.0,84.9 L189.0,85.0 L190.0,85.2 L191.0,85.4 L192.0,85.5 L193.0,85.7 L194.0,85.9 L195.0,86.1 L196.0,86.4 L197.0,86.6 L198.0,86.8 L199.0,87.1 L200.0,87.3 L201.0,87.6 L202.0,87.8 L203.0,88.1 L204.0,88.4 L205.0,88.7 L206.0,89.0 L207.0,89.3 L208.0,89.6 L209.0,90.0 L210.0,90.3 L211.0,90.7 L212.0,91.0 L213.0,91.4 L214.0,91.7 L215.0,92.1 L216.0,92.5 L217.0,92.9 L218.0,93.3 L219.0,93.7 L220.0,94.1 L221.0,94.6 L222.0,95.0 L223.0,95.4 L224.0,95.9 L225.0,96.3 L226.0,96.8 L227.0,97.3 L228.0,97.8 L229.0,98.2 L230.0,98.7 L231.0,99.2 L232.0,99.7 L233.0,100.3 L234.0,100.8 L235.0,101.3 L236.0,101.8 L237.0,102.4 L238.0,102.9 L239.0,103.5 L240.0,104.0 L241.0,104.6 L242.0,105.2 L243.0,105.8 L244.0,106.3 L245.0,106.9 L246.0,107.5 L247.0,108.1 L248.0,108.7 L249.0,109.3 L250.0,110.0 L251.0,110.6 L252.0,111.2 L253.0,111.8 L254.0,112.5 L255.0,113.1 L256.0,113.8 L257.0,114.4 L258.0,115.1 L259.0,115.7 L260.0,116.4 L261.0,117.1 L262.0,117.7 L263.0,118.4 L264.0,119.1 L265.0,119.8 L266.0,120.5 L267.0,121.2 L268.0,121.9 L269.0,122.6 L270.0,123.3 L271.0,124.0 L272.0,124.7 L273.0,125.4 L274.0,126.1 L275.0,126.8 L275.0,262.0 Z" fill="#3b82f6" fill-opacity="0.10" stroke="none"/><path d="M276.0,262.0 L276.0,127.5 L277.0,126.6 L278.0,125.7 L279.0,124.9 L280.0,124.0 L281.0,123.1 L282.0,122.3 L283.0,121.5 L284.0,120.7 L285.0,119.9 L286.0,119.1 L287.0,118.3 L288.0,117.5 L289.0,116.8 L290.0,116.1 L291.0,115.3 L292.0,114.6 L293.0,113.9 L294.0,113.3 L295.0,112.6 L296.0,112.0 L297.0,111.3 L298.0,110.7 L299.0,110.1 L300.0,109.5 L301.0,109.0 L302.0,108.4 L303.0,107.9 L304.0,107.4 L305.0,106.9 L306.0,106.4 L307.0,106.0 L308.0,105.5 L309.0,105.1 L310.0,104.7 L311.0,104.3 L312.0,104.0 L313.0,103.6 L314.0,103.3 L315.0,103.0 L316.0,102.7 L317.0,102.4 L318.0,102.2 L319.0,101.9 L320.0,101.7 L321.0,101.5 L322.0,101.4 L323.0,101.2 L324.0,101.1 L325.0,101.0 L326.0,100.9 L327.0,100.8 L328.0,100.8 L329.0,100.7 L330.0,100.7 L331.0,100.7 L332.0,100.8 L333.0,100.8 L334.0,100.9 L335.0,101.0 L336.0,101.1 L337.0,101.2 L338.0,101.4 L339.0,101.5 L340.0,101.7 L341.0,101.9 L342.0,102.2 L343.0,102.4 L344.0,102.7 L345.0,103.0 L346.0,103.3 L347.0,103.6 L348.0,104.0 L349.0,104.3 L350.0,104.7 L351.0,105.1 L352.0,105.5 L353.0,106.0 L354.0,106.4 L355.0,106.9 L356.0,107.4 L357.0,107.9 L358.0,108.4 L358.0,262.0 Z" fill="#16a34a" fill-opacity="0.10" stroke="none"/><path d="M359.0,262.0 L359.0,107.9 L360.0,107.1 L361.0,106.4 L362.0,105.7 L363.0,105.0 L364.0,104.3 L365.0,103.6 L366.0,102.9 L367.0,102.2 L368.0,101.5 L369.0,100.8 L370.0,100.1 L371.0,99.4 L372.0,98.7 L373.0,98.0 L374.0,97.3 L375.0,96.6 L376.0,95.9 L377.0,95.2 L378.0,94.6 L379.0,93.9 L380.0,93.2 L381.0,92.5 L382.0,91.9 L383.0,91.2 L384.0,90.6 L385.0,89.9 L386.0,89.3 L387.0,88.6 L388.0,88.0 L389.0,87.3 L390.0,86.7 L391.0,86.0 L392.0,85.4 L393.0,84.8 L394.0,84.2 L395.0,83.5 L396.0,82.9 L397.0,82.3 L398.0,81.7 L399.0,81.1 L400.0,80.5 L401.0,79.9 L402.0,79.3 L403.0,78.7 L404.0,78.2 L405.0,77.6 L406.0,77.0 L407.0,76.4 L408.0,75.9 L409.0,75.3 L410.0,74.8 L411.0,74.2 L412.0,73.7 L413.0,73.1 L414.0,72.6 L415.0,72.1 L416.0,71.5 L417.0,71.0 L418.0,70.5 L419.0,70.0 L420.0,69.5 L421.0,69.0 L422.0,68.5 L423.0,68.0 L424.0,67.5 L425.0,67.0 L426.0,66.6 L427.0,66.1 L428.0,65.6 L429.0,65.2 L430.0,64.7 L431.0,64.3 L432.0,63.9 L433.0,63.4 L434.0,63.0 L435.0,62.6 L436.0,62.2 L437.0,61.8 L438.0,61.4 L439.0,61.0 L440.0,60.6 L441.0,60.2 L442.0,59.8 L443.0,59.4 L444.0,59.1 L445.0,58.7 L446.0,58.4 L447.0,58.0 L448.0,57.7 L449.0,57.4 L450.0,57.0 L451.0,56.7 L452.0,56.4 L453.0,56.1 L454.0,55.8 L455.0,55.5 L456.0,55.2 L457.0,54.9 L458.0,54.7 L459.0,54.4 L460.0,54.2 L461.0,53.9 L462.0,53.7 L463.0,53.4 L464.0,53.2 L465.0,53.0 L466.0,52.8 L467.0,52.5 L468.0,52.3 L469.0,52.1 L470.0,52.0 L471.0,51.8 L472.0,51.6 L473.0,51.4 L474.0,51.3 L475.0,51.1 L476.0,51.0 L477.0,50.8 L478.0,50.7 L479.0,50.6 L480.0,50.5 L481.0,50.4 L482.0,50.3 L483.0,50.2 L484.0,50.1 L485.0,50.0 L486.0,49.9 L487.0,49.9 L488.0,49.8 L489.0,49.8 L490.0,49.7 L491.0,49.7 L492.0,49.7 L493.0,49.6 L494.0,49.6 L495.0,49.6 L496.0,49.6 L497.0,49.6 L498.0,49.7 L499.0,49.7 L500.0,49.7 L501.0,49.7 L502.0,49.8 L503.0,49.8 L504.0,49.9 L505.0,50.0 L506.0,50.1 L507.0,50.1 L508.0,50.2 L509.0,50.3 L510.0,50.4 L511.0,50.5 L512.0,50.7 L513.0,50.8 L514.0,50.9 L515.0,51.1 L516.0,51.2 L517.0,51.4 L518.0,51.5 L519.0,51.7 L520.0,51.9 L521.0,52.1 L522.0,52.3 L523.0,52.5 L524.0,52.7 L525.0,52.9 L526.0,53.1 L527.0,53.3 L528.0,53.6 L529.0,53.8 L530.0,54.1 L531.0,54.3 L532.0,54.6 L533.0,54.8 L534.0,55.1 L535.0,55.4 L536.0,55.7 L537.0,56.0 L538.0,56.3 L539.0,56.6 L540.0,56.9 L541.0,57.2 L542.0,57.6 L543.0,57.9 L544.0,58.2 L545.0,58.6 L546.0,58.9 L547.0,59.3 L548.0,59.7 L549.0,60.0 L550.0,60.4 L551.0,60.8 L552.0,61.2 L553.0,61.6 L554.0,62.0 L555.0,62.4 L556.0,62.8 L557.0,63.3 L558.0,63.7 L559.0,64.1 L560.0,64.6 L561.0,65.0 L562.0,65.5 L563.0,65.9 L564.0,66.4 L565.0,66.9 L566.0,67.3 L567.0,67.8 L568.0,68.3 L569.0,68.8 L570.0,69.3 L571.0,69.8 L572.0,70.3 L573.0,70.8 L574.0,71.3 L575.0,71.8 L576.0,72.4 L577.0,72.9 L578.0,73.4 L579.0,74.0 L580.0,74.5 L581.0,75.1 L582.0,75.6 L583.0,76.2 L584.0,76.8 L585.0,77.3 L586.0,77.9 L587.0,78.5 L588.0,79.1 L589.0,79.7 L590.0,80.3 L591.0,80.9 L592.0,81.5 L593.0,82.1 L594.0,82.7 L595.0,83.3 L596.0,83.9 L597.0,84.5 L598.0,85.2 L599.0,85.8 L600.0,86.4 L601.0,87.1 L602.0,87.7 L603.0,88.3 L604.0,89.0 L605.0,89.6 L606.0,90.3 L607.0,91.0 L608.0,91.6 L609.0,92.3 L610.0,92.9 L610.0,262.0 Z" fill="#d97706" fill-opacity="0.10" stroke="none"/><path d="M50.0,141.1 L51.0,140.3 L52.0,139.6 L53.0,138.8 L54.0,138.1 L55.0,137.3 L56.0,136.6 L57.0,135.8 L58.0,135.1 L59.0,134.3 L60.0,133.6 L61.0,132.8 L62.0,132.1 L63.0,131.3 L64.0,130.6 L65.0,129.9 L66.0,129.1 L67.0,128.4 L68.0,127.7 L69.0,127.0 L70.0,126.2 L71.0,125.5 L72.0,124.8 L73.0,124.1 L74.0,123.4 L75.0,122.7 L76.0,122.0 L77.0,121.3 L78.0,120.6 L79.0,119.9 L80.0,119.2 L81.0,118.5 L82.0,117.8 L83.0,117.2 L84.0,116.5 L85.0,115.8 L86.0,115.2 L87.0,114.5 L88.0,113.9 L89.0,113.2 L90.0,112.6 L91.0,111.9 L92.0,111.3 L93.0,110.7 L94.0,110.0 L95.0,109.4 L96.0,108.8 L97.0,108.2 L98.0,107.6 L99.0,107.0 L100.0,106.4 L101.0,105.8 L102.0,105.3 L103.0,104.7 L104.0,104.1 L105.0,103.6 L106.0,103.0 L107.0,102.5 L108.0,101.9 L109.0,101.4 L110.0,100.9 L111.0,100.3 L112.0,99.8 L113.0,99.3 L114.0,98.8 L115.0,98.3 L116.0,97.8 L117.0,97.4 L118.0,96.9 L119.0,96.4 L120.0,96.0 L121.0,95.5 L122.0,95.1 L123.0,94.6 L124.0,94.2 L125.0,93.8 L126.0,93.4 L127.0,93.0 L128.0,92.6 L129.0,92.2 L130.0,91.8 L131.0,91.4 L132.0,91.1 L133.0,90.7 L134.0,90.4 L135.0,90.0 L136.0,89.7 L137.0,89.4 L138.0,89.1 L139.0,88.8 L140.0,88.5 L141.0,88.2 L142.0,87.9 L143.0,87.6 L144.0,87.4 L145.0,87.1 L146.0,86.9 L147.0,86.6 L148.0,86.4 L149.0,86.2 L150.0,86.0 L151.0,85.8 L152.0,85.6 L153.0,85.4 L154.0,85.2 L155.0,85.1 L156.0,84.9 L157.0,84.8 L158.0,84.6 L159.0,84.5 L160.0,84.4 L161.0,84.3 L162.0,84.2 L163.0,84.1 L164.0,84.0 L165.0,83.9 L166.0,83.9 L167.0,83.8 L168.0,83.8 L169.0,83.7 L170.0,83.7 L171.0,83.7 L172.0,83.7 L173.0,83.7 L174.0,83.7 L175.0,83.7 L176.0,83.8 L177.0,83.8 L178.0,83.9 L179.0,83.9 L180.0,84.0 L181.0,84.1 L182.0,84.1 L183.0,84.2 L184.0,84.4 L185.0,84.5 L186.0,84.6 L187.0,84.7 L188.0,84.9 L189.0,85.0 L190.0,85.2 L191.0,85.4 L192.0,85.5 L193.0,85.7 L194.0,85.9 L195.0,86.1 L196.0,86.4 L197.0,86.6 L198.0,86.8 L199.0,87.1 L200.0,87.3 L201.0,87.6 L202.0,87.8 L203.0,88.1 L204.0,88.4 L205.0,88.7 L206.0,89.0 L207.0,89.3 L208.0,89.6 L209.0,90.0 L210.0,90.3 L211.0,90.7 L212.0,91.0 L213.0,91.4 L214.0,91.7 L215.0,92.1 L216.0,92.5 L217.0,92.9 L218.0,93.3 L219.0,93.7 L220.0,94.1 L221.0,94.6 L222.0,95.0 L223.0,95.4 L224.0,95.9 L225.0,96.3 L226.0,96.8 L227.0,97.3 L228.0,97.8 L229.0,98.2 L230.0,98.7 L231.0,99.2 L232.0,99.7 L233.0,100.3 L234.0,100.8 L235.0,101.3 L236.0,101.8 L237.0,102.4 L238.0,102.9 L239.0,103.5 L240.0,104.0 L241.0,104.6 L242.0,105.2 L243.0,105.8 L244.0,106.3 L245.0,106.9 L246.0,107.5 L247.0,108.1 L248.0,108.7 L249.0,109.3 L250.0,110.0 L251.0,110.6 L252.0,111.2 L253.0,111.8 L254.0,112.5 L255.0,113.1 L256.0,113.8 L257.0,114.4 L258.0,115.1 L259.0,115.7 L260.0,116.4 L261.0,117.1 L262.0,117.7 L263.0,118.4 L264.0,119.1 L265.0,119.8 L266.0,120.5 L267.0,121.2 L268.0,121.9 L269.0,122.6 L270.0,123.3 L271.0,124.0 L272.0,124.7 L273.0,125.4 L274.0,126.1 L275.0,126.8 L276.0,127.6 L277.0,128.3 L278.0,129.0 L279.0,129.8 L280.0,130.5 L281.0,131.2 L282.0,132.0 L283.0,132.7 L284.0,133.4 L285.0,134.2 L286.0,134.9 L287.0,135.7 L288.0,136.4 L289.0,137.2 L290.0,137.9 L291.0,138.7 L292.0,139.5 L293.0,140.2 L294.0,141.0 L295.0,141.7 L296.0,142.5 L297.0,143.3 L298.0,144.0 L299.0,144.8 L300.0,145.6 L301.0,146.3 L302.0,147.1 L303.0,147.9 L304.0,148.6 L305.0,149.4 L306.0,150.2 L307.0,150.9 L308.0,151.7 L309.0,152.5 L310.0,153.2 L311.0,154.0 L312.0,154.8 L313.0,155.5 L314.0,156.3 L315.0,157.1 L316.0,157.8 L317.0,158.6 L318.0,159.3 L319.0,160.1 L320.0,160.9 L321.0,161.6 L322.0,162.4 L323.0,163.1 L324.0,163.9 L325.0,164.6 L326.0,165.4 L327.0,166.2 L328.0,166.9 L329.0,167.7 L330.0,168.4 L331.0,169.1 L332.0,169.9 L333.0,170.6 L334.0,171.4 L335.0,172.1 L336.0,172.8 L337.0,173.6 L338.0,174.3 L339.0,175.0 L340.0,175.8 L341.0,176.5 L342.0,177.2 L343.0,177.9 L344.0,178.6 L345.0,179.3 L346.0,180.1 L347.0,180.8 L348.0,181.5 L349.0,182.2 L350.0,182.9 L351.0,183.6 L352.0,184.3 L353.0,185.0 L354.0,185.6 L355.0,186.3 L356.0,187.0 L357.0,187.7 L358.0,188.4 L359.0,189.0 L360.0,189.7 L361.0,190.4 L362.0,191.0 L363.0,191.7 L364.0,192.3 L365.0,193.0 L366.0,193.6 L367.0,194.3 L368.0,194.9 L369.0,195.6 L370.0,196.2 L371.0,196.8 L372.0,197.4 L373.0,198.1 L374.0,198.7 L375.0,199.3 L376.0,199.9 L377.0,200.5 L378.0,201.1 L379.0,201.7 L380.0,202.3 L381.0,202.9 L382.0,203.5 L383.0,204.1 L384.0,204.7 L385.0,205.2 L386.0,205.8 L387.0,206.4 L388.0,206.9 L389.0,207.5 L390.0,208.0 L391.0,208.6 L392.0,209.1 L393.0,209.7 L394.0,210.2 L395.0,210.8 L396.0,211.3 L397.0,211.8 L398.0,212.3 L399.0,212.8 L400.0,213.4 L401.0,213.9 L402.0,214.4 L403.0,214.9 L404.0,215.4 L405.0,215.9 L406.0,216.4 L407.0,216.8 L408.0,217.3 L409.0,217.8 L410.0,218.3 L411.0,218.7 L412.0,219.2 L413.0,219.7 L414.0,220.1 L415.0,220.6 L416.0,221.0 L417.0,221.4 L418.0,221.9 L419.0,222.3 L420.0,222.7 L421.0,223.2 L422.0,223.6 L423.0,224.0 L424.0,224.4 L425.0,224.8 L426.0,225.2 L427.0,225.6 L428.0,226.0 L429.0,226.4 L430.0,226.8 L431.0,227.2 L432.0,227.6 L433.0,228.0 L434.0,228.3 L435.0,228.7 L436.0,229.1 L437.0,229.4 L438.0,229.8 L439.0,230.1 L440.0,230.5 L441.0,230.8 L442.0,231.2 L443.0,231.5 L444.0,231.8 L445.0,232.2 L446.0,232.5 L447.0,232.8 L448.0,233.1 L449.0,233.5 L450.0,233.8 L451.0,234.1 L452.0,234.4 L453.0,234.7 L454.0,235.0 L455.0,235.3 L456.0,235.6 L457.0,235.9 L458.0,236.1 L459.0,236.4 L460.0,236.7 L461.0,237.0 L462.0,237.2 L463.0,237.5 L464.0,237.8 L465.0,238.0 L466.0,238.3 L467.0,238.5 L468.0,238.8 L469.0,239.0 L470.0,239.3 L471.0,239.5 L472.0,239.8 L473.0,240.0 L474.0,240.2 L475.0,240.4 L476.0,240.7 L477.0,240.9 L478.0,241.1 L479.0,241.3 L480.0,241.5 L481.0,241.8 L482.0,242.0 L483.0,242.2 L484.0,242.4 L485.0,242.6 L486.0,242.8 L487.0,243.0 L488.0,243.1 L489.0,243.3 L490.0,243.5 L491.0,243.7 L492.0,243.9 L493.0,244.1 L494.0,244.2 L495.0,244.4 L496.0,244.6 L497.0,244.7 L498.0,244.9 L499.0,245.1 L500.0,245.2 L501.0,245.4 L502.0,245.5 L503.0,245.7 L504.0,245.8 L505.0,246.0 L506.0,246.1 L507.0,246.3 L508.0,246.4 L509.0,246.6 L510.0,246.7 L511.0,246.8 L512.0,247.0 L513.0,247.1 L514.0,247.2 L515.0,247.4 L516.0,247.5 L517.0,247.6 L518.0,247.7 L519.0,247.8 L520.0,248.0 L521.0,248.1 L522.0,248.2 L523.0,248.3 L524.0,248.4 L525.0,248.5 L526.0,248.6 L527.0,248.7 L528.0,248.8 L529.0,248.9 L530.0,249.0 L531.0,249.1 L532.0,249.2 L533.0,249.3 L534.0,249.4 L535.0,249.5 L536.0,249.6 L537.0,249.7 L538.0,249.8 L539.0,249.8 L540.0,249.9 L541.0,250.0 L542.0,250.1 L543.0,250.2 L544.0,250.2 L545.0,250.3 L546.0,250.4 L547.0,250.5 L548.0,250.5 L549.0,250.6 L550.0,250.7 L551.0,250.8 L552.0,250.8 L553.0,250.9 L554.0,251.0 L555.0,251.0 L556.0,251.1 L557.0,251.1 L558.0,251.2 L559.0,251.3 L560.0,251.3 L561.0,251.4 L562.0,251.4 L563.0,251.5 L564.0,251.5 L565.0,251.6 L566.0,251.6 L567.0,251.7 L568.0,251.7 L569.0,251.8 L570.0,251.8 L571.0,251.9 L572.0,251.9 L573.0,252.0 L574.0,252.0 L575.0,252.1 L576.0,252.1 L577.0,252.2 L578.0,252.2 L579.0,252.2 L580.0,252.3 L581.0,252.3 L582.0,252.3 L583.0,252.4 L584.0,252.4 L585.0,252.5 L586.0,252.5 L587.0,252.5 L588.0,252.6 L589.0,252.6 L590.0,252.6 L591.0,252.7 L592.0,252.7 L593.0,252.7 L594.0,252.7 L595.0,252.8 L596.0,252.8 L597.0,252.8 L598.0,252.9 L599.0,252.9 L600.0,252.9 L601.0,252.9 L602.0,253.0 L603.0,253.0 L604.0,253.0 L605.0,253.0 L606.0,253.1 L607.0,253.1 L608.0,253.1 L609.0,253.1 L610.0,253.1" fill="none" class="s-accent" stroke-width="1.0" opacity="0.45"/><path d="M50.0,253.1 L51.0,253.1 L52.0,253.1 L53.0,253.0 L54.0,253.0 L55.0,252.9 L56.0,252.9 L57.0,252.9 L58.0,252.8 L59.0,252.8 L60.0,252.7 L61.0,252.7 L62.0,252.6 L63.0,252.6 L64.0,252.6 L65.0,252.5 L66.0,252.4 L67.0,252.4 L68.0,252.3 L69.0,252.3 L70.0,252.2 L71.0,252.2 L72.0,252.1 L73.0,252.0 L74.0,252.0 L75.0,251.9 L76.0,251.8 L77.0,251.7 L78.0,251.7 L79.0,251.6 L80.0,251.5 L81.0,251.4 L82.0,251.3 L83.0,251.2 L84.0,251.2 L85.0,251.1 L86.0,251.0 L87.0,250.9 L88.0,250.8 L89.0,250.7 L90.0,250.6 L91.0,250.4 L92.0,250.3 L93.0,250.2 L94.0,250.1 L95.0,250.0 L96.0,249.8 L97.0,249.7 L98.0,249.6 L99.0,249.4 L100.0,249.3 L101.0,249.2 L102.0,249.0 L103.0,248.9 L104.0,248.7 L105.0,248.5 L106.0,248.4 L107.0,248.2 L108.0,248.0 L109.0,247.9 L110.0,247.7 L111.0,247.5 L112.0,247.3 L113.0,247.1 L114.0,246.9 L115.0,246.7 L116.0,246.5 L117.0,246.3 L118.0,246.1 L119.0,245.8 L120.0,245.6 L121.0,245.4 L122.0,245.1 L123.0,244.9 L124.0,244.6 L125.0,244.4 L126.0,244.1 L127.0,243.9 L128.0,243.6 L129.0,243.3 L130.0,243.0 L131.0,242.7 L132.0,242.4 L133.0,242.1 L134.0,241.8 L135.0,241.5 L136.0,241.2 L137.0,240.8 L138.0,240.5 L139.0,240.1 L140.0,239.8 L141.0,239.4 L142.0,239.1 L143.0,238.7 L144.0,238.3 L145.0,237.9 L146.0,237.5 L147.0,237.1 L148.0,236.7 L149.0,236.3 L150.0,235.9 L151.0,235.4 L152.0,235.0 L153.0,234.5 L154.0,234.1 L155.0,233.6 L156.0,233.1 L157.0,232.7 L158.0,232.2 L159.0,231.7 L160.0,231.2 L161.0,230.7 L162.0,230.1 L163.0,229.6 L164.0,229.1 L165.0,228.5 L166.0,227.9 L167.0,227.4 L168.0,226.8 L169.0,226.2 L170.0,225.6 L171.0,225.0 L172.0,224.4 L173.0,223.8 L174.0,223.2 L175.0,222.5 L176.0,221.9 L177.0,221.2 L178.0,220.5 L179.0,219.9 L180.0,219.2 L181.0,218.5 L182.0,217.8 L183.0,217.1 L184.0,216.4 L185.0,215.6 L186.0,214.9 L187.0,214.2 L188.0,213.4 L189.0,212.6 L190.0,211.9 L191.0,211.1 L192.0,210.3 L193.0,209.5 L194.0,208.7 L195.0,207.9 L196.0,207.0 L197.0,206.2 L198.0,205.4 L199.0,204.5 L200.0,203.7 L201.0,202.8 L202.0,201.9 L203.0,201.0 L204.0,200.1 L205.0,199.2 L206.0,198.3 L207.0,197.4 L208.0,196.5 L209.0,195.6 L210.0,194.6 L211.0,193.7 L212.0,192.8 L213.0,191.8 L214.0,190.8 L215.0,189.9 L216.0,188.9 L217.0,187.9 L218.0,186.9 L219.0,185.9 L220.0,184.9 L221.0,183.9 L222.0,182.9 L223.0,181.9 L224.0,180.9 L225.0,179.9 L226.0,178.8 L227.0,177.8 L228.0,176.8 L229.0,175.7 L230.0,174.7 L231.0,173.6 L232.0,172.6 L233.0,171.5 L234.0,170.5 L235.0,169.4 L236.0,168.4 L237.0,167.3 L238.0,166.2 L239.0,165.2 L240.0,164.1 L241.0,163.0 L242.0,162.0 L243.0,160.9 L244.0,159.8 L245.0,158.8 L246.0,157.7 L247.0,156.6 L248.0,155.6 L249.0,154.5 L250.0,153.5 L251.0,152.4 L252.0,151.3 L253.0,150.3 L254.0,149.2 L255.0,148.2 L256.0,147.1 L257.0,146.1 L258.0,145.1 L259.0,144.0 L260.0,143.0 L261.0,142.0 L262.0,141.0 L263.0,140.0 L264.0,139.0 L265.0,138.0 L266.0,137.0 L267.0,136.0 L268.0,135.0 L269.0,134.0 L270.0,133.1 L271.0,132.1 L272.0,131.2 L273.0,130.3 L274.0,129.3 L275.0,128.4 L276.0,127.5 L277.0,126.6 L278.0,125.7 L279.0,124.9 L280.0,124.0 L281.0,123.1 L282.0,122.3 L283.0,121.5 L284.0,120.7 L285.0,119.9 L286.0,119.1 L287.0,118.3 L288.0,117.5 L289.0,116.8 L290.0,116.1 L291.0,115.3 L292.0,114.6 L293.0,113.9 L294.0,113.3 L295.0,112.6 L296.0,112.0 L297.0,111.3 L298.0,110.7 L299.0,110.1 L300.0,109.5 L301.0,109.0 L302.0,108.4 L303.0,107.9 L304.0,107.4 L305.0,106.9 L306.0,106.4 L307.0,106.0 L308.0,105.5 L309.0,105.1 L310.0,104.7 L311.0,104.3 L312.0,104.0 L313.0,103.6 L314.0,103.3 L315.0,103.0 L316.0,102.7 L317.0,102.4 L318.0,102.2 L319.0,101.9 L320.0,101.7 L321.0,101.5 L322.0,101.4 L323.0,101.2 L324.0,101.1 L325.0,101.0 L326.0,100.9 L327.0,100.8 L328.0,100.8 L329.0,100.7 L330.0,100.7 L331.0,100.7 L332.0,100.8 L333.0,100.8 L334.0,100.9 L335.0,101.0 L336.0,101.1 L337.0,101.2 L338.0,101.4 L339.0,101.5 L340.0,101.7 L341.0,101.9 L342.0,102.2 L343.0,102.4 L344.0,102.7 L345.0,103.0 L346.0,103.3 L347.0,103.6 L348.0,104.0 L349.0,104.3 L350.0,104.7 L351.0,105.1 L352.0,105.5 L353.0,106.0 L354.0,106.4 L355.0,106.9 L356.0,107.4 L357.0,107.9 L358.0,108.4 L359.0,109.0 L360.0,109.5 L361.0,110.1 L362.0,110.7 L363.0,111.3 L364.0,112.0 L365.0,112.6 L366.0,113.3 L367.0,113.9 L368.0,114.6 L369.0,115.3 L370.0,116.1 L371.0,116.8 L372.0,117.5 L373.0,118.3 L374.0,119.1 L375.0,119.9 L376.0,120.7 L377.0,121.5 L378.0,122.3 L379.0,123.1 L380.0,124.0 L381.0,124.9 L382.0,125.7 L383.0,126.6 L384.0,127.5 L385.0,128.4 L386.0,129.3 L387.0,130.3 L388.0,131.2 L389.0,132.1 L390.0,133.1 L391.0,134.0 L392.0,135.0 L393.0,136.0 L394.0,137.0 L395.0,138.0 L396.0,139.0 L397.0,140.0 L398.0,141.0 L399.0,142.0 L400.0,143.0 L401.0,144.0 L402.0,145.1 L403.0,146.1 L404.0,147.1 L405.0,148.2 L406.0,149.2 L407.0,150.3 L408.0,151.3 L409.0,152.4 L410.0,153.5 L411.0,154.5 L412.0,155.6 L413.0,156.6 L414.0,157.7 L415.0,158.8 L416.0,159.8 L417.0,160.9 L418.0,162.0 L419.0,163.0 L420.0,164.1 L421.0,165.2 L422.0,166.2 L423.0,167.3 L424.0,168.4 L425.0,169.4 L426.0,170.5 L427.0,171.5 L428.0,172.6 L429.0,173.6 L430.0,174.7 L431.0,175.7 L432.0,176.8 L433.0,177.8 L434.0,178.8 L435.0,179.9 L436.0,180.9 L437.0,181.9 L438.0,182.9 L439.0,183.9 L440.0,184.9 L441.0,185.9 L442.0,186.9 L443.0,187.9 L444.0,188.9 L445.0,189.9 L446.0,190.8 L447.0,191.8 L448.0,192.8 L449.0,193.7 L450.0,194.6 L451.0,195.6 L452.0,196.5 L453.0,197.4 L454.0,198.3 L455.0,199.2 L456.0,200.1 L457.0,201.0 L458.0,201.9 L459.0,202.8 L460.0,203.7 L461.0,204.5 L462.0,205.4 L463.0,206.2 L464.0,207.0 L465.0,207.9 L466.0,208.7 L467.0,209.5 L468.0,210.3 L469.0,211.1 L470.0,211.9 L471.0,212.6 L472.0,213.4 L473.0,214.2 L474.0,214.9 L475.0,215.6 L476.0,216.4 L477.0,217.1 L478.0,217.8 L479.0,218.5 L480.0,219.2 L481.0,219.9 L482.0,220.5 L483.0,221.2 L484.0,221.9 L485.0,222.5 L486.0,223.2 L487.0,223.8 L488.0,224.4 L489.0,225.0 L490.0,225.6 L491.0,226.2 L492.0,226.8 L493.0,227.4 L494.0,227.9 L495.0,228.5 L496.0,229.1 L497.0,229.6 L498.0,230.1 L499.0,230.7 L500.0,231.2 L501.0,231.7 L502.0,232.2 L503.0,232.7 L504.0,233.1 L505.0,233.6 L506.0,234.1 L507.0,234.5 L508.0,235.0 L509.0,235.4 L510.0,235.9 L511.0,236.3 L512.0,236.7 L513.0,237.1 L514.0,237.5 L515.0,237.9 L516.0,238.3 L517.0,238.7 L518.0,239.1 L519.0,239.4 L520.0,239.8 L521.0,240.1 L522.0,240.5 L523.0,240.8 L524.0,241.2 L525.0,241.5 L526.0,241.8 L527.0,242.1 L528.0,242.4 L529.0,242.7 L530.0,243.0 L531.0,243.3 L532.0,243.6 L533.0,243.9 L534.0,244.1 L535.0,244.4 L536.0,244.6 L537.0,244.9 L538.0,245.1 L539.0,245.4 L540.0,245.6 L541.0,245.8 L542.0,246.1 L543.0,246.3 L544.0,246.5 L545.0,246.7 L546.0,246.9 L547.0,247.1 L548.0,247.3 L549.0,247.5 L550.0,247.7 L551.0,247.9 L552.0,248.0 L553.0,248.2 L554.0,248.4 L555.0,248.5 L556.0,248.7 L557.0,248.9 L558.0,249.0 L559.0,249.2 L560.0,249.3 L561.0,249.4 L562.0,249.6 L563.0,249.7 L564.0,249.8 L565.0,250.0 L566.0,250.1 L567.0,250.2 L568.0,250.3 L569.0,250.4 L570.0,250.6 L571.0,250.7 L572.0,250.8 L573.0,250.9 L574.0,251.0 L575.0,251.1 L576.0,251.2 L577.0,251.2 L578.0,251.3 L579.0,251.4 L580.0,251.5 L581.0,251.6 L582.0,251.7 L583.0,251.7 L584.0,251.8 L585.0,251.9 L586.0,252.0 L587.0,252.0 L588.0,252.1 L589.0,252.2 L590.0,252.2 L591.0,252.3 L592.0,252.3 L593.0,252.4 L594.0,252.4 L595.0,252.5 L596.0,252.6 L597.0,252.6 L598.0,252.6 L599.0,252.7 L600.0,252.7 L601.0,252.8 L602.0,252.8 L603.0,252.9 L604.0,252.9 L605.0,252.9 L606.0,253.0 L607.0,253.0 L608.0,253.1 L609.0,253.1 L610.0,253.1" fill="none" class="s-green" stroke-width="1.0" opacity="0.45"/><path d="M50.0,248.3 L51.0,248.2 L52.0,248.1 L53.0,248.0 L54.0,247.9 L55.0,247.8 L56.0,247.7 L57.0,247.6 L58.0,247.5 L59.0,247.4 L60.0,247.3 L61.0,247.2 L62.0,247.1 L63.0,247.0 L64.0,246.9 L65.0,246.8 L66.0,246.7 L67.0,246.6 L68.0,246.5 L69.0,246.3 L70.0,246.2 L71.0,246.1 L72.0,246.0 L73.0,245.9 L74.0,245.7 L75.0,245.6 L76.0,245.5 L77.0,245.3 L78.0,245.2 L79.0,245.1 L80.0,244.9 L81.0,244.8 L82.0,244.7 L83.0,244.5 L84.0,244.4 L85.0,244.2 L86.0,244.1 L87.0,243.9 L88.0,243.8 L89.0,243.6 L90.0,243.5 L91.0,243.3 L92.0,243.2 L93.0,243.0 L94.0,242.9 L95.0,242.7 L96.0,242.5 L97.0,242.4 L98.0,242.2 L99.0,242.0 L100.0,241.9 L101.0,241.7 L102.0,241.5 L103.0,241.3 L104.0,241.1 L105.0,241.0 L106.0,240.8 L107.0,240.6 L108.0,240.4 L109.0,240.2 L110.0,240.0 L111.0,239.8 L112.0,239.6 L113.0,239.4 L114.0,239.2 L115.0,239.0 L116.0,238.8 L117.0,238.6 L118.0,238.4 L119.0,238.2 L120.0,238.0 L121.0,237.7 L122.0,237.5 L123.0,237.3 L124.0,237.1 L125.0,236.8 L126.0,236.6 L127.0,236.4 L128.0,236.1 L129.0,235.9 L130.0,235.7 L131.0,235.4 L132.0,235.2 L133.0,234.9 L134.0,234.7 L135.0,234.4 L136.0,234.2 L137.0,233.9 L138.0,233.6 L139.0,233.4 L140.0,233.1 L141.0,232.8 L142.0,232.6 L143.0,232.3 L144.0,232.0 L145.0,231.7 L146.0,231.5 L147.0,231.2 L148.0,230.9 L149.0,230.6 L150.0,230.3 L151.0,230.0 L152.0,229.7 L153.0,229.4 L154.0,229.1 L155.0,228.8 L156.0,228.5 L157.0,228.1 L158.0,227.8 L159.0,227.5 L160.0,227.2 L161.0,226.9 L162.0,226.5 L163.0,226.2 L164.0,225.9 L165.0,225.5 L166.0,225.2 L167.0,224.8 L168.0,224.5 L169.0,224.1 L170.0,223.8 L171.0,223.4 L172.0,223.1 L173.0,222.7 L174.0,222.3 L175.0,222.0 L176.0,221.6 L177.0,221.2 L178.0,220.8 L179.0,220.5 L180.0,220.1 L181.0,219.7 L182.0,219.3 L183.0,218.9 L184.0,218.5 L185.0,218.1 L186.0,217.7 L187.0,217.3 L188.0,216.9 L189.0,216.5 L190.0,216.1 L191.0,215.6 L192.0,215.2 L193.0,214.8 L194.0,214.4 L195.0,213.9 L196.0,213.5 L197.0,213.0 L198.0,212.6 L199.0,212.2 L200.0,211.7 L201.0,211.3 L202.0,210.8 L203.0,210.3 L204.0,209.9 L205.0,209.4 L206.0,208.9 L207.0,208.5 L208.0,208.0 L209.0,207.5 L210.0,207.0 L211.0,206.5 L212.0,206.1 L213.0,205.6 L214.0,205.1 L215.0,204.6 L216.0,204.1 L217.0,203.6 L218.0,203.0 L219.0,202.5 L220.0,202.0 L221.0,201.5 L222.0,201.0 L223.0,200.5 L224.0,199.9 L225.0,199.4 L226.0,198.9 L227.0,198.3 L228.0,197.8 L229.0,197.2 L230.0,196.7 L231.0,196.1 L232.0,195.6 L233.0,195.0 L234.0,194.5 L235.0,193.9 L236.0,193.3 L237.0,192.8 L238.0,192.2 L239.0,191.6 L240.0,191.0 L241.0,190.4 L242.0,189.9 L243.0,189.3 L244.0,188.7 L245.0,188.1 L246.0,187.5 L247.0,186.9 L248.0,186.3 L249.0,185.7 L250.0,185.1 L251.0,184.5 L252.0,183.8 L253.0,183.2 L254.0,182.6 L255.0,182.0 L256.0,181.3 L257.0,180.7 L258.0,180.1 L259.0,179.5 L260.0,178.8 L261.0,178.2 L262.0,177.5 L263.0,176.9 L264.0,176.2 L265.0,175.6 L266.0,174.9 L267.0,174.3 L268.0,173.6 L269.0,173.0 L270.0,172.3 L271.0,171.6 L272.0,171.0 L273.0,170.3 L274.0,169.6 L275.0,168.9 L276.0,168.3 L277.0,167.6 L278.0,166.9 L279.0,166.2 L280.0,165.5 L281.0,164.8 L282.0,164.1 L283.0,163.4 L284.0,162.7 L285.0,162.1 L286.0,161.4 L287.0,160.6 L288.0,159.9 L289.0,159.2 L290.0,158.5 L291.0,157.8 L292.0,157.1 L293.0,156.4 L294.0,155.7 L295.0,155.0 L296.0,154.3 L297.0,153.5 L298.0,152.8 L299.0,152.1 L300.0,151.4 L301.0,150.6 L302.0,149.9 L303.0,149.2 L304.0,148.5 L305.0,147.7 L306.0,147.0 L307.0,146.3 L308.0,145.5 L309.0,144.8 L310.0,144.1 L311.0,143.3 L312.0,142.6 L313.0,141.8 L314.0,141.1 L315.0,140.4 L316.0,139.6 L317.0,138.9 L318.0,138.1 L319.0,137.4 L320.0,136.7 L321.0,135.9 L322.0,135.2 L323.0,134.4 L324.0,133.7 L325.0,132.9 L326.0,132.2 L327.0,131.4 L328.0,130.7 L329.0,130.0 L330.0,129.2 L331.0,128.5 L332.0,127.7 L333.0,127.0 L334.0,126.2 L335.0,125.5 L336.0,124.7 L337.0,124.0 L338.0,123.3 L339.0,122.5 L340.0,121.8 L341.0,121.0 L342.0,120.3 L343.0,119.5 L344.0,118.8 L345.0,118.1 L346.0,117.3 L347.0,116.6 L348.0,115.9 L349.0,115.1 L350.0,114.4 L351.0,113.7 L352.0,112.9 L353.0,112.2 L354.0,111.5 L355.0,110.7 L356.0,110.0 L357.0,109.3 L358.0,108.6 L359.0,107.9 L360.0,107.1 L361.0,106.4 L362.0,105.7 L363.0,105.0 L364.0,104.3 L365.0,103.6 L366.0,102.9 L367.0,102.2 L368.0,101.5 L369.0,100.8 L370.0,100.1 L371.0,99.4 L372.0,98.7 L373.0,98.0 L374.0,97.3 L375.0,96.6 L376.0,95.9 L377.0,95.2 L378.0,94.6 L379.0,93.9 L380.0,93.2 L381.0,92.5 L382.0,91.9 L383.0,91.2 L384.0,90.6 L385.0,89.9 L386.0,89.3 L387.0,88.6 L388.0,88.0 L389.0,87.3 L390.0,86.7 L391.0,86.0 L392.0,85.4 L393.0,84.8 L394.0,84.2 L395.0,83.5 L396.0,82.9 L397.0,82.3 L398.0,81.7 L399.0,81.1 L400.0,80.5 L401.0,79.9 L402.0,79.3 L403.0,78.7 L404.0,78.2 L405.0,77.6 L406.0,77.0 L407.0,76.4 L408.0,75.9 L409.0,75.3 L410.0,74.8 L411.0,74.2 L412.0,73.7 L413.0,73.1 L414.0,72.6 L415.0,72.1 L416.0,71.5 L417.0,71.0 L418.0,70.5 L419.0,70.0 L420.0,69.5 L421.0,69.0 L422.0,68.5 L423.0,68.0 L424.0,67.5 L425.0,67.0 L426.0,66.6 L427.0,66.1 L428.0,65.6 L429.0,65.2 L430.0,64.7 L431.0,64.3 L432.0,63.9 L433.0,63.4 L434.0,63.0 L435.0,62.6 L436.0,62.2 L437.0,61.8 L438.0,61.4 L439.0,61.0 L440.0,60.6 L441.0,60.2 L442.0,59.8 L443.0,59.4 L444.0,59.1 L445.0,58.7 L446.0,58.4 L447.0,58.0 L448.0,57.7 L449.0,57.4 L450.0,57.0 L451.0,56.7 L452.0,56.4 L453.0,56.1 L454.0,55.8 L455.0,55.5 L456.0,55.2 L457.0,54.9 L458.0,54.7 L459.0,54.4 L460.0,54.2 L461.0,53.9 L462.0,53.7 L463.0,53.4 L464.0,53.2 L465.0,53.0 L466.0,52.8 L467.0,52.5 L468.0,52.3 L469.0,52.1 L470.0,52.0 L471.0,51.8 L472.0,51.6 L473.0,51.4 L474.0,51.3 L475.0,51.1 L476.0,51.0 L477.0,50.8 L478.0,50.7 L479.0,50.6 L480.0,50.5 L481.0,50.4 L482.0,50.3 L483.0,50.2 L484.0,50.1 L485.0,50.0 L486.0,49.9 L487.0,49.9 L488.0,49.8 L489.0,49.8 L490.0,49.7 L491.0,49.7 L492.0,49.7 L493.0,49.6 L494.0,49.6 L495.0,49.6 L496.0,49.6 L497.0,49.6 L498.0,49.7 L499.0,49.7 L500.0,49.7 L501.0,49.7 L502.0,49.8 L503.0,49.8 L504.0,49.9 L505.0,50.0 L506.0,50.1 L507.0,50.1 L508.0,50.2 L509.0,50.3 L510.0,50.4 L511.0,50.5 L512.0,50.7 L513.0,50.8 L514.0,50.9 L515.0,51.1 L516.0,51.2 L517.0,51.4 L518.0,51.5 L519.0,51.7 L520.0,51.9 L521.0,52.1 L522.0,52.3 L523.0,52.5 L524.0,52.7 L525.0,52.9 L526.0,53.1 L527.0,53.3 L528.0,53.6 L529.0,53.8 L530.0,54.1 L531.0,54.3 L532.0,54.6 L533.0,54.8 L534.0,55.1 L535.0,55.4 L536.0,55.7 L537.0,56.0 L538.0,56.3 L539.0,56.6 L540.0,56.9 L541.0,57.2 L542.0,57.6 L543.0,57.9 L544.0,58.2 L545.0,58.6 L546.0,58.9 L547.0,59.3 L548.0,59.7 L549.0,60.0 L550.0,60.4 L551.0,60.8 L552.0,61.2 L553.0,61.6 L554.0,62.0 L555.0,62.4 L556.0,62.8 L557.0,63.3 L558.0,63.7 L559.0,64.1 L560.0,64.6 L561.0,65.0 L562.0,65.5 L563.0,65.9 L564.0,66.4 L565.0,66.9 L566.0,67.3 L567.0,67.8 L568.0,68.3 L569.0,68.8 L570.0,69.3 L571.0,69.8 L572.0,70.3 L573.0,70.8 L574.0,71.3 L575.0,71.8 L576.0,72.4 L577.0,72.9 L578.0,73.4 L579.0,74.0 L580.0,74.5 L581.0,75.1 L582.0,75.6 L583.0,76.2 L584.0,76.8 L585.0,77.3 L586.0,77.9 L587.0,78.5 L588.0,79.1 L589.0,79.7 L590.0,80.3 L591.0,80.9 L592.0,81.5 L593.0,82.1 L594.0,82.7 L595.0,83.3 L596.0,83.9 L597.0,84.5 L598.0,85.2 L599.0,85.8 L600.0,86.4 L601.0,87.1 L602.0,87.7 L603.0,88.3 L604.0,89.0 L605.0,89.6 L606.0,90.3 L607.0,91.0 L608.0,91.6 L609.0,92.3 L610.0,92.9" fill="none" class="s-amber" stroke-width="1.0" opacity="0.45"/><path d="M50.0,141.1 L51.0,140.3 L52.0,139.6 L53.0,138.8 L54.0,138.1 L55.0,137.3 L56.0,136.6 L57.0,135.8 L58.0,135.1 L59.0,134.3 L60.0,133.6 L61.0,132.8 L62.0,132.1 L63.0,131.3 L64.0,130.6 L65.0,129.9 L66.0,129.1 L67.0,128.4 L68.0,127.7 L69.0,127.0 L70.0,126.2 L71.0,125.5 L72.0,124.8 L73.0,124.1 L74.0,123.4 L75.0,122.7 L76.0,122.0 L77.0,121.3 L78.0,120.6 L79.0,119.9 L80.0,119.2 L81.0,118.5 L82.0,117.8 L83.0,117.2 L84.0,116.5 L85.0,115.8 L86.0,115.2 L87.0,114.5 L88.0,113.9 L89.0,113.2 L90.0,112.6 L91.0,111.9 L92.0,111.3 L93.0,110.7 L94.0,110.0 L95.0,109.4 L96.0,108.8 L97.0,108.2 L98.0,107.6 L99.0,107.0 L100.0,106.4 L101.0,105.8 L102.0,105.3 L103.0,104.7 L104.0,104.1 L105.0,103.6 L106.0,103.0 L107.0,102.5 L108.0,101.9 L109.0,101.4 L110.0,100.9 L111.0,100.3 L112.0,99.8 L113.0,99.3 L114.0,98.8 L115.0,98.3 L116.0,97.8 L117.0,97.4 L118.0,96.9 L119.0,96.4 L120.0,96.0 L121.0,95.5 L122.0,95.1 L123.0,94.6 L124.0,94.2 L125.0,93.8 L126.0,93.4 L127.0,93.0 L128.0,92.6 L129.0,92.2 L130.0,91.8 L131.0,91.4 L132.0,91.1 L133.0,90.7 L134.0,90.4 L135.0,90.0 L136.0,89.7 L137.0,89.4 L138.0,89.1 L139.0,88.8 L140.0,88.5 L141.0,88.2 L142.0,87.9 L143.0,87.6 L144.0,87.4 L145.0,87.1 L146.0,86.9 L147.0,86.6 L148.0,86.4 L149.0,86.2 L150.0,86.0 L151.0,85.8 L152.0,85.6 L153.0,85.4 L154.0,85.2 L155.0,85.1 L156.0,84.9 L157.0,84.8 L158.0,84.6 L159.0,84.5 L160.0,84.4 L161.0,84.3 L162.0,84.2 L163.0,84.1 L164.0,84.0 L165.0,83.9 L166.0,83.9 L167.0,83.8 L168.0,83.8 L169.0,83.7 L170.0,83.7 L171.0,83.7 L172.0,83.7 L173.0,83.7 L174.0,83.7 L175.0,83.7 L176.0,83.8 L177.0,83.8 L178.0,83.9 L179.0,83.9 L180.0,84.0 L181.0,84.1 L182.0,84.1 L183.0,84.2 L184.0,84.4 L185.0,84.5 L186.0,84.6 L187.0,84.7 L188.0,84.9 L189.0,85.0 L190.0,85.2 L191.0,85.4 L192.0,85.5 L193.0,85.7 L194.0,85.9 L195.0,86.1 L196.0,86.4 L197.0,86.6 L198.0,86.8 L199.0,87.1 L200.0,87.3 L201.0,87.6 L202.0,87.8 L203.0,88.1 L204.0,88.4 L205.0,88.7 L206.0,89.0 L207.0,89.3 L208.0,89.6 L209.0,90.0 L210.0,90.3 L211.0,90.7 L212.0,91.0 L213.0,91.4 L214.0,91.7 L215.0,92.1 L216.0,92.5 L217.0,92.9 L218.0,93.3 L219.0,93.7 L220.0,94.1 L221.0,94.6 L222.0,95.0 L223.0,95.4 L224.0,95.9 L225.0,96.3 L226.0,96.8 L227.0,97.3 L228.0,97.8 L229.0,98.2 L230.0,98.7 L231.0,99.2 L232.0,99.7 L233.0,100.3 L234.0,100.8 L235.0,101.3 L236.0,101.8 L237.0,102.4 L238.0,102.9 L239.0,103.5 L240.0,104.0 L241.0,104.6 L242.0,105.2 L243.0,105.8 L244.0,106.3 L245.0,106.9 L246.0,107.5 L247.0,108.1 L248.0,108.7 L249.0,109.3 L250.0,110.0 L251.0,110.6 L252.0,111.2 L253.0,111.8 L254.0,112.5 L255.0,113.1 L256.0,113.8 L257.0,114.4 L258.0,115.1 L259.0,115.7 L260.0,116.4 L261.0,117.1 L262.0,117.7 L263.0,118.4 L264.0,119.1 L265.0,119.8 L266.0,120.5 L267.0,121.2 L268.0,121.9 L269.0,122.6 L270.0,123.3 L271.0,124.0 L272.0,124.7 L273.0,125.4 L274.0,126.1 L275.0,126.8" fill="none" class="s-accent" stroke-width="3.0"/><path d="M276.0,127.5 L277.0,126.6 L278.0,125.7 L279.0,124.9 L280.0,124.0 L281.0,123.1 L282.0,122.3 L283.0,121.5 L284.0,120.7 L285.0,119.9 L286.0,119.1 L287.0,118.3 L288.0,117.5 L289.0,116.8 L290.0,116.1 L291.0,115.3 L292.0,114.6 L293.0,113.9 L294.0,113.3 L295.0,112.6 L296.0,112.0 L297.0,111.3 L298.0,110.7 L299.0,110.1 L300.0,109.5 L301.0,109.0 L302.0,108.4 L303.0,107.9 L304.0,107.4 L305.0,106.9 L306.0,106.4 L307.0,106.0 L308.0,105.5 L309.0,105.1 L310.0,104.7 L311.0,104.3 L312.0,104.0 L313.0,103.6 L314.0,103.3 L315.0,103.0 L316.0,102.7 L317.0,102.4 L318.0,102.2 L319.0,101.9 L320.0,101.7 L321.0,101.5 L322.0,101.4 L323.0,101.2 L324.0,101.1 L325.0,101.0 L326.0,100.9 L327.0,100.8 L328.0,100.8 L329.0,100.7 L330.0,100.7 L331.0,100.7 L332.0,100.8 L333.0,100.8 L334.0,100.9 L335.0,101.0 L336.0,101.1 L337.0,101.2 L338.0,101.4 L339.0,101.5 L340.0,101.7 L341.0,101.9 L342.0,102.2 L343.0,102.4 L344.0,102.7 L345.0,103.0 L346.0,103.3 L347.0,103.6 L348.0,104.0 L349.0,104.3 L350.0,104.7 L351.0,105.1 L352.0,105.5 L353.0,106.0 L354.0,106.4 L355.0,106.9 L356.0,107.4 L357.0,107.9 L358.0,108.4" fill="none" class="s-green" stroke-width="3.0"/><path d="M359.0,107.9 L360.0,107.1 L361.0,106.4 L362.0,105.7 L363.0,105.0 L364.0,104.3 L365.0,103.6 L366.0,102.9 L367.0,102.2 L368.0,101.5 L369.0,100.8 L370.0,100.1 L371.0,99.4 L372.0,98.7 L373.0,98.0 L374.0,97.3 L375.0,96.6 L376.0,95.9 L377.0,95.2 L378.0,94.6 L379.0,93.9 L380.0,93.2 L381.0,92.5 L382.0,91.9 L383.0,91.2 L384.0,90.6 L385.0,89.9 L386.0,89.3 L387.0,88.6 L388.0,88.0 L389.0,87.3 L390.0,86.7 L391.0,86.0 L392.0,85.4 L393.0,84.8 L394.0,84.2 L395.0,83.5 L396.0,82.9 L397.0,82.3 L398.0,81.7 L399.0,81.1 L400.0,80.5 L401.0,79.9 L402.0,79.3 L403.0,78.7 L404.0,78.2 L405.0,77.6 L406.0,77.0 L407.0,76.4 L408.0,75.9 L409.0,75.3 L410.0,74.8 L411.0,74.2 L412.0,73.7 L413.0,73.1 L414.0,72.6 L415.0,72.1 L416.0,71.5 L417.0,71.0 L418.0,70.5 L419.0,70.0 L420.0,69.5 L421.0,69.0 L422.0,68.5 L423.0,68.0 L424.0,67.5 L425.0,67.0 L426.0,66.6 L427.0,66.1 L428.0,65.6 L429.0,65.2 L430.0,64.7 L431.0,64.3 L432.0,63.9 L433.0,63.4 L434.0,63.0 L435.0,62.6 L436.0,62.2 L437.0,61.8 L438.0,61.4 L439.0,61.0 L440.0,60.6 L441.0,60.2 L442.0,59.8 L443.0,59.4 L444.0,59.1 L445.0,58.7 L446.0,58.4 L447.0,58.0 L448.0,57.7 L449.0,57.4 L450.0,57.0 L451.0,56.7 L452.0,56.4 L453.0,56.1 L454.0,55.8 L455.0,55.5 L456.0,55.2 L457.0,54.9 L458.0,54.7 L459.0,54.4 L460.0,54.2 L461.0,53.9 L462.0,53.7 L463.0,53.4 L464.0,53.2 L465.0,53.0 L466.0,52.8 L467.0,52.5 L468.0,52.3 L469.0,52.1 L470.0,52.0 L471.0,51.8 L472.0,51.6 L473.0,51.4 L474.0,51.3 L475.0,51.1 L476.0,51.0 L477.0,50.8 L478.0,50.7 L479.0,50.6 L480.0,50.5 L481.0,50.4 L482.0,50.3 L483.0,50.2 L484.0,50.1 L485.0,50.0 L486.0,49.9 L487.0,49.9 L488.0,49.8 L489.0,49.8 L490.0,49.7 L491.0,49.7 L492.0,49.7 L493.0,49.6 L494.0,49.6 L495.0,49.6 L496.0,49.6 L497.0,49.6 L498.0,49.7 L499.0,49.7 L500.0,49.7 L501.0,49.7 L502.0,49.8 L503.0,49.8 L504.0,49.9 L505.0,50.0 L506.0,50.1 L507.0,50.1 L508.0,50.2 L509.0,50.3 L510.0,50.4 L511.0,50.5 L512.0,50.7 L513.0,50.8 L514.0,50.9 L515.0,51.1 L516.0,51.2 L517.0,51.4 L518.0,51.5 L519.0,51.7 L520.0,51.9 L521.0,52.1 L522.0,52.3 L523.0,52.5 L524.0,52.7 L525.0,52.9 L526.0,53.1 L527.0,53.3 L528.0,53.6 L529.0,53.8 L530.0,54.1 L531.0,54.3 L532.0,54.6 L533.0,54.8 L534.0,55.1 L535.0,55.4 L536.0,55.7 L537.0,56.0 L538.0,56.3 L539.0,56.6 L540.0,56.9 L541.0,57.2 L542.0,57.6 L543.0,57.9 L544.0,58.2 L545.0,58.6 L546.0,58.9 L547.0,59.3 L548.0,59.7 L549.0,60.0 L550.0,60.4 L551.0,60.8 L552.0,61.2 L553.0,61.6 L554.0,62.0 L555.0,62.4 L556.0,62.8 L557.0,63.3 L558.0,63.7 L559.0,64.1 L560.0,64.6 L561.0,65.0 L562.0,65.5 L563.0,65.9 L564.0,66.4 L565.0,66.9 L566.0,67.3 L567.0,67.8 L568.0,68.3 L569.0,68.8 L570.0,69.3 L571.0,69.8 L572.0,70.3 L573.0,70.8 L574.0,71.3 L575.0,71.8 L576.0,72.4 L577.0,72.9 L578.0,73.4 L579.0,74.0 L580.0,74.5 L581.0,75.1 L582.0,75.6 L583.0,76.2 L584.0,76.8 L585.0,77.3 L586.0,77.9 L587.0,78.5 L588.0,79.1 L589.0,79.7 L590.0,80.3 L591.0,80.9 L592.0,81.5 L593.0,82.1 L594.0,82.7 L595.0,83.3 L596.0,83.9 L597.0,84.5 L598.0,85.2 L599.0,85.8 L600.0,86.4 L601.0,87.1 L602.0,87.7 L603.0,88.3 L604.0,89.0 L605.0,89.6 L606.0,90.3 L607.0,91.0 L608.0,91.6 L609.0,92.3 L610.0,92.9" fill="none" class="s-amber" stroke-width="3.0"/><line x1="50.0" y1="262.0" x2="610.0" y2="262.0" class="s-line" stroke-width="1"/><line x1="50.0" y1="262.0" x2="275.0" y2="262.0" class="s-accent" stroke-width="4"/><line x1="276.0" y1="262.0" x2="358.0" y2="262.0" class="s-green" stroke-width="4"/><line x1="359.0" y1="262.0" x2="610.0" y2="262.0" class="s-amber" stroke-width="4"/><line x1="276.0" y1="258.0" x2="276.0" y2="266.0" class="s-line" stroke-width="1"/><line x1="359.0" y1="258.0" x2="359.0" y2="266.0" class="s-line" stroke-width="1"/><text x="172.1" y="73.7" text-anchor="middle" font-size="12" class="accent">A: b=5.0, σ=.34</text><text x="330.0" y="90.7" text-anchor="middle" font-size="12" class="green">B: b=4.5, σ=.22</text><text x="495.2" y="39.6" text-anchor="middle" font-size="12" class="amber">C: b=6.0, σ=.42</text><text x="330" y="292" text-anchor="middle" font-size="12">embedding space (winning intervals = power-diagram cells)</text><text x="18" y="150" font-size="12" transform="rotate(-90 18 150)" text-anchor="middle">reportedVal(x)</text></svg>
