<svg xmlns="http://www.w3.org/2000/svg" viewBox="0 0 640 285" width="640" height="285" aria-label="Value curves for a fixed center with shrinking sigma narrowing toward a spike against a wide rival with equal bid; nested axis bands converge to the center point"><style>text{font-family:ui-monospace,Menlo,monospace;fill:#334155;}.muted{fill:#64748b}.accent{fill:#3b82f6}.amber{fill:#d97706}.s-neutral{stroke:#64748b}.s-line{stroke:#94a3b8}.s-accent{stroke:#3b82f6}.s-amber{stroke:#d97706}</style><path d="M50.0,95.8 L50.5,95.6 L51.0,95.4 L51.5,95.2 L52.0,95.0 L52.5,94.8 L53.0,94.6 L53.5,94.4 L54.0,94.2 L54.5,94.0 L55.0,93.8 L55.5,93.6 L56.0,93.4 L56.5,93.2 L57.0,93.0 L57.5,92.8 L58.0,92.6 L58.5,92.4 L59.0,92.2 L59.5,92.0 L60.0,91.8 L60.5,91.6 L61.0,91.5 L61.5,91.3 L62.0,91.1 L62.5,90.9 L63.0,90.7 L63.5,90.5 L64.0,90.3 L64.5,90.1 L65.0,89.9 L65.5,89.7 L66.0,89.5 L66.5,89.3 L67.0,89.1 L67.5,88.9 L68.0,88.8 L68.5,88.6 L69.0,88.4 L69.5,88.2 L70.0,88.0 L70.5,87.8 L71.0,87.6 L71.5,87.4 L72.0,87.2 L72.5,87.0 L73.0,86.9 L73.5,86.7 L74.0,86.5 L74.5,86.3 L75.0,86.1 L75.5,85.9 L76.0,85.7 L76.5,85.6 L77.0,85.4 L77.5,85.2 L78.0,85.0 L78.5,84.8 L79.0,84.6 L79.5,84.4 L80.0,84.3 L80.5,84.1 L81.0,83.9 L81.5,83.7 L82.0,83.5 L82.5,83.3 L83.0,83.2 L83.5,83.0 L84.0,82.8 L84.5,82.6 L85.0,82.4 L85.5,82.3 L86.0,82.1 L86.5,81.9 L87.0,81.7 L87.5,81.5 L88.0,81.4 L88.5,81.2 L89.0,81.0 L89.5,80.8 L90.0,80.7 L90.5,80.5 L91.0,80.3 L91.5,80.1 L92.0,80.0 L92.5,79.8 L93.0,79.6 L93.5,79.4 L94.0,79.3 L94.5,79.1 L95.0,78.9 L95.5,78.7 L96.0,78.6 L96.5,78.4 L97.0,78.2 L97.5,78.1 L98.0,77.9 L98.5,77.7 L99.0,77.6 L99.5,77.4 L100.0,77.2 L100.5,77.0 L101.0,76.9 L101.5,76.7 L102.0,76.5 L102.5,76.4 L103.0,76.2 L103.5,76.0 L104.0,75.9 L104.5,75.7 L105.0,75.5 L105.5,75.4 L106.0,75.2 L106.5,75.1 L107.0,74.9 L107.5,74.7 L108.0,74.6 L108.5,74.4 L109.0,74.2 L109.5,74.1 L110.0,73.9 L110.5,73.8 L111.0,73.6 L111.5,73.4 L112.0,73.3 L112.5,73.1 L113.0,73.0 L113.5,72.8 L114.0,72.7 L114.5,72.5 L115.0,72.3 L115.5,72.2 L116.0,72.0 L116.5,71.9 L117.0,71.7 L117.5,71.6 L118.0,71.4 L118.5,71.3 L119.0,71.1 L119.5,71.0 L120.0,70.8 L120.5,70.7 L121.0,70.5 L121.5,70.4 L122.0,70.2 L122.5,70.1 L123.0,69.9 L123.5,69.8 L124.0,69.6 L124.5,69.5 L125.0,69.3 L125.5,69.2 L126.0,69.0 L126.5,68.9 L127.0,68.7 L127.5,68.6 L128.0,68.4 L128.5,68.3 L129.0,68.2 L129.5,68.0 L130.0,67.9 L130.5,67.7 L131.0,67.6 L131.5,67.4 L132.0,67.3 L132.5,67.2 L133.0,67.0 L133.5,66.9 L134.0,66.7 L134.5,66.6 L135.0,66.5 L135.5,66.3 L136.0,66.2 L136.5,66.1 L137.0,65.9 L137.5,65.8 L138.0,65.7 L138.5,65.5 L139.0,65.4 L139.5,65.3 L140.0,65.1 L140.5,65.0 L141.0,64.9 L141.5,64.7 L142.0,64.6 L142.5,64.5 L143.0,64.3 L143.5,64.2 L144.0,64.1 L144.5,64.0 L145.0,63.8 L145.5,63.7 L146.0,63.6 L146.5,63.4 L147.0,63.3 L147.5,63.2 L148.0,63.1 L148.5,62.9 L149.0,62.8 L149.5,62.7 L150.0,62.6 L150.5,62.5 L151.0,62.3 L151.5,62.2 L152.0,62.1 L152.5,62.0 L153.0,61.9 L153.5,61.7 L154.0,61.6 L154.5,61.5 L155.0,61.4 L155.5,61.3 L156.0,61.2 L156.5,61.0 L157.0,60.9 L157.5,60.8 L158.0,60.7 L158.5,60.6 L159.0,60.5 L159.5,60.4 L160.0,60.3 L160.5,60.1 L161.0,60.0 L161.5,59.9 L162.0,59.8 L162.5,59.7 L163.0,59.6 L163.5,59.5 L164.0,59.4 L164.5,59.3 L165.0,59.2 L165.5,59.1 L166.0,59.0 L166.5,58.9 L167.0,58.8 L167.5,58.6 L168.0,58.5 L168.5,58.4 L169.0,58.3 L169.5,58.2 L170.0,58.1 L170.5,58.0 L171.0,57.9 L171.5,57.8 L172.0,57.7 L172.5,57.7 L173.0,57.6 L173.5,57.5 L174.0,57.4 L174.5,57.3 L175.0,57.2 L175.5,57.1 L176.0,57.0 L176.5,56.9 L177.0,56.8 L177.5,56.7 L178.0,56.6 L178.5,56.5 L179.0,56.4 L179.5,56.4 L180.0,56.3 L180.5,56.2 L181.0,56.1 L181.5,56.0 L182.0,55.9 L182.5,55.8 L183.0,55.7 L183.5,55.7 L184.0,55.6 L184.5,55.5 L185.0,55.4 L185.5,55.3 L186.0,55.2 L186.5,55.2 L187.0,55.1 L187.5,55.0 L188.0,54.9 L188.5,54.9 L189.0,54.8 L189.5,54.7 L190.0,54.6 L190.5,54.5 L191.0,54.5 L191.5,54.4 L192.0,54.3 L192.5,54.2 L193.0,54.2 L193.5,54.1 L194.0,54.0 L194.5,54.0 L195.0,53.9 L195.5,53.8 L196.0,53.7 L196.5,53.7 L197.0,53.6 L197.5,53.5 L198.0,53.5 L198.5,53.4 L199.0,53.3 L199.5,53.3 L200.0,53.2 L200.5,53.2 L201.0,53.1 L201.5,53.0 L202.0,53.0 L202.5,52.9 L203.0,52.8 L203.5,52.8 L204.0,52.7 L204.5,52.7 L205.0,52.6 L205.5,52.6 L206.0,52.5 L206.5,52.4 L207.0,52.4 L207.5,52.3 L208.0,52.3 L208.5,52.2 L209.0,52.2 L209.5,52.1 L210.0,52.1 L210.5,52.0 L211.0,52.0 L211.5,51.9 L212.0,51.9 L212.5,51.8 L213.0,51.8 L213.5,51.7 L214.0,51.7 L214.5,51.6 L215.0,51.6 L215.5,51.5 L216.0,51.5 L216.5,51.4 L217.0,51.4 L217.5,51.4 L218.0,51.3 L218.5,51.3 L219.0,51.2 L219.5,51.2 L220.0,51.2 L220.5,51.1 L221.0,51.1 L221.5,51.0 L222.0,51.0 L222.5,51.0 L223.0,50.9 L223.5,50.9 L224.0,50.9 L224.5,50.8 L225.0,50.8 L225.5,50.8 L226.0,50.7 L226.5,50.7 L227.0,50.7 L227.5,50.7 L228.0,50.6 L228.5,50.6 L229.0,50.6 L229.5,50.5 L230.0,50.5 L230.5,50.5 L231.0,50.5 L231.5,50.4 L232.0,50.4 L232.5,50.4 L233.0,50.4 L233.5,50.4 L234.0,50.3 L234.5,50.3 L235.0,50.3 L235.5,50.3 L236.0,50.3 L236.5,50.2 L237.0,50.2 L237.5,50.2 L238.0,50.2 L238.5,50.2 L239.0,50.2 L239.5,50.1 L240.0,50.1 L240.5,50.1 L241.0,50.1 L241.5,50.1 L242.0,50.1 L242.5,50.1 L243.0,50.1 L243.5,50.1 L244.0,50.0 L244.5,50.0 L245.0,50.0 L245.5,50.0 L246.0,50.0 L246.5,50.0 L247.0,50.0 L247.5,50.0 L248.0,50.0 L248.5,50.0 L249.0,50.0 L249.5,50.0 L250.0,50.0 L250.5,50.0 L251.0,50.0 L251.5,50.0 L252.0,50.0 L252.5,50.0 L253.0,50.0 L253.5,50.0 L254.0,50.0 L254.5,50.0 L255.0,50.0 L255.5,50.0 L256.0,50.0 L256.5,50.1 L257.0,50.1 L257.5,50.1 L258.0,50.1 L258.5,50.1 L259.0,50.1 L259.5,50.1 L260.0,50.1 L260.5,50.1 L261.0,50.2 L261.5,50.2 L262.0,50.2 L262.5,50.2 L263.0,50.2 L263.5,50.2 L264.0,50.3 L264.5,50.3 L265.0,50.3 L265.5,50.3 L266.0,50.3 L266.5,50.4 L267.0,50.4 L267.5,50.4 L268.0,50.4 L268.5,50.4 L269.0,50.5 L269.5,50.5 L270.0,50.5 L270.5,50.6 L271.0,50.6 L271.5,50.6 L272.0,50.6 L272.5,50.7 L273.0,50.7 L273.5,50.7 L274.0,50.8 L274.5,50.8 L275.0,50.8 L275.5,50.8 L276.0,50.9 L276.5,50.9 L277.0,51.0 L277.5,51.0 L278.0,51.0 L278.5,51.1 L279.0,51.1 L279.5,51.1 L280.0,51.2 L280.5,51.2 L281.0,51.3 L281.5,51.3 L282.0,51.3 L282.5,51.4 L283.0,51.4 L283.5,51.5 L284.0,51.5 L284.5,51.6 L285.0,51.6 L285.5,51.6 L286.0,51.7 L286.5,51.7 L287.0,51.8 L287.5,51.8 L288.0,51.9 L288.5,51.9 L289.0,52.0 L289.5,52.0 L290.0,52.1 L290.5,52.1 L291.0,52.2 L291.5,52.2 L292.0,52.3 L292.5,52.3 L293.0,52.4 L293.5,52.5 L294.0,52.5 L294.5,52.6 L295.0,52.6 L295.5,52.7 L296.0,52.7 L296.5,52.8 L297.0,52.9 L297.5,52.9 L298.0,53.0 L298.5,53.0 L299.0,53.1 L299.5,53.2 L300.0,53.2 L300.5,53.3 L301.0,53.4 L301.5,53.4 L302.0,53.5 L302.5,53.6 L303.0,53.6 L303.5,53.7 L304.0,53.8 L304.5,53.8 L305.0,53.9 L305.5,54.0 L306.0,54.1 L306.5,54.1 L307.0,54.2 L307.5,54.3 L308.0,54.3 L308.5,54.4 L309.0,54.5 L309.5,54.6 L310.0,54.6 L310.5,54.7 L311.0,54.8 L311.5,54.9 L312.0,55.0 L312.5,55.0 L313.0,55.1 L313.5,55.2 L314.0,55.3 L314.5,55.4 L315.0,55.4 L315.5,55.5 L316.0,55.6 L316.5,55.7 L317.0,55.8 L317.5,55.9 L318.0,55.9 L318.5,56.0 L319.0,56.1 L319.5,56.2 L320.0,56.3 L320.5,56.4 L321.0,56.5 L321.5,56.6 L322.0,56.6 L322.5,56.7 L323.0,56.8 L323.5,56.9 L324.0,57.0 L324.5,57.1 L325.0,57.2 L325.5,57.3 L326.0,57.4 L326.5,57.5 L327.0,57.6 L327.5,57.7 L328.0,57.8 L328.5,57.9 L329.0,58.0 L329.5,58.1 L330.0,58.2 L330.5,58.3 L331.0,58.4 L331.5,58.5 L332.0,58.6 L332.5,58.7 L333.0,58.8 L333.5,58.9 L334.0,59.0 L334.5,59.1 L335.0,59.2 L335.5,59.3 L336.0,59.4 L336.5,59.5 L337.0,59.6 L337.5,59.7 L338.0,59.8 L338.5,60.0 L339.0,60.1 L339.5,60.2 L340.0,60.3 L340.5,60.4 L341.0,60.5 L341.5,60.6 L342.0,60.7 L342.5,60.9 L343.0,61.0 L343.5,61.1 L344.0,61.2 L344.5,61.3 L345.0,61.4 L345.5,61.5 L346.0,61.7 L346.5,61.8 L347.0,61.9 L347.5,62.0 L348.0,62.1 L348.5,62.3 L349.0,62.4 L349.5,62.5 L350.0,62.6 L350.5,62.7 L351.0,62.9 L351.5,63.0 L352.0,63.1 L352.5,63.2 L353.0,63.4 L353.5,63.5 L354.0,63.6 L354.5,63.7 L355.0,63.9 L355.5,64.0 L356.0,64.1 L356.5,64.3 L357.0,64.4 L357.5,64.5 L358.0,64.6 L358.5,64.8 L359.0,64.9 L359.5,65.0 L360.0,65.2 L360.5,65.3 L361.0,65.4 L361.5,65.6 L362.0,65.7 L362.5,65.8 L363.0,66.0 L363.5,66.1 L364.0,66.2 L364.5,66.4 L365.0,66.5 L365.5,66.7 L366.0,66.8 L366.5,66.9 L367.0,67.1 L367.5,67.2 L368.0,67.3 L368.5,67.5 L369.0,67.6 L369.5,67.8 L370.0,67.9 L370.5,68.1 L371.0,68.2 L371.5,68.3 L372.0,68.5 L372.5,68.6 L373.0,68.8 L373.5,68.9 L374.0,69.1 L374.5,69.2 L375.0,69.4 L375.5,69.5 L376.0,69.7 L376.5,69.8 L377.0,70.0 L377.5,70.1 L378.0,70.3 L378.5,70.4 L379.0,70.6 L379.5,70.7 L380.0,70.9 L380.5,71.0 L381.0,71.2 L381.5,71.3 L382.0,71.5 L382.5,71.6 L383.0,71.8 L383.5,71.9 L384.0,72.1 L384.5,72.2 L385.0,72.4 L385.5,72.5 L386.0,72.7 L386.5,72.9 L387.0,73.0 L387.5,73.2 L388.0,73.3 L388.5,73.5 L389.0,73.7 L389.5,73.8 L390.0,74.0 L390.5,74.1 L391.0,74.3 L391.5,74.5 L392.0,74.6 L392.5,74.8 L393.0,74.9 L393.5,75.1 L394.0,75.3 L394.5,75.4 L395.0,75.6 L395.5,75.8 L396.0,75.9 L396.5,76.1 L397.0,76.3 L397.5,76.4 L398.0,76.6 L398.5,76.8 L399.0,76.9 L399.5,77.1 L400.0,77.3 L400.5,77.4 L401.0,77.6 L401.5,77.8 L402.0,77.9 L402.5,78.1 L403.0,78.3 L403.5,78.5 L404.0,78.6 L404.5,78.8 L405.0,79.0 L405.5,79.1 L406.0,79.3 L406.5,79.5 L407.0,79.7 L407.5,79.8 L408.0,80.0 L408.5,80.2 L409.0,80.4 L409.5,80.5 L410.0,80.7 L410.5,80.9 L411.0,81.1 L411.5,81.3 L412.0,81.4 L412.5,81.6 L413.0,81.8 L413.5,82.0 L414.0,82.1 L414.5,82.3 L415.0,82.5 L415.5,82.7 L416.0,82.9 L416.5,83.0 L417.0,83.2 L417.5,83.4 L418.0,83.6 L418.5,83.8 L419.0,84.0 L419.5,84.1 L420.0,84.3 L420.5,84.5 L421.0,84.7 L421.5,84.9 L422.0,85.1 L422.5,85.2 L423.0,85.4 L423.5,85.6 L424.0,85.8 L424.5,86.0 L425.0,86.2 L425.5,86.4 L426.0,86.5 L426.5,86.7 L427.0,86.9 L427.5,87.1 L428.0,87.3 L428.5,87.5 L429.0,87.7 L429.5,87.9 L430.0,88.1 L430.5,88.2 L431.0,88.4 L431.5,88.6 L432.0,88.8 L432.5,89.0 L433.0,89.2 L433.5,89.4 L434.0,89.6 L434.5,89.8 L435.0,90.0 L435.5,90.2 L436.0,90.4 L436.5,90.5 L437.0,90.7 L437.5,90.9 L438.0,91.1 L438.5,91.3 L439.0,91.5 L439.5,91.7 L440.0,91.9 L440.5,92.1 L441.0,92.3 L441.5,92.5 L442.0,92.7 L442.5,92.9 L443.0,93.1 L443.5,93.3 L444.0,93.5 L444.5,93.7 L445.0,93.9 L445.5,94.1 L446.0,94.3 L446.5,94.5 L447.0,94.7 L447.5,94.9 L448.0,95.1 L448.5,95.3 L449.0,95.5 L449.5,95.7 L450.0,95.9 L450.5,96.1 L451.0,96.3 L451.5,96.5 L452.0,96.7 L452.5,96.9 L453.0,97.1 L453.5,97.3 L454.0,97.5 L454.5,97.7 L455.0,97.9 L455.5,98.1 L456.0,98.3 L456.5,98.5 L457.0,98.7 L457.5,98.9 L458.0,99.1 L458.5,99.3 L459.0,99.5 L459.5,99.7 L460.0,99.9 L460.5,100.1 L461.0,100.3 L461.5,100.5 L462.0,100.8 L462.5,101.0 L463.0,101.2 L463.5,101.4 L464.0,101.6 L464.5,101.8 L465.0,102.0 L465.5,102.2 L466.0,102.4 L466.5,102.6 L467.0,102.8 L467.5,103.0 L468.0,103.2 L468.5,103.4 L469.0,103.7 L469.5,103.9 L470.0,104.1 L470.5,104.3 L471.0,104.5 L471.5,104.7 L472.0,104.9 L472.5,105.1 L473.0,105.3 L473.5,105.5 L474.0,105.7 L474.5,106.0 L475.0,106.2 L475.5,106.4 L476.0,106.6 L476.5,106.8 L477.0,107.0 L477.5,107.2 L478.0,107.4 L478.5,107.6 L479.0,107.9 L479.5,108.1 L480.0,108.3 L480.5,108.5 L481.0,108.7 L481.5,108.9 L482.0,109.1 L482.5,109.3 L483.0,109.6 L483.5,109.8 L484.0,110.0 L484.5,110.2 L485.0,110.4 L485.5,110.6 L486.0,110.8 L486.5,111.1 L487.0,111.3 L487.5,111.5 L488.0,111.7 L488.5,111.9 L489.0,112.1 L489.5,112.3 L490.0,112.6 L490.5,112.8 L491.0,113.0 L491.5,113.2 L492.0,113.4 L492.5,113.6 L493.0,113.8 L493.5,114.1 L494.0,114.3 L494.5,114.5 L495.0,114.7 L495.5,114.9 L496.0,115.1 L496.5,115.4 L497.0,115.6 L497.5,115.8 L498.0,116.0 L498.5,116.2 L499.0,116.4 L499.5,116.7 L500.0,116.9 L500.5,117.1 L501.0,117.3 L501.5,117.5 L502.0,117.7 L502.5,118.0 L503.0,118.2 L503.5,118.4 L504.0,118.6 L504.5,118.8 L505.0,119.0 L505.5,119.3 L506.0,119.5 L506.5,119.7 L507.0,119.9 L507.5,120.1 L508.0,120.3 L508.5,120.6 L509.0,120.8 L509.5,121.0 L510.0,121.2 L510.5,121.4 L511.0,121.7 L511.5,121.9 L512.0,122.1 L512.5,122.3 L513.0,122.5 L513.5,122.7 L514.0,123.0 L514.5,123.2 L515.0,123.4 L515.5,123.6 L516.0,123.8 L516.5,124.1 L517.0,124.3 L517.5,124.5 L518.0,124.7 L518.5,124.9 L519.0,125.1 L519.5,125.4 L520.0,125.6 L520.5,125.8 L521.0,126.0 L521.5,126.2 L522.0,126.5 L522.5,126.7 L523.0,126.9 L523.5,127.1 L524.0,127.3 L524.5,127.6 L525.0,127.8 L525.5,128.0 L526.0,128.2 L526.5,128.4 L527.0,128.6 L527.5,128.9 L528.0,129.1 L528.5,129.3 L529.0,129.5 L529.5,129.7 L530.0,130.0 L530.5,130.2 L531.0,130.4 L531.5,130.6 L532.0,130.8 L532.5,131.1 L533.0,131.3 L533.5,131.5 L534.0,131.7 L534.5,131.9 L535.0,132.1 L535.5,132.4 L536.0,132.6 L536.5,132.8 L537.0,133.0 L537.5,133.2 L538.0,133.5 L538.5,133.7 L539.0,133.9 L539.5,134.1 L540.0,134.3 L540.5,134.6 L541.0,134.8 L541.5,135.0 L542.0,135.2 L542.5,135.4 L543.0,135.6 L543.5,135.9 L544.0,136.1 L544.5,136.3 L545.0,136.5 L545.5,136.7 L546.0,137.0 L546.5,137.2 L547.0,137.4 L547.5,137.6 L548.0,137.8 L548.5,138.0 L549.0,138.3 L549.5,138.5 L550.0,138.7 L550.5,138.9 L551.0,139.1 L551.5,139.3 L552.0,139.6 L552.5,139.8 L553.0,140.0 L553.5,140.2 L554.0,140.4 L554.5,140.6 L555.0,140.9 L555.5,141.1 L556.0,141.3 L556.5,141.5 L557.0,141.7 L557.5,141.9 L558.0,142.2 L558.5,142.4 L559.0,142.6 L559.5,142.8 L560.0,143.0 L560.5,143.2 L561.0,143.5 L561.5,143.7 L562.0,143.9 L562.5,144.1 L563.0,144.3 L563.5,144.5 L564.0,144.7 L564.5,145.0 L565.0,145.2 L565.5,145.4 L566.0,145.6 L566.5,145.8 L567.0,146.0 L567.5,146.3 L568.0,146.5 L568.5,146.7 L569.0,146.9 L569.5,147.1 L570.0,147.3 L570.5,147.5 L571.0,147.7 L571.5,148.0 L572.0,148.2 L572.5,148.4 L573.0,148.6 L573.5,148.8 L574.0,149.0 L574.5,149.2 L575.0,149.5 L575.5,149.7 L576.0,149.9 L576.5,150.1 L577.0,150.3 L577.5,150.5 L578.0,150.7 L578.5,150.9 L579.0,151.2 L579.5,151.4 L580.0,151.6 L580.5,151.8 L581.0,152.0 L581.5,152.2 L582.0,152.4 L582.5,152.6 L583.0,152.8 L583.5,153.1 L584.0,153.3 L584.5,153.5 L585.0,153.7 L585.5,153.9 L586.0,154.1 L586.5,154.3 L587.0,154.5 L587.5,154.7 L588.0,154.9 L588.5,155.1 L589.0,155.4 L589.5,155.6 L590.0,155.8 L590.5,156.0 L591.0,156.2 L591.5,156.4 L592.0,156.6 L592.5,156.8 L593.0,157.0 L593.5,157.2 L594.0,157.4 L594.5,157.6 L595.0,157.9 L595.5,158.1 L596.0,158.3 L596.5,158.5 L597.0,158.7 L597.5,158.9 L598.0,159.1 L598.5,159.3 L599.0,159.5 L599.5,159.7 L600.0,159.9 L600.5,160.1 L601.0,160.3 L601.5,160.5 L602.0,160.7 L602.5,160.9 L603.0,161.1 L603.5,161.3 L604.0,161.6 L604.5,161.8 L605.0,162.0 L605.5,162.2 L606.0,162.4 L606.5,162.6 L607.0,162.8 L607.5,163.0 L608.0,163.2 L608.5,163.4 L609.0,163.6 L609.5,163.8 L610.0,164.0" fill="none" class="s-amber" stroke-width="2.0"/><path d="M50.0,212.0 L50.5,211.8 L51.0,211.6 L51.5,211.4 L52.0,211.2 L52.5,211.0 L53.0,210.8 L53.5,210.6 L54.0,210.4 L54.5,210.2 L55.0,210.0 L55.5,209.8 L56.0,209.6 L56.5,209.4 L57.0,209.2 L57.5,209.0 L58.0,208.8 L58.5,208.6 L59.0,208.4 L59.5,208.2 L60.0,208.0 L60.5,207.8 L61.0,207.6 L61.5,207.4 L62.0,207.2 L62.5,206.9 L63.0,206.7 L63.5,206.5 L64.0,206.3 L64.5,206.1 L65.0,205.9 L65.5,205.7 L66.0,205.4 L66.5,205.2 L67.0,205.0 L67.5,204.8 L68.0,204.6 L68.5,204.4 L69.0,204.1 L69.5,203.9 L70.0,203.7 L70.5,203.5 L71.0,203.2 L71.5,203.0 L72.0,202.8 L72.5,202.6 L73.0,202.3 L73.5,202.1 L74.0,201.9 L74.5,201.7 L75.0,201.4 L75.5,201.2 L76.0,201.0 L76.5,200.7 L77.0,200.5 L77.5,200.3 L78.0,200.0 L78.5,199.8 L79.0,199.6 L79.5,199.3 L80.0,199.1 L80.5,198.9 L81.0,198.6 L81.5,198.4 L82.0,198.2 L82.5,197.9 L83.0,197.7 L83.5,197.4 L84.0,197.2 L84.5,196.9 L85.0,196.7 L85.5,196.5 L86.0,196.2 L86.5,196.0 L87.0,195.7 L87.5,195.5 L88.0,195.2 L88.5,195.0 L89.0,194.7 L89.5,194.5 L90.0,194.2 L90.5,194.0 L91.0,193.7 L91.5,193.5 L92.0,193.2 L92.5,193.0 L93.0,192.7 L93.5,192.5 L94.0,192.2 L94.5,192.0 L95.0,191.7 L95.5,191.4 L96.0,191.2 L96.5,190.9 L97.0,190.7 L97.5,190.4 L98.0,190.2 L98.5,189.9 L99.0,189.6 L99.5,189.4 L100.0,189.1 L100.5,188.8 L101.0,188.6 L101.5,188.3 L102.0,188.0 L102.5,187.8 L103.0,187.5 L103.5,187.2 L104.0,187.0 L104.5,186.7 L105.0,186.4 L105.5,186.2 L106.0,185.9 L106.5,185.6 L107.0,185.3 L107.5,185.1 L108.0,184.8 L108.5,184.5 L109.0,184.3 L109.5,184.0 L110.0,183.7 L110.5,183.4 L111.0,183.1 L111.5,182.9 L112.0,182.6 L112.5,182.3 L113.0,182.0 L113.5,181.8 L114.0,181.5 L114.5,181.2 L115.0,180.9 L115.5,180.6 L116.0,180.3 L116.5,180.1 L117.0,179.8 L117.5,179.5 L118.0,179.2 L118.5,178.9 L119.0,178.6 L119.5,178.3 L120.0,178.0 L120.5,177.8 L121.0,177.5 L121.5,177.2 L122.0,176.9 L122.5,176.6 L123.0,176.3 L123.5,176.0 L124.0,175.7 L124.5,175.4 L125.0,175.1 L125.5,174.8 L126.0,174.5 L126.5,174.2 L127.0,174.0 L127.5,173.7 L128.0,173.4 L128.5,173.1 L129.0,172.8 L129.5,172.5 L130.0,172.2 L130.5,171.9 L131.0,171.6 L131.5,171.3 L132.0,171.0 L132.5,170.7 L133.0,170.4 L133.5,170.0 L134.0,169.7 L134.5,169.4 L135.0,169.1 L135.5,168.8 L136.0,168.5 L136.5,168.2 L137.0,167.9 L137.5,167.6 L138.0,167.3 L138.5,167.0 L139.0,166.7 L139.5,166.4 L140.0,166.1 L140.5,165.7 L141.0,165.4 L141.5,165.1 L142.0,164.8 L142.5,164.5 L143.0,164.2 L143.5,163.9 L144.0,163.6 L144.5,163.2 L145.0,162.9 L145.5,162.6 L146.0,162.3 L146.5,162.0 L147.0,161.7 L147.5,161.3 L148.0,161.0 L148.5,160.7 L149.0,160.4 L149.5,160.1 L150.0,159.8 L150.5,159.4 L151.0,159.1 L151.5,158.8 L152.0,158.5 L152.5,158.2 L153.0,157.8 L153.5,157.5 L154.0,157.2 L154.5,156.9 L155.0,156.5 L155.5,156.2 L156.0,155.9 L156.5,155.6 L157.0,155.2 L157.5,154.9 L158.0,154.6 L158.5,154.3 L159.0,153.9 L159.5,153.6 L160.0,153.3 L160.5,153.0 L161.0,152.6 L161.5,152.3 L162.0,152.0 L162.5,151.6 L163.0,151.3 L163.5,151.0 L164.0,150.7 L164.5,150.3 L165.0,150.0 L165.5,149.7 L166.0,149.3 L166.5,149.0 L167.0,148.7 L167.5,148.3 L168.0,148.0 L168.5,147.7 L169.0,147.3 L169.5,147.0 L170.0,146.7 L170.5,146.3 L171.0,146.0 L171.5,145.7 L172.0,145.3 L172.5,145.0 L173.0,144.7 L173.5,144.3 L174.0,144.0 L174.5,143.7 L175.0,143.3 L175.5,143.0 L176.0,142.7 L176.5,142.3 L177.0,142.0 L177.5,141.7 L178.0,141.3 L178.5,141.0 L179.0,140.6 L179.5,140.3 L180.0,140.0 L180.5,139.6 L181.0,139.3 L181.5,139.0 L182.0,138.6 L182.5,138.3 L183.0,137.9 L183.5,137.6 L184.0,137.3 L184.5,136.9 L185.0,136.6 L185.5,136.2 L186.0,135.9 L186.5,135.6 L187.0,135.2 L187.5,134.9 L188.0,134.6 L188.5,134.2 L189.0,133.9 L189.5,133.5 L190.0,133.2 L190.5,132.9 L191.0,132.5 L191.5,132.2 L192.0,131.8 L192.5,131.5 L193.0,131.2 L193.5,130.8 L194.0,130.5 L194.5,130.1 L195.0,129.8 L195.5,129.4 L196.0,129.1 L196.5,128.8 L197.0,128.4 L197.5,128.1 L198.0,127.7 L198.5,127.4 L199.0,127.1 L199.5,126.7 L200.0,126.4 L200.5,126.0 L201.0,125.7 L201.5,125.4 L202.0,125.0 L202.5,124.7 L203.0,124.3 L203.5,124.0 L204.0,123.7 L204.5,123.3 L205.0,123.0 L205.5,122.6 L206.0,122.3 L206.5,122.0 L207.0,121.6 L207.5,121.3 L208.0,121.0 L208.5,120.6 L209.0,120.3 L209.5,119.9 L210.0,119.6 L210.5,119.3 L211.0,118.9 L211.5,118.6 L212.0,118.2 L212.5,117.9 L213.0,117.6 L213.5,117.2 L214.0,116.9 L214.5,116.6 L215.0,116.2 L215.5,115.9 L216.0,115.5 L216.5,115.2 L217.0,114.9 L217.5,114.5 L218.0,114.2 L218.5,113.9 L219.0,113.5 L219.5,113.2 L220.0,112.9 L220.5,112.5 L221.0,112.2 L221.5,111.9 L222.0,111.5 L222.5,111.2 L223.0,110.9 L223.5,110.5 L224.0,110.2 L224.5,109.9 L225.0,109.5 L225.5,109.2 L226.0,108.9 L226.5,108.5 L227.0,108.2 L227.5,107.9 L228.0,107.6 L228.5,107.2 L229.0,106.9 L229.5,106.6 L230.0,106.2 L230.5,105.9 L231.0,105.6 L231.5,105.3 L232.0,104.9 L232.5,104.6 L233.0,104.3 L233.5,104.0 L234.0,103.6 L234.5,103.3 L235.0,103.0 L235.5,102.7 L236.0,102.3 L236.5,102.0 L237.0,101.7 L237.5,101.4 L238.0,101.0 L238.5,100.7 L239.0,100.4 L239.5,100.1 L240.0,99.8 L240.5,99.4 L241.0,99.1 L241.5,98.8 L242.0,98.5 L242.5,98.2 L243.0,97.9 L243.5,97.5 L244.0,97.2 L244.5,96.9 L245.0,96.6 L245.5,96.3 L246.0,96.0 L246.5,95.7 L247.0,95.4 L247.5,95.0 L248.0,94.7 L248.5,94.4 L249.0,94.1 L249.5,93.8 L250.0,93.5 L250.5,93.2 L251.0,92.9 L251.5,92.6 L252.0,92.3 L252.5,92.0 L253.0,91.7 L253.5,91.4 L254.0,91.1 L254.5,90.8 L255.0,90.5 L255.5,90.2 L256.0,89.9 L256.5,89.6 L257.0,89.3 L257.5,89.0 L258.0,88.7 L258.5,88.4 L259.0,88.1 L259.5,87.8 L260.0,87.5 L260.5,87.2 L261.0,86.9 L261.5,86.6 L262.0,86.3 L262.5,86.0 L263.0,85.7 L263.5,85.4 L264.0,85.2 L264.5,84.9 L265.0,84.6 L265.5,84.3 L266.0,84.0 L266.5,83.7 L267.0,83.4 L267.5,83.2 L268.0,82.9 L268.5,82.6 L269.0,82.3 L269.5,82.0 L270.0,81.8 L270.5,81.5 L271.0,81.2 L271.5,80.9 L272.0,80.7 L272.5,80.4 L273.0,80.1 L273.5,79.8 L274.0,79.6 L274.5,79.3 L275.0,79.0 L275.5,78.8 L276.0,78.5 L276.5,78.2 L277.0,78.0 L277.5,77.7 L278.0,77.4 L278.5,77.2 L279.0,76.9 L279.5,76.7 L280.0,76.4 L280.5,76.1 L281.0,75.9 L281.5,75.6 L282.0,75.4 L282.5,75.1 L283.0,74.9 L283.5,74.6 L284.0,74.4 L284.5,74.1 L285.0,73.9 L285.5,73.6 L286.0,73.4 L286.5,73.1 L287.0,72.9 L287.5,72.6 L288.0,72.4 L288.5,72.1 L289.0,71.9 L289.5,71.7 L290.0,71.4 L290.5,71.2 L291.0,70.9 L291.5,70.7 L292.0,70.5 L292.5,70.2 L293.0,70.0 L293.5,69.8 L294.0,69.5 L294.5,69.3 L295.0,69.1 L295.5,68.9 L296.0,68.6 L296.5,68.4 L297.0,68.2 L297.5,68.0 L298.0,67.7 L298.5,67.5 L299.0,67.3 L299.5,67.1 L300.0,66.9 L300.5,66.7 L301.0,66.4 L301.5,66.2 L302.0,66.0 L302.5,65.8 L303.0,65.6 L303.5,65.4 L304.0,65.2 L304.5,65.0 L305.0,64.8 L305.5,64.6 L306.0,64.4 L306.5,64.2 L307.0,64.0 L307.5,63.8 L308.0,63.6 L308.5,63.4 L309.0,63.2 L309.5,63.0 L310.0,62.8 L310.5,62.6 L311.0,62.4 L311.5,62.2 L312.0,62.0 L312.5,61.9 L313.0,61.7 L313.5,61.5 L314.0,61.3 L314.5,61.1 L315.0,61.0 L315.5,60.8 L316.0,60.6 L316.5,60.4 L317.0,60.2 L317.5,60.1 L318.0,59.9 L318.5,59.7 L319.0,59.6 L319.5,59.4 L320.0,59.2 L320.5,59.1 L321.0,58.9 L321.5,58.7 L322.0,58.6 L322.5,58.4 L323.0,58.3 L323.5,58.1 L324.0,58.0 L324.5,57.8 L325.0,57.7 L325.5,57.5 L326.0,57.4 L326.5,57.2 L327.0,57.1 L327.5,56.9 L328.0,56.8 L328.5,56.6 L329.0,56.5 L329.5,56.4 L330.0,56.2 L330.5,56.1 L331.0,56.0 L331.5,55.8 L332.0,55.7 L332.5,55.6 L333.0,55.4 L333.5,55.3 L334.0,55.2 L334.5,55.1 L335.0,54.9 L335.5,54.8 L336.0,54.7 L336.5,54.6 L337.0,54.4 L337.5,54.3 L338.0,54.2 L338.5,54.1 L339.0,54.0 L339.5,53.9 L340.0,53.8 L340.5,53.7 L341.0,53.6 L341.5,53.5 L342.0,53.4 L342.5,53.3 L343.0,53.2 L343.5,53.1 L344.0,53.0 L344.5,52.9 L345.0,52.8 L345.5,52.7 L346.0,52.6 L346.5,52.5 L347.0,52.4 L347.5,52.3 L348.0,52.2 L348.5,52.2 L349.0,52.1 L349.5,52.0 L350.0,51.9 L350.5,51.9 L351.0,51.8 L351.5,51.7 L352.0,51.6 L352.5,51.6 L353.0,51.5 L353.5,51.4 L354.0,51.4 L354.5,51.3 L355.0,51.2 L355.5,51.2 L356.0,51.1 L356.5,51.1 L357.0,51.0 L357.5,50.9 L358.0,50.9 L358.5,50.8 L359.0,50.8 L359.5,50.7 L360.0,50.7 L360.5,50.6 L361.0,50.6 L361.5,50.6 L362.0,50.5 L362.5,50.5 L363.0,50.4 L363.5,50.4 L364.0,50.4 L364.5,50.3 L365.0,50.3 L365.5,50.3 L366.0,50.2 L366.5,50.2 L367.0,50.2 L367.5,50.2 L368.0,50.1 L368.5,50.1 L369.0,50.1 L369.5,50.1 L370.0,50.1 L370.5,50.1 L371.0,50.0 L371.5,50.0 L372.0,50.0 L372.5,50.0 L373.0,50.0 L373.5,50.0 L374.0,50.0 L374.5,50.0 L375.0,50.0 L375.5,50.0 L376.0,50.0 L376.5,50.0 L377.0,50.0 L377.5,50.0 L378.0,50.0 L378.5,50.0 L379.0,50.1 L379.5,50.1 L380.0,50.1 L380.5,50.1 L381.0,50.1 L381.5,50.1 L382.0,50.2 L382.5,50.2 L383.0,50.2 L383.5,50.2 L384.0,50.3 L384.5,50.3 L385.0,50.3 L385.5,50.4 L386.0,50.4 L386.5,50.4 L387.0,50.5 L387.5,50.5 L388.0,50.5 L388.5,50.6 L389.0,50.6 L389.5,50.7 L390.0,50.7 L390.5,50.8 L391.0,50.8 L391.5,50.9 L392.0,50.9 L392.5,51.0 L393.0,51.0 L393.5,51.1 L394.0,51.2 L394.5,51.2 L395.0,51.3 L395.5,51.3 L396.0,51.4 L396.5,51.5 L397.0,51.5 L397.5,51.6 L398.0,51.7 L398.5,51.8 L399.0,51.8 L399.5,51.9 L400.0,52.0 L400.5,52.1 L401.0,52.2 L401.5,52.2 L402.0,52.3 L402.5,52.4 L403.0,52.5 L403.5,52.6 L404.0,52.7 L404.5,52.8 L405.0,52.9 L405.5,52.9 L406.0,53.0 L406.5,53.1 L407.0,53.2 L407.5,53.3 L408.0,53.4 L408.5,53.5 L409.0,53.6 L409.5,53.8 L410.0,53.9 L410.5,54.0 L411.0,54.1 L411.5,54.2 L412.0,54.3 L412.5,54.4 L413.0,54.5 L413.5,54.7 L414.0,54.8 L414.5,54.9 L415.0,55.0 L415.5,55.1 L416.0,55.3 L416.5,55.4 L417.0,55.5 L417.5,55.7 L418.0,55.8 L418.5,55.9 L419.0,56.1 L419.5,56.2 L420.0,56.3 L420.5,56.5 L421.0,56.6 L421.5,56.8 L422.0,56.9 L422.5,57.0 L423.0,57.2 L423.5,57.3 L424.0,57.5 L424.5,57.6 L425.0,57.8 L425.5,57.9 L426.0,58.1 L426.5,58.2 L427.0,58.4 L427.5,58.6 L428.0,58.7 L428.5,58.9 L429.0,59.0 L429.5,59.2 L430.0,59.4 L430.5,59.5 L431.0,59.7 L431.5,59.9 L432.0,60.0 L432.5,60.2 L433.0,60.4 L433.5,60.6 L434.0,60.7 L434.5,60.9 L435.0,61.1 L435.5,61.3 L436.0,61.5 L436.5,61.6 L437.0,61.8 L437.5,62.0 L438.0,62.2 L438.5,62.4 L439.0,62.6 L439.5,62.8 L440.0,62.9 L440.5,63.1 L441.0,63.3 L441.5,63.5 L442.0,63.7 L442.5,63.9 L443.0,64.1 L443.5,64.3 L444.0,64.5 L444.5,64.7 L445.0,64.9 L445.5,65.1 L446.0,65.3 L446.5,65.6 L447.0,65.8 L447.5,66.0 L448.0,66.2 L448.5,66.4 L449.0,66.6 L449.5,66.8 L450.0,67.0 L450.5,67.3 L451.0,67.5 L451.5,67.7 L452.0,67.9 L452.5,68.1 L453.0,68.4 L453.5,68.6 L454.0,68.8 L454.5,69.0 L455.0,69.3 L455.5,69.5 L456.0,69.7 L456.5,70.0 L457.0,70.2 L457.5,70.4 L458.0,70.7 L458.5,70.9 L459.0,71.1 L459.5,71.4 L460.0,71.6 L460.5,71.8 L461.0,72.1 L461.5,72.3 L462.0,72.6 L462.5,72.8 L463.0,73.1 L463.5,73.3 L464.0,73.6 L464.5,73.8 L465.0,74.1 L465.5,74.3 L466.0,74.6 L466.5,74.8 L467.0,75.1 L467.5,75.3 L468.0,75.6 L468.5,75.8 L469.0,76.1 L469.5,76.3 L470.0,76.6 L470.5,76.9 L471.0,77.1 L471.5,77.4 L472.0,77.6 L472.5,77.9 L473.0,78.2 L473.5,78.4 L474.0,78.7 L474.5,79.0 L475.0,79.2 L475.5,79.5 L476.0,79.8 L476.5,80.1 L477.0,80.3 L477.5,80.6 L478.0,80.9 L478.5,81.2 L479.0,81.4 L479.5,81.7 L480.0,82.0 L480.5,82.3 L481.0,82.5 L481.5,82.8 L482.0,83.1 L482.5,83.4 L483.0,83.7 L483.5,84.0 L484.0,84.2 L484.5,84.5 L485.0,84.8 L485.5,85.1 L486.0,85.4 L486.5,85.7 L487.0,86.0 L487.5,86.3 L488.0,86.5 L488.5,86.8 L489.0,87.1 L489.5,87.4 L490.0,87.7 L490.5,88.0 L491.0,88.3 L491.5,88.6 L492.0,88.9 L492.5,89.2 L493.0,89.5 L493.5,89.8 L494.0,90.1 L494.5,90.4 L495.0,90.7 L495.5,91.0 L496.0,91.3 L496.5,91.6 L497.0,91.9 L497.5,92.2 L498.0,92.5 L498.5,92.8 L499.0,93.1 L499.5,93.4 L500.0,93.7 L500.5,94.1 L501.0,94.4 L501.5,94.7 L502.0,95.0 L502.5,95.3 L503.0,95.6 L503.5,95.9 L504.0,96.2 L504.5,96.5 L505.0,96.9 L505.5,97.2 L506.0,97.5 L506.5,97.8 L507.0,98.1 L507.5,98.4 L508.0,98.8 L508.5,99.1 L509.0,99.4 L509.5,99.7 L510.0,100.0 L510.5,100.3 L511.0,100.7 L511.5,101.0 L512.0,101.3 L512.5,101.6 L513.0,101.9 L513.5,102.3 L514.0,102.6 L514.5,102.9 L515.0,103.2 L515.5,103.6 L516.0,103.9 L516.5,104.2 L517.0,104.5 L517.5,104.9 L518.0,105.2 L518.5,105.5 L519.0,105.8 L519.5,106.2 L520.0,106.5 L520.5,106.8 L521.0,107.2 L521.5,107.5 L522.0,107.8 L522.5,108.1 L523.0,108.5 L523.5,108.8 L524.0,109.1 L524.5,109.5 L525.0,109.8 L525.5,110.1 L526.0,110.5 L526.5,110.8 L527.0,111.1 L527.5,111.5 L528.0,111.8 L528.5,112.1 L529.0,112.5 L529.5,112.8 L530.0,113.1 L530.5,113.5 L531.0,113.8 L531.5,114.1 L532.0,114.5 L532.5,114.8 L533.0,115.1 L533.5,115.5 L534.0,115.8 L534.5,116.2 L535.0,116.5 L535.5,116.8 L536.0,117.2 L536.5,117.5 L537.0,117.8 L537.5,118.2 L538.0,118.5 L538.5,118.9 L539.0,119.2 L539.5,119.5 L540.0,119.9 L540.5,120.2 L541.0,120.5 L541.5,120.9 L542.0,121.2 L542.5,121.6 L543.0,121.9 L543.5,122.2 L544.0,122.6 L544.5,122.9 L545.0,123.3 L545.5,123.6 L546.0,123.9 L546.5,124.3 L547.0,124.6 L547.5,125.0 L548.0,125.3 L548.5,125.6 L549.0,126.0 L549.5,126.3 L550.0,126.7 L550.5,127.0 L551.0,127.3 L551.5,127.7 L552.0,128.0 L552.5,128.4 L553.0,128.7 L553.5,129.0 L554.0,129.4 L554.5,129.7 L555.0,130.1 L555.5,130.4 L556.0,130.7 L556.5,131.1 L557.0,131.4 L557.5,131.8 L558.0,132.1 L558.5,132.4 L559.0,132.8 L559.5,133.1 L560.0,133.5 L560.5,133.8 L561.0,134.1 L561.5,134.5 L562.0,134.8 L562.5,135.2 L563.0,135.5 L563.5,135.8 L564.0,136.2 L564.5,136.5 L565.0,136.9 L565.5,137.2 L566.0,137.5 L566.5,137.9 L567.0,138.2 L567.5,138.5 L568.0,138.9 L568.5,139.2 L569.0,139.6 L569.5,139.9 L570.0,140.2 L570.5,140.6 L571.0,140.9 L571.5,141.3 L572.0,141.6 L572.5,141.9 L573.0,142.3 L573.5,142.6 L574.0,142.9 L574.5,143.3 L575.0,143.6 L575.5,143.9 L576.0,144.3 L576.5,144.6 L577.0,144.9 L577.5,145.3 L578.0,145.6 L578.5,145.9 L579.0,146.3 L579.5,146.6 L580.0,146.9 L580.5,147.3 L581.0,147.6 L581.5,147.9 L582.0,148.3 L582.5,148.6 L583.0,148.9 L583.5,149.3 L584.0,149.6 L584.5,149.9 L585.0,150.3 L585.5,150.6 L586.0,150.9 L586.5,151.3 L587.0,151.6 L587.5,151.9 L588.0,152.2 L588.5,152.6 L589.0,152.9 L589.5,153.2 L590.0,153.5 L590.5,153.9 L591.0,154.2 L591.5,154.5 L592.0,154.9 L592.5,155.2 L593.0,155.5 L593.5,155.8 L594.0,156.2 L594.5,156.5 L595.0,156.8 L595.5,157.1 L596.0,157.4 L596.5,157.8 L597.0,158.1 L597.5,158.4 L598.0,158.7 L598.5,159.1 L599.0,159.4 L599.5,159.7 L600.0,160.0 L600.5,160.3 L601.0,160.6 L601.5,161.0 L602.0,161.3 L602.5,161.6 L603.0,161.9 L603.5,162.2 L604.0,162.5 L604.5,162.9 L605.0,163.2 L605.5,163.5 L606.0,163.8 L606.5,164.1 L607.0,164.4 L607.5,164.7 L608.0,165.1 L608.5,165.4 L609.0,165.7 L609.5,166.0 L610.0,166.3" fill="none" class="s-accent" stroke-width="1.8" opacity="0.3"/><path d="M50.0,249.8 L50.5,249.8 L51.0,249.8 L51.5,249.8 L52.0,249.8 L52.5,249.8 L53.0,249.8 L53.5,249.8 L54.0,249.8 L54.5,249.8 L55.0,249.8 L55.5,249.8 L56.0,249.8 L56.5,249.7 L57.0,249.7 L57.5,249.7 L58.0,249.7 L58.5,249.7 L59.0,249.7 L59.5,249.7 L60.0,249.7 L60.5,249.7 L61.0,249.7 L61.5,249.7 L62.0,249.7 L62.5,249.7 L63.0,249.7 L63.5,249.7 L64.0,249.7 L64.5,249.6 L65.0,249.6 L65.5,249.6 L66.0,249.6 L66.5,249.6 L67.0,249.6 L67.5,249.6 L68.0,249.6 L68.5,249.6 L69.0,249.6 L69.5,249.6 L70.0,249.6 L70.5,249.6 L71.0,249.5 L71.5,249.5 L72.0,249.5 L72.5,249.5 L73.0,249.5 L73.5,249.5 L74.0,249.5 L74.5,249.5 L75.0,249.5 L75.5,249.5 L76.0,249.4 L76.5,249.4 L77.0,249.4 L77.5,249.4 L78.0,249.4 L78.5,249.4 L79.0,249.4 L79.5,249.4 L80.0,249.3 L80.5,249.3 L81.0,249.3 L81.5,249.3 L82.0,249.3 L82.5,249.3 L83.0,249.3 L83.5,249.3 L84.0,249.2 L84.5,249.2 L85.0,249.2 L85.5,249.2 L86.0,249.2 L86.5,249.2 L87.0,249.1 L87.5,249.1 L88.0,249.1 L88.5,249.1 L89.0,249.1 L89.5,249.1 L90.0,249.0 L90.5,249.0 L91.0,249.0 L91.5,249.0 L92.0,249.0 L92.5,249.0 L93.0,248.9 L93.5,248.9 L94.0,248.9 L94.5,248.9 L95.0,248.8 L95.5,248.8 L96.0,248.8 L96.5,248.8 L97.0,248.8 L97.5,248.7 L98.0,248.7 L98.5,248.7 L99.0,248.7 L99.5,248.6 L100.0,248.6 L100.5,248.6 L101.0,248.6 L101.5,248.5 L102.0,248.5 L102.5,248.5 L103.0,248.5 L103.5,248.4 L104.0,248.4 L104.5,248.4 L105.0,248.3 L105.5,248.3 L106.0,248.3 L106.5,248.3 L107.0,248.2 L107.5,248.2 L108.0,248.2 L108.5,248.1 L109.0,248.1 L109.5,248.1 L110.0,248.0 L110.5,248.0 L111.0,248.0 L111.5,247.9 L112.0,247.9 L112.5,247.9 L113.0,247.8 L113.5,247.8 L114.0,247.7 L114.5,247.7 L115.0,247.7 L115.5,247.6 L116.0,247.6 L116.5,247.5 L117.0,247.5 L117.5,247.4 L118.0,247.4 L118.5,247.4 L119.0,247.3 L119.5,247.3 L120.0,247.2 L120.5,247.2 L121.0,247.1 L121.5,247.1 L122.0,247.0 L122.5,247.0 L123.0,246.9 L123.5,246.9 L124.0,246.8 L124.5,246.8 L125.0,246.7 L125.5,246.7 L126.0,246.6 L126.5,246.6 L127.0,246.5 L127.5,246.4 L128.0,246.4 L128.5,246.3 L129.0,246.3 L129.5,246.2 L130.0,246.1 L130.5,246.1 L131.0,246.0 L131.5,246.0 L132.0,245.9 L132.5,245.8 L133.0,245.8 L133.5,245.7 L134.0,245.6 L134.5,245.5 L135.0,245.5 L135.5,245.4 L136.0,245.3 L136.5,245.3 L137.0,245.2 L137.5,245.1 L138.0,245.0 L138.5,244.9 L139.0,244.9 L139.5,244.8 L140.0,244.7 L140.5,244.6 L141.0,244.5 L141.5,244.5 L142.0,244.4 L142.5,244.3 L143.0,244.2 L143.5,244.1 L144.0,244.0 L144.5,243.9 L145.0,243.8 L145.5,243.7 L146.0,243.6 L146.5,243.5 L147.0,243.5 L147.5,243.4 L148.0,243.3 L148.5,243.1 L149.0,243.0 L149.5,242.9 L150.0,242.8 L150.5,242.7 L151.0,242.6 L151.5,242.5 L152.0,242.4 L152.5,242.3 L153.0,242.2 L153.5,242.1 L154.0,241.9 L154.5,241.8 L155.0,241.7 L155.5,241.6 L156.0,241.5 L156.5,241.3 L157.0,241.2 L157.5,241.1 L158.0,241.0 L158.5,240.8 L159.0,240.7 L159.5,240.6 L160.0,240.4 L160.5,240.3 L161.0,240.2 L161.5,240.0 L162.0,239.9 L162.5,239.7 L163.0,239.6 L163.5,239.4 L164.0,239.3 L164.5,239.1 L165.0,239.0 L165.5,238.8 L166.0,238.7 L166.5,238.5 L167.0,238.4 L167.5,238.2 L168.0,238.1 L168.5,237.9 L169.0,237.7 L169.5,237.6 L170.0,237.4 L170.5,237.2 L171.0,237.0 L171.5,236.9 L172.0,236.7 L172.5,236.5 L173.0,236.3 L173.5,236.1 L174.0,236.0 L174.5,235.8 L175.0,235.6 L175.5,235.4 L176.0,235.2 L176.5,235.0 L177.0,234.8 L177.5,234.6 L178.0,234.4 L178.5,234.2 L179.0,234.0 L179.5,233.8 L180.0,233.6 L180.5,233.4 L181.0,233.2 L181.5,232.9 L182.0,232.7 L182.5,232.5 L183.0,232.3 L183.5,232.1 L184.0,231.8 L184.5,231.6 L185.0,231.4 L185.5,231.1 L186.0,230.9 L186.5,230.7 L187.0,230.4 L187.5,230.2 L188.0,229.9 L188.5,229.7 L189.0,229.4 L189.5,229.2 L190.0,228.9 L190.5,228.7 L191.0,228.4 L191.5,228.1 L192.0,227.9 L192.5,227.6 L193.0,227.3 L193.5,227.1 L194.0,226.8 L194.5,226.5 L195.0,226.2 L195.5,225.9 L196.0,225.7 L196.5,225.4 L197.0,225.1 L197.5,224.8 L198.0,224.5 L198.5,224.2 L199.0,223.9 L199.5,223.6 L200.0,223.3 L200.5,223.0 L201.0,222.7 L201.5,222.3 L202.0,222.0 L202.5,221.7 L203.0,221.4 L203.5,221.1 L204.0,220.7 L204.5,220.4 L205.0,220.1 L205.5,219.7 L206.0,219.4 L206.5,219.1 L207.0,218.7 L207.5,218.4 L208.0,218.0 L208.5,217.7 L209.0,217.3 L209.5,216.9 L210.0,216.6 L210.5,216.2 L211.0,215.9 L211.5,215.5 L212.0,215.1 L212.5,214.7 L213.0,214.4 L213.5,214.0 L214.0,213.6 L214.5,213.2 L215.0,212.8 L215.5,212.4 L216.0,212.0 L216.5,211.6 L217.0,211.2 L217.5,210.8 L218.0,210.4 L218.5,210.0 L219.0,209.6 L219.5,209.2 L220.0,208.8 L220.5,208.3 L221.0,207.9 L221.5,207.5 L222.0,207.0 L222.5,206.6 L223.0,206.2 L223.5,205.7 L224.0,205.3 L224.5,204.8 L225.0,204.4 L225.5,203.9 L226.0,203.5 L226.5,203.0 L227.0,202.6 L227.5,202.1 L228.0,201.6 L228.5,201.2 L229.0,200.7 L229.5,200.2 L230.0,199.8 L230.5,199.3 L231.0,198.8 L231.5,198.3 L232.0,197.8 L232.5,197.3 L233.0,196.8 L233.5,196.3 L234.0,195.8 L234.5,195.3 L235.0,194.8 L235.5,194.3 L236.0,193.8 L236.5,193.3 L237.0,192.8 L237.5,192.2 L238.0,191.7 L238.5,191.2 L239.0,190.7 L239.5,190.1 L240.0,189.6 L240.5,189.1 L241.0,188.5 L241.5,188.0 L242.0,187.4 L242.5,186.9 L243.0,186.3 L243.5,185.8 L244.0,185.2 L244.5,184.7 L245.0,184.1 L245.5,183.5 L246.0,183.0 L246.5,182.4 L247.0,181.8 L247.5,181.2 L248.0,180.7 L248.5,180.1 L249.0,179.5 L249.5,178.9 L250.0,178.3 L250.5,177.7 L251.0,177.1 L251.5,176.5 L252.0,175.9 L252.5,175.3 L253.0,174.7 L253.5,174.1 L254.0,173.5 L254.5,172.9 L255.0,172.3 L255.5,171.7 L256.0,171.1 L256.5,170.5 L257.0,169.8 L257.5,169.2 L258.0,168.6 L258.5,168.0 L259.0,167.3 L259.5,166.7 L260.0,166.1 L260.5,165.4 L261.0,164.8 L261.5,164.2 L262.0,163.5 L262.5,162.9 L263.0,162.2 L263.5,161.6 L264.0,160.9 L264.5,160.3 L265.0,159.6 L265.5,159.0 L266.0,158.3 L266.5,157.7 L267.0,157.0 L267.5,156.3 L268.0,155.7 L268.5,155.0 L269.0,154.3 L269.5,153.7 L270.0,153.0 L270.5,152.3 L271.0,151.7 L271.5,151.0 L272.0,150.3 L272.5,149.6 L273.0,149.0 L273.5,148.3 L274.0,147.6 L274.5,146.9 L275.0,146.2 L275.5,145.6 L276.0,144.9 L276.5,144.2 L277.0,143.5 L277.5,142.8 L278.0,142.1 L278.5,141.4 L279.0,140.7 L279.5,140.1 L280.0,139.4 L280.5,138.7 L281.0,138.0 L281.5,137.3 L282.0,136.6 L282.5,135.9 L283.0,135.2 L283.5,134.5 L284.0,133.8 L284.5,133.1 L285.0,132.4 L285.5,131.7 L286.0,131.0 L286.5,130.3 L287.0,129.6 L287.5,129.0 L288.0,128.3 L288.5,127.6 L289.0,126.9 L289.5,126.2 L290.0,125.5 L290.5,124.8 L291.0,124.1 L291.5,123.4 L292.0,122.7 L292.5,122.0 L293.0,121.3 L293.5,120.6 L294.0,119.9 L294.5,119.2 L295.0,118.5 L295.5,117.8 L296.0,117.2 L296.5,116.5 L297.0,115.8 L297.5,115.1 L298.0,114.4 L298.5,113.7 L299.0,113.0 L299.5,112.3 L300.0,111.7 L300.5,111.0 L301.0,110.3 L301.5,109.6 L302.0,108.9 L302.5,108.3 L303.0,107.6 L303.5,106.9 L304.0,106.3 L304.5,105.6 L305.0,104.9 L305.5,104.2 L306.0,103.6 L306.5,102.9 L307.0,102.3 L307.5,101.6 L308.0,100.9 L308.5,100.3 L309.0,99.6 L309.5,99.0 L310.0,98.3 L310.5,97.7 L311.0,97.0 L311.5,96.4 L312.0,95.8 L312.5,95.1 L313.0,94.5 L313.5,93.9 L314.0,93.2 L314.5,92.6 L315.0,92.0 L315.5,91.4 L316.0,90.7 L316.5,90.1 L317.0,89.5 L317.5,88.9 L318.0,88.3 L318.5,87.7 L319.0,87.1 L319.5,86.5 L320.0,85.9 L320.5,85.3 L321.0,84.7 L321.5,84.1 L322.0,83.6 L322.5,83.0 L323.0,82.4 L323.5,81.8 L324.0,81.3 L324.5,80.7 L325.0,80.1 L325.5,79.6 L326.0,79.0 L326.5,78.5 L327.0,78.0 L327.5,77.4 L328.0,76.9 L328.5,76.3 L329.0,75.8 L329.5,75.3 L330.0,74.8 L330.5,74.3 L331.0,73.7 L331.5,73.2 L332.0,72.7 L332.5,72.2 L333.0,71.7 L333.5,71.3 L334.0,70.8 L334.5,70.3 L335.0,69.8 L335.5,69.4 L336.0,68.9 L336.5,68.4 L337.0,68.0 L337.5,67.5 L338.0,67.1 L338.5,66.6 L339.0,66.2 L339.5,65.8 L340.0,65.3 L340.5,64.9 L341.0,64.5 L341.5,64.1 L342.0,63.7 L342.5,63.3 L343.0,62.9 L343.5,62.5 L344.0,62.1 L344.5,61.7 L345.0,61.4 L345.5,61.0 L346.0,60.6 L346.5,60.3 L347.0,59.9 L347.5,59.6 L348.0,59.2 L348.5,58.9 L349.0,58.6 L349.5,58.3 L350.0,57.9 L350.5,57.6 L351.0,57.3 L351.5,57.0 L352.0,56.7 L352.5,56.4 L353.0,56.2 L353.5,55.9 L354.0,55.6 L354.5,55.4 L355.0,55.1 L355.5,54.8 L356.0,54.6 L356.5,54.4 L357.0,54.1 L357.5,53.9 L358.0,53.7 L358.5,53.5 L359.0,53.3 L359.5,53.1 L360.0,52.9 L360.5,52.7 L361.0,52.5 L361.5,52.3 L362.0,52.1 L362.5,52.0 L363.0,51.8 L363.5,51.7 L364.0,51.5 L364.5,51.4 L365.0,51.3 L365.5,51.1 L366.0,51.0 L366.5,50.9 L367.0,50.8 L367.5,50.7 L368.0,50.6 L368.5,50.5 L369.0,50.4 L369.5,50.4 L370.0,50.3 L370.5,50.2 L371.0,50.2 L371.5,50.1 L372.0,50.1 L372.5,50.1 L373.0,50.0 L373.5,50.0 L374.0,50.0 L374.5,50.0 L375.0,50.0 L375.5,50.0 L376.0,50.0 L376.5,50.0 L377.0,50.1 L377.5,50.1 L378.0,50.1 L378.5,50.2 L379.0,50.2 L379.5,50.3 L380.0,50.4 L380.5,50.4 L381.0,50.5 L381.5,50.6 L382.0,50.7 L382.5,50.8 L383.0,50.9 L383.5,51.0 L384.0,51.1 L384.5,51.2 L385.0,51.4 L385.5,51.5 L386.0,51.6 L386.5,51.8 L387.0,52.0 L387.5,52.1 L388.0,52.3 L388.5,52.5 L389.0,52.6 L389.5,52.8 L390.0,53.0 L390.5,53.2 L391.0,53.4 L391.5,53.6 L392.0,53.9 L392.5,54.1 L393.0,54.3 L393.5,54.6 L394.0,54.8 L394.5,55.0 L395.0,55.3 L395.5,55.6 L396.0,55.8 L396.5,56.1 L397.0,56.4 L397.5,56.7 L398.0,57.0 L398.5,57.3 L399.0,57.6 L399.5,57.9 L400.0,58.2 L400.5,58.5 L401.0,58.8 L401.5,59.2 L402.0,59.5 L402.5,59.9 L403.0,60.2 L403.5,60.6 L404.0,60.9 L404.5,61.3 L405.0,61.7 L405.5,62.0 L406.0,62.4 L406.5,62.8 L407.0,63.2 L407.5,63.6 L408.0,64.0 L408.5,64.4 L409.0,64.8 L409.5,65.3 L410.0,65.7 L410.5,66.1 L411.0,66.5 L411.5,67.0 L412.0,67.4 L412.5,67.9 L413.0,68.3 L413.5,68.8 L414.0,69.3 L414.5,69.7 L415.0,70.2 L415.5,70.7 L416.0,71.2 L416.5,71.6 L417.0,72.1 L417.5,72.6 L418.0,73.1 L418.5,73.6 L419.0,74.2 L419.5,74.7 L420.0,75.2 L420.5,75.7 L421.0,76.2 L421.5,76.8 L422.0,77.3 L422.5,77.8 L423.0,78.4 L423.5,78.9 L424.0,79.5 L424.5,80.0 L425.0,80.6 L425.5,81.2 L426.0,81.7 L426.5,82.3 L427.0,82.9 L427.5,83.4 L428.0,84.0 L428.5,84.6 L429.0,85.2 L429.5,85.8 L430.0,86.4 L430.5,87.0 L431.0,87.6 L431.5,88.2 L432.0,88.8 L432.5,89.4 L433.0,90.0 L433.5,90.6 L434.0,91.2 L434.5,91.9 L435.0,92.5 L435.5,93.1 L436.0,93.7 L436.5,94.4 L437.0,95.0 L437.5,95.6 L438.0,96.3 L438.5,96.9 L439.0,97.6 L439.5,98.2 L440.0,98.9 L440.5,99.5 L441.0,100.2 L441.5,100.8 L442.0,101.5 L442.5,102.1 L443.0,102.8 L443.5,103.5 L444.0,104.1 L444.5,104.8 L445.0,105.4 L445.5,106.1 L446.0,106.8 L446.5,107.5 L447.0,108.1 L447.5,108.8 L448.0,109.5 L448.5,110.2 L449.0,110.8 L449.5,111.5 L450.0,112.2 L450.5,112.9 L451.0,113.6 L451.5,114.3 L452.0,114.9 L452.5,115.6 L453.0,116.3 L453.5,117.0 L454.0,117.7 L454.5,118.4 L455.0,119.1 L455.5,119.8 L456.0,120.5 L456.5,121.2 L457.0,121.9 L457.5,122.6 L458.0,123.2 L458.5,123.9 L459.0,124.6 L459.5,125.3 L460.0,126.0 L460.5,126.7 L461.0,127.4 L461.5,128.1 L462.0,128.8 L462.5,129.5 L463.0,130.2 L463.5,130.9 L464.0,131.6 L464.5,132.3 L465.0,133.0 L465.5,133.7 L466.0,134.4 L466.5,135.1 L467.0,135.8 L467.5,136.5 L468.0,137.2 L468.5,137.8 L469.0,138.5 L469.5,139.2 L470.0,139.9 L470.5,140.6 L471.0,141.3 L471.5,142.0 L472.0,142.7 L472.5,143.4 L473.0,144.0 L473.5,144.7 L474.0,145.4 L474.5,146.1 L475.0,146.8 L475.5,147.5 L476.0,148.1 L476.5,148.8 L477.0,149.5 L477.5,150.2 L478.0,150.8 L478.5,151.5 L479.0,152.2 L479.5,152.9 L480.0,153.5 L480.5,154.2 L481.0,154.9 L481.5,155.5 L482.0,156.2 L482.5,156.9 L483.0,157.5 L483.5,158.2 L484.0,158.8 L484.5,159.5 L485.0,160.1 L485.5,160.8 L486.0,161.4 L486.5,162.1 L487.0,162.7 L487.5,163.4 L488.0,164.0 L488.5,164.7 L489.0,165.3 L489.5,165.9 L490.0,166.6 L490.5,167.2 L491.0,167.8 L491.5,168.5 L492.0,169.1 L492.5,169.7 L493.0,170.3 L493.5,171.0 L494.0,171.6 L494.5,172.2 L495.0,172.8 L495.5,173.4 L496.0,174.0 L496.5,174.6 L497.0,175.2 L497.5,175.8 L498.0,176.4 L498.5,177.0 L499.0,177.6 L499.5,178.2 L500.0,178.8 L500.5,179.4 L501.0,180.0 L501.5,180.5 L502.0,181.1 L502.5,181.7 L503.0,182.3 L503.5,182.8 L504.0,183.4 L504.5,184.0 L505.0,184.5 L505.5,185.1 L506.0,185.7 L506.5,186.2 L507.0,186.8 L507.5,187.3 L508.0,187.9 L508.5,188.4 L509.0,188.9 L509.5,189.5 L510.0,190.0 L510.5,190.6 L511.0,191.1 L511.5,191.6 L512.0,192.1 L512.5,192.7 L513.0,193.2 L513.5,193.7 L514.0,194.2 L514.5,194.7 L515.0,195.2 L515.5,195.7 L516.0,196.2 L516.5,196.7 L517.0,197.2 L517.5,197.7 L518.0,198.2 L518.5,198.7 L519.0,199.2 L519.5,199.7 L520.0,200.1 L520.5,200.6 L521.0,201.1 L521.5,201.6 L522.0,202.0 L522.5,202.5 L523.0,202.9 L523.5,203.4 L524.0,203.9 L524.5,204.3 L525.0,204.8 L525.5,205.2 L526.0,205.6 L526.5,206.1 L527.0,206.5 L527.5,207.0 L528.0,207.4 L528.5,207.8 L529.0,208.2 L529.5,208.7 L530.0,209.1 L530.5,209.5 L531.0,209.9 L531.5,210.3 L532.0,210.7 L532.5,211.1 L533.0,211.5 L533.5,211.9 L534.0,212.3 L534.5,212.7 L535.0,213.1 L535.5,213.5 L536.0,213.9 L536.5,214.3 L537.0,214.7 L537.5,215.0 L538.0,215.4 L538.5,215.8 L539.0,216.1 L539.5,216.5 L540.0,216.9 L540.5,217.2 L541.0,217.6 L541.5,217.9 L542.0,218.3 L542.5,218.6 L543.0,219.0 L543.5,219.3 L544.0,219.7 L544.5,220.0 L545.0,220.3 L545.5,220.7 L546.0,221.0 L546.5,221.3 L547.0,221.6 L547.5,222.0 L548.0,222.3 L548.5,222.6 L549.0,222.9 L549.5,223.2 L550.0,223.5 L550.5,223.8 L551.0,224.1 L551.5,224.4 L552.0,224.7 L552.5,225.0 L553.0,225.3 L553.5,225.6 L554.0,225.9 L554.5,226.2 L555.0,226.5 L555.5,226.7 L556.0,227.0 L556.5,227.3 L557.0,227.6 L557.5,227.8 L558.0,228.1 L558.5,228.3 L559.0,228.6 L559.5,228.9 L560.0,229.1 L560.5,229.4 L561.0,229.6 L561.5,229.9 L562.0,230.1 L562.5,230.4 L563.0,230.6 L563.5,230.8 L564.0,231.1 L564.5,231.3 L565.0,231.6 L565.5,231.8 L566.0,232.0 L566.5,232.2 L567.0,232.5 L567.5,232.7 L568.0,232.9 L568.5,233.1 L569.0,233.3 L569.5,233.5 L570.0,233.8 L570.5,234.0 L571.0,234.2 L571.5,234.4 L572.0,234.6 L572.5,234.8 L573.0,235.0 L573.5,235.2 L574.0,235.4 L574.5,235.5 L575.0,235.7 L575.5,235.9 L576.0,236.1 L576.5,236.3 L577.0,236.5 L577.5,236.7 L578.0,236.8 L578.5,237.0 L579.0,237.2 L579.5,237.4 L580.0,237.5 L580.5,237.7 L581.0,237.9 L581.5,238.0 L582.0,238.2 L582.5,238.3 L583.0,238.5 L583.5,238.7 L584.0,238.8 L584.5,239.0 L585.0,239.1 L585.5,239.3 L586.0,239.4 L586.5,239.6 L587.0,239.7 L587.5,239.8 L588.0,240.0 L588.5,240.1 L589.0,240.3 L589.5,240.4 L590.0,240.5 L590.5,240.7 L591.0,240.8 L591.5,240.9 L592.0,241.1 L592.5,241.2 L593.0,241.3 L593.5,241.4 L594.0,241.6 L594.5,241.7 L595.0,241.8 L595.5,241.9 L596.0,242.0 L596.5,242.2 L597.0,242.3 L597.5,242.4 L598.0,242.5 L598.5,242.6 L599.0,242.7 L599.5,242.8 L600.0,242.9 L600.5,243.0 L601.0,243.1 L601.5,243.2 L602.0,243.3 L602.5,243.4 L603.0,243.5 L603.5,243.6 L604.0,243.7 L604.5,243.8 L605.0,243.9 L605.5,244.0 L606.0,244.1 L606.5,244.2 L607.0,244.3 L607.5,244.4 L608.0,244.4 L608.5,244.5 L609.0,244.6 L609.5,244.7 L610.0,244.8" fill="none" class="s-accent" stroke-width="1.8" opacity="0.55"/><path d="M50.0,250.0 L50.5,250.0 L51.0,250.0 L51.5,250.0 L52.0,250.0 L52.5,250.0 L53.0,250.0 L53.5,250.0 L54.0,250.0 L54.5,250.0 L55.0,250.0 L55.5,250.0 L56.0,250.0 L56.5,250.0 L57.0,250.0 L57.5,250.0 L58.0,250.0 L58.5,250.0 L59.0,250.0 L59.5,250.0 L60.0,250.0 L60.5,250.0 L61.0,250.0 L61.5,250.0 L62.0,250.0 L62.5,250.0 L63.0,250.0 L63.5,250.0 L64.0,250.0 L64.5,250.0 L65.0,250.0 L65.5,250.0 L66.0,250.0 L66.5,250.0 L67.0,250.0 L67.5,250.0 L68.0,250.0 L68.5,250.0 L69.0,250.0 L69.5,250.0 L70.0,250.0 L70.5,250.0 L71.0,250.0 L71.5,250.0 L72.0,250.0 L72.5,250.0 L73.0,250.0 L73.5,250.0 L74.0,250.0 L74.5,250.0 L75.0,250.0 L75.5,250.0 L76.0,250.0 L76.5,250.0 L77.0,250.0 L77.5,250.0 L78.0,250.0 L78.5,250.0 L79.0,250.0 L79.5,250.0 L80.0,250.0 L80.5,250.0 L81.0,250.0 L81.5,250.0 L82.0,250.0 L82.5,250.0 L83.0,250.0 L83.5,250.0 L84.0,250.0 L84.5,250.0 L85.0,250.0 L85.5,250.0 L86.0,250.0 L86.5,250.0 L87.0,250.0 L87.5,250.0 L88.0,250.0 L88.5,250.0 L89.0,250.0 L89.5,250.0 L90.0,250.0 L90.5,250.0 L91.0,250.0 L91.5,250.0 L92.0,250.0 L92.5,250.0 L93.0,250.0 L93.5,250.0 L94.0,250.0 L94.5,250.0 L95.0,250.0 L95.5,250.0 L96.0,250.0 L96.5,250.0 L97.0,250.0 L97.5,250.0 L98.0,250.0 L98.5,250.0 L99.0,250.0 L99.5,250.0 L100.0,250.0 L100.5,250.0 L101.0,250.0 L101.5,250.0 L102.0,250.0 L102.5,250.0 L103.0,250.0 L103.5,250.0 L104.0,250.0 L104.5,250.0 L105.0,250.0 L105.5,250.0 L106.0,250.0 L106.5,250.0 L107.0,250.0 L107.5,250.0 L108.0,250.0 L108.5,250.0 L109.0,250.0 L109.5,250.0 L110.0,250.0 L110.5,250.0 L111.0,250.0 L111.5,250.0 L112.0,250.0 L112.5,250.0 L113.0,250.0 L113.5,250.0 L114.0,250.0 L114.5,250.0 L115.0,250.0 L115.5,250.0 L116.0,250.0 L116.5,250.0 L117.0,250.0 L117.5,250.0 L118.0,250.0 L118.5,250.0 L119.0,250.0 L119.5,250.0 L120.0,250.0 L120.5,250.0 L121.0,250.0 L121.5,250.0 L122.0,250.0 L122.5,250.0 L123.0,250.0 L123.5,250.0 L124.0,250.0 L124.5,250.0 L125.0,250.0 L125.5,250.0 L126.0,250.0 L126.5,250.0 L127.0,250.0 L127.5,250.0 L128.0,250.0 L128.5,250.0 L129.0,250.0 L129.5,250.0 L130.0,250.0 L130.5,250.0 L131.0,250.0 L131.5,250.0 L132.0,250.0 L132.5,250.0 L133.0,250.0 L133.5,250.0 L134.0,250.0 L134.5,250.0 L135.0,250.0 L135.5,250.0 L136.0,250.0 L136.5,250.0 L137.0,250.0 L137.5,250.0 L138.0,250.0 L138.5,250.0 L139.0,250.0 L139.5,250.0 L140.0,250.0 L140.5,250.0 L141.0,250.0 L141.5,250.0 L142.0,250.0 L142.5,250.0 L143.0,250.0 L143.5,250.0 L144.0,250.0 L144.5,250.0 L145.0,250.0 L145.5,250.0 L146.0,250.0 L146.5,250.0 L147.0,250.0 L147.5,250.0 L148.0,250.0 L148.5,250.0 L149.0,250.0 L149.5,250.0 L150.0,250.0 L150.5,250.0 L151.0,250.0 L151.5,250.0 L152.0,250.0 L152.5,250.0 L153.0,250.0 L153.5,250.0 L154.0,250.0 L154.5,250.0 L155.0,250.0 L155.5,250.0 L156.0,250.0 L156.5,250.0 L157.0,250.0 L157.5,250.0 L158.0,250.0 L158.5,250.0 L159.0,250.0 L159.5,250.0 L160.0,250.0 L160.5,250.0 L161.0,250.0 L161.5,250.0 L162.0,250.0 L162.5,250.0 L163.0,250.0 L163.5,250.0 L164.0,250.0 L164.5,250.0 L165.0,250.0 L165.5,250.0 L166.0,250.0 L166.5,250.0 L167.0,250.0 L167.5,250.0 L168.0,250.0 L168.5,250.0 L169.0,250.0 L169.5,250.0 L170.0,250.0 L170.5,250.0 L171.0,250.0 L171.5,250.0 L172.0,250.0 L172.5,250.0 L173.0,250.0 L173.5,250.0 L174.0,250.0 L174.5,250.0 L175.0,250.0 L175.5,250.0 L176.0,250.0 L176.5,250.0 L177.0,250.0 L177.5,250.0 L178.0,250.0 L178.5,250.0 L179.0,250.0 L179.5,250.0 L180.0,250.0 L180.5,250.0 L181.0,250.0 L181.5,250.0 L182.0,250.0 L182.5,250.0 L183.0,250.0 L183.5,250.0 L184.0,250.0 L184.5,250.0 L185.0,250.0 L185.5,250.0 L186.0,250.0 L186.5,250.0 L187.0,250.0 L187.5,250.0 L188.0,250.0 L188.5,250.0 L189.0,250.0 L189.5,250.0 L190.0,250.0 L190.5,250.0 L191.0,250.0 L191.5,250.0 L192.0,250.0 L192.5,250.0 L193.0,250.0 L193.5,250.0 L194.0,250.0 L194.5,250.0 L195.0,250.0 L195.5,250.0 L196.0,250.0 L196.5,250.0 L197.0,250.0 L197.5,250.0 L198.0,250.0 L198.5,250.0 L199.0,250.0 L199.5,250.0 L200.0,250.0 L200.5,250.0 L201.0,250.0 L201.5,250.0 L202.0,250.0 L202.5,250.0 L203.0,250.0 L203.5,250.0 L204.0,250.0 L204.5,250.0 L205.0,250.0 L205.5,250.0 L206.0,250.0 L206.5,250.0 L207.0,250.0 L207.5,250.0 L208.0,250.0 L208.5,250.0 L209.0,250.0 L209.5,250.0 L210.0,250.0 L210.5,250.0 L211.0,250.0 L211.5,250.0 L212.0,250.0 L212.5,250.0 L213.0,250.0 L213.5,250.0 L214.0,249.9 L214.5,249.9 L215.0,249.9 L215.5,249.9 L216.0,249.9 L216.5,249.9 L217.0,249.9 L217.5,249.9 L218.0,249.9 L218.5,249.9 L219.0,249.9 L219.5,249.9 L220.0,249.9 L220.5,249.9 L221.0,249.9 L221.5,249.9 L222.0,249.9 L222.5,249.9 L223.0,249.9 L223.5,249.9 L224.0,249.9 L224.5,249.9 L225.0,249.8 L225.5,249.8 L226.0,249.8 L226.5,249.8 L227.0,249.8 L227.5,249.8 L228.0,249.8 L228.5,249.8 L229.0,249.8 L229.5,249.8 L230.0,249.8 L230.5,249.7 L231.0,249.7 L231.5,249.7 L232.0,249.7 L232.5,249.7 L233.0,249.7 L233.5,249.7 L234.0,249.6 L234.5,249.6 L235.0,249.6 L235.5,249.6 L236.0,249.6 L236.5,249.6 L237.0,249.5 L237.5,249.5 L238.0,249.5 L238.5,249.5 L239.0,249.4 L239.5,249.4 L240.0,249.4 L240.5,249.4 L241.0,249.3 L241.5,249.3 L242.0,249.3 L242.5,249.2 L243.0,249.2 L243.5,249.2 L244.0,249.1 L244.5,249.1 L245.0,249.1 L245.5,249.0 L246.0,249.0 L246.5,248.9 L247.0,248.9 L247.5,248.9 L248.0,248.8 L248.5,248.8 L249.0,248.7 L249.5,248.7 L250.0,248.6 L250.5,248.6 L251.0,248.5 L251.5,248.4 L252.0,248.4 L252.5,248.3 L253.0,248.2 L253.5,248.2 L254.0,248.1 L254.5,248.0 L255.0,247.9 L255.5,247.9 L256.0,247.8 L256.5,247.7 L257.0,247.6 L257.5,247.5 L258.0,247.4 L258.5,247.3 L259.0,247.2 L259.5,247.1 L260.0,247.0 L260.5,246.9 L261.0,246.8 L261.5,246.7 L262.0,246.5 L262.5,246.4 L263.0,246.3 L263.5,246.1 L264.0,246.0 L264.5,245.9 L265.0,245.7 L265.5,245.6 L266.0,245.4 L266.5,245.2 L267.0,245.1 L267.5,244.9 L268.0,244.7 L268.5,244.6 L269.0,244.4 L269.5,244.2 L270.0,244.0 L270.5,243.8 L271.0,243.6 L271.5,243.3 L272.0,243.1 L272.5,242.9 L273.0,242.7 L273.5,242.4 L274.0,242.2 L274.5,241.9 L275.0,241.6 L275.5,241.4 L276.0,241.1 L276.5,240.8 L277.0,240.5 L277.5,240.2 L278.0,239.9 L278.5,239.6 L279.0,239.3 L279.5,239.0 L280.0,238.6 L280.5,238.3 L281.0,237.9 L281.5,237.5 L282.0,237.2 L282.5,236.8 L283.0,236.4 L283.5,236.0 L284.0,235.6 L284.5,235.1 L285.0,234.7 L285.5,234.3 L286.0,233.8 L286.5,233.4 L287.0,232.9 L287.5,232.4 L288.0,231.9 L288.5,231.4 L289.0,230.9 L289.5,230.3 L290.0,229.8 L290.5,229.3 L291.0,228.7 L291.5,228.1 L292.0,227.5 L292.5,226.9 L293.0,226.3 L293.5,225.7 L294.0,225.1 L294.5,224.4 L295.0,223.7 L295.5,223.1 L296.0,222.4 L296.5,221.7 L297.0,221.0 L297.5,220.2 L298.0,219.5 L298.5,218.8 L299.0,218.0 L299.5,217.2 L300.0,216.4 L300.5,215.6 L301.0,214.8 L301.5,213.9 L302.0,213.1 L302.5,212.2 L303.0,211.4 L303.5,210.5 L304.0,209.6 L304.5,208.6 L305.0,207.7 L305.5,206.8 L306.0,205.8 L306.5,204.8 L307.0,203.8 L307.5,202.8 L308.0,201.8 L308.5,200.8 L309.0,199.7 L309.5,198.7 L310.0,197.6 L310.5,196.5 L311.0,195.4 L311.5,194.3 L312.0,193.1 L312.5,192.0 L313.0,190.8 L313.5,189.7 L314.0,188.5 L314.5,187.3 L315.0,186.1 L315.5,184.8 L316.0,183.6 L316.5,182.3 L317.0,181.1 L317.5,179.8 L318.0,178.5 L318.5,177.2 L319.0,175.9 L319.5,174.6 L320.0,173.2 L320.5,171.9 L321.0,170.5 L321.5,169.2 L322.0,167.8 L322.5,166.4 L323.0,165.0 L323.5,163.6 L324.0,162.2 L324.5,160.7 L325.0,159.3 L325.5,157.9 L326.0,156.4 L326.5,154.9 L327.0,153.5 L327.5,152.0 L328.0,150.5 L328.5,149.0 L329.0,147.5 L329.5,146.0 L330.0,144.5 L330.5,143.0 L331.0,141.5 L331.5,140.0 L332.0,138.5 L332.5,137.0 L333.0,135.4 L333.5,133.9 L334.0,132.4 L334.5,130.8 L335.0,129.3 L335.5,127.8 L336.0,126.2 L336.5,124.7 L337.0,123.2 L337.5,121.7 L338.0,120.1 L338.5,118.6 L339.0,117.1 L339.5,115.6 L340.0,114.1 L340.5,112.6 L341.0,111.1 L341.5,109.6 L342.0,108.1 L342.5,106.6 L343.0,105.1 L343.5,103.7 L344.0,102.2 L344.5,100.8 L345.0,99.3 L345.5,97.9 L346.0,96.5 L346.5,95.1 L347.0,93.7 L347.5,92.3 L348.0,90.9 L348.5,89.6 L349.0,88.2 L349.5,86.9 L350.0,85.6 L350.5,84.3 L351.0,83.1 L351.5,81.8 L352.0,80.6 L352.5,79.3 L353.0,78.1 L353.5,76.9 L354.0,75.8 L354.5,74.6 L355.0,73.5 L355.5,72.4 L356.0,71.3 L356.5,70.3 L357.0,69.2 L357.5,68.2 L358.0,67.2 L358.5,66.2 L359.0,65.3 L359.5,64.4 L360.0,63.5 L360.5,62.6 L361.0,61.8 L361.5,61.0 L362.0,60.2 L362.5,59.4 L363.0,58.7 L363.5,58.0 L364.0,57.3 L364.5,56.7 L365.0,56.0 L365.5,55.4 L366.0,54.9 L366.5,54.3 L367.0,53.8 L367.5,53.4 L368.0,52.9 L368.5,52.5 L369.0,52.1 L369.5,51.8 L370.0,51.5 L370.5,51.2 L371.0,50.9 L371.5,50.7 L372.0,50.5 L372.5,50.3 L373.0,50.2 L373.5,50.1 L374.0,50.0 L374.5,50.0 L375.0,50.0 L375.5,50.0 L376.0,50.1 L376.5,50.2 L377.0,50.3 L377.5,50.5 L378.0,50.7 L378.5,50.9 L379.0,51.1 L379.5,51.4 L380.0,51.7 L380.5,52.1 L381.0,52.4 L381.5,52.8 L382.0,53.3 L382.5,53.7 L383.0,54.2 L383.5,54.8 L384.0,55.3 L384.5,55.9 L385.0,56.5 L385.5,57.2 L386.0,57.8 L386.5,58.5 L387.0,59.3 L387.5,60.0 L388.0,60.8 L388.5,61.6 L389.0,62.5 L389.5,63.3 L390.0,64.2 L390.5,65.1 L391.0,66.1 L391.5,67.0 L392.0,68.0 L392.5,69.0 L393.0,70.0 L393.5,71.1 L394.0,72.2 L394.5,73.3 L395.0,74.4 L395.5,75.5 L396.0,76.7 L396.5,77.9 L397.0,79.1 L397.5,80.3 L398.0,81.5 L398.5,82.8 L399.0,84.1 L399.5,85.4 L400.0,86.7 L400.5,88.0 L401.0,89.3 L401.5,90.7 L402.0,92.0 L402.5,93.4 L403.0,94.8 L403.5,96.2 L404.0,97.6 L404.5,99.0 L405.0,100.5 L405.5,101.9 L406.0,103.4 L406.5,104.8 L407.0,106.3 L407.5,107.8 L408.0,109.3 L408.5,110.8 L409.0,112.3 L409.5,113.8 L410.0,115.3 L410.5,116.8 L411.0,118.3 L411.5,119.8 L412.0,121.4 L412.5,122.9 L413.0,124.4 L413.5,125.9 L414.0,127.5 L414.5,129.0 L415.0,130.5 L415.5,132.1 L416.0,133.6 L416.5,135.1 L417.0,136.7 L417.5,138.2 L418.0,139.7 L418.5,141.2 L419.0,142.7 L419.5,144.2 L420.0,145.7 L420.5,147.2 L421.0,148.7 L421.5,150.2 L422.0,151.7 L422.5,153.2 L423.0,154.7 L423.5,156.1 L424.0,157.6 L424.5,159.0 L425.0,160.5 L425.5,161.9 L426.0,163.3 L426.5,164.7 L427.0,166.1 L427.5,167.5 L428.0,168.9 L428.5,170.3 L429.0,171.6 L429.5,173.0 L430.0,174.3 L430.5,175.6 L431.0,176.9 L431.5,178.3 L432.0,179.5 L432.5,180.8 L433.0,182.1 L433.5,183.3 L434.0,184.6 L434.5,185.8 L435.0,187.0 L435.5,188.2 L436.0,189.4 L436.5,190.6 L437.0,191.8 L437.5,192.9 L438.0,194.0 L438.5,195.2 L439.0,196.3 L439.5,197.4 L440.0,198.4 L440.5,199.5 L441.0,200.6 L441.5,201.6 L442.0,202.6 L442.5,203.6 L443.0,204.6 L443.5,205.6 L444.0,206.6 L444.5,207.5 L445.0,208.5 L445.5,209.4 L446.0,210.3 L446.5,211.2 L447.0,212.1 L447.5,212.9 L448.0,213.8 L448.5,214.6 L449.0,215.4 L449.5,216.3 L450.0,217.0 L450.5,217.8 L451.0,218.6 L451.5,219.4 L452.0,220.1 L452.5,220.8 L453.0,221.5 L453.5,222.2 L454.0,222.9 L454.5,223.6 L455.0,224.3 L455.5,224.9 L456.0,225.6 L456.5,226.2 L457.0,226.8 L457.5,227.4 L458.0,228.0 L458.5,228.6 L459.0,229.1 L459.5,229.7 L460.0,230.2 L460.5,230.8 L461.0,231.3 L461.5,231.8 L462.0,232.3 L462.5,232.8 L463.0,233.3 L463.5,233.7 L464.0,234.2 L464.5,234.6 L465.0,235.1 L465.5,235.5 L466.0,235.9 L466.5,236.3 L467.0,236.7 L467.5,237.1 L468.0,237.5 L468.5,237.8 L469.0,238.2 L469.5,238.5 L470.0,238.9 L470.5,239.2 L471.0,239.5 L471.5,239.9 L472.0,240.2 L472.5,240.5 L473.0,240.8 L473.5,241.0 L474.0,241.3 L474.5,241.6 L475.0,241.9 L475.5,242.1 L476.0,242.4 L476.5,242.6 L477.0,242.8 L477.5,243.1 L478.0,243.3 L478.5,243.5 L479.0,243.7 L479.5,243.9 L480.0,244.1 L480.5,244.3 L481.0,244.5 L481.5,244.7 L482.0,244.9 L482.5,245.0 L483.0,245.2 L483.5,245.4 L484.0,245.5 L484.5,245.7 L485.0,245.8 L485.5,246.0 L486.0,246.1 L486.5,246.3 L487.0,246.4 L487.5,246.5 L488.0,246.6 L488.5,246.8 L489.0,246.9 L489.5,247.0 L490.0,247.1 L490.5,247.2 L491.0,247.3 L491.5,247.4 L492.0,247.5 L492.5,247.6 L493.0,247.7 L493.5,247.8 L494.0,247.8 L494.5,247.9 L495.0,248.0 L495.5,248.1 L496.0,248.2 L496.5,248.2 L497.0,248.3 L497.5,248.4 L498.0,248.4 L498.5,248.5 L499.0,248.5 L499.5,248.6 L500.0,248.7 L500.5,248.7 L501.0,248.8 L501.5,248.8 L502.0,248.9 L502.5,248.9 L503.0,248.9 L503.5,249.0 L504.0,249.0 L504.5,249.1 L505.0,249.1 L505.5,249.1 L506.0,249.2 L506.5,249.2 L507.0,249.2 L507.5,249.3 L508.0,249.3 L508.5,249.3 L509.0,249.4 L509.5,249.4 L510.0,249.4 L510.5,249.4 L511.0,249.5 L511.5,249.5 L512.0,249.5 L512.5,249.5 L513.0,249.5 L513.5,249.6 L514.0,249.6 L514.5,249.6 L515.0,249.6 L515.5,249.6 L516.0,249.7 L516.5,249.7 L517.0,249.7 L517.5,249.7 L518.0,249.7 L518.5,249.7 L519.0,249.7 L519.5,249.7 L520.0,249.8 L520.5,249.8 L521.0,249.8 L521.5,249.8 L522.0,249.8 L522.5,249.8 L523.0,249.8 L523.5,249.8 L524.0,249.8 L524.5,249.8 L525.0,249.8 L525.5,249.9 L526.0,249.9 L526.5,249.9 L527.0,249.9 L527.5,249.9 L528.0,249.9 L528.5,249.9 L529.0,249.9 L529.5,249.9 L530.0,249.9 L530.5,249.9 L531.0,249.9 L531.5,249.9 L532.0,249.9 L532.5,249.9 L533.0,249.9 L533.5,249.9 L534.0,249.9 L534.5,249.9 L535.0,249.9 L535.5,249.9 L536.0,249.9 L536.5,250.0 L537.0,250.0 L537.5,250.0 L538.0,250.0 L538.5,250.0 L539.0,250.0 L539.5,250.0 L540.0,250.0 L540.5,250.0 L541.0,250.0 L541.5,250.0 L542.0,250.0 L542.5,250.0 L543.0,250.0 L543.5,250.0 L544.0,250.0 L544.5,250.0 L545.0,250.0 L545.5,250.0 L546.0,250.0 L546.5,250.0 L547.0,250.0 L547.5,250.0 L548.0,250.0 L548.5,250.0 L549.0,250.0 L549.5,250.0 L550.0,250.0 L550.5,250.0 L551.0,250.0 L551.5,250.0 L552.0,250.0 L552.5,250.0 L553.0,250.0 L553.5,250.0 L554.0,250.0 L554.5,250.0 L555.0,250.0 L555.5,250.0 L556.0,250.0 L556.5,250.0 L557.0,250.0 L557.5,250.0 L558.0,250.0 L558.5,250.0 L559.0,250.0 L559.5,250.0 L560.0,250.0 L560.5,250.0 L561.0,250.0 L561.5,250.0 L562.0,250.0 L562.5,250.0 L563.0,250.0 L563.5,250.0 L564.0,250.0 L564.5,250.0 L565.0,250.0 L565.5,250.0 L566.0,250.0 L566.5,250.0 L567.0,250.0 L567.5,250.0 L568.0,250.0 L568.5,250.0 L569.0,250.0 L569.5,250.0 L570.0,250.0 L570.5,250.0 L571.0,250.0 L571.5,250.0 L572.0,250.0 L572.5,250.0 L573.0,250.0 L573.5,250.0 L574.0,250.0 L574.5,250.0 L575.0,250.0 L575.5,250.0 L576.0,250.0 L576.5,250.0 L577.0,250.0 L577.5,250.0 L578.0,250.0 L578.5,250.0 L579.0,250.0 L579.5,250.0 L580.0,250.0 L580.5,250.0 L581.0,250.0 L581.5,250.0 L582.0,250.0 L582.5,250.0 L583.0,250.0 L583.5,250.0 L584.0,250.0 L584.5,250.0 L585.0,250.0 L585.5,250.0 L586.0,250.0 L586.5,250.0 L587.0,250.0 L587.5,250.0 L588.0,250.0 L588.5,250.0 L589.0,250.0 L589.5,250.0 L590.0,250.0 L590.5,250.0 L591.0,250.0 L591.5,250.0 L592.0,250.0 L592.5,250.0 L593.0,250.0 L593.5,250.0 L594.0,250.0 L594.5,250.0 L595.0,250.0 L595.5,250.0 L596.0,250.0 L596.5,250.0 L597.0,250.0 L597.5,250.0 L598.0,250.0 L598.5,250.0 L599.0,250.0 L599.5,250.0 L600.0,250.0 L600.5,250.0 L601.0,250.0 L601.5,250.0 L602.0,250.0 L602.5,250.0 L603.0,250.0 L603.5,250.0 L604.0,250.0 L604.5,250.0 L605.0,250.0 L605.5,250.0 L606.0,250.0 L606.5,250.0 L607.0,250.0 L607.5,250.0 L608.0,250.0 L608.5,250.0 L609.0,250.0 L609.5,250.0 L610.0,250.0" fill="none" class="s-accent" stroke-width="1.8" opacity="0.8"/><path d="M50.0,250.0 L50.5,250.0 L51.0,250.0 L51.5,250.0 L52.0,250.0 L52.5,250.0 L53.0,250.0 L53.5,250.0 L54.0,250.0 L54.5,250.0 L55.0,250.0 L55.5,250.0 L56.0,250.0 L56.5,250.0 L57.0,250.0 L57.5,250.0 L58.0,250.0 L58.5,250.0 L59.0,250.0 L59.5,250.0 L60.0,250.0 L60.5,250.0 L61.0,250.0 L61.5,250.0 L62.0,250.0 L62.5,250.0 L63.0,250.0 L63.5,250.0 L64.0,250.0 L64.5,250.0 L65.0,250.0 L65.5,250.0 L66.0,250.0 L66.5,250.0 L67.0,250.0 L67.5,250.0 L68.0,250.0 L68.5,250.0 L69.0,250.0 L69.5,250.0 L70.0,250.0 L70.5,250.0 L71.0,250.0 L71.5,250.0 L72.0,250.0 L72.5,250.0 L73.0,250.0 L73.5,250.0 L74.0,250.0 L74.5,250.0 L75.0,250.0 L75.5,250.0 L76.0,250.0 L76.5,250.0 L77.0,250.0 L77.5,250.0 L78.0,250.0 L78.5,250.0 L79.0,250.0 L79.5,250.0 L80.0,250.0 L80.5,250.0 L81.0,250.0 L81.5,250.0 L82.0,250.0 L82.5,250.0 L83.0,250.0 L83.5,250.0 L84.0,250.0 L84.5,250.0 L85.0,250.0 L85.5,250.0 L86.0,250.0 L86.5,250.0 L87.0,250.0 L87.5,250.0 L88.0,250.0 L88.5,250.0 L89.0,250.0 L89.5,250.0 L90.0,250.0 L90.5,250.0 L91.0,250.0 L91.5,250.0 L92.0,250.0 L92.5,250.0 L93.0,250.0 L93.5,250.0 L94.0,250.0 L94.5,250.0 L95.0,250.0 L95.5,250.0 L96.0,250.0 L96.5,250.0 L97.0,250.0 L97.5,250.0 L98.0,250.0 L98.5,250.0 L99.0,250.0 L99.5,250.0 L100.0,250.0 L100.5,250.0 L101.0,250.0 L101.5,250.0 L102.0,250.0 L102.5,250.0 L103.0,250.0 L103.5,250.0 L104.0,250.0 L104.5,250.0 L105.0,250.0 L105.5,250.0 L106.0,250.0 L106.5,250.0 L107.0,250.0 L107.5,250.0 L108.0,250.0 L108.5,250.0 L109.0,250.0 L109.5,250.0 L110.0,250.0 L110.5,250.0 L111.0,250.0 L111.5,250.0 L112.0,250.0 L112.5,250.0 L113.0,250.0 L113.5,250.0 L114.0,250.0 L114.5,250.0 L115.0,250.0 L115.5,250.0 L116.0,250.0 L116.5,250.0 L117.0,250.0 L117.5,250.0 L118.0,250.0 L118.5,250.0 L119.0,250.0 L119.5,250.0 L120.0,250.0 L120.5,250.0 L121.0,250.0 L121.5,250.0 L122.0,250.0 L122.5,250.0 L123.0,250.0 L123.5,250.0 L124.0,250.0 L124.5,250.0 L125.0,250.0 L125.5,250.0 L126.0,250.0 L126.5,250.0 L127.0,250.0 L127.5,250.0 L128.0,250.0 L128.5,250.0 L129.0,250.0 L129.5,250.0 L130.0,250.0 L130.5,250.0 L131.0,250.0 L131.5,250.0 L132.0,250.0 L132.5,250.0 L133.0,250.0 L133.5,250.0 L134.0,250.0 L134.5,250.0 L135.0,250.0 L135.5,250.0 L136.0,250.0 L136.5,250.0 L137.0,250.0 L137.5,250.0 L138.0,250.0 L138.5,250.0 L139.0,250.0 L139.5,250.0 L140.0,250.0 L140.5,250.0 L141.0,250.0 L141.5,250.0 L142.0,250.0 L142.5,250.0 L143.0,250.0 L143.5,250.0 L144.0,250.0 L144.5,250.0 L145.0,250.0 L145.5,250.0 L146.0,250.0 L146.5,250.0 L147.0,250.0 L147.5,250.0 L148.0,250.0 L148.5,250.0 L149.0,250.0 L149.5,250.0 L150.0,250.0 L150.5,250.0 L151.0,250.0 L151.5,250.0 L152.0,250.0 L152.5,250.0 L153.0,250.0 L153.5,250.0 L154.0,250.0 L154.5,250.0 L155.0,250.0 L155.5,250.0 L156.0,250.0 L156.5,250.0 L157.0,250.0 L157.5,250.0 L158.0,250.0 L158.5,250.0 L159.0,250.0 L159.5,250.0 L160.0,250.0 L160.5,250.0 L161.0,250.0 L161.5,250.0 L162.0,250.0 L162.5,250.0 L163.0,250.0 L163.5,250.0 L164.0,250.0 L164.5,250.0 L165.0,250.0 L165.5,250.0 L166.0,250.0 L166.5,250.0 L167.0,250.0 L167.5,250.0 L168.0,250.0 L168.5,250.0 L169.0,250.0 L169.5,250.0 L170.0,250.0 L170.5,250.0 L171.0,250.0 L171.5,250.0 L172.0,250.0 L172.5,250.0 L173.0,250.0 L173.5,250.0 L174.0,250.0 L174.5,250.0 L175.0,250.0 L175.5,250.0 L176.0,250.0 L176.5,250.0 L177.0,250.0 L177.5,250.0 L178.0,250.0 L178.5,250.0 L179.0,250.0 L179.5,250.0 L180.0,250.0 L180.5,250.0 L181.0,250.0 L181.5,250.0 L182.0,250.0 L182.5,250.0 L183.0,250.0 L183.5,250.0 L184.0,250.0 L184.5,250.0 L185.0,250.0 L185.5,250.0 L186.0,250.0 L186.5,250.0 L187.0,250.0 L187.5,250.0 L188.0,250.0 L188.5,250.0 L189.0,250.0 L189.5,250.0 L190.0,250.0 L190.5,250.0 L191.0,250.0 L191.5,250.0 L192.0,250.0 L192.5,250.0 L193.0,250.0 L193.5,250.0 L194.0,250.0 L194.5,250.0 L195.0,250.0 L195.5,250.0 L196.0,250.0 L196.5,250.0 L197.0,250.0 L197.5,250.0 L198.0,250.0 L198.5,250.0 L199.0,250.0 L199.5,250.0 L200.0,250.0 L200.5,250.0 L201.0,250.0 L201.5,250.0 L202.0,250.0 L202.5,250.0 L203.0,250.0 L203.5,250.0 L204.0,250.0 L204.5,250.0 L205.0,250.0 L205.5,250.0 L206.0,250.0 L206.5,250.0 L207.0,250.0 L207.5,250.0 L208.0,250.0 L208.5,250.0 L209.0,250.0 L209.5,250.0 L210.0,250.0 L210.5,250.0 L211.0,250.0 L211.5,250.0 L212.0,250.0 L212.5,250.0 L213.0,250.0 L213.5,250.0 L214.0,250.0 L214.5,250.0 L215.0,250.0 L215.5,250.0 L216.0,250.0 L216.5,250.0 L217.0,250.0 L217.5,250.0 L218.0,250.0 L218.5,250.0 L219.0,250.0 L219.5,250.0 L220.0,250.0 L220.5,250.0 L221.0,250.0 L221.5,250.0 L222.0,250.0 L222.5,250.0 L223.0,250.0 L223.5,250.0 L224.0,250.0 L224.5,250.0 L225.0,250.0 L225.5,250.0 L226.0,250.0 L226.5,250.0 L227.0,250.0 L227.5,250.0 L228.0,250.0 L228.5,250.0 L229.0,250.0 L229.5,250.0 L230.0,250.0 L230.5,250.0 L231.0,250.0 L231.5,250.0 L232.0,250.0 L232.5,250.0 L233.0,250.0 L233.5,250.0 L234.0,250.0 L234.5,250.0 L235.0,250.0 L235.5,250.0 L236.0,250.0 L236.5,250.0 L237.0,250.0 L237.5,250.0 L238.0,250.0 L238.5,250.0 L239.0,250.0 L239.5,250.0 L240.0,250.0 L240.5,250.0 L241.0,250.0 L241.5,250.0 L242.0,250.0 L242.5,250.0 L243.0,250.0 L243.5,250.0 L244.0,250.0 L244.5,250.0 L245.0,250.0 L245.5,250.0 L246.0,250.0 L246.5,250.0 L247.0,250.0 L247.5,250.0 L248.0,250.0 L248.5,250.0 L249.0,250.0 L249.5,250.0 L250.0,250.0 L250.5,250.0 L251.0,250.0 L251.5,250.0 L252.0,250.0 L252.5,250.0 L253.0,250.0 L253.5,250.0 L254.0,250.0 L254.5,250.0 L255.0,250.0 L255.5,250.0 L256.0,250.0 L256.5,250.0 L257.0,250.0 L257.5,250.0 L258.0,250.0 L258.5,250.0 L259.0,250.0 L259.5,250.0 L260.0,250.0 L260.5,250.0 L261.0,250.0 L261.5,250.0 L262.0,250.0 L262.5,250.0 L263.0,250.0 L263.5,250.0 L264.0,250.0 L264.5,250.0 L265.0,250.0 L265.5,250.0 L266.0,250.0 L266.5,250.0 L267.0,250.0 L267.5,250.0 L268.0,250.0 L268.5,250.0 L269.0,250.0 L269.5,250.0 L270.0,250.0 L270.5,250.0 L271.0,250.0 L271.5,250.0 L272.0,250.0 L272.5,250.0 L273.0,250.0 L273.5,250.0 L274.0,250.0 L274.5,250.0 L275.0,250.0 L275.5,250.0 L276.0,250.0 L276.5,250.0 L277.0,250.0 L277.5,250.0 L278.0,250.0 L278.5,250.0 L279.0,250.0 L279.5,250.0 L280.0,250.0 L280.5,250.0 L281.0,250.0 L281.5,250.0 L282.0,250.0 L282.5,250.0 L283.0,250.0 L283.5,250.0 L284.0,250.0 L284.5,250.0 L285.0,250.0 L285.5,250.0 L286.0,250.0 L286.5,250.0 L287.0,250.0 L287.5,250.0 L288.0,250.0 L288.5,250.0 L289.0,250.0 L289.5,250.0 L290.0,250.0 L290.5,250.0 L291.0,250.0 L291.5,250.0 L292.0,250.0 L292.5,250.0 L293.0,250.0 L293.5,250.0 L294.0,250.0 L294.5,250.0 L295.0,250.0 L295.5,250.0 L296.0,250.0 L296.5,250.0 L297.0,250.0 L297.5,250.0 L298.0,250.0 L298.5,250.0 L299.0,250.0 L299.5,250.0 L300.0,250.0 L300.5,250.0 L301.0,250.0 L301.5,250.0 L302.0,250.0 L302.5,250.0 L303.0,250.0 L303.5,250.0 L304.0,250.0 L304.5,250.0 L305.0,250.0 L305.5,250.0 L306.0,250.0 L306.5,250.0 L307.0,250.0 L307.5,250.0 L308.0,250.0 L308.5,250.0 L309.0,250.0 L309.5,250.0 L310.0,250.0 L310.5,249.9 L311.0,249.9 L311.5,249.9 L312.0,249.9 L312.5,249.9 L313.0,249.9 L313.5,249.9 L314.0,249.9 L314.5,249.9 L315.0,249.8 L315.5,249.8 L316.0,249.8 L316.5,249.8 L317.0,249.7 L317.5,249.7 L318.0,249.7 L318.5,249.6 L319.0,249.6 L319.5,249.5 L320.0,249.5 L320.5,249.4 L321.0,249.4 L321.5,249.3 L322.0,249.2 L322.5,249.1 L323.0,249.0 L323.5,248.9 L324.0,248.8 L324.5,248.7 L325.0,248.6 L325.5,248.4 L326.0,248.3 L326.5,248.1 L327.0,247.9 L327.5,247.7 L328.0,247.5 L328.5,247.2 L329.0,246.9 L329.5,246.7 L330.0,246.3 L330.5,246.0 L331.0,245.6 L331.5,245.2 L332.0,244.8 L332.5,244.3 L333.0,243.9 L333.5,243.3 L334.0,242.8 L334.5,242.1 L335.0,241.5 L335.5,240.8 L336.0,240.0 L336.5,239.3 L337.0,238.4 L337.5,237.5 L338.0,236.5 L338.5,235.5 L339.0,234.5 L339.5,233.3 L340.0,232.1 L340.5,230.8 L341.0,229.5 L341.5,228.1 L342.0,226.6 L342.5,225.0 L343.0,223.3 L343.5,221.6 L344.0,219.8 L344.5,217.9 L345.0,215.9 L345.5,213.9 L346.0,211.7 L346.5,209.5 L347.0,207.1 L347.5,204.7 L348.0,202.2 L348.5,199.6 L349.0,196.9 L349.5,194.2 L350.0,191.3 L350.5,188.3 L351.0,185.3 L351.5,182.2 L352.0,179.0 L352.5,175.8 L353.0,172.4 L353.5,169.0 L354.0,165.6 L354.5,162.0 L355.0,158.4 L355.5,154.8 L356.0,151.1 L356.5,147.4 L357.0,143.6 L357.5,139.9 L358.0,136.0 L358.5,132.2 L359.0,128.4 L359.5,124.6 L360.0,120.7 L360.5,116.9 L361.0,113.2 L361.5,109.4 L362.0,105.7 L362.5,102.1 L363.0,98.5 L363.5,94.9 L364.0,91.5 L364.5,88.1 L365.0,84.8 L365.5,81.7 L366.0,78.6 L366.5,75.7 L367.0,72.8 L367.5,70.2 L368.0,67.6 L368.5,65.2 L369.0,63.0 L369.5,60.9 L370.0,59.0 L370.5,57.2 L371.0,55.7 L371.5,54.3 L372.0,53.1 L372.5,52.1 L373.0,51.3 L373.5,50.7 L374.0,50.3 L374.5,50.0 L375.0,50.0 L375.5,50.2 L376.0,50.6 L376.5,51.1 L377.0,51.9 L377.5,52.9 L378.0,54.0 L378.5,55.4 L379.0,56.9 L379.5,58.6 L380.0,60.5 L380.5,62.5 L381.0,64.7 L381.5,67.1 L382.0,69.6 L382.5,72.3 L383.0,75.1 L383.5,78.0 L384.0,81.0 L384.5,84.2 L385.0,87.5 L385.5,90.8 L386.0,94.2 L386.5,97.8 L387.0,101.3 L387.5,105.0 L388.0,108.7 L388.5,112.4 L389.0,116.2 L389.5,120.0 L390.0,123.8 L390.5,127.6 L391.0,131.5 L391.5,135.3 L392.0,139.1 L392.5,142.9 L393.0,146.6 L393.5,150.4 L394.0,154.1 L394.5,157.7 L395.0,161.3 L395.5,164.9 L396.0,168.3 L396.5,171.8 L397.0,175.1 L397.5,178.4 L398.0,181.6 L398.5,184.7 L399.0,187.8 L399.5,190.7 L400.0,193.6 L400.5,196.4 L401.0,199.1 L401.5,201.7 L402.0,204.2 L402.5,206.7 L403.0,209.0 L403.5,211.3 L404.0,213.4 L404.5,215.5 L405.0,217.5 L405.5,219.4 L406.0,221.3 L406.5,223.0 L407.0,224.7 L407.5,226.3 L408.0,227.8 L408.5,229.2 L409.0,230.6 L409.5,231.9 L410.0,233.1 L410.5,234.2 L411.0,235.3 L411.5,236.3 L412.0,237.3 L412.5,238.2 L413.0,239.1 L413.5,239.9 L414.0,240.6 L414.5,241.4 L415.0,242.0 L415.5,242.6 L416.0,243.2 L416.5,243.7 L417.0,244.3 L417.5,244.7 L418.0,245.2 L418.5,245.6 L419.0,245.9 L419.5,246.3 L420.0,246.6 L420.5,246.9 L421.0,247.2 L421.5,247.4 L422.0,247.6 L422.5,247.9 L423.0,248.0 L423.5,248.2 L424.0,248.4 L424.5,248.5 L425.0,248.7 L425.5,248.8 L426.0,248.9 L426.5,249.0 L427.0,249.1 L427.5,249.2 L428.0,249.3 L428.5,249.4 L429.0,249.4 L429.5,249.5 L430.0,249.5 L430.5,249.6 L431.0,249.6 L431.5,249.7 L432.0,249.7 L432.5,249.7 L433.0,249.8 L433.5,249.8 L434.0,249.8 L434.5,249.8 L435.0,249.9 L435.5,249.9 L436.0,249.9 L436.5,249.9 L437.0,249.9 L437.5,249.9 L438.0,249.9 L438.5,249.9 L439.0,249.9 L439.5,250.0 L440.0,250.0 L440.5,250.0 L441.0,250.0 L441.5,250.0 L442.0,250.0 L442.5,250.0 L443.0,250.0 L443.5,250.0 L444.0,250.0 L444.5,250.0 L445.0,250.0 L445.5,250.0 L446.0,250.0 L446.5,250.0 L447.0,250.0 L447.5,250.0 L448.0,250.0 L448.5,250.0 L449.0,250.0 L449.5,250.0 L450.0,250.0 L450.5,250.0 L451.0,250.0 L451.5,250.0 L452.0,250.0 L452.5,250.0 L453.0,250.0 L453.5,250.0 L454.0,250.0 L454.5,250.0 L455.0,250.0 L455.5,250.0 L456.0,250.0 L456.5,250.0 L457.0,250.0 L457.5,250.0 L458.0,250.0 L458.5,250.0 L459.0,250.0 L459.5,250.0 L460.0,250.0 L460.5,250.0 L461.0,250.0 L461.5,250.0 L462.0,250.0 L462.5,250.0 L463.0,250.0 L463.5,250.0 L464.0,250.0 L464.5,250.0 L465.0,250.0 L465.5,250.0 L466.0,250.0 L466.5,250.0 L467.0,250.0 L467.5,250.0 L468.0,250.0 L468.5,250.0 L469.0,250.0 L469.5,250.0 L470.0,250.0 L470.5,250.0 L471.0,250.0 L471.5,250.0 L472.0,250.0 L472.5,250.0 L473.0,250.0 L473.5,250.0 L474.0,250.0 L474.5,250.0 L475.0,250.0 L475.5,250.0 L476.0,250.0 L476.5,250.0 L477.0,250.0 L477.5,250.0 L478.0,250.0 L478.5,250.0 L479.0,250.0 L479.5,250.0 L480.0,250.0 L480.5,250.0 L481.0,250.0 L481.5,250.0 L482.0,250.0 L482.5,250.0 L483.0,250.0 L483.5,250.0 L484.0,250.0 L484.5,250.0 L485.0,250.0 L485.5,250.0 L486.0,250.0 L486.5,250.0 L487.0,250.0 L487.5,250.0 L488.0,250.0 L488.5,250.0 L489.0,250.0 L489.5,250.0 L490.0,250.0 L490.5,250.0 L491.0,250.0 L491.5,250.0 L492.0,250.0 L492.5,250.0 L493.0,250.0 L493.5,250.0 L494.0,250.0 L494.5,250.0 L495.0,250.0 L495.5,250.0 L496.0,250.0 L496.5,250.0 L497.0,250.0 L497.5,250.0 L498.0,250.0 L498.5,250.0 L499.0,250.0 L499.5,250.0 L500.0,250.0 L500.5,250.0 L501.0,250.0 L501.5,250.0 L502.0,250.0 L502.5,250.0 L503.0,250.0 L503.5,250.0 L504.0,250.0 L504.5,250.0 L505.0,250.0 L505.5,250.0 L506.0,250.0 L506.5,250.0 L507.0,250.0 L507.5,250.0 L508.0,250.0 L508.5,250.0 L509.0,250.0 L509.5,250.0 L510.0,250.0 L510.5,250.0 L511.0,250.0 L511.5,250.0 L512.0,250.0 L512.5,250.0 L513.0,250.0 L513.5,250.0 L514.0,250.0 L514.5,250.0 L515.0,250.0 L515.5,250.0 L516.0,250.0 L516.5,250.0 L517.0,250.0 L517.5,250.0 L518.0,250.0 L518.5,250.0 L519.0,250.0 L519.5,250.0 L520.0,250.0 L520.5,250.0 L521.0,250.0 L521.5,250.0 L522.0,250.0 L522.5,250.0 L523.0,250.0 L523.5,250.0 L524.0,250.0 L524.5,250.0 L525.0,250.0 L525.5,250.0 L526.0,250.0 L526.5,250.0 L527.0,250.0 L527.5,250.0 L528.0,250.0 L528.5,250.0 L529.0,250.0 L529.5,250.0 L530.0,250.0 L530.5,250.0 L531.0,250.0 L531.5,250.0 L532.0,250.0 L532.5,250.0 L533.0,250.0 L533.5,250.0 L534.0,250.0 L534.5,250.0 L535.0,250.0 L535.5,250.0 L536.0,250.0 L536.5,250.0 L537.0,250.0 L537.5,250.0 L538.0,250.0 L538.5,250.0 L539.0,250.0 L539.5,250.0 L540.0,250.0 L540.5,250.0 L541.0,250.0 L541.5,250.0 L542.0,250.0 L542.5,250.0 L543.0,250.0 L543.5,250.0 L544.0,250.0 L544.5,250.0 L545.0,250.0 L545.5,250.0 L546.0,250.0 L546.5,250.0 L547.0,250.0 L547.5,250.0 L548.0,250.0 L548.5,250.0 L549.0,250.0 L549.5,250.0 L550.0,250.0 L550.5,250.0 L551.0,250.0 L551.5,250.0 L552.0,250.0 L552.5,250.0 L553.0,250.0 L553.5,250.0 L554.0,250.0 L554.5,250.0 L555.0,250.0 L555.5,250.0 L556.0,250.0 L556.5,250.0 L557.0,250.0 L557.5,250.0 L558.0,250.0 L558.5,250.0 L559.0,250.0 L559.5,250.0 L560.0,250.0 L560.5,250.0 L561.0,250.0 L561.5,250.0 L562.0,250.0 L562.5,250.0 L563.0,250.0 L563.5,250.0 L564.0,250.0 L564.5,250.0 L565.0,250.0 L565.5,250.0 L566.0,250.0 L566.5,250.0 L567.0,250.0 L567.5,250.0 L568.0,250.0 L568.5,250.0 L569.0,250.0 L569.5,250.0 L570.0,250.0 L570.5,250.0 L571.0,250.0 L571.5,250.0 L572.0,250.0 L572.5,250.0 L573.0,250.0 L573.5,250.0 L574.0,250.0 L574.5,250.0 L575.0,250.0 L575.5,250.0 L576.0,250.0 L576.5,250.0 L577.0,250.0 L577.5,250.0 L578.0,250.0 L578.5,250.0 L579.0,250.0 L579.5,250.0 L580.0,250.0 L580.5,250.0 L581.0,250.0 L581.5,250.0 L582.0,250.0 L582.5,250.0 L583.0,250.0 L583.5,250.0 L584.0,250.0 L584.5,250.0 L585.0,250.0 L585.5,250.0 L586.0,250.0 L586.5,250.0 L587.0,250.0 L587.5,250.0 L588.0,250.0 L588.5,250.0 L589.0,250.0 L589.5,250.0 L590.0,250.0 L590.5,250.0 L591.0,250.0 L591.5,250.0 L592.0,250.0 L592.5,250.0 L593.0,250.0 L593.5,250.0 L594.0,250.0 L594.5,250.0 L595.0,250.0 L595.5,250.0 L596.0,250.0 L596.5,250.0 L597.0,250.0 L597.5,250.0 L598.0,250.0 L598.5,250.0 L599.0,250.0 L599.5,250.0 L600.0,250.0 L600.5,250.0 L601.0,250.0 L601.5,250.0 L602.0,250.0 L602.5,250.0 L603.0,250.0 L603.5,250.0 L604.0,250.0 L604.5,250.0 L605.0,250.0 L605.5,250.0 L606.0,250.0 L606.5,250.0 L607.0,250.0 L607.5,250.0 L608.0,250.0 L608.5,250.0 L609.0,250.0 L609.5,250.0 L610.0,250.0" fill="none" class="s-accent" stroke-width="1.8" opacity="1.0"/><path d="M61.2,50.0 L598.8,50.0" fill="none" class="s-line" stroke-width="1.0" stroke-dasharray="3 4"/><text x="66.8" y="44.0" font-size="12">value at center = b, invariant in σ</text><text x="70" y="108.9" font-size="12" class="amber">wide rival, equal bid</text><line x1="50.0" y1="262" x2="326.0" y2="262" class="s-amber" stroke-width="4" opacity="0.5"/><line x1="600.0" y1="262" x2="610.0" y2="262" class="s-amber" stroke-width="4" opacity="0.5"/><line x1="326.0" y1="262" x2="599.5" y2="262" class="s-accent" stroke-width="4" opacity="0.3"/><line x1="345.0" y1="262" x2="432.0" y2="262" class="s-accent" stroke-width="4" opacity="0.55"/><line x1="359.5" y1="262" x2="395.5" y2="262" class="s-accent" stroke-width="4" opacity="0.8"/><line x1="368.5" y1="262" x2="382.0" y2="262" class="s-accent" stroke-width="4" opacity="1.0"/><text x="374.8" y="277" font-size="12" text-anchor="middle" class="accent">σ → 0</text></svg>
