<svg xmlns="http://www.w3.org/2000/svg" viewBox="0 0 640 300" width="640" height="300" aria-label="Three score parabolas and their upper envelope partitioning the embedding axis into winning intervals"><style>text{font-family:ui-monospace,Menlo,monospace;fill:#334155;}.dark{fill:#1c1917}.muted{fill:#64748b}.accent{fill:#3b82f6}.green{fill:#16a34a}.amber{fill:#d97706}.red{fill:#ef4444}.s-neutral{stroke:#64748b}.s-line{stroke:#94a3b8}.s-accent{stroke:#3b82f6}.s-green{stroke:#16a34a}.s-amber{stroke:#d97706}.s-red{stroke:#dc2626}</style><path d="M50.0,52.2 L53.5,51.5 L57.0,50.8 L60.5,50.1 L64.0,49.4 L67.5,48.7 L71.0,48.1 L74.5,47.4 L78.0,46.9 L81.5,46.3 L85.0,45.7 L88.5,45.2 L92.0,44.7 L95.5,44.2 L99.0,43.7 L102.5,43.3 L106.0,42.8 L109.5,42.4 L113.0,42.1 L116.5,41.7 L120.0,41.4 L123.5,41.0 L127.0,40.7 L130.5,40.5 L134.0,40.2 L137.5,40.0 L141.0,39.8 L144.5,39.6 L148.0,39.4 L151.5,39.3 L155.0,39.2 L158.5,39.1 L162.0,39.0 L165.5,38.9 L169.0,38.9 L172.5,38.9 L176.0,38.9 L179.5,38.9 L183.0,38.9 L186.5,39.0 L190.0,39.1 L193.5,39.2 L197.0,39.4 L200.5,39.5 L204.0,39.7 L207.5,39.9 L211.0,40.1 L214.5,40.4 L218.0,40.6 L221.5,40.9 L225.0,41.2 L228.5,41.6 L232.0,41.9 L235.5,42.3 L239.0,42.7 L242.5,43.1 L246.0,43.5 L249.5,44.0 L253.0,44.5 L256.5,45.0 L260.0,45.5 L263.5,46.1 L267.0,46.6 L270.5,47.2 L274.0,47.8 L277.5,48.5 L281.0,49.1 L284.5,49.8 L288.0,50.5 L291.5,51.2 L295.0,51.9 L298.5,52.7 L302.0,53.5 L305.5,54.3 L309.0,55.1 L312.5,56.0 L316.0,56.8 L319.5,57.7 L323.0,58.6 L326.5,59.6 L330.0,60.5 L333.5,61.5 L337.0,62.5 L340.5,63.5 L344.0,64.6 L347.5,65.6 L351.0,66.7 L354.5,67.8 L358.0,69.0 L361.5,70.1 L365.0,71.3 L368.5,72.5 L372.0,73.7 L375.5,74.9 L379.0,76.2 L382.5,77.5 L386.0,78.8 L389.5,80.1 L393.0,81.4 L396.5,82.8 L400.0,84.2 L403.5,85.6 L407.0,87.0 L410.5,88.5 L414.0,90.0 L417.5,91.5 L421.0,93.0 L424.5,94.5 L428.0,96.1 L431.5,97.7 L435.0,99.3 L438.5,100.9 L442.0,102.5 L445.5,104.2 L449.0,105.9 L452.5,107.6 L456.0,109.3 L459.5,111.1 L463.0,112.9 L466.5,114.7 L470.0,116.5 L473.5,118.3 L477.0,120.2 L480.5,122.1 L484.0,124.0 L487.5,125.9 L491.0,127.9 L494.5,129.8 L498.0,131.8 L501.5,133.8 L505.0,135.9 L508.5,137.9 L512.0,140.0 L515.5,142.1 L519.0,144.2 L522.5,146.4 L526.0,148.5 L529.5,150.7 L533.0,152.9 L536.5,155.2 L540.0,157.4 L543.5,159.7 L547.0,162.0 L550.5,164.3 L554.0,166.6 L557.5,169.0 L561.0,171.4 L564.5,173.8 L568.0,176.2 L571.5,178.7 L575.0,181.1 L578.5,183.6 L582.0,186.1 L585.5,188.7 L589.0,191.2 L592.5,193.8 L596.0,196.4 L599.5,199.0 L603.0,201.6 L606.5,204.3 L610.0,207.0" fill="none" class="s-accent" stroke-width="1.0" opacity="0.45"/><path d="M50.0,207.2 L53.5,203.1 L57.0,199.1 L60.5,195.1 L64.0,191.1 L67.5,187.3 L71.0,183.4 L74.5,179.6 L78.0,175.9 L81.5,172.2 L85.0,168.6 L88.5,165.0 L92.0,161.4 L95.5,158.0 L99.0,154.5 L102.5,151.2 L106.0,147.8 L109.5,144.6 L113.0,141.3 L116.5,138.2 L120.0,135.0 L123.5,132.0 L127.0,129.0 L130.5,126.0 L134.0,123.1 L137.5,120.2 L141.0,117.4 L144.5,114.7 L148.0,111.9 L151.5,109.3 L155.0,106.7 L158.5,104.1 L162.0,101.6 L165.5,99.2 L169.0,96.8 L172.5,94.4 L176.0,92.1 L179.5,89.9 L183.0,87.7 L186.5,85.6 L190.0,83.5 L193.5,81.4 L197.0,79.5 L200.5,77.5 L204.0,75.6 L207.5,73.8 L211.0,72.0 L214.5,70.3 L218.0,68.6 L221.5,67.0 L225.0,65.4 L228.5,63.9 L232.0,62.4 L235.5,61.0 L239.0,59.7 L242.5,58.3 L246.0,57.1 L249.5,55.9 L253.0,54.7 L256.5,53.6 L260.0,52.5 L263.5,51.5 L267.0,50.6 L270.5,49.7 L274.0,48.8 L277.5,48.0 L281.0,47.3 L284.5,46.6 L288.0,45.9 L291.5,45.4 L295.0,44.8 L298.5,44.3 L302.0,43.9 L305.5,43.5 L309.0,43.2 L312.5,42.9 L316.0,42.6 L319.5,42.5 L323.0,42.3 L326.5,42.3 L330.0,42.2 L333.5,42.3 L337.0,42.3 L340.5,42.5 L344.0,42.6 L347.5,42.9 L351.0,43.2 L354.5,43.5 L358.0,43.9 L361.5,44.3 L365.0,44.8 L368.5,45.4 L372.0,45.9 L375.5,46.6 L379.0,47.3 L382.5,48.0 L386.0,48.8 L389.5,49.7 L393.0,50.6 L396.5,51.5 L400.0,52.5 L403.5,53.6 L407.0,54.7 L410.5,55.9 L414.0,57.1 L417.5,58.3 L421.0,59.7 L424.5,61.0 L428.0,62.4 L431.5,63.9 L435.0,65.4 L438.5,67.0 L442.0,68.6 L445.5,70.3 L449.0,72.0 L452.5,73.8 L456.0,75.6 L459.5,77.5 L463.0,79.5 L466.5,81.4 L470.0,83.5 L473.5,85.6 L477.0,87.7 L480.5,89.9 L484.0,92.1 L487.5,94.4 L491.0,96.8 L494.5,99.2 L498.0,101.6 L501.5,104.1 L505.0,106.7 L508.5,109.3 L512.0,111.9 L515.5,114.7 L519.0,117.4 L522.5,120.2 L526.0,123.1 L529.5,126.0 L533.0,129.0 L536.5,132.0 L540.0,135.0 L543.5,138.2 L547.0,141.3 L550.5,144.6 L554.0,147.8 L557.5,151.2 L561.0,154.5 L564.5,158.0 L568.0,161.4 L571.5,165.0 L575.0,168.6 L578.5,172.2 L582.0,175.9 L585.5,179.6 L589.0,183.4 L592.5,187.3 L596.0,191.1 L599.5,195.1 L603.0,199.1 L606.5,203.1 L610.0,207.2" fill="none" class="s-green" stroke-width="1.0" opacity="0.45"/><path d="M50.0,148.9 L53.5,147.1 L57.0,145.3 L60.5,143.6 L64.0,141.8 L67.5,140.1 L71.0,138.3 L74.5,136.6 L78.0,134.9 L81.5,133.2 L85.0,131.5 L88.5,129.9 L92.0,128.2 L95.5,126.6 L99.0,125.0 L102.5,123.4 L106.0,121.8 L109.5,120.2 L113.0,118.6 L116.5,117.1 L120.0,115.6 L123.5,114.0 L127.0,112.5 L130.5,111.0 L134.0,109.6 L137.5,108.1 L141.0,106.6 L144.5,105.2 L148.0,103.8 L151.5,102.4 L155.0,101.0 L158.5,99.6 L162.0,98.2 L165.5,96.9 L169.0,95.5 L172.5,94.2 L176.0,92.9 L179.5,91.6 L183.0,90.3 L186.5,89.1 L190.0,87.8 L193.5,86.6 L197.0,85.4 L200.5,84.1 L204.0,83.0 L207.5,81.8 L211.0,80.6 L214.5,79.5 L218.0,78.3 L221.5,77.2 L225.0,76.1 L228.5,75.0 L232.0,73.9 L235.5,72.8 L239.0,71.8 L242.5,70.7 L246.0,69.7 L249.5,68.7 L253.0,67.7 L256.5,66.7 L260.0,65.8 L263.5,64.8 L267.0,63.9 L270.5,62.9 L274.0,62.0 L277.5,61.1 L281.0,60.2 L284.5,59.4 L288.0,58.5 L291.5,57.7 L295.0,56.8 L298.5,56.0 L302.0,55.2 L305.5,54.4 L309.0,53.7 L312.5,52.9 L316.0,52.2 L319.5,51.4 L323.0,50.7 L326.5,50.0 L330.0,49.3 L333.5,48.7 L337.0,48.0 L340.5,47.4 L344.0,46.7 L347.5,46.1 L351.0,45.5 L354.5,44.9 L358.0,44.4 L361.5,43.8 L365.0,43.3 L368.5,42.7 L372.0,42.2 L375.5,41.7 L379.0,41.2 L382.5,40.7 L386.0,40.3 L389.5,39.8 L393.0,39.4 L396.5,39.0 L400.0,38.6 L403.5,38.2 L407.0,37.8 L410.5,37.5 L414.0,37.1 L417.5,36.8 L421.0,36.5 L424.5,36.2 L428.0,35.9 L431.5,35.6 L435.0,35.3 L438.5,35.1 L442.0,34.9 L445.5,34.6 L449.0,34.4 L452.5,34.2 L456.0,34.1 L459.5,33.9 L463.0,33.7 L466.5,33.6 L470.0,33.5 L473.5,33.4 L477.0,33.3 L480.5,33.2 L484.0,33.2 L487.5,33.1 L491.0,33.1 L494.5,33.0 L498.0,33.0 L501.5,33.0 L505.0,33.1 L508.5,33.1 L512.0,33.2 L515.5,33.2 L519.0,33.3 L522.5,33.4 L526.0,33.5 L529.5,33.6 L533.0,33.7 L536.5,33.9 L540.0,34.1 L543.5,34.2 L547.0,34.4 L550.5,34.6 L554.0,34.9 L557.5,35.1 L561.0,35.3 L564.5,35.6 L568.0,35.9 L571.5,36.2 L575.0,36.5 L578.5,36.8 L582.0,37.1 L585.5,37.5 L589.0,37.8 L592.5,38.2 L596.0,38.6 L599.5,39.0 L603.0,39.4 L606.5,39.8 L610.0,40.3" fill="none" class="s-amber" stroke-width="1.0" opacity="0.45"/><path d="M50.0,52.2 L53.5,51.5 L57.0,50.8 L60.5,50.1 L64.0,49.4 L67.5,48.7 L71.0,48.1 L74.5,47.4 L78.0,46.9 L81.5,46.3 L85.0,45.7 L88.5,45.2 L92.0,44.7 L95.5,44.2 L99.0,43.7 L102.5,43.3 L106.0,42.8 L109.5,42.4 L113.0,42.1 L116.5,41.7 L120.0,41.4 L123.5,41.0 L127.0,40.7 L130.5,40.5 L134.0,40.2 L137.5,40.0 L141.0,39.8 L144.5,39.6 L148.0,39.4 L151.5,39.3 L155.0,39.2 L158.5,39.1 L162.0,39.0 L165.5,38.9 L169.0,38.9 L172.5,38.9 L176.0,38.9 L179.5,38.9 L183.0,38.9 L186.5,39.0 L190.0,39.1 L193.5,39.2 L197.0,39.4 L200.5,39.5 L204.0,39.7 L207.5,39.9 L211.0,40.1 L214.5,40.4 L218.0,40.6 L221.5,40.9 L225.0,41.2 L228.5,41.6 L232.0,41.9 L235.5,42.3 L239.0,42.7 L242.5,43.1 L246.0,43.5 L249.5,44.0 L253.0,44.5 L256.5,45.0 L260.0,45.5 L263.5,46.1 L267.0,46.6 L270.5,47.2 L274.0,47.8" fill="none" class="s-accent" stroke-width="3.0"/><line x1="277.5" y1="258" x2="277.5" y2="266" class="s-line" stroke-width="1"/><path d="M277.5,48.0 L281.0,47.3 L284.5,46.6 L288.0,45.9 L291.5,45.4 L295.0,44.8 L298.5,44.3 L302.0,43.9 L305.5,43.5 L309.0,43.2 L312.5,42.9 L316.0,42.6 L319.5,42.5 L323.0,42.3 L326.5,42.3 L330.0,42.2 L333.5,42.3 L337.0,42.3 L340.5,42.5 L344.0,42.6 L347.5,42.9 L351.0,43.2 L354.5,43.5 L358.0,43.9" fill="none" class="s-green" stroke-width="3.0"/><line x1="361.5" y1="258" x2="361.5" y2="266" class="s-line" stroke-width="1"/><path d="M361.5,43.8 L365.0,43.3 L368.5,42.7 L372.0,42.2 L375.5,41.7 L379.0,41.2 L382.5,40.7 L386.0,40.3 L389.5,39.8 L393.0,39.4 L396.5,39.0 L400.0,38.6 L403.5,38.2 L407.0,37.8 L410.5,37.5 L414.0,37.1 L417.5,36.8 L421.0,36.5 L424.5,36.2 L428.0,35.9 L431.5,35.6 L435.0,35.3 L438.5,35.1 L442.0,34.9 L445.5,34.6 L449.0,34.4 L452.5,34.2 L456.0,34.1 L459.5,33.9 L463.0,33.7 L466.5,33.6 L470.0,33.5 L473.5,33.4 L477.0,33.3 L480.5,33.2 L484.0,33.2 L487.5,33.1 L491.0,33.1 L494.5,33.0 L498.0,33.0 L501.5,33.0 L505.0,33.1 L508.5,33.1 L512.0,33.2 L515.5,33.2 L519.0,33.3 L522.5,33.4 L526.0,33.5 L529.5,33.6 L533.0,33.7 L536.5,33.9 L540.0,34.1 L543.5,34.2 L547.0,34.4 L550.5,34.6 L554.0,34.9 L557.5,35.1 L561.0,35.3 L564.5,35.6 L568.0,35.9 L571.5,36.2 L575.0,36.5 L578.5,36.8 L582.0,37.1 L585.5,37.5 L589.0,37.8 L592.5,38.2 L596.0,38.6 L599.5,39.0 L603.0,39.4 L606.5,39.8 L610.0,40.3" fill="none" class="s-amber" stroke-width="3.0"/><line x1="50" y1="262" x2="610" y2="262" class="s-line" stroke-width="1"/><line x1="50.0" y1="262" x2="277.5" y2="262" class="s-accent" stroke-width="4"/><line x1="277.5" y1="262" x2="361.5" y2="262" class="s-green" stroke-width="4"/><line x1="361.5" y1="262" x2="610.0" y2="262" class="s-amber" stroke-width="4"/><text x="173.2" y="28.9" text-anchor="middle" font-size="12" class="accent">A: b=5.0, σ=.34</text><text x="330.0" y="32.2" text-anchor="middle" font-size="12" class="green">B: b=4.5, σ=.22</text><text x="498.0" y="23.0" text-anchor="middle" font-size="12" class="amber">C: b=6.0, σ=.42</text><text x="330" y="292" text-anchor="middle" font-size="12">embedding space (winning intervals = power-diagram cells)</text><text x="18" y="150" font-size="12" transform="rotate(-90 18 150)" text-anchor="middle">score(x)</text></svg>
