<svg xmlns="http://www.w3.org/2000/svg" viewBox="0 0 640 300" width="640" height="300" aria-label="The paraboloid lift: queries lifted to y equals x squared, two lifted sites, and the radical axis cutting the parabola at the two in-space boundary points"><style>text{font-family:ui-monospace,Menlo,monospace;fill:#334155;}.dark{fill:#1c1917}.muted{fill:#64748b}.accent{fill:#3b82f6}.green{fill:#16a34a}.amber{fill:#d97706}.red{fill:#ef4444}.s-neutral{stroke:#64748b}.s-line{stroke:#94a3b8}.s-accent{stroke:#3b82f6}.s-green{stroke:#16a34a}.s-amber{stroke:#d97706}.s-red{stroke:#dc2626}</style><line x1="50.0" y1="109.8" x2="610.0" y2="109.8" class="s-line" stroke-width="1"/><line x1="50.0" y1="109.8" x2="316.1" y2="109.8" class="s-amber" stroke-width="4"/><line x1="316.1" y1="109.8" x2="492.4" y2="109.8" class="s-accent" stroke-width="4"/><line x1="492.4" y1="109.8" x2="610.0" y2="109.8" class="s-amber" stroke-width="4"/><path d="M50.0,23.3 L53.5,25.5 L57.0,27.6 L60.5,29.7 L64.0,31.8 L67.5,33.8 L71.0,35.8 L74.5,37.8 L78.0,39.8 L81.5,41.7 L85.0,43.6 L88.5,45.5 L92.0,47.3 L95.5,49.2 L99.0,51.0 L102.5,52.7 L106.0,54.5 L109.5,56.2 L113.0,57.9 L116.5,59.5 L120.0,61.2 L123.5,62.8 L127.0,64.4 L130.5,65.9 L134.0,67.4 L137.5,68.9 L141.0,70.4 L144.5,71.9 L148.0,73.3 L151.5,74.7 L155.0,76.0 L158.5,77.4 L162.0,78.7 L165.5,80.0 L169.0,81.2 L172.5,82.4 L176.0,83.7 L179.5,84.8 L183.0,86.0 L186.5,87.1 L190.0,88.2 L193.5,89.3 L197.0,90.3 L200.5,91.3 L204.0,92.3 L207.5,93.3 L211.0,94.2 L214.5,95.1 L218.0,96.0 L221.5,96.8 L225.0,97.6 L228.5,98.4 L232.0,99.2 L235.5,100.0 L239.0,100.7 L242.5,101.4 L246.0,102.0 L249.5,102.7 L253.0,103.3 L256.5,103.8 L260.0,104.4 L263.5,104.9 L267.0,105.4 L270.5,105.9 L274.0,106.3 L277.5,106.8 L281.0,107.2 L284.5,107.5 L288.0,107.9 L291.5,108.2 L295.0,108.5 L298.5,108.7 L302.0,108.9 L305.5,109.1 L309.0,109.3 L312.5,109.5 L316.0,109.6 L319.5,109.7 L323.0,109.8 L326.5,109.8 L330.0,109.8 L333.5,109.8 L337.0,109.8 L340.5,109.7 L344.0,109.6 L347.5,109.5 L351.0,109.3 L354.5,109.1 L358.0,108.9 L361.5,108.7 L365.0,108.5 L368.5,108.2 L372.0,107.9 L375.5,107.5 L379.0,107.2 L382.5,106.8 L386.0,106.3 L389.5,105.9 L393.0,105.4 L396.5,104.9 L400.0,104.4 L403.5,103.8 L407.0,103.3 L410.5,102.7 L414.0,102.0 L417.5,101.4 L421.0,100.7 L424.5,100.0 L428.0,99.2 L431.5,98.4 L435.0,97.6 L438.5,96.8 L442.0,96.0 L445.5,95.1 L449.0,94.2 L452.5,93.3 L456.0,92.3 L459.5,91.3 L463.0,90.3 L466.5,89.3 L470.0,88.2 L473.5,87.1 L477.0,86.0 L480.5,84.8 L484.0,83.7 L487.5,82.4 L491.0,81.2 L494.5,80.0 L498.0,78.7 L501.5,77.4 L505.0,76.0 L508.5,74.7 L512.0,73.3 L515.5,71.9 L519.0,70.4 L522.5,68.9 L526.0,67.4 L529.5,65.9 L533.0,64.4 L536.5,62.8 L540.0,61.2 L543.5,59.5 L547.0,57.9 L550.5,56.2 L554.0,54.5 L557.5,52.7 L561.0,51.0 L564.5,49.2 L568.0,47.3 L571.5,45.5 L575.0,43.6 L578.5,41.7 L582.0,39.8 L585.5,37.8 L589.0,35.8 L592.5,33.8 L596.0,31.8 L599.5,29.7 L603.0,27.6 L606.5,25.5 L610.0,23.3" fill="none" class="s-neutral" stroke-width="2.0"/><path d="M50.0,153.2 L610.0,61.4" fill="none" class="s-red" stroke-width="1.8" stroke-dasharray="6 4"/><path d="M316.1,109.6 L316.1,109.8" fill="none" class="s-line" stroke-width="1.0" stroke-dasharray="2 3"/><circle cx="316.1" cy="109.6" r="4" fill="none" class="s-red" stroke-width="2"/><path d="M492.4,80.7 L492.4,109.8" fill="none" class="s-line" stroke-width="1.0" stroke-dasharray="2 3"/><circle cx="492.4" cy="80.7" r="4" fill="none" class="s-red" stroke-width="2"/><circle cx="524.8" cy="240.6" r="5" class="accent"/><text x="516" y="244.6" font-size="12" text-anchor="end" class="accent">site T (σ=0.5, b=5)</text><circle cx="279.3" cy="132.5" r="5" class="amber"/><text x="269.3" y="162" font-size="12" text-anchor="end" class="amber">site W (σ=1.2, b=4)</text><text x="554.0" y="42.5" font-size="12" text-anchor="end">lift y = ‖x‖²</text><text x="608.0" y="53.4" font-size="12" text-anchor="end" class="red">radical axis: a hyperplane in E × ℝ</text><text x="404.3" y="101.8" font-size="12" text-anchor="middle" class="accent">T wins</text><text x="183.1" y="101.8" font-size="12" text-anchor="middle" class="amber">W wins</text><text x="551.2" y="101.8" font-size="12" text-anchor="middle" class="amber">W wins</text><text x="330" y="294" text-anchor="middle" font-size="12">unequal σ: two boundary points in E, one straight line upstairs</text></svg>
