<svg xmlns="http://www.w3.org/2000/svg" viewBox="0 0 640 302" width="640" height="302" aria-label="A false-center deviation: truthful S loses the hotspot and pays nothing; S declaring its center at the hotspot wins it and pays more than its true value there"><style>text{font-family:ui-monospace,Menlo,monospace;fill:#334155;}.muted{fill:#64748b}.accent{fill:#3b82f6}.amber{fill:#d97706}.red{fill:#ef4444}.s-neutral{stroke:#64748b}.s-line{stroke:#94a3b8}.s-accent{stroke:#3b82f6}.s-amber{stroke:#d97706}.s-red{stroke:#dc2626}</style><clipPath id="p0"><rect x="24" y="36" width="260" height="182"/></clipPath><rect x="24" y="36" width="260" height="182" fill="#3b82f6" fill-opacity="0.08" class="s-line" stroke-width="1"/><circle cx="386.1" cy="127.0" r="224.6" clip-path="url(#p0)" fill="#d97706" fill-opacity="0.15" class="s-amber" stroke-width="2"/><circle cx="89.0" cy="127.0" r="4.5" class="accent"/><text x="80" y="131" font-size="12" text-anchor="end" class="accent">S</text><circle cx="219.0" cy="127.0" r="4.5" class="amber"/><text x="228" y="131" font-size="12" text-anchor="start" class="amber">R</text><path d="M181.5,89.5 L191.5,99.5 M181.5,99.5 L191.5,89.5" class="s-red" stroke-width="2.2" fill="none"/><text x="186" y="84" font-size="12" text-anchor="middle" class="red">x</text><text x="154" y="26" font-size="12" text-anchor="middle">truthful</text><text x="154" y="238" font-size="12" text-anchor="middle" class="muted">R wins x, S pays 0</text><text x="154" y="255" font-size="12" text-anchor="middle">utility 0</text><clipPath id="p1"><rect x="356" y="36" width="260" height="182"/></clipPath><rect x="356" y="36" width="260" height="182" fill="#3b82f6" fill-opacity="0.08" class="s-line" stroke-width="1"/><circle cx="592.8" cy="168.8" r="83.6" clip-path="url(#p1)" fill="#d97706" fill-opacity="0.15" class="s-amber" stroke-width="2"/><circle cx="421.0" cy="127.0" r="4.5" class="accent"/><text x="412" y="131" font-size="12" text-anchor="end" class="accent">S</text><circle cx="551.0" cy="127.0" r="4.5" class="amber"/><text x="560" y="131" font-size="12" text-anchor="start" class="amber">R</text><path d="M513.5,89.5 L523.5,99.5 M513.5,99.5 L523.5,89.5" class="s-red" stroke-width="2.2" fill="none"/><text x="518" y="84" font-size="12" text-anchor="middle" class="red">x</text><path d="M429.0,123.0 L508.5,102.5" class="s-accent" stroke-width="1.4" stroke-dasharray="5 4" fill="none"/><path d="M508.5,102.5 l-3.5,8 l9,-2.5 Z" fill="#3b82f6"/><circle cx="518.5" cy="94.5" r="8.5" fill="none" class="s-accent" stroke-width="1.6"/><text x="486" y="26" font-size="12" text-anchor="middle">false center</text><text x="486" y="238" font-size="12" text-anchor="middle" class="muted">S wins x: earns 0.08, pays 1.25</text><text x="486" y="255" font-size="12" text-anchor="middle">utility −1.17</text><text x="320" y="290" font-size="11" text-anchor="middle" class="muted">S: b=4, σ=0.8 · R: b=5, σ=0.6</text></svg>
