<svg xmlns="http://www.w3.org/2000/svg" viewBox="0 0 1200 980" font-family="system-ui, sans-serif" font-size="13">
  <style>
    .label { font-weight: 700; font-size: 15px; }
    .stack-name { font-weight: 600; font-size: 13px; fill: #333; }
    .stack-type { font-size: 11px; fill: #888; font-style: italic; }
    .step { fill: #fff; stroke: #666; stroke-width: 1.2; rx: 4; }
    .step-nil { fill: #f5f5f5; stroke: #ccc; stroke-width: 1; rx: 4; }
    .step-broken { fill: #ffebee; stroke: #c62828; stroke-width: 1.5; rx: 4; stroke-dasharray: 5,3; }
    .step-partial { fill: #fff3e0; stroke: #e65100; stroke-width: 1.5; rx: 4; stroke-dasharray: 5,3; }
    .role { text-anchor: middle; dominant-baseline: central; font-weight: 500; font-size: 12px; }
    .mech { text-anchor: middle; font-size: 10px; fill: #555; }
    .mech-nil { text-anchor: middle; font-size: 10px; fill: #bbb; font-style: italic; }
    .mech-broken { text-anchor: middle; font-size: 10px; fill: #c62828; }
    .mech-partial { text-anchor: middle; font-size: 10px; fill: #e65100; }
    .arrow { stroke: #999; stroke-width: 1; fill: none; marker-end: url(#ah); }
    .bk-ok { stroke: #666; stroke-width: 1.2; fill: none; marker-end: url(#ah); }
    .bk-broken { stroke: #c62828; stroke-width: 1.2; fill: none; stroke-dasharray: 5,3; marker-end: url(#ah-r); }
    .bk-nil { stroke: #ccc; stroke-width: 1; fill: none; stroke-dasharray: 3,3; }
    .bk-partial { stroke: #e65100; stroke-width: 1.2; fill: none; stroke-dasharray: 5,3; marker-end: url(#ah-o); }
    .bk-label { font-size: 10px; fill: #666; }
    .bk-label-broken { font-size: 10px; fill: #c62828; font-style: italic; }
    .bk-label-nil { font-size: 10px; fill: #bbb; font-style: italic; }
    .bk-label-partial { font-size: 10px; fill: #e65100; font-style: italic; }
    .section { rx: 6; }
  </style>
  <defs>
    <marker id="ah" markerWidth="7" markerHeight="5" refX="7" refY="2.5" orient="auto">
      <path d="M0,0 L7,2.5 L0,5" fill="#666"/>
    </marker>
    <marker id="ah-r" markerWidth="7" markerHeight="5" refX="7" refY="2.5" orient="auto">
      <path d="M0,0 L7,2.5 L0,5" fill="#c62828"/>
    </marker>
    <marker id="ah-o" markerWidth="7" markerHeight="5" refX="7" refY="2.5" orient="auto">
      <path d="M0,0 L7,2.5 L0,5" fill="#e65100"/>
    </marker>
  </defs>

  <!-- ==================== DECISION CYCLE ==================== -->
  <text class="label" x="16" y="20">Decision Cycle</text>
  <rect class="section" x="8" y="28" width="1184" height="72" fill="#e3f2fd" stroke="none"/>

  <!-- Stack name -->
  <text class="stack-name" x="16" y="52">Decision Cycle</text>
  <text class="stack-type" x="16" y="65">top-level pipeline</text>

  <!-- Perceive -->
  <rect class="step" x="160" y="36" width="145" height="32"/>
  <text class="role" x="232" y="49">Perceive</text>
  <text class="mech" x="232" y="75">Input + SVS</text>
  <line class="arrow" x1="305" y1="52" x2="315" y2="52"/>

  <!-- Cache -->
  <rect class="step" x="315" y="36" width="145" height="32"/>
  <text class="role" x="387" y="49">Cache</text>
  <text class="mech" x="387" y="75">Working Memory</text>
  <line class="arrow" x1="460" y1="52" x2="470" y2="52"/>

  <!-- Filter -->
  <rect class="step" x="470" y="36" width="145" height="32"/>
  <text class="role" x="542" y="49">Filter</text>
  <text class="mech" x="542" y="75">Elab + Proposal</text>
  <line class="arrow" x1="615" y1="52" x2="625" y2="52"/>

  <!-- Attend -->
  <rect class="step" x="625" y="36" width="145" height="32"/>
  <text class="role" x="697" y="49">Attend</text>
  <text class="mech" x="697" y="75">Eval + Decision</text>
  <line class="arrow" x1="770" y1="52" x2="780" y2="52"/>

  <!-- Remember -->
  <rect class="step" x="780" y="36" width="145" height="32"/>
  <text class="role" x="852" y="49">Remember</text>
  <text class="mech" x="852" y="75">Output-link</text>

  <!-- Consolidate backward arrow: partial -->
  <path class="bk-partial" d="M852,68 L852,88 Q852,93 847,93 L237,93 Q232,93 232,88 L232,68"/>
  <text class="bk-label-partial" x="940" y="92">Consolidate — partial (see below)</text>


  <!-- ==================== CACHE STACKS ==================== -->
  <text class="label" x="16" y="126">Cache Stacks</text>

  <!-- ---------- Working Memory ---------- -->
  <rect class="section" x="8" y="134" width="1184" height="72" fill="#e8f5e9" stroke="none"/>
  <text class="stack-name" x="16" y="158">Working Memory</text>
  <text class="stack-type" x="16" y="171">symbolic, central</text>

  <rect class="step" x="160" y="142" width="145" height="32"/>
  <text class="role" x="232" y="155">Perceive</text>
  <text class="mech" x="232" y="181">Input-link + buffers</text>
  <line class="arrow" x1="305" y1="158" x2="315" y2="158"/>

  <rect class="step" x="315" y="142" width="145" height="32"/>
  <text class="role" x="387" y="155">Cache</text>
  <text class="mech" x="387" y="181">WME graph</text>
  <line class="arrow" x1="460" y1="158" x2="470" y2="158"/>

  <rect class="step" x="470" y="142" width="145" height="32"/>
  <text class="role" x="542" y="155">Filter</text>
  <text class="mech" x="542" y="181">Truth maintenance</text>
  <line class="arrow" x1="615" y1="158" x2="625" y2="158"/>

  <rect class="step-nil" x="625" y="142" width="145" height="32"/>
  <text class="role" x="697" y="155">Attend</text>
  <text class="mech-nil" x="697" y="181">nil (expected)</text>
  <line class="arrow" x1="770" y1="158" x2="780" y2="158"/>

  <rect class="step" x="780" y="142" width="145" height="32"/>
  <text class="role" x="852" y="155">Remember</text>
  <text class="mech" x="852" y="181">O-supported persist</text>

  <path class="bk-nil" d="M852,174 L852,194 L232,194"/>
  <text class="bk-label-nil" x="940" y="198">Consolidate — nil (expected)</text>

  <!-- ---------- Procedural Memory ---------- -->
  <rect class="section" x="8" y="210" width="1184" height="72" fill="#e8f5e9" stroke="none"/>
  <text class="stack-name" x="16" y="234">Procedural Memory</text>
  <text class="stack-type" x="16" y="247">RETE network</text>

  <rect class="step" x="160" y="218" width="145" height="32"/>
  <text class="role" x="232" y="231">Perceive</text>
  <text class="mech" x="232" y="257">WME deltas</text>
  <line class="arrow" x1="305" y1="234" x2="315" y2="234"/>

  <rect class="step" x="315" y="218" width="145" height="32"/>
  <text class="role" x="387" y="231">Cache</text>
  <text class="mech" x="387" y="257">Alpha/beta memory</text>
  <line class="arrow" x1="460" y1="234" x2="470" y2="234"/>

  <rect class="step" x="470" y="218" width="145" height="32"/>
  <text class="role" x="542" y="231">Filter</text>
  <text class="mech" x="542" y="257">Join nodes</text>
  <line class="arrow" x1="615" y1="234" x2="625" y2="234"/>

  <rect class="step-nil" x="625" y="218" width="145" height="32"/>
  <text class="role" x="697" y="231">Attend</text>
  <text class="mech-nil" x="697" y="257">nil (parallel fire)</text>
  <line class="arrow" x1="770" y1="234" x2="780" y2="234"/>

  <rect class="step" x="780" y="218" width="145" height="32"/>
  <text class="role" x="852" y="231">Remember</text>
  <text class="mech" x="852" y="257">WMEs + preferences</text>

  <path class="bk-ok" d="M852,250 L852,270 Q852,275 847,275 L237,275 Q232,275 232,270 L232,250"/>
  <text class="bk-label" x="940" y="274">Consolidate — Chunking + RL</text>

  <!-- ---------- Semantic Memory ---------- -->
  <rect class="section" x="8" y="286" width="1184" height="72" fill="#e8f5e9" stroke="none"/>
  <text class="stack-name" x="16" y="310">Semantic Memory</text>
  <text class="stack-type" x="16" y="323">SMEM, graph facts</text>

  <rect class="step" x="160" y="294" width="145" height="32"/>
  <text class="role" x="232" y="307">Perceive</text>
  <text class="mech" x="232" y="333">Retrieval cue</text>
  <line class="arrow" x1="305" y1="310" x2="315" y2="310"/>

  <rect class="step" x="315" y="294" width="145" height="32"/>
  <text class="role" x="387" y="307">Cache</text>
  <text class="mech" x="387" y="333">Graph structures</text>
  <line class="arrow" x1="460" y1="310" x2="470" y2="310"/>

  <rect class="step" x="470" y="294" width="145" height="32"/>
  <text class="role" x="542" y="307">Filter</text>
  <text class="mech" x="542" y="333">Base-level activation</text>
  <line class="arrow" x1="615" y1="310" x2="625" y2="310"/>

  <rect class="step" x="625" y="294" width="145" height="32"/>
  <text class="role" x="697" y="307">Attend</text>
  <text class="mech" x="697" y="333">Spreading activation</text>
  <line class="arrow" x1="770" y1="310" x2="780" y2="310"/>

  <rect class="step" x="780" y="294" width="145" height="32"/>
  <text class="role" x="852" y="307">Remember</text>
  <text class="mech" x="852" y="333">Buffer → WM</text>

  <path class="bk-broken" d="M852,326 L852,346 Q852,351 847,351 L237,351 Q232,351 232,346 L232,326"/>
  <text class="bk-label-broken" x="940" y="350">Consolidate — missing (no auto-learning)</text>

  <!-- ---------- Episodic Memory ---------- -->
  <rect class="section" x="8" y="362" width="1184" height="72" fill="#e8f5e9" stroke="none"/>
  <text class="stack-name" x="16" y="386">Episodic Memory</text>
  <text class="stack-type" x="16" y="399">EPMEM, snapshots</text>

  <rect class="step" x="160" y="370" width="145" height="32"/>
  <text class="role" x="232" y="383">Perceive</text>
  <text class="mech" x="232" y="409">Partial cue</text>
  <line class="arrow" x1="305" y1="386" x2="315" y2="386"/>

  <rect class="step" x="315" y="370" width="145" height="32"/>
  <text class="role" x="387" y="383">Cache</text>
  <text class="mech" x="387" y="409">Change-deltas</text>
  <line class="arrow" x1="460" y1="386" x2="470" y2="386"/>

  <rect class="step" x="470" y="370" width="145" height="32"/>
  <text class="role" x="542" y="383">Filter</text>
  <text class="mech" x="542" y="409">Aspect control</text>
  <line class="arrow" x1="615" y1="386" x2="625" y2="386"/>

  <rect class="step" x="625" y="370" width="145" height="32"/>
  <text class="role" x="697" y="383">Attend</text>
  <text class="mech" x="697" y="409">Recency + temporal</text>
  <line class="arrow" x1="770" y1="386" x2="780" y2="386"/>

  <rect class="step" x="780" y="370" width="145" height="32"/>
  <text class="role" x="852" y="383">Remember</text>
  <text class="mech" x="852" y="409">Buffer → WM</text>

  <path class="bk-broken" d="M852,402 L852,422 Q852,427 847,427 L237,427 Q232,427 232,422 L232,402"/>
  <text class="bk-label-broken" x="940" y="426">Consolidate — missing (no generalization)</text>

  <!-- ---------- SVS ---------- -->
  <rect class="section" x="8" y="438" width="1184" height="72" fill="#e8f5e9" stroke="none"/>
  <text class="stack-name" x="16" y="462">Spatial-Visual System</text>
  <text class="stack-type" x="16" y="475">SVS, non-symbolic</text>

  <rect class="step" x="160" y="446" width="145" height="32"/>
  <text class="role" x="232" y="459">Perceive</text>
  <text class="mech" x="232" y="485">Visual perception</text>
  <line class="arrow" x1="305" y1="462" x2="315" y2="462"/>

  <rect class="step" x="315" y="446" width="145" height="32"/>
  <text class="role" x="387" y="459">Cache</text>
  <text class="mech" x="387" y="485">Scene graph</text>
  <line class="arrow" x1="460" y1="462" x2="470" y2="462"/>

  <rect class="step" x="470" y="446" width="145" height="32"/>
  <text class="role" x="542" y="459">Filter</text>
  <text class="mech" x="542" y="485">SVS filter commands</text>
  <line class="arrow" x1="615" y1="462" x2="625" y2="462"/>

  <rect class="step" x="625" y="446" width="145" height="32"/>
  <text class="role" x="697" y="459">Attend</text>
  <text class="mech" x="697" y="485">Mental imagery</text>
  <line class="arrow" x1="770" y1="462" x2="780" y2="462"/>

  <rect class="step" x="780" y="446" width="145" height="32"/>
  <text class="role" x="852" y="459">Remember</text>
  <text class="mech" x="852" y="485">Perceptual LTM</text>

  <path class="bk-partial" d="M852,478 L852,498 Q852,503 847,503 L237,503 Q232,503 232,498 L232,478"/>
  <text class="bk-label-partial" x="940" y="502">Consolidate — partial (experimental)</text>


  <!-- ==================== CONSOLIDATE STACKS ==================== -->
  <text class="label" x="16" y="534">Consolidate Stacks</text>

  <!-- ---------- Chunking ---------- -->
  <rect class="section" x="8" y="542" width="1184" height="72" fill="#fff3e0" stroke="none"/>
  <text class="stack-name" x="16" y="566">Chunking</text>
  <text class="stack-type" x="16" y="579">procedural learning</text>

  <rect class="step" x="160" y="550" width="145" height="32"/>
  <text class="role" x="232" y="563">Perceive</text>
  <text class="mech" x="232" y="589">Impasse resolution</text>
  <line class="arrow" x1="305" y1="566" x2="315" y2="566"/>

  <rect class="step" x="315" y="550" width="145" height="32"/>
  <text class="role" x="387" y="563">Cache</text>
  <text class="mech" x="387" y="589">Backtracing</text>
  <line class="arrow" x1="460" y1="566" x2="470" y2="566"/>

  <rect class="step" x="470" y="550" width="145" height="32"/>
  <text class="role" x="542" y="563">Filter</text>
  <text class="mech" x="542" y="589">EBBS</text>
  <line class="arrow" x1="615" y1="566" x2="625" y2="566"/>

  <rect class="step" x="625" y="550" width="145" height="32"/>
  <text class="role" x="697" y="563">Attend</text>
  <text class="mech" x="697" y="589">Result selection</text>
  <line class="arrow" x1="770" y1="566" x2="780" y2="566"/>

  <rect class="step" x="780" y="550" width="145" height="32"/>
  <text class="role" x="852" y="563">Remember</text>
  <text class="mech" x="852" y="589">New rule → RETE</text>

  <path class="bk-broken" d="M852,582 L852,602 Q852,607 847,607 L237,607 Q232,607 232,602 L232,582"/>
  <text class="bk-label-broken" x="940" y="606">Consolidate — missing (no self-review)</text>

  <!-- ---------- Reinforcement Learning ---------- -->
  <rect class="section" x="8" y="618" width="1184" height="72" fill="#fff3e0" stroke="none"/>
  <text class="stack-name" x="16" y="642">Reinforcement Learning</text>
  <text class="stack-type" x="16" y="655">selection tuning</text>

  <rect class="step" x="160" y="626" width="145" height="32"/>
  <text class="role" x="232" y="639">Perceive</text>
  <text class="mech" x="232" y="665">Reward signal</text>
  <line class="arrow" x1="305" y1="642" x2="315" y2="642"/>

  <rect class="step" x="315" y="626" width="145" height="32"/>
  <text class="role" x="387" y="639">Cache</text>
  <text class="mech" x="387" y="665">State-operator pair</text>
  <line class="arrow" x1="460" y1="642" x2="470" y2="642"/>

  <rect class="step" x="470" y="626" width="145" height="32"/>
  <text class="role" x="542" y="639">Filter</text>
  <text class="mech" x="542" y="665">Eligibility traces</text>
  <line class="arrow" x1="615" y1="642" x2="625" y2="642"/>

  <rect class="step" x="625" y="626" width="145" height="32"/>
  <text class="role" x="697" y="639">Attend</text>
  <text class="mech" x="697" y="665">TD update</text>
  <line class="arrow" x1="770" y1="642" x2="780" y2="642"/>

  <rect class="step" x="780" y="626" width="145" height="32"/>
  <text class="role" x="852" y="639">Remember</text>
  <text class="mech" x="852" y="665">Updated Q-value</text>

  <path class="bk-broken" d="M852,658 L852,678 Q852,683 847,683 L237,683 Q232,683 232,678 L232,658"/>
  <text class="bk-label-broken" x="940" y="682">Consolidate — missing (fixed hyperparams)</text>

  <!-- ---------- Semantic Learning ---------- -->
  <rect class="section" x="8" y="694" width="1184" height="72" fill="#fff3e0" stroke="none"/>
  <text class="stack-name" x="16" y="718">Semantic Learning</text>
  <text class="stack-type" x="16" y="731">fact storage</text>

  <rect class="step" x="160" y="702" width="145" height="32"/>
  <text class="role" x="232" y="715">Perceive</text>
  <text class="mech" x="232" y="741">Fact in WM</text>
  <line class="arrow" x1="305" y1="718" x2="315" y2="718"/>

  <rect class="step" x="315" y="702" width="145" height="32"/>
  <text class="role" x="387" y="715">Cache</text>
  <text class="mech" x="387" y="741">Graph structure</text>
  <line class="arrow" x1="460" y1="718" x2="470" y2="718"/>

  <rect class="step-broken" x="470" y="702" width="145" height="32"/>
  <text class="role" x="542" y="715">Filter</text>
  <text class="mech-broken" x="542" y="741">missing (no gating)</text>
  <line class="arrow" x1="615" y1="718" x2="625" y2="718"/>

  <rect class="step-broken" x="625" y="702" width="145" height="32"/>
  <text class="role" x="697" y="715">Attend</text>
  <text class="mech-broken" x="697" y="741">missing (no priority)</text>
  <line class="arrow" x1="770" y1="718" x2="780" y2="718"/>

  <rect class="step" x="780" y="702" width="145" height="32"/>
  <text class="role" x="852" y="715">Remember</text>
  <text class="mech" x="852" y="741">store() → SMEM</text>

  <path class="bk-broken" d="M852,734 L852,754 Q852,759 847,759 L237,759 Q232,759 232,754 L232,734"/>
  <text class="bk-label-broken" x="940" y="758">Consolidate — missing (no self-update)</text>

  <!-- ---------- Episodic Learning ---------- -->
  <rect class="section" x="8" y="770" width="1184" height="72" fill="#fff3e0" stroke="none"/>
  <text class="stack-name" x="16" y="794">Episodic Learning</text>
  <text class="stack-type" x="16" y="807">snapshot storage</text>

  <rect class="step" x="160" y="778" width="145" height="32"/>
  <text class="role" x="232" y="791">Perceive</text>
  <text class="mech" x="232" y="817">Auto per cycle</text>
  <line class="arrow" x1="305" y1="794" x2="315" y2="794"/>

  <rect class="step" x="315" y="778" width="145" height="32"/>
  <text class="role" x="387" y="791">Cache</text>
  <text class="mech" x="387" y="817">Topstate snapshot</text>
  <line class="arrow" x1="460" y1="794" x2="470" y2="794"/>

  <rect class="step" x="470" y="778" width="145" height="32"/>
  <text class="role" x="542" y="791">Filter</text>
  <text class="mech" x="542" y="817">Aspect exclusion</text>
  <line class="arrow" x1="615" y1="794" x2="625" y2="794"/>

  <rect class="step-broken" x="625" y="778" width="145" height="32"/>
  <text class="role" x="697" y="791">Attend</text>
  <text class="mech-broken" x="697" y="817">missing (records all)</text>
  <line class="arrow" x1="770" y1="794" x2="780" y2="794"/>

  <rect class="step" x="780" y="778" width="145" height="32"/>
  <text class="role" x="852" y="791">Remember</text>
  <text class="mech" x="852" y="817">Episode → EPMEM</text>

  <path class="bk-broken" d="M852,810 L852,830 Q852,835 847,835 L237,835 Q232,835 232,830 L232,810"/>
  <text class="bk-label-broken" x="940" y="834">Consolidate — missing (no self-update)</text>

  <!-- ==================== LEGEND ==================== -->
  <g transform="translate(16, 860)">
    <rect class="step" x="0" y="0" width="60" height="18"/>
    <text font-size="10" text-anchor="middle" dominant-baseline="central" x="30" y="9">Functional</text>

    <rect class="step-nil" x="80" y="0" width="60" height="18"/>
    <text font-size="10" text-anchor="middle" dominant-baseline="central" x="110" y="9" fill="#bbb">Nil</text>

    <rect class="step-broken" x="160" y="0" width="60" height="18"/>
    <text font-size="10" text-anchor="middle" dominant-baseline="central" x="190" y="9" fill="#c62828">Missing</text>

    <rect class="step-partial" x="240" y="0" width="60" height="18"/>
    <text font-size="10" text-anchor="middle" dominant-baseline="central" x="270" y="9" fill="#e65100">Partial</text>

    <line x1="340" y1="9" x2="385" y2="9" class="bk-ok"/>
    <text font-size="10" x="395" y="13">Backward pass</text>

    <line x1="490" y1="9" x2="535" y2="9" class="bk-broken"/>
    <text font-size="10" x="545" y="13" fill="#c62828">Missing backward pass</text>
  </g>

  <!-- Section color legend -->
  <g transform="translate(16, 890)">
    <rect x="0" y="0" width="14" height="14" fill="#e3f2fd" rx="2"/>
    <text font-size="10" x="20" y="11">Top-level pipeline</text>

    <rect x="120" y="0" width="14" height="14" fill="#e8f5e9" rx="2"/>
    <text font-size="10" x="140" y="11">Cache stack (memory)</text>

    <rect x="280" y="0" width="14" height="14" fill="#fff3e0" rx="2"/>
    <text font-size="10" x="300" y="11">Consolidate stack (learning)</text>
  </g>
</svg>
